M48
; DRILL file {KiCad 8.0.6} date 2025-06-16T01:38:43+0900
; FORMAT={-:-/ absolute / metric / decimal}
; #@! TF.CreationDate,2025-06-16T01:38:43+09:00
; #@! TF.GenerationSoftware,Kicad,Pcbnew,8.0.6
; #@! TF.FileFunction,Plated,1,2,PTH
FMAT,2
METRIC
; #@! TA.AperFunction,Plated,PTH,ViaDrill
T1C0.300
; #@! TA.AperFunction,Plated,PTH,ComponentDrill
T2C1.000
%
G90
G05
T1
X51.5Y-51.5
X51.5Y-61.5
X51.5Y-71.5
X51.5Y-81.5
X51.5Y-91.5
X51.5Y-99.5
X55.7Y-56.4
X55.7Y-63.0
X55.7Y-69.6
X55.7Y-76.2
X55.7Y-82.8
X55.7Y-89.4
X56.4Y-90.1
X57.1Y-56.4
X57.1Y-63.0
X57.1Y-69.6
X57.1Y-76.2
X57.1Y-82.8
X57.1Y-89.4
X59.7Y-93.9
X61.5Y-51.5
X61.5Y-99.5
X62.3Y-56.4
X62.3Y-63.0
X62.3Y-69.6
X62.3Y-76.2
X62.3Y-82.8
X62.3Y-89.4
X63.0Y-90.1
X63.7Y-56.4
X63.7Y-63.0
X63.7Y-69.6
X63.7Y-76.2
X63.7Y-82.8
X63.7Y-89.4
X66.3Y-93.9
X68.9Y-56.4
X68.9Y-63.0
X68.9Y-69.6
X68.9Y-76.2
X68.9Y-82.8
X68.9Y-89.4
X69.6Y-90.1
X70.3Y-56.4
X70.3Y-63.0
X70.3Y-69.6
X70.3Y-76.2
X70.3Y-82.8
X70.3Y-89.4
X71.5Y-51.5
X71.5Y-99.5
X72.9Y-93.9
X75.5Y-56.4
X75.5Y-63.0
X75.5Y-69.6
X75.5Y-76.2
X75.5Y-82.8
X75.5Y-89.4
X76.2Y-90.1
X76.9Y-56.4
X76.9Y-63.0
X76.9Y-69.6
X76.9Y-76.2
X76.9Y-82.8
X76.9Y-89.4
X79.5Y-93.9
X81.5Y-51.5
X81.5Y-99.5
X82.1Y-56.4
X82.1Y-63.0
X82.1Y-69.6
X82.1Y-76.2
X82.1Y-82.8
X82.1Y-89.4
X82.8Y-90.1
X83.5Y-56.4
X83.5Y-63.0
X83.5Y-69.6
X83.5Y-76.2
X83.5Y-82.8
X83.5Y-89.4
X86.1Y-93.9
X88.7Y-56.4
X88.7Y-63.0
X88.7Y-69.6
X88.7Y-76.2
X88.7Y-82.8
X88.7Y-89.4
X89.4Y-90.1
X90.1Y-56.4
X90.1Y-63.0
X90.1Y-69.6
X90.1Y-76.2
X90.1Y-82.8
X90.1Y-89.4
X91.5Y-51.5
X91.5Y-99.5
X92.7Y-93.9
X95.3Y-56.4
X95.3Y-63.0
X95.3Y-69.6
X95.3Y-76.2
X95.3Y-82.8
X95.3Y-89.4
X96.0Y-90.1
X96.7Y-56.4
X96.7Y-63.0
X96.7Y-69.6
X96.7Y-76.2
X96.7Y-82.8
X96.7Y-89.4
X99.3Y-93.9
X101.5Y-51.5
X101.5Y-99.5
X101.9Y-56.4
X101.9Y-63.0
X101.9Y-69.6
X101.9Y-76.2
X101.9Y-82.8
X101.9Y-89.4
X102.6Y-90.1
X103.3Y-56.4
X103.3Y-63.0
X103.3Y-69.6
X103.3Y-76.2
X103.3Y-82.8
X103.3Y-89.4
X105.9Y-93.7
X108.5Y-56.4
X108.5Y-63.0
X108.5Y-69.6
X108.5Y-76.2
X108.5Y-82.8
X108.5Y-89.4
X109.2Y-90.1
X109.9Y-56.4
X109.9Y-63.0
X109.9Y-69.6
X109.9Y-76.2
X109.9Y-82.8
X109.9Y-89.4
X111.5Y-51.5
X111.5Y-99.5
X114.0Y-59.7
X114.0Y-66.3
X114.0Y-72.9
X114.0Y-79.5
X114.0Y-85.8
X114.0Y-91.4
X115.9Y-85.8
X115.9Y-98.3
X116.775Y-89.4
X117.0Y-81.1
X118.1Y-89.4
X119.3Y-96.6
X119.4Y-89.4
X121.0Y-84.7
X122.3Y-57.3
X123.8Y-71.5
X125.1Y-73.1
X125.4Y-96.6
X125.6Y-59.2
X126.5Y-100.2
X127.5Y-79.7
X129.3Y-97.2
X131.6Y-63.5
X131.9Y-57.3
X133.0Y-57.1
X133.1Y-96.7
X133.2Y-62.6
X133.2Y-97.8
X135.1Y-57.3
X135.6Y-62.0
X135.8Y-57.8
X136.191Y-64.9
X136.8Y-91.7
X137.0Y-68.6
X137.1Y-80.1
X137.4Y-64.7
X137.5Y-99.5
X138.2Y-94.1
X138.3Y-64.7
T2
X115.5Y-51.8
X118.0Y-55.4
X118.0Y-57.94
X118.0Y-60.48
X118.0Y-63.02
X118.0Y-65.56
X118.0Y-68.1
X118.0Y-70.64
X118.0Y-73.18
X118.04Y-51.8
X120.58Y-51.8
X123.12Y-51.8
M30
