%TF.GenerationSoftware,KiCad,Pcbnew,8.0.6*%
%TF.CreationDate,2025-06-19T14:33:08+09:00*%
%TF.ProjectId,card,63617264-2e6b-4696-9361-645f70636258,rev?*%
%TF.SameCoordinates,Original*%
%TF.FileFunction,Copper,L2,Bot*%
%TF.FilePolarity,Positive*%
%FSLAX46Y46*%
G04 Gerber Fmt 4.6, Leading zero omitted, Abs format (unit mm)*
G04 Created by KiCad (PCBNEW 8.0.6) date 2025-06-19 14:33:08*
%MOMM*%
%LPD*%
G01*
G04 APERTURE LIST*
G04 Aperture macros list*
%AMRoundRect*
0 Rectangle with rounded corners*
0 $1 Rounding radius*
0 $2 $3 $4 $5 $6 $7 $8 $9 X,Y pos of 4 corners*
0 Add a 4 corners polygon primitive as box body*
4,1,4,$2,$3,$4,$5,$6,$7,$8,$9,$2,$3,0*
0 Add four circle primitives for the rounded corners*
1,1,$1+$1,$2,$3*
1,1,$1+$1,$4,$5*
1,1,$1+$1,$6,$7*
1,1,$1+$1,$8,$9*
0 Add four rect primitives between the rounded corners*
20,1,$1+$1,$2,$3,$4,$5,0*
20,1,$1+$1,$4,$5,$6,$7,0*
20,1,$1+$1,$6,$7,$8,$9,0*
20,1,$1+$1,$8,$9,$2,$3,0*%
G04 Aperture macros list end*
%TA.AperFunction,Conductor*%
%ADD10C,0.200000*%
%TD*%
%TA.AperFunction,SMDPad,CuDef*%
%ADD11RoundRect,0.150000X-0.625000X0.150000X-0.625000X-0.150000X0.625000X-0.150000X0.625000X0.150000X0*%
%TD*%
%TA.AperFunction,SMDPad,CuDef*%
%ADD12RoundRect,0.250000X-0.650000X0.350000X-0.650000X-0.350000X0.650000X-0.350000X0.650000X0.350000X0*%
%TD*%
%TA.AperFunction,ComponentPad*%
%ADD13R,1.700000X1.700000*%
%TD*%
%TA.AperFunction,ComponentPad*%
%ADD14O,1.700000X1.700000*%
%TD*%
%TA.AperFunction,ViaPad*%
%ADD15C,0.600000*%
%TD*%
%TA.AperFunction,Conductor*%
%ADD16C,0.250000*%
%TD*%
%TA.AperFunction,Conductor*%
%ADD17C,0.150000*%
%TD*%
G04 APERTURE END LIST*
D10*
%TO.N,unconnected-(U2-RX11-Pad4)*%
X56100000Y-69600000D02*
X53100000Y-72600000D01*
X53100000Y-66600000D01*
X56100000Y-69600000D01*
%TA.AperFunction,Conductor*%
G36*
X56100000Y-69600000D02*
G01*
X53100000Y-72600000D01*
X53100000Y-66600000D01*
X56100000Y-69600000D01*
G37*
%TD.AperFunction*%
%TO.N,unconnected-(U2-RX10-Pad3)*%
X112500000Y-66000000D02*
X109500000Y-63000000D01*
X112500000Y-60000000D01*
X112500000Y-66000000D01*
%TA.AperFunction,Conductor*%
G36*
X112500000Y-66000000D02*
G01*
X109500000Y-63000000D01*
X112500000Y-60000000D01*
X112500000Y-66000000D01*
G37*
%TD.AperFunction*%
%TO.N,unconnected-(U2-RX1-Pad17)*%
X66000000Y-92700000D02*
X60000000Y-92700000D01*
X63000000Y-89700000D01*
X66000000Y-92700000D01*
%TA.AperFunction,Conductor*%
G36*
X66000000Y-92700000D02*
G01*
X60000000Y-92700000D01*
X63000000Y-89700000D01*
X66000000Y-92700000D01*
G37*
%TD.AperFunction*%
%TO.N,unconnected-(U2-RX14-Pad13)*%
X62700000Y-89400000D02*
X59700000Y-92400000D01*
X56700000Y-89400000D01*
X59700000Y-86400000D01*
X62700000Y-89400000D01*
%TA.AperFunction,Conductor*%
G36*
X62700000Y-89400000D02*
G01*
X59700000Y-92400000D01*
X56700000Y-89400000D01*
X59700000Y-86400000D01*
X62700000Y-89400000D01*
G37*
%TD.AperFunction*%
%TO.N,unconnected-(U2-RX5-Pad23)*%
X92400000Y-86100000D02*
X89400000Y-89100000D01*
X86400000Y-86100000D01*
X89400000Y-83100000D01*
X92400000Y-86100000D01*
%TA.AperFunction,Conductor*%
G36*
X92400000Y-86100000D02*
G01*
X89400000Y-89100000D01*
X86400000Y-86100000D01*
X89400000Y-83100000D01*
X92400000Y-86100000D01*
G37*
%TD.AperFunction*%
%TO.N,unconnected-(U2-RX0-Pad16)*%
X59400000Y-79500000D02*
X56400000Y-82500000D01*
X53400000Y-79500000D01*
X56400000Y-76500000D01*
X59400000Y-79500000D01*
%TA.AperFunction,Conductor*%
G36*
X59400000Y-79500000D02*
G01*
X56400000Y-82500000D01*
X53400000Y-79500000D01*
X56400000Y-76500000D01*
X59400000Y-79500000D01*
G37*
%TD.AperFunction*%
%TO.N,unconnected-(U2-RX14-Pad13)*%
X108900000Y-89400000D02*
X105900000Y-92400000D01*
X102900000Y-89400000D01*
X105900000Y-86400000D01*
X108900000Y-89400000D01*
%TA.AperFunction,Conductor*%
G36*
X108900000Y-89400000D02*
G01*
X105900000Y-92400000D01*
X102900000Y-89400000D01*
X105900000Y-86400000D01*
X108900000Y-89400000D01*
G37*
%TD.AperFunction*%
%TO.N,unconnected-(U2-RX0-Pad16)*%
X59400000Y-92700000D02*
X53400000Y-92700000D01*
X56400000Y-89700000D01*
X59400000Y-92700000D01*
%TA.AperFunction,Conductor*%
G36*
X59400000Y-92700000D02*
G01*
X53400000Y-92700000D01*
X56400000Y-89700000D01*
X59400000Y-92700000D01*
G37*
%TD.AperFunction*%
%TO.N,unconnected-(U2-RX14-Pad13)*%
X112500000Y-92400000D02*
X109500000Y-89400000D01*
X112500000Y-86400000D01*
X112500000Y-92400000D01*
%TA.AperFunction,Conductor*%
G36*
X112500000Y-92400000D02*
G01*
X109500000Y-89400000D01*
X112500000Y-86400000D01*
X112500000Y-92400000D01*
G37*
%TD.AperFunction*%
%TO.N,unconnected-(U2-RX4-Pad22)*%
X85800000Y-66300000D02*
X82800000Y-69300000D01*
X79800000Y-66300000D01*
X82800000Y-63300000D01*
X85800000Y-66300000D01*
%TA.AperFunction,Conductor*%
G36*
X85800000Y-66300000D02*
G01*
X82800000Y-69300000D01*
X79800000Y-66300000D01*
X82800000Y-63300000D01*
X85800000Y-66300000D01*
G37*
%TD.AperFunction*%
%TO.N,unconnected-(U2-RX2-Pad18)*%
X72600000Y-72900000D02*
X69600000Y-75900000D01*
X66600000Y-72900000D01*
X69600000Y-69900000D01*
X72600000Y-72900000D01*
%TA.AperFunction,Conductor*%
G36*
X72600000Y-72900000D02*
G01*
X69600000Y-75900000D01*
X66600000Y-72900000D01*
X69600000Y-69900000D01*
X72600000Y-72900000D01*
G37*
%TD.AperFunction*%
%TO.N,unconnected-(U2-RX10-Pad3)*%
X56100000Y-63000000D02*
X53100000Y-66000000D01*
X53100000Y-60000000D01*
X56100000Y-63000000D01*
%TA.AperFunction,Conductor*%
G36*
X56100000Y-63000000D02*
G01*
X53100000Y-66000000D01*
X53100000Y-60000000D01*
X56100000Y-63000000D01*
G37*
%TD.AperFunction*%
%TO.N,unconnected-(U2-RX13-Pad7)*%
X69300000Y-82800000D02*
X66300000Y-85800000D01*
X63300000Y-82800000D01*
X66300000Y-79800000D01*
X69300000Y-82800000D01*
%TA.AperFunction,Conductor*%
G36*
X69300000Y-82800000D02*
G01*
X66300000Y-85800000D01*
X63300000Y-82800000D01*
X66300000Y-79800000D01*
X69300000Y-82800000D01*
G37*
%TD.AperFunction*%
%TO.N,unconnected-(U2-RX2-Pad18)*%
X72600000Y-86100000D02*
X69600000Y-89100000D01*
X66600000Y-86100000D01*
X69600000Y-83100000D01*
X72600000Y-86100000D01*
%TA.AperFunction,Conductor*%
G36*
X72600000Y-86100000D02*
G01*
X69600000Y-89100000D01*
X66600000Y-86100000D01*
X69600000Y-83100000D01*
X72600000Y-86100000D01*
G37*
%TD.AperFunction*%
%TO.N,unconnected-(U2-RX5-Pad23)*%
X92400000Y-92700000D02*
X86400000Y-92700000D01*
X89400000Y-89700000D01*
X92400000Y-92700000D01*
%TA.AperFunction,Conductor*%
G36*
X92400000Y-92700000D02*
G01*
X86400000Y-92700000D01*
X89400000Y-89700000D01*
X92400000Y-92700000D01*
G37*
%TD.AperFunction*%
%TO.N,unconnected-(U2-RX2-Pad18)*%
X69600000Y-56100000D02*
X66600000Y-53100000D01*
X72600000Y-53100000D01*
X69600000Y-56100000D01*
%TA.AperFunction,Conductor*%
G36*
X69600000Y-56100000D02*
G01*
X66600000Y-53100000D01*
X72600000Y-53100000D01*
X69600000Y-56100000D01*
G37*
%TD.AperFunction*%
%TO.N,unconnected-(U2-RX6-Pad24)*%
X99000000Y-72900000D02*
X96000000Y-75900000D01*
X93000000Y-72900000D01*
X96000000Y-69900000D01*
X99000000Y-72900000D01*
%TA.AperFunction,Conductor*%
G36*
X99000000Y-72900000D02*
G01*
X96000000Y-75900000D01*
X93000000Y-72900000D01*
X96000000Y-69900000D01*
X99000000Y-72900000D01*
G37*
%TD.AperFunction*%
%TO.N,unconnected-(U2-RX7-Pad25)*%
X105600000Y-66300000D02*
X102600000Y-69300000D01*
X99600000Y-66300000D01*
X102600000Y-63300000D01*
X105600000Y-66300000D01*
%TA.AperFunction,Conductor*%
G36*
X105600000Y-66300000D02*
G01*
X102600000Y-69300000D01*
X99600000Y-66300000D01*
X102600000Y-63300000D01*
X105600000Y-66300000D01*
G37*
%TD.AperFunction*%
%TO.N,unconnected-(U2-RX9-Pad2)*%
X56100000Y-56400000D02*
X53100000Y-59400000D01*
X53100000Y-53400000D01*
X56100000Y-56400000D01*
%TA.AperFunction,Conductor*%
G36*
X56100000Y-56400000D02*
G01*
X53100000Y-59400000D01*
X53100000Y-53400000D01*
X56100000Y-56400000D01*
G37*
%TD.AperFunction*%
%TO.N,unconnected-(U2-RX11-Pad4)*%
X69300000Y-69600000D02*
X66300000Y-72600000D01*
X63300000Y-69600000D01*
X66300000Y-66600000D01*
X69300000Y-69600000D01*
%TA.AperFunction,Conductor*%
G36*
X69300000Y-69600000D02*
G01*
X66300000Y-72600000D01*
X63300000Y-69600000D01*
X66300000Y-66600000D01*
X69300000Y-69600000D01*
G37*
%TD.AperFunction*%
%TO.N,unconnected-(U2-RX9-Pad2)*%
X108900000Y-56400000D02*
X105900000Y-59400000D01*
X102900000Y-56400000D01*
X105900000Y-53400000D01*
X108900000Y-56400000D01*
%TA.AperFunction,Conductor*%
G36*
X108900000Y-56400000D02*
G01*
X105900000Y-59400000D01*
X102900000Y-56400000D01*
X105900000Y-53400000D01*
X108900000Y-56400000D01*
G37*
%TD.AperFunction*%
%TO.N,unconnected-(U2-RX10-Pad3)*%
X69300000Y-63000000D02*
X66300000Y-66000000D01*
X63300000Y-63000000D01*
X66300000Y-60000000D01*
X69300000Y-63000000D01*
%TA.AperFunction,Conductor*%
G36*
X69300000Y-63000000D02*
G01*
X66300000Y-66000000D01*
X63300000Y-63000000D01*
X66300000Y-60000000D01*
X69300000Y-63000000D01*
G37*
%TD.AperFunction*%
%TO.N,unconnected-(U2-RX5-Pad23)*%
X92400000Y-59700000D02*
X89400000Y-62700000D01*
X86400000Y-59700000D01*
X89400000Y-56700000D01*
X92400000Y-59700000D01*
%TA.AperFunction,Conductor*%
G36*
X92400000Y-59700000D02*
G01*
X89400000Y-62700000D01*
X86400000Y-59700000D01*
X89400000Y-56700000D01*
X92400000Y-59700000D01*
G37*
%TD.AperFunction*%
%TO.N,unconnected-(U2-RX2-Pad18)*%
X72600000Y-92700000D02*
X66600000Y-92700000D01*
X69600000Y-89700000D01*
X72600000Y-92700000D01*
%TA.AperFunction,Conductor*%
G36*
X72600000Y-92700000D02*
G01*
X66600000Y-92700000D01*
X69600000Y-89700000D01*
X72600000Y-92700000D01*
G37*
%TD.AperFunction*%
%TO.N,unconnected-(U2-RX13-Pad7)*%
X108900000Y-82800000D02*
X105900000Y-85800000D01*
X102900000Y-82800000D01*
X105900000Y-79800000D01*
X108900000Y-82800000D01*
%TA.AperFunction,Conductor*%
G36*
X108900000Y-82800000D02*
G01*
X105900000Y-85800000D01*
X102900000Y-82800000D01*
X105900000Y-79800000D01*
X108900000Y-82800000D01*
G37*
%TD.AperFunction*%
%TO.N,unconnected-(U2-RX11-Pad4)*%
X95700000Y-69600000D02*
X92700000Y-72600000D01*
X89700000Y-69600000D01*
X92700000Y-66600000D01*
X95700000Y-69600000D01*
%TA.AperFunction,Conductor*%
G36*
X95700000Y-69600000D02*
G01*
X92700000Y-72600000D01*
X89700000Y-69600000D01*
X92700000Y-66600000D01*
X95700000Y-69600000D01*
G37*
%TD.AperFunction*%
%TO.N,unconnected-(U2-RX8-Pad26)*%
X112200000Y-86100000D02*
X109200000Y-89100000D01*
X106200000Y-86100000D01*
X109200000Y-83100000D01*
X112200000Y-86100000D01*
%TA.AperFunction,Conductor*%
G36*
X112200000Y-86100000D02*
G01*
X109200000Y-89100000D01*
X106200000Y-86100000D01*
X109200000Y-83100000D01*
X112200000Y-86100000D01*
G37*
%TD.AperFunction*%
%TO.N,unconnected-(U2-RX5-Pad23)*%
X89400000Y-56100000D02*
X86400000Y-53100000D01*
X92400000Y-53100000D01*
X89400000Y-56100000D01*
%TA.AperFunction,Conductor*%
G36*
X89400000Y-56100000D02*
G01*
X86400000Y-53100000D01*
X92400000Y-53100000D01*
X89400000Y-56100000D01*
G37*
%TD.AperFunction*%
%TO.N,unconnected-(U2-RX4-Pad22)*%
X85800000Y-72900000D02*
X82800000Y-75900000D01*
X79800000Y-72900000D01*
X82800000Y-69900000D01*
X85800000Y-72900000D01*
%TA.AperFunction,Conductor*%
G36*
X85800000Y-72900000D02*
G01*
X82800000Y-75900000D01*
X79800000Y-72900000D01*
X82800000Y-69900000D01*
X85800000Y-72900000D01*
G37*
%TD.AperFunction*%
%TO.N,unconnected-(U2-RX10-Pad3)*%
X108900000Y-63000000D02*
X105900000Y-66000000D01*
X102900000Y-63000000D01*
X105900000Y-60000000D01*
X108900000Y-63000000D01*
%TA.AperFunction,Conductor*%
G36*
X108900000Y-63000000D02*
G01*
X105900000Y-66000000D01*
X102900000Y-63000000D01*
X105900000Y-60000000D01*
X108900000Y-63000000D01*
G37*
%TD.AperFunction*%
%TO.N,unconnected-(U2-RX0-Pad16)*%
X56400000Y-56100000D02*
X53400000Y-53100000D01*
X59400000Y-53100000D01*
X56400000Y-56100000D01*
%TA.AperFunction,Conductor*%
G36*
X56400000Y-56100000D02*
G01*
X53400000Y-53100000D01*
X59400000Y-53100000D01*
X56400000Y-56100000D01*
G37*
%TD.AperFunction*%
%TO.N,unconnected-(U2-RX10-Pad3)*%
X95700000Y-63000000D02*
X92700000Y-66000000D01*
X89700000Y-63000000D01*
X92700000Y-60000000D01*
X95700000Y-63000000D01*
%TA.AperFunction,Conductor*%
G36*
X95700000Y-63000000D02*
G01*
X92700000Y-66000000D01*
X89700000Y-63000000D01*
X92700000Y-60000000D01*
X95700000Y-63000000D01*
G37*
%TD.AperFunction*%
%TO.N,unconnected-(U2-RX3-Pad21)*%
X79200000Y-92700000D02*
X73200000Y-92700000D01*
X76200000Y-89700000D01*
X79200000Y-92700000D01*
%TA.AperFunction,Conductor*%
G36*
X79200000Y-92700000D02*
G01*
X73200000Y-92700000D01*
X76200000Y-89700000D01*
X79200000Y-92700000D01*
G37*
%TD.AperFunction*%
%TO.N,unconnected-(U2-RX12-Pad5)*%
X62700000Y-76200000D02*
X59700000Y-79200000D01*
X56700000Y-76200000D01*
X59700000Y-73200000D01*
X62700000Y-76200000D01*
%TA.AperFunction,Conductor*%
G36*
X62700000Y-76200000D02*
G01*
X59700000Y-79200000D01*
X56700000Y-76200000D01*
X59700000Y-73200000D01*
X62700000Y-76200000D01*
G37*
%TD.AperFunction*%
%TO.N,unconnected-(U2-RX9-Pad2)*%
X75900000Y-56400000D02*
X72900000Y-59400000D01*
X69900000Y-56400000D01*
X72900000Y-53400000D01*
X75900000Y-56400000D01*
%TA.AperFunction,Conductor*%
G36*
X75900000Y-56400000D02*
G01*
X72900000Y-59400000D01*
X69900000Y-56400000D01*
X72900000Y-53400000D01*
X75900000Y-56400000D01*
G37*
%TD.AperFunction*%
X62700000Y-56400000D02*
X59700000Y-59400000D01*
X56700000Y-56400000D01*
X59700000Y-53400000D01*
X62700000Y-56400000D01*
%TA.AperFunction,Conductor*%
G36*
X62700000Y-56400000D02*
G01*
X59700000Y-59400000D01*
X56700000Y-56400000D01*
X59700000Y-53400000D01*
X62700000Y-56400000D01*
G37*
%TD.AperFunction*%
%TO.N,unconnected-(U2-RX3-Pad21)*%
X79200000Y-79500000D02*
X76200000Y-82500000D01*
X73200000Y-79500000D01*
X76200000Y-76500000D01*
X79200000Y-79500000D01*
%TA.AperFunction,Conductor*%
G36*
X79200000Y-79500000D02*
G01*
X76200000Y-82500000D01*
X73200000Y-79500000D01*
X76200000Y-76500000D01*
X79200000Y-79500000D01*
G37*
%TD.AperFunction*%
%TO.N,unconnected-(U2-RX10-Pad3)*%
X102300000Y-63000000D02*
X99300000Y-66000000D01*
X96300000Y-63000000D01*
X99300000Y-60000000D01*
X102300000Y-63000000D01*
%TA.AperFunction,Conductor*%
G36*
X102300000Y-63000000D02*
G01*
X99300000Y-66000000D01*
X96300000Y-63000000D01*
X99300000Y-60000000D01*
X102300000Y-63000000D01*
G37*
%TD.AperFunction*%
%TO.N,unconnected-(U2-RX1-Pad17)*%
X66000000Y-86100000D02*
X63000000Y-89100000D01*
X60000000Y-86100000D01*
X63000000Y-83100000D01*
X66000000Y-86100000D01*
%TA.AperFunction,Conductor*%
G36*
X66000000Y-86100000D02*
G01*
X63000000Y-89100000D01*
X60000000Y-86100000D01*
X63000000Y-83100000D01*
X66000000Y-86100000D01*
G37*
%TD.AperFunction*%
%TO.N,unconnected-(U2-RX0-Pad16)*%
X59400000Y-72900000D02*
X56400000Y-75900000D01*
X53400000Y-72900000D01*
X56400000Y-69900000D01*
X59400000Y-72900000D01*
%TA.AperFunction,Conductor*%
G36*
X59400000Y-72900000D02*
G01*
X56400000Y-75900000D01*
X53400000Y-72900000D01*
X56400000Y-69900000D01*
X59400000Y-72900000D01*
G37*
%TD.AperFunction*%
%TO.N,unconnected-(U2-RX12-Pad5)*%
X89100000Y-76200000D02*
X86100000Y-79200000D01*
X83100000Y-76200000D01*
X86100000Y-73200000D01*
X89100000Y-76200000D01*
%TA.AperFunction,Conductor*%
G36*
X89100000Y-76200000D02*
G01*
X86100000Y-79200000D01*
X83100000Y-76200000D01*
X86100000Y-73200000D01*
X89100000Y-76200000D01*
G37*
%TD.AperFunction*%
%TO.N,unconnected-(U2-RX14-Pad13)*%
X82500000Y-89400000D02*
X79500000Y-92400000D01*
X76500000Y-89400000D01*
X79500000Y-86400000D01*
X82500000Y-89400000D01*
%TA.AperFunction,Conductor*%
G36*
X82500000Y-89400000D02*
G01*
X79500000Y-92400000D01*
X76500000Y-89400000D01*
X79500000Y-86400000D01*
X82500000Y-89400000D01*
G37*
%TD.AperFunction*%
%TO.N,unconnected-(U2-RX7-Pad25)*%
X105600000Y-59700000D02*
X102600000Y-62700000D01*
X99600000Y-59700000D01*
X102600000Y-56700000D01*
X105600000Y-59700000D01*
%TA.AperFunction,Conductor*%
G36*
X105600000Y-59700000D02*
G01*
X102600000Y-62700000D01*
X99600000Y-59700000D01*
X102600000Y-56700000D01*
X105600000Y-59700000D01*
G37*
%TD.AperFunction*%
%TO.N,unconnected-(U2-RX3-Pad21)*%
X79200000Y-72900000D02*
X76200000Y-75900000D01*
X73200000Y-72900000D01*
X76200000Y-69900000D01*
X79200000Y-72900000D01*
%TA.AperFunction,Conductor*%
G36*
X79200000Y-72900000D02*
G01*
X76200000Y-75900000D01*
X73200000Y-72900000D01*
X76200000Y-69900000D01*
X79200000Y-72900000D01*
G37*
%TD.AperFunction*%
%TO.N,unconnected-(U2-RX8-Pad26)*%
X112200000Y-79500000D02*
X109200000Y-82500000D01*
X106200000Y-79500000D01*
X109200000Y-76500000D01*
X112200000Y-79500000D01*
%TA.AperFunction,Conductor*%
G36*
X112200000Y-79500000D02*
G01*
X109200000Y-82500000D01*
X106200000Y-79500000D01*
X109200000Y-76500000D01*
X112200000Y-79500000D01*
G37*
%TD.AperFunction*%
%TO.N,unconnected-(U2-RX5-Pad23)*%
X92400000Y-72900000D02*
X89400000Y-75900000D01*
X86400000Y-72900000D01*
X89400000Y-69900000D01*
X92400000Y-72900000D01*
%TA.AperFunction,Conductor*%
G36*
X92400000Y-72900000D02*
G01*
X89400000Y-75900000D01*
X86400000Y-72900000D01*
X89400000Y-69900000D01*
X92400000Y-72900000D01*
G37*
%TD.AperFunction*%
%TO.N,unconnected-(U2-RX9-Pad2)*%
X95700000Y-56400000D02*
X92700000Y-59400000D01*
X89700000Y-56400000D01*
X92700000Y-53400000D01*
X95700000Y-56400000D01*
%TA.AperFunction,Conductor*%
G36*
X95700000Y-56400000D02*
G01*
X92700000Y-59400000D01*
X89700000Y-56400000D01*
X92700000Y-53400000D01*
X95700000Y-56400000D01*
G37*
%TD.AperFunction*%
%TO.N,unconnected-(U2-RX13-Pad7)*%
X75900000Y-82800000D02*
X72900000Y-85800000D01*
X69900000Y-82800000D01*
X72900000Y-79800000D01*
X75900000Y-82800000D01*
%TA.AperFunction,Conductor*%
G36*
X75900000Y-82800000D02*
G01*
X72900000Y-85800000D01*
X69900000Y-82800000D01*
X72900000Y-79800000D01*
X75900000Y-82800000D01*
G37*
%TD.AperFunction*%
%TO.N,unconnected-(U2-RX14-Pad13)*%
X69300000Y-89400000D02*
X66300000Y-92400000D01*
X63300000Y-89400000D01*
X66300000Y-86400000D01*
X69300000Y-89400000D01*
%TA.AperFunction,Conductor*%
G36*
X69300000Y-89400000D02*
G01*
X66300000Y-92400000D01*
X63300000Y-89400000D01*
X66300000Y-86400000D01*
X69300000Y-89400000D01*
G37*
%TD.AperFunction*%
%TO.N,unconnected-(U2-RX0-Pad16)*%
X59400000Y-66300000D02*
X56400000Y-69300000D01*
X53400000Y-66300000D01*
X56400000Y-63300000D01*
X59400000Y-66300000D01*
%TA.AperFunction,Conductor*%
G36*
X59400000Y-66300000D02*
G01*
X56400000Y-69300000D01*
X53400000Y-66300000D01*
X56400000Y-63300000D01*
X59400000Y-66300000D01*
G37*
%TD.AperFunction*%
%TO.N,unconnected-(U2-RX1-Pad17)*%
X66000000Y-79500000D02*
X63000000Y-82500000D01*
X60000000Y-79500000D01*
X63000000Y-76500000D01*
X66000000Y-79500000D01*
%TA.AperFunction,Conductor*%
G36*
X66000000Y-79500000D02*
G01*
X63000000Y-82500000D01*
X60000000Y-79500000D01*
X63000000Y-76500000D01*
X66000000Y-79500000D01*
G37*
%TD.AperFunction*%
%TO.N,unconnected-(U2-RX11-Pad4)*%
X82500000Y-69600000D02*
X79500000Y-72600000D01*
X76500000Y-69600000D01*
X79500000Y-66600000D01*
X82500000Y-69600000D01*
%TA.AperFunction,Conductor*%
G36*
X82500000Y-69600000D02*
G01*
X79500000Y-72600000D01*
X76500000Y-69600000D01*
X79500000Y-66600000D01*
X82500000Y-69600000D01*
G37*
%TD.AperFunction*%
%TO.N,unconnected-(U2-RX0-Pad16)*%
X59400000Y-86100000D02*
X56400000Y-89100000D01*
X53400000Y-86100000D01*
X56400000Y-83100000D01*
X59400000Y-86100000D01*
%TA.AperFunction,Conductor*%
G36*
X59400000Y-86100000D02*
G01*
X56400000Y-89100000D01*
X53400000Y-86100000D01*
X56400000Y-83100000D01*
X59400000Y-86100000D01*
G37*
%TD.AperFunction*%
%TO.N,unconnected-(U2-RX4-Pad22)*%
X82800000Y-56100000D02*
X79800000Y-53100000D01*
X85800000Y-53100000D01*
X82800000Y-56100000D01*
%TA.AperFunction,Conductor*%
G36*
X82800000Y-56100000D02*
G01*
X79800000Y-53100000D01*
X85800000Y-53100000D01*
X82800000Y-56100000D01*
G37*
%TD.AperFunction*%
%TO.N,unconnected-(U2-RX12-Pad5)*%
X69300000Y-76200000D02*
X66300000Y-79200000D01*
X63300000Y-76200000D01*
X66300000Y-73200000D01*
X69300000Y-76200000D01*
%TA.AperFunction,Conductor*%
G36*
X69300000Y-76200000D02*
G01*
X66300000Y-79200000D01*
X63300000Y-76200000D01*
X66300000Y-73200000D01*
X69300000Y-76200000D01*
G37*
%TD.AperFunction*%
%TO.N,unconnected-(U2-RX6-Pad24)*%
X99000000Y-59700000D02*
X96000000Y-62700000D01*
X93000000Y-59700000D01*
X96000000Y-56700000D01*
X99000000Y-59700000D01*
%TA.AperFunction,Conductor*%
G36*
X99000000Y-59700000D02*
G01*
X96000000Y-62700000D01*
X93000000Y-59700000D01*
X96000000Y-56700000D01*
X99000000Y-59700000D01*
G37*
%TD.AperFunction*%
%TO.N,unconnected-(U2-RX7-Pad25)*%
X105600000Y-86100000D02*
X102600000Y-89100000D01*
X99600000Y-86100000D01*
X102600000Y-83100000D01*
X105600000Y-86100000D01*
%TA.AperFunction,Conductor*%
G36*
X105600000Y-86100000D02*
G01*
X102600000Y-89100000D01*
X99600000Y-86100000D01*
X102600000Y-83100000D01*
X105600000Y-86100000D01*
G37*
%TD.AperFunction*%
%TO.N,unconnected-(U2-RX11-Pad4)*%
X112500000Y-72600000D02*
X109500000Y-69600000D01*
X112500000Y-66600000D01*
X112500000Y-72600000D01*
%TA.AperFunction,Conductor*%
G36*
X112500000Y-72600000D02*
G01*
X109500000Y-69600000D01*
X112500000Y-66600000D01*
X112500000Y-72600000D01*
G37*
%TD.AperFunction*%
%TO.N,unconnected-(U2-RX12-Pad5)*%
X95700000Y-76200000D02*
X92700000Y-79200000D01*
X89700000Y-76200000D01*
X92700000Y-73200000D01*
X95700000Y-76200000D01*
%TA.AperFunction,Conductor*%
G36*
X95700000Y-76200000D02*
G01*
X92700000Y-79200000D01*
X89700000Y-76200000D01*
X92700000Y-73200000D01*
X95700000Y-76200000D01*
G37*
%TD.AperFunction*%
%TO.N,unconnected-(U2-RX13-Pad7)*%
X95700000Y-82800000D02*
X92700000Y-85800000D01*
X89700000Y-82800000D01*
X92700000Y-79800000D01*
X95700000Y-82800000D01*
%TA.AperFunction,Conductor*%
G36*
X95700000Y-82800000D02*
G01*
X92700000Y-85800000D01*
X89700000Y-82800000D01*
X92700000Y-79800000D01*
X95700000Y-82800000D01*
G37*
%TD.AperFunction*%
%TO.N,unconnected-(U2-RX12-Pad5)*%
X102300000Y-76200000D02*
X99300000Y-79200000D01*
X96300000Y-76200000D01*
X99300000Y-73200000D01*
X102300000Y-76200000D01*
%TA.AperFunction,Conductor*%
G36*
X102300000Y-76200000D02*
G01*
X99300000Y-79200000D01*
X96300000Y-76200000D01*
X99300000Y-73200000D01*
X102300000Y-76200000D01*
G37*
%TD.AperFunction*%
%TO.N,unconnected-(U2-RX13-Pad7)*%
X89100000Y-82800000D02*
X86100000Y-85800000D01*
X83100000Y-82800000D01*
X86100000Y-79800000D01*
X89100000Y-82800000D01*
%TA.AperFunction,Conductor*%
G36*
X89100000Y-82800000D02*
G01*
X86100000Y-85800000D01*
X83100000Y-82800000D01*
X86100000Y-79800000D01*
X89100000Y-82800000D01*
G37*
%TD.AperFunction*%
X82500000Y-82800000D02*
X79500000Y-85800000D01*
X76500000Y-82800000D01*
X79500000Y-79800000D01*
X82500000Y-82800000D01*
%TA.AperFunction,Conductor*%
G36*
X82500000Y-82800000D02*
G01*
X79500000Y-85800000D01*
X76500000Y-82800000D01*
X79500000Y-79800000D01*
X82500000Y-82800000D01*
G37*
%TD.AperFunction*%
%TO.N,unconnected-(U2-RX10-Pad3)*%
X89100000Y-63000000D02*
X86100000Y-66000000D01*
X83100000Y-63000000D01*
X86100000Y-60000000D01*
X89100000Y-63000000D01*
%TA.AperFunction,Conductor*%
G36*
X89100000Y-63000000D02*
G01*
X86100000Y-66000000D01*
X83100000Y-63000000D01*
X86100000Y-60000000D01*
X89100000Y-63000000D01*
G37*
%TD.AperFunction*%
%TO.N,unconnected-(U2-RX12-Pad5)*%
X75900000Y-76200000D02*
X72900000Y-79200000D01*
X69900000Y-76200000D01*
X72900000Y-73200000D01*
X75900000Y-76200000D01*
%TA.AperFunction,Conductor*%
G36*
X75900000Y-76200000D02*
G01*
X72900000Y-79200000D01*
X69900000Y-76200000D01*
X72900000Y-73200000D01*
X75900000Y-76200000D01*
G37*
%TD.AperFunction*%
%TO.N,unconnected-(U2-RX9-Pad2)*%
X102300000Y-56400000D02*
X99300000Y-59400000D01*
X96300000Y-56400000D01*
X99300000Y-53400000D01*
X102300000Y-56400000D01*
%TA.AperFunction,Conductor*%
G36*
X102300000Y-56400000D02*
G01*
X99300000Y-59400000D01*
X96300000Y-56400000D01*
X99300000Y-53400000D01*
X102300000Y-56400000D01*
G37*
%TD.AperFunction*%
%TO.N,unconnected-(U2-RX7-Pad25)*%
X105600000Y-92700000D02*
X99600000Y-92700000D01*
X102600000Y-89700000D01*
X105600000Y-92700000D01*
%TA.AperFunction,Conductor*%
G36*
X105600000Y-92700000D02*
G01*
X99600000Y-92700000D01*
X102600000Y-89700000D01*
X105600000Y-92700000D01*
G37*
%TD.AperFunction*%
%TO.N,unconnected-(U2-RX14-Pad13)*%
X89100000Y-89400000D02*
X86100000Y-92400000D01*
X83100000Y-89400000D01*
X86100000Y-86400000D01*
X89100000Y-89400000D01*
%TA.AperFunction,Conductor*%
G36*
X89100000Y-89400000D02*
G01*
X86100000Y-92400000D01*
X83100000Y-89400000D01*
X86100000Y-86400000D01*
X89100000Y-89400000D01*
G37*
%TD.AperFunction*%
%TO.N,unconnected-(U2-RX13-Pad7)*%
X102300000Y-82800000D02*
X99300000Y-85800000D01*
X96300000Y-82800000D01*
X99300000Y-79800000D01*
X102300000Y-82800000D01*
%TA.AperFunction,Conductor*%
G36*
X102300000Y-82800000D02*
G01*
X99300000Y-85800000D01*
X96300000Y-82800000D01*
X99300000Y-79800000D01*
X102300000Y-82800000D01*
G37*
%TD.AperFunction*%
%TO.N,unconnected-(U2-RX6-Pad24)*%
X99000000Y-79500000D02*
X96000000Y-82500000D01*
X93000000Y-79500000D01*
X96000000Y-76500000D01*
X99000000Y-79500000D01*
%TA.AperFunction,Conductor*%
G36*
X99000000Y-79500000D02*
G01*
X96000000Y-82500000D01*
X93000000Y-79500000D01*
X96000000Y-76500000D01*
X99000000Y-79500000D01*
G37*
%TD.AperFunction*%
%TO.N,unconnected-(U2-RX5-Pad23)*%
X92400000Y-79500000D02*
X89400000Y-82500000D01*
X86400000Y-79500000D01*
X89400000Y-76500000D01*
X92400000Y-79500000D01*
%TA.AperFunction,Conductor*%
G36*
X92400000Y-79500000D02*
G01*
X89400000Y-82500000D01*
X86400000Y-79500000D01*
X89400000Y-76500000D01*
X92400000Y-79500000D01*
G37*
%TD.AperFunction*%
%TO.N,unconnected-(U2-RX14-Pad13)*%
X102300000Y-89400000D02*
X99300000Y-92400000D01*
X96300000Y-89400000D01*
X99300000Y-86400000D01*
X102300000Y-89400000D01*
%TA.AperFunction,Conductor*%
G36*
X102300000Y-89400000D02*
G01*
X99300000Y-92400000D01*
X96300000Y-89400000D01*
X99300000Y-86400000D01*
X102300000Y-89400000D01*
G37*
%TD.AperFunction*%
%TO.N,unconnected-(U2-RX3-Pad21)*%
X79200000Y-59700000D02*
X76200000Y-62700000D01*
X73200000Y-59700000D01*
X76200000Y-56700000D01*
X79200000Y-59700000D01*
%TA.AperFunction,Conductor*%
G36*
X79200000Y-59700000D02*
G01*
X76200000Y-62700000D01*
X73200000Y-59700000D01*
X76200000Y-56700000D01*
X79200000Y-59700000D01*
G37*
%TD.AperFunction*%
%TO.N,unconnected-(U2-RX7-Pad25)*%
X102600000Y-56100000D02*
X99600000Y-53100000D01*
X105600000Y-53100000D01*
X102600000Y-56100000D01*
%TA.AperFunction,Conductor*%
G36*
X102600000Y-56100000D02*
G01*
X99600000Y-53100000D01*
X105600000Y-53100000D01*
X102600000Y-56100000D01*
G37*
%TD.AperFunction*%
%TO.N,unconnected-(U2-RX14-Pad13)*%
X95700000Y-89400000D02*
X92700000Y-92400000D01*
X89700000Y-89400000D01*
X92700000Y-86400000D01*
X95700000Y-89400000D01*
%TA.AperFunction,Conductor*%
G36*
X95700000Y-89400000D02*
G01*
X92700000Y-92400000D01*
X89700000Y-89400000D01*
X92700000Y-86400000D01*
X95700000Y-89400000D01*
G37*
%TD.AperFunction*%
%TO.N,unconnected-(U2-RX11-Pad4)*%
X108900000Y-69600000D02*
X105900000Y-72600000D01*
X102900000Y-69600000D01*
X105900000Y-66600000D01*
X108900000Y-69600000D01*
%TA.AperFunction,Conductor*%
G36*
X108900000Y-69600000D02*
G01*
X105900000Y-72600000D01*
X102900000Y-69600000D01*
X105900000Y-66600000D01*
X108900000Y-69600000D01*
G37*
%TD.AperFunction*%
%TO.N,unconnected-(U2-RX9-Pad2)*%
X69300000Y-56400000D02*
X66300000Y-59400000D01*
X63300000Y-56400000D01*
X66300000Y-53400000D01*
X69300000Y-56400000D01*
%TA.AperFunction,Conductor*%
G36*
X69300000Y-56400000D02*
G01*
X66300000Y-59400000D01*
X63300000Y-56400000D01*
X66300000Y-53400000D01*
X69300000Y-56400000D01*
G37*
%TD.AperFunction*%
%TO.N,unconnected-(U2-RX14-Pad13)*%
X56100000Y-89400000D02*
X53100000Y-92400000D01*
X53100000Y-86400000D01*
X56100000Y-89400000D01*
%TA.AperFunction,Conductor*%
G36*
X56100000Y-89400000D02*
G01*
X53100000Y-92400000D01*
X53100000Y-86400000D01*
X56100000Y-89400000D01*
G37*
%TD.AperFunction*%
%TO.N,unconnected-(U2-RX11-Pad4)*%
X89100000Y-69600000D02*
X86100000Y-72600000D01*
X83100000Y-69600000D01*
X86100000Y-66600000D01*
X89100000Y-69600000D01*
%TA.AperFunction,Conductor*%
G36*
X89100000Y-69600000D02*
G01*
X86100000Y-72600000D01*
X83100000Y-69600000D01*
X86100000Y-66600000D01*
X89100000Y-69600000D01*
G37*
%TD.AperFunction*%
%TO.N,unconnected-(U2-RX10-Pad3)*%
X82500000Y-63000000D02*
X79500000Y-66000000D01*
X76500000Y-63000000D01*
X79500000Y-60000000D01*
X82500000Y-63000000D01*
%TA.AperFunction,Conductor*%
G36*
X82500000Y-63000000D02*
G01*
X79500000Y-66000000D01*
X76500000Y-63000000D01*
X79500000Y-60000000D01*
X82500000Y-63000000D01*
G37*
%TD.AperFunction*%
%TO.N,unconnected-(U2-RX2-Pad18)*%
X72600000Y-66300000D02*
X69600000Y-69300000D01*
X66600000Y-66300000D01*
X69600000Y-63300000D01*
X72600000Y-66300000D01*
%TA.AperFunction,Conductor*%
G36*
X72600000Y-66300000D02*
G01*
X69600000Y-69300000D01*
X66600000Y-66300000D01*
X69600000Y-63300000D01*
X72600000Y-66300000D01*
G37*
%TD.AperFunction*%
%TO.N,unconnected-(U2-RX9-Pad2)*%
X82500000Y-56400000D02*
X79500000Y-59400000D01*
X76500000Y-56400000D01*
X79500000Y-53400000D01*
X82500000Y-56400000D01*
%TA.AperFunction,Conductor*%
G36*
X82500000Y-56400000D02*
G01*
X79500000Y-59400000D01*
X76500000Y-56400000D01*
X79500000Y-53400000D01*
X82500000Y-56400000D01*
G37*
%TD.AperFunction*%
%TO.N,unconnected-(U2-RX10-Pad3)*%
X75900000Y-63000000D02*
X72900000Y-66000000D01*
X69900000Y-63000000D01*
X72900000Y-60000000D01*
X75900000Y-63000000D01*
%TA.AperFunction,Conductor*%
G36*
X75900000Y-63000000D02*
G01*
X72900000Y-66000000D01*
X69900000Y-63000000D01*
X72900000Y-60000000D01*
X75900000Y-63000000D01*
G37*
%TD.AperFunction*%
%TO.N,unconnected-(U2-RX13-Pad7)*%
X112500000Y-85800000D02*
X109500000Y-82800000D01*
X112500000Y-79800000D01*
X112500000Y-85800000D01*
%TA.AperFunction,Conductor*%
G36*
X112500000Y-85800000D02*
G01*
X109500000Y-82800000D01*
X112500000Y-79800000D01*
X112500000Y-85800000D01*
G37*
%TD.AperFunction*%
%TO.N,unconnected-(U2-RX4-Pad22)*%
X85800000Y-92700000D02*
X79800000Y-92700000D01*
X82800000Y-89700000D01*
X85800000Y-92700000D01*
%TA.AperFunction,Conductor*%
G36*
X85800000Y-92700000D02*
G01*
X79800000Y-92700000D01*
X82800000Y-89700000D01*
X85800000Y-92700000D01*
G37*
%TD.AperFunction*%
%TO.N,unconnected-(U2-RX5-Pad23)*%
X92400000Y-66300000D02*
X89400000Y-69300000D01*
X86400000Y-66300000D01*
X89400000Y-63300000D01*
X92400000Y-66300000D01*
%TA.AperFunction,Conductor*%
G36*
X92400000Y-66300000D02*
G01*
X89400000Y-69300000D01*
X86400000Y-66300000D01*
X89400000Y-63300000D01*
X92400000Y-66300000D01*
G37*
%TD.AperFunction*%
%TO.N,unconnected-(U2-RX0-Pad16)*%
X59400000Y-59700000D02*
X56400000Y-62700000D01*
X53400000Y-59700000D01*
X56400000Y-56700000D01*
X59400000Y-59700000D01*
%TA.AperFunction,Conductor*%
G36*
X59400000Y-59700000D02*
G01*
X56400000Y-62700000D01*
X53400000Y-59700000D01*
X56400000Y-56700000D01*
X59400000Y-59700000D01*
G37*
%TD.AperFunction*%
%TO.N,unconnected-(U2-RX8-Pad26)*%
X112200000Y-92700000D02*
X106200000Y-92700000D01*
X109200000Y-89700000D01*
X112200000Y-92700000D01*
%TA.AperFunction,Conductor*%
G36*
X112200000Y-92700000D02*
G01*
X106200000Y-92700000D01*
X109200000Y-89700000D01*
X112200000Y-92700000D01*
G37*
%TD.AperFunction*%
%TO.N,unconnected-(U2-RX4-Pad22)*%
X85800000Y-86100000D02*
X82800000Y-89100000D01*
X79800000Y-86100000D01*
X82800000Y-83100000D01*
X85800000Y-86100000D01*
%TA.AperFunction,Conductor*%
G36*
X85800000Y-86100000D02*
G01*
X82800000Y-89100000D01*
X79800000Y-86100000D01*
X82800000Y-83100000D01*
X85800000Y-86100000D01*
G37*
%TD.AperFunction*%
%TO.N,unconnected-(U2-RX7-Pad25)*%
X105600000Y-79500000D02*
X102600000Y-82500000D01*
X99600000Y-79500000D01*
X102600000Y-76500000D01*
X105600000Y-79500000D01*
%TA.AperFunction,Conductor*%
G36*
X105600000Y-79500000D02*
G01*
X102600000Y-82500000D01*
X99600000Y-79500000D01*
X102600000Y-76500000D01*
X105600000Y-79500000D01*
G37*
%TD.AperFunction*%
%TO.N,unconnected-(U2-RX8-Pad26)*%
X112200000Y-72900000D02*
X109200000Y-75900000D01*
X106200000Y-72900000D01*
X109200000Y-69900000D01*
X112200000Y-72900000D01*
%TA.AperFunction,Conductor*%
G36*
X112200000Y-72900000D02*
G01*
X109200000Y-75900000D01*
X106200000Y-72900000D01*
X109200000Y-69900000D01*
X112200000Y-72900000D01*
G37*
%TD.AperFunction*%
%TO.N,unconnected-(U2-RX6-Pad24)*%
X99000000Y-66300000D02*
X96000000Y-69300000D01*
X93000000Y-66300000D01*
X96000000Y-63300000D01*
X99000000Y-66300000D01*
%TA.AperFunction,Conductor*%
G36*
X99000000Y-66300000D02*
G01*
X96000000Y-69300000D01*
X93000000Y-66300000D01*
X96000000Y-63300000D01*
X99000000Y-66300000D01*
G37*
%TD.AperFunction*%
%TO.N,unconnected-(U2-RX13-Pad7)*%
X56100000Y-82800000D02*
X53100000Y-85800000D01*
X53100000Y-79800000D01*
X56100000Y-82800000D01*
%TA.AperFunction,Conductor*%
G36*
X56100000Y-82800000D02*
G01*
X53100000Y-85800000D01*
X53100000Y-79800000D01*
X56100000Y-82800000D01*
G37*
%TD.AperFunction*%
%TO.N,unconnected-(U2-RX6-Pad24)*%
X96000000Y-56100000D02*
X93000000Y-53100000D01*
X99000000Y-53100000D01*
X96000000Y-56100000D01*
%TA.AperFunction,Conductor*%
G36*
X96000000Y-56100000D02*
G01*
X93000000Y-53100000D01*
X99000000Y-53100000D01*
X96000000Y-56100000D01*
G37*
%TD.AperFunction*%
%TO.N,unconnected-(U2-RX12-Pad5)*%
X112500000Y-79200000D02*
X109500000Y-76200000D01*
X112500000Y-73200000D01*
X112500000Y-79200000D01*
%TA.AperFunction,Conductor*%
G36*
X112500000Y-79200000D02*
G01*
X109500000Y-76200000D01*
X112500000Y-73200000D01*
X112500000Y-79200000D01*
G37*
%TD.AperFunction*%
%TO.N,unconnected-(U2-RX2-Pad18)*%
X72600000Y-59700000D02*
X69600000Y-62700000D01*
X66600000Y-59700000D01*
X69600000Y-56700000D01*
X72600000Y-59700000D01*
%TA.AperFunction,Conductor*%
G36*
X72600000Y-59700000D02*
G01*
X69600000Y-62700000D01*
X66600000Y-59700000D01*
X69600000Y-56700000D01*
X72600000Y-59700000D01*
G37*
%TD.AperFunction*%
%TO.N,unconnected-(U2-RX11-Pad4)*%
X62700000Y-69600000D02*
X59700000Y-72600000D01*
X56700000Y-69600000D01*
X59700000Y-66600000D01*
X62700000Y-69600000D01*
%TA.AperFunction,Conductor*%
G36*
X62700000Y-69600000D02*
G01*
X59700000Y-72600000D01*
X56700000Y-69600000D01*
X59700000Y-66600000D01*
X62700000Y-69600000D01*
G37*
%TD.AperFunction*%
%TO.N,unconnected-(U2-RX10-Pad3)*%
X62700000Y-63000000D02*
X59700000Y-66000000D01*
X56700000Y-63000000D01*
X59700000Y-60000000D01*
X62700000Y-63000000D01*
%TA.AperFunction,Conductor*%
G36*
X62700000Y-63000000D02*
G01*
X59700000Y-66000000D01*
X56700000Y-63000000D01*
X59700000Y-60000000D01*
X62700000Y-63000000D01*
G37*
%TD.AperFunction*%
%TO.N,unconnected-(U2-RX11-Pad4)*%
X75900000Y-69600000D02*
X72900000Y-72600000D01*
X69900000Y-69600000D01*
X72900000Y-66600000D01*
X75900000Y-69600000D01*
%TA.AperFunction,Conductor*%
G36*
X75900000Y-69600000D02*
G01*
X72900000Y-72600000D01*
X69900000Y-69600000D01*
X72900000Y-66600000D01*
X75900000Y-69600000D01*
G37*
%TD.AperFunction*%
X102300000Y-69600000D02*
X99300000Y-72600000D01*
X96300000Y-69600000D01*
X99300000Y-66600000D01*
X102300000Y-69600000D01*
%TA.AperFunction,Conductor*%
G36*
X102300000Y-69600000D02*
G01*
X99300000Y-72600000D01*
X96300000Y-69600000D01*
X99300000Y-66600000D01*
X102300000Y-69600000D01*
G37*
%TD.AperFunction*%
%TO.N,unconnected-(U2-RX6-Pad24)*%
X99000000Y-86100000D02*
X96000000Y-89100000D01*
X93000000Y-86100000D01*
X96000000Y-83100000D01*
X99000000Y-86100000D01*
%TA.AperFunction,Conductor*%
G36*
X99000000Y-86100000D02*
G01*
X96000000Y-89100000D01*
X93000000Y-86100000D01*
X96000000Y-83100000D01*
X99000000Y-86100000D01*
G37*
%TD.AperFunction*%
%TO.N,unconnected-(U2-RX13-Pad7)*%
X62700000Y-82800000D02*
X59700000Y-85800000D01*
X56700000Y-82800000D01*
X59700000Y-79800000D01*
X62700000Y-82800000D01*
%TA.AperFunction,Conductor*%
G36*
X62700000Y-82800000D02*
G01*
X59700000Y-85800000D01*
X56700000Y-82800000D01*
X59700000Y-79800000D01*
X62700000Y-82800000D01*
G37*
%TD.AperFunction*%
%TO.N,unconnected-(U2-RX8-Pad26)*%
X109200000Y-56100000D02*
X106200000Y-53100000D01*
X112200000Y-53100000D01*
X109200000Y-56100000D01*
%TA.AperFunction,Conductor*%
G36*
X109200000Y-56100000D02*
G01*
X106200000Y-53100000D01*
X112200000Y-53100000D01*
X109200000Y-56100000D01*
G37*
%TD.AperFunction*%
%TO.N,unconnected-(U2-RX4-Pad22)*%
X85800000Y-79500000D02*
X82800000Y-82500000D01*
X79800000Y-79500000D01*
X82800000Y-76500000D01*
X85800000Y-79500000D01*
%TA.AperFunction,Conductor*%
G36*
X85800000Y-79500000D02*
G01*
X82800000Y-82500000D01*
X79800000Y-79500000D01*
X82800000Y-76500000D01*
X85800000Y-79500000D01*
G37*
%TD.AperFunction*%
%TO.N,unconnected-(U2-RX8-Pad26)*%
X112200000Y-66300000D02*
X109200000Y-69300000D01*
X106200000Y-66300000D01*
X109200000Y-63300000D01*
X112200000Y-66300000D01*
%TA.AperFunction,Conductor*%
G36*
X112200000Y-66300000D02*
G01*
X109200000Y-69300000D01*
X106200000Y-66300000D01*
X109200000Y-63300000D01*
X112200000Y-66300000D01*
G37*
%TD.AperFunction*%
%TO.N,unconnected-(U2-RX1-Pad17)*%
X66000000Y-72900000D02*
X63000000Y-75900000D01*
X60000000Y-72900000D01*
X63000000Y-69900000D01*
X66000000Y-72900000D01*
%TA.AperFunction,Conductor*%
G36*
X66000000Y-72900000D02*
G01*
X63000000Y-75900000D01*
X60000000Y-72900000D01*
X63000000Y-69900000D01*
X66000000Y-72900000D01*
G37*
%TD.AperFunction*%
%TO.N,unconnected-(U2-RX12-Pad5)*%
X108900000Y-76200000D02*
X105900000Y-79200000D01*
X102900000Y-76200000D01*
X105900000Y-73200000D01*
X108900000Y-76200000D01*
%TA.AperFunction,Conductor*%
G36*
X108900000Y-76200000D02*
G01*
X105900000Y-79200000D01*
X102900000Y-76200000D01*
X105900000Y-73200000D01*
X108900000Y-76200000D01*
G37*
%TD.AperFunction*%
%TO.N,unconnected-(U2-RX3-Pad21)*%
X79200000Y-86100000D02*
X76200000Y-89100000D01*
X73200000Y-86100000D01*
X76200000Y-83100000D01*
X79200000Y-86100000D01*
%TA.AperFunction,Conductor*%
G36*
X79200000Y-86100000D02*
G01*
X76200000Y-89100000D01*
X73200000Y-86100000D01*
X76200000Y-83100000D01*
X79200000Y-86100000D01*
G37*
%TD.AperFunction*%
%TO.N,unconnected-(U2-RX12-Pad5)*%
X56100000Y-76200000D02*
X53100000Y-79200000D01*
X53100000Y-73200000D01*
X56100000Y-76200000D01*
%TA.AperFunction,Conductor*%
G36*
X56100000Y-76200000D02*
G01*
X53100000Y-79200000D01*
X53100000Y-73200000D01*
X56100000Y-76200000D01*
G37*
%TD.AperFunction*%
%TO.N,unconnected-(U2-RX1-Pad17)*%
X66000000Y-59700000D02*
X63000000Y-62700000D01*
X60000000Y-59700000D01*
X63000000Y-56700000D01*
X66000000Y-59700000D01*
%TA.AperFunction,Conductor*%
G36*
X66000000Y-59700000D02*
G01*
X63000000Y-62700000D01*
X60000000Y-59700000D01*
X63000000Y-56700000D01*
X66000000Y-59700000D01*
G37*
%TD.AperFunction*%
X66000000Y-66300000D02*
X63000000Y-69300000D01*
X60000000Y-66300000D01*
X63000000Y-63300000D01*
X66000000Y-66300000D01*
%TA.AperFunction,Conductor*%
G36*
X66000000Y-66300000D02*
G01*
X63000000Y-69300000D01*
X60000000Y-66300000D01*
X63000000Y-63300000D01*
X66000000Y-66300000D01*
G37*
%TD.AperFunction*%
%TO.N,unconnected-(U2-RX14-Pad13)*%
X75900000Y-89400000D02*
X72900000Y-92400000D01*
X69900000Y-89400000D01*
X72900000Y-86400000D01*
X75900000Y-89400000D01*
%TA.AperFunction,Conductor*%
G36*
X75900000Y-89400000D02*
G01*
X72900000Y-92400000D01*
X69900000Y-89400000D01*
X72900000Y-86400000D01*
X75900000Y-89400000D01*
G37*
%TD.AperFunction*%
%TO.N,unconnected-(U2-RX4-Pad22)*%
X85800000Y-59700000D02*
X82800000Y-62700000D01*
X79800000Y-59700000D01*
X82800000Y-56700000D01*
X85800000Y-59700000D01*
%TA.AperFunction,Conductor*%
G36*
X85800000Y-59700000D02*
G01*
X82800000Y-62700000D01*
X79800000Y-59700000D01*
X82800000Y-56700000D01*
X85800000Y-59700000D01*
G37*
%TD.AperFunction*%
%TO.N,unconnected-(U2-RX7-Pad25)*%
X105600000Y-72900000D02*
X102600000Y-75900000D01*
X99600000Y-72900000D01*
X102600000Y-69900000D01*
X105600000Y-72900000D01*
%TA.AperFunction,Conductor*%
G36*
X105600000Y-72900000D02*
G01*
X102600000Y-75900000D01*
X99600000Y-72900000D01*
X102600000Y-69900000D01*
X105600000Y-72900000D01*
G37*
%TD.AperFunction*%
%TO.N,unconnected-(U2-RX9-Pad2)*%
X112500000Y-59400000D02*
X109500000Y-56400000D01*
X112500000Y-53400000D01*
X112500000Y-59400000D01*
%TA.AperFunction,Conductor*%
G36*
X112500000Y-59400000D02*
G01*
X109500000Y-56400000D01*
X112500000Y-53400000D01*
X112500000Y-59400000D01*
G37*
%TD.AperFunction*%
%TO.N,unconnected-(U2-RX3-Pad21)*%
X79200000Y-66300000D02*
X76200000Y-69300000D01*
X73200000Y-66300000D01*
X76200000Y-63300000D01*
X79200000Y-66300000D01*
%TA.AperFunction,Conductor*%
G36*
X79200000Y-66300000D02*
G01*
X76200000Y-69300000D01*
X73200000Y-66300000D01*
X76200000Y-63300000D01*
X79200000Y-66300000D01*
G37*
%TD.AperFunction*%
%TO.N,unconnected-(U2-RX12-Pad5)*%
X82500000Y-76200000D02*
X79500000Y-79200000D01*
X76500000Y-76200000D01*
X79500000Y-73200000D01*
X82500000Y-76200000D01*
%TA.AperFunction,Conductor*%
G36*
X82500000Y-76200000D02*
G01*
X79500000Y-79200000D01*
X76500000Y-76200000D01*
X79500000Y-73200000D01*
X82500000Y-76200000D01*
G37*
%TD.AperFunction*%
%TO.N,unconnected-(U2-RX6-Pad24)*%
X99000000Y-92700000D02*
X93000000Y-92700000D01*
X96000000Y-89700000D01*
X99000000Y-92700000D01*
%TA.AperFunction,Conductor*%
G36*
X99000000Y-92700000D02*
G01*
X93000000Y-92700000D01*
X96000000Y-89700000D01*
X99000000Y-92700000D01*
G37*
%TD.AperFunction*%
%TO.N,unconnected-(U2-RX2-Pad18)*%
X72600000Y-79500000D02*
X69600000Y-82500000D01*
X66600000Y-79500000D01*
X69600000Y-76500000D01*
X72600000Y-79500000D01*
%TA.AperFunction,Conductor*%
G36*
X72600000Y-79500000D02*
G01*
X69600000Y-82500000D01*
X66600000Y-79500000D01*
X69600000Y-76500000D01*
X72600000Y-79500000D01*
G37*
%TD.AperFunction*%
%TO.N,unconnected-(U2-RX3-Pad21)*%
X76200000Y-56100000D02*
X73200000Y-53100000D01*
X79200000Y-53100000D01*
X76200000Y-56100000D01*
%TA.AperFunction,Conductor*%
G36*
X76200000Y-56100000D02*
G01*
X73200000Y-53100000D01*
X79200000Y-53100000D01*
X76200000Y-56100000D01*
G37*
%TD.AperFunction*%
%TO.N,unconnected-(U2-RX9-Pad2)*%
X89100000Y-56400000D02*
X86100000Y-59400000D01*
X83100000Y-56400000D01*
X86100000Y-53400000D01*
X89100000Y-56400000D01*
%TA.AperFunction,Conductor*%
G36*
X89100000Y-56400000D02*
G01*
X86100000Y-59400000D01*
X83100000Y-56400000D01*
X86100000Y-53400000D01*
X89100000Y-56400000D01*
G37*
%TD.AperFunction*%
%TO.N,unconnected-(U2-RX1-Pad17)*%
X63000000Y-56100000D02*
X60000000Y-53100000D01*
X66000000Y-53100000D01*
X63000000Y-56100000D01*
%TA.AperFunction,Conductor*%
G36*
X63000000Y-56100000D02*
G01*
X60000000Y-53100000D01*
X66000000Y-53100000D01*
X63000000Y-56100000D01*
G37*
%TD.AperFunction*%
%TO.N,unconnected-(U2-RX8-Pad26)*%
X112200000Y-59700000D02*
X109200000Y-62700000D01*
X106200000Y-59700000D01*
X109200000Y-56700000D01*
X112200000Y-59700000D01*
%TA.AperFunction,Conductor*%
G36*
X112200000Y-59700000D02*
G01*
X109200000Y-62700000D01*
X106200000Y-59700000D01*
X109200000Y-56700000D01*
X112200000Y-59700000D01*
G37*
%TD.AperFunction*%
%TD*%
D11*
%TO.P,J3,1,Pin_1*%
%TO.N,GND*%
X133825000Y-58400000D03*
%TO.P,J3,2,Pin_2*%
%TO.N,+BATT*%
X133825000Y-59400000D03*
%TO.P,J3,3,Pin_3*%
%TO.N,/SDA*%
X133825000Y-60400000D03*
%TO.P,J3,4,Pin_4*%
%TO.N,/SCL*%
X133825000Y-61400000D03*
D12*
%TO.P,J3,MP*%
%TO.N,N/C*%
X137700000Y-57100000D03*
X137700000Y-62700000D03*
%TD*%
D13*
%TO.P,J2,1,Pin_1*%
%TO.N,/SWDCLK*%
X115500000Y-51800000D03*
D14*
%TO.P,J2,2,Pin_2*%
%TO.N,GND*%
X118040000Y-51800000D03*
%TO.P,J2,3,Pin_3*%
%TO.N,/SWDIO*%
X120580000Y-51800000D03*
%TO.P,J2,4,Pin_4*%
%TO.N,+BATT*%
X123120000Y-51800000D03*
%TD*%
D13*
%TO.P,J1,1,Pin_1*%
%TO.N,/~{RESET}*%
X118000000Y-55400000D03*
D14*
%TO.P,J1,2,Pin_2*%
%TO.N,/P0_08*%
X118000000Y-57940000D03*
%TO.P,J1,3,Pin_3*%
%TO.N,/P0_17*%
X118000000Y-60480000D03*
%TO.P,J1,4,Pin_4*%
%TO.N,/P0_05*%
X118000000Y-63020000D03*
%TO.P,J1,5,Pin_5*%
%TO.N,/P0_03*%
X118000000Y-65560000D03*
%TO.P,J1,6,Pin_6*%
%TO.N,/P0_15*%
X118000000Y-68100000D03*
%TO.P,J1,7,Pin_7*%
%TO.N,/P0_04*%
X118000000Y-70640000D03*
%TO.P,J1,8,Pin_8*%
%TO.N,/P0_11*%
X118000000Y-73180000D03*
%TD*%
D15*
%TO.N,GND*%
X137200000Y-93400000D03*
X129800000Y-95800000D03*
X126100000Y-88900000D03*
X133600000Y-98700000D03*
X138300000Y-98700000D03*
%TO.N,+BATT*%
X132900000Y-96600000D03*
%TO.N,GND*%
X114000000Y-72900000D03*
X81500000Y-51500000D03*
X59700000Y-93900000D03*
X51500000Y-81500000D03*
X127500000Y-79700000D03*
X72900000Y-93900000D03*
X61500000Y-51500000D03*
X131600000Y-63500000D03*
X114000000Y-91400000D03*
X79500000Y-93900000D03*
X111500000Y-51500000D03*
X91500000Y-51500000D03*
X105900000Y-93700000D03*
X114000000Y-79500000D03*
X71500000Y-51500000D03*
X133200000Y-62600000D03*
X137100000Y-68700000D03*
X114000000Y-85800000D03*
X114000000Y-66300000D03*
X126500000Y-100200000D03*
X101500000Y-51500000D03*
X51500000Y-91500000D03*
X51500000Y-99500000D03*
X125100000Y-73100000D03*
X61500000Y-99500000D03*
X137100000Y-79700000D03*
X123800000Y-71500000D03*
X99300000Y-93900000D03*
X117000000Y-81100000D03*
X101500000Y-99500000D03*
X86100000Y-93900000D03*
X125600000Y-59200000D03*
X51500000Y-51500000D03*
X115900000Y-85800000D03*
X121000000Y-84700000D03*
X81500000Y-99500000D03*
X111500000Y-99500000D03*
X51500000Y-71500000D03*
X91500000Y-99500000D03*
X92700000Y-93900000D03*
X119300000Y-96600000D03*
X66300000Y-93900000D03*
X135800000Y-57800000D03*
X51500000Y-61500000D03*
X114000000Y-59700000D03*
X124500000Y-96700000D03*
X71500000Y-99500000D03*
%TO.N,+BATT*%
X138300000Y-64700000D03*
%TO.N,/SCL*%
X116775000Y-89400000D03*
X135600000Y-62000000D03*
%TO.N,/SDA*%
X135100000Y-57300000D03*
X115900000Y-98300000D03*
%TO.N,/INT*%
X137400000Y-64700000D03*
X119400000Y-89400000D03*
%TO.N,/SYNC*%
X118100000Y-89400000D03*
X136190773Y-64900000D03*
%TO.N,Net-(D2-A)*%
X131900000Y-57300000D03*
X122300000Y-57300000D03*
%TO.N,/~{RESET}*%
X133000000Y-57100000D03*
%TO.N,unconnected-(U2-RX5-Pad23)*%
X89400000Y-90100000D03*
%TO.N,unconnected-(U2-RX3-Pad21)*%
X76200000Y-90100000D03*
%TO.N,unconnected-(U2-RX8-Pad26)*%
X109200000Y-90100000D03*
%TO.N,unconnected-(U2-RX0-Pad16)*%
X56400000Y-90100000D03*
%TO.N,unconnected-(U2-RX7-Pad25)*%
X102600000Y-90100000D03*
%TO.N,unconnected-(U2-RX9-Pad2)*%
X75500000Y-56400000D03*
X103300000Y-56400000D03*
X90100000Y-56400000D03*
X57100000Y-56400000D03*
X76900000Y-56400000D03*
X88700000Y-56400000D03*
X70300000Y-56400000D03*
X95300000Y-56400000D03*
X96700000Y-56400000D03*
X101900000Y-56400000D03*
X62300000Y-56400000D03*
X63700000Y-56400000D03*
X68900000Y-56400000D03*
X55700000Y-56400000D03*
X82100000Y-56400000D03*
X108500000Y-56400000D03*
X109900000Y-56400000D03*
X83500000Y-56400000D03*
%TO.N,unconnected-(U2-RX12-Pad5)*%
X108500000Y-76200000D03*
X95300000Y-76200000D03*
X109900000Y-76200000D03*
X90100000Y-76200000D03*
X101900000Y-76200000D03*
X62300000Y-76200000D03*
X83500000Y-76200000D03*
X55700000Y-76200000D03*
X96700000Y-76200000D03*
X82100000Y-76200000D03*
X88700000Y-76200000D03*
X68900000Y-76200000D03*
X76900000Y-76200000D03*
X75500000Y-76200000D03*
X57100000Y-76200000D03*
X70300000Y-76200000D03*
X103300000Y-76200000D03*
X63700000Y-76200000D03*
%TO.N,unconnected-(U2-RX13-Pad7)*%
X108500000Y-82800000D03*
X57100000Y-82800000D03*
X62300000Y-82800000D03*
X83500000Y-82800000D03*
X103300000Y-82800000D03*
X95300000Y-82800000D03*
X96700000Y-82800000D03*
X68900000Y-82800000D03*
X82100000Y-82800000D03*
X76900000Y-82800000D03*
X109900000Y-82800000D03*
X63700000Y-82800000D03*
X55700000Y-82800000D03*
X88700000Y-82800000D03*
X70300000Y-82800000D03*
X75500000Y-82800000D03*
X101900000Y-82800000D03*
X90100000Y-82800000D03*
%TO.N,unconnected-(U2-RX14-Pad13)*%
X101900000Y-89400000D03*
X109900000Y-89400000D03*
X82100000Y-89400000D03*
X57100000Y-89400000D03*
X62300000Y-89400000D03*
X88700000Y-89400000D03*
X68900000Y-89400000D03*
X103300000Y-89400000D03*
X75500000Y-89400000D03*
X63700000Y-89400000D03*
X83500000Y-89400000D03*
X96700000Y-89400000D03*
X90100000Y-89400000D03*
X95300000Y-89400000D03*
X76900000Y-89400000D03*
X55700000Y-89400000D03*
X70300000Y-89400000D03*
X108500000Y-89400000D03*
%TO.N,unconnected-(U2-RX2-Pad18)*%
X69600000Y-90100000D03*
%TO.N,unconnected-(U2-RX6-Pad24)*%
X96000000Y-90100000D03*
%TO.N,unconnected-(U2-RX1-Pad17)*%
X63000000Y-90100000D03*
%TO.N,unconnected-(U2-RX4-Pad22)*%
X82800000Y-90100000D03*
%TO.N,unconnected-(U2-RX10-Pad3)*%
X96700000Y-63000000D03*
X55700000Y-63000000D03*
X88700000Y-63000000D03*
X90100000Y-63000000D03*
X95300000Y-63000000D03*
X83500000Y-63000000D03*
X62300000Y-63000000D03*
X68900000Y-63000000D03*
X109900000Y-63000000D03*
X76900000Y-63000000D03*
X82100000Y-63000000D03*
X70300000Y-63000000D03*
X108500000Y-63000000D03*
X101900000Y-63000000D03*
X63700000Y-63000000D03*
X57100000Y-63000000D03*
X103300000Y-63000000D03*
X75500000Y-63000000D03*
%TO.N,unconnected-(U2-RX11-Pad4)*%
X103300000Y-69600000D03*
X101900000Y-69600000D03*
X96700000Y-69600000D03*
X108500000Y-69600000D03*
X109900000Y-69600000D03*
X75500000Y-69600000D03*
X76900000Y-69600000D03*
X88700000Y-69600000D03*
X83500000Y-69600000D03*
X82100000Y-69600000D03*
X63700000Y-69600000D03*
X95300000Y-69600000D03*
X57100000Y-69600000D03*
X55700000Y-69600000D03*
X70300000Y-69600000D03*
X90100000Y-69600000D03*
X62300000Y-69600000D03*
X68900000Y-69600000D03*
%TD*%
D10*
%TO.N,/SDA*%
X115800000Y-98300000D02*
G75*
G02*
X115000000Y-97500000I0J800000D01*
G01*
X116171573Y-80528427D02*
G75*
G03*
X114999968Y-83356854I2828427J-2828473D01*
G01*
X132500000Y-60400000D02*
X132500000Y-63785786D01*
X132207107Y-64492893D02*
X116171573Y-80528427D01*
X115000000Y-83356854D02*
X115000000Y-97500000D01*
X132500000Y-63785786D02*
G75*
G02*
X132207114Y-64492900I-1000000J-14D01*
G01*
X115800000Y-98300000D02*
X115900000Y-98300000D01*
D16*
%TO.N,+BATT*%
X138300000Y-94600000D02*
G75*
G02*
X136300000Y-96600000I-2000000J0D01*
G01*
X132900000Y-96600000D02*
X136300000Y-96600000D01*
X138300000Y-94600000D02*
X138300000Y-64700000D01*
X136425000Y-59400000D02*
X136425000Y-57800000D01*
X137600000Y-63700000D02*
X137125000Y-63700000D01*
X133825000Y-59400000D02*
X136425000Y-59400000D01*
X134425000Y-55800000D02*
X125120000Y-55800000D01*
X138300000Y-64700000D02*
X138300000Y-64400000D01*
X123120000Y-53800000D02*
X123120000Y-51800000D01*
X136425000Y-63000000D02*
X136425000Y-59400000D01*
X137125000Y-63700000D02*
G75*
G02*
X136425000Y-63000000I0J700000D01*
G01*
X134425000Y-55800000D02*
G75*
G02*
X136425000Y-57800000I0J-2000000D01*
G01*
X137600000Y-63700000D02*
G75*
G02*
X138300000Y-64400000I0J-700000D01*
G01*
X125120000Y-55800000D02*
G75*
G02*
X123120000Y-53800000I0J2000000D01*
G01*
D10*
%TO.N,/SCL*%
X133825000Y-61400000D02*
X133825000Y-64946573D01*
X116775000Y-84067641D02*
X116775000Y-89400000D01*
X133825000Y-61400000D02*
X134585786Y-61400000D01*
X135292893Y-61692893D02*
X135600000Y-62000000D01*
X133239213Y-66360787D02*
X117653679Y-81946321D01*
X135292893Y-61692893D02*
G75*
G03*
X134585786Y-61400010I-707093J-707107D01*
G01*
X133239213Y-66360787D02*
G75*
G03*
X133824981Y-64946573I-1414213J1414187D01*
G01*
X117653679Y-81946321D02*
G75*
G03*
X116775029Y-84067641I2121321J-2121279D01*
G01*
%TO.N,/SDA*%
X134185786Y-57800000D02*
X133100000Y-57800000D01*
X133825000Y-60400000D02*
X132500000Y-60400000D01*
X132500000Y-58400000D02*
X132500000Y-60400000D01*
X135100000Y-57300000D02*
X134892893Y-57507107D01*
X133100000Y-57800000D02*
G75*
G03*
X132500000Y-58400000I0J-600000D01*
G01*
X134892893Y-57507107D02*
G75*
G02*
X134185786Y-57799990I-707093J707107D01*
G01*
%TO.N,/INT*%
X137400000Y-65100000D02*
X119692893Y-82807107D01*
X137400000Y-64700000D02*
X137400000Y-65100000D01*
X119400000Y-83514214D02*
X119400000Y-89400000D01*
X119692893Y-82807107D02*
G75*
G03*
X119400010Y-83514214I707107J-707093D01*
G01*
%TO.N,/SYNC*%
X136190773Y-64900000D02*
X118685786Y-82404987D01*
X118100000Y-83819200D02*
X118100000Y-89400000D01*
X118100000Y-83819200D02*
G75*
G02*
X118685786Y-82404987I2000000J0D01*
G01*
%TO.N,Net-(D2-A)*%
X122300000Y-57300000D02*
X131900000Y-57300000D01*
%TO.N,/~{RESET}*%
X133000000Y-57100000D02*
X132792893Y-56892893D01*
X132085786Y-56600000D02*
X119614214Y-56600000D01*
X118907107Y-56307107D02*
X118000000Y-55400000D01*
X118907107Y-56307107D02*
G75*
G03*
X119614214Y-56599990I707093J707107D01*
G01*
X132085786Y-56600000D02*
G75*
G02*
X132792900Y-56892886I14J-1000000D01*
G01*
D17*
%TO.N,unconnected-(U2-RX5-Pad23)*%
X89400000Y-54600000D02*
X89400000Y-90100000D01*
X89400000Y-90100000D02*
X89400000Y-91200000D01*
%TO.N,unconnected-(U2-RX3-Pad21)*%
X76200000Y-54600000D02*
X76200000Y-90200000D01*
X76200000Y-90200000D02*
X76200000Y-91200000D01*
%TO.N,unconnected-(U2-RX8-Pad26)*%
X109200000Y-90100000D02*
X109200000Y-91200000D01*
X109200000Y-54600000D02*
X109200000Y-90100000D01*
%TO.N,unconnected-(U2-RX0-Pad16)*%
X56400000Y-54600000D02*
X56400000Y-90100000D01*
X56400000Y-90100000D02*
X56400000Y-91200000D01*
%TO.N,unconnected-(U2-RX7-Pad25)*%
X102600000Y-54600000D02*
X102600000Y-90100000D01*
X102600000Y-90100000D02*
X102600000Y-91200000D01*
%TO.N,unconnected-(U2-RX2-Pad18)*%
X69600000Y-90100000D02*
X69600000Y-91200000D01*
X69600000Y-54600000D02*
X69600000Y-90100000D01*
%TO.N,unconnected-(U2-RX6-Pad24)*%
X96000000Y-90100000D02*
X96000000Y-91200000D01*
X96000000Y-54600000D02*
X96000000Y-90100000D01*
%TO.N,unconnected-(U2-RX1-Pad17)*%
X63000000Y-90100000D02*
X63000000Y-91200000D01*
X63000000Y-54600000D02*
X63000000Y-90100000D01*
%TO.N,unconnected-(U2-RX4-Pad22)*%
X82800000Y-90100000D02*
X82800000Y-91200000D01*
X82800000Y-54600000D02*
X82800000Y-90100000D01*
%TD*%
%TA.AperFunction,Conductor*%
%TO.N,GND*%
G36*
X117736147Y-50220462D02*
G01*
X117790685Y-50275000D01*
X117810647Y-50349500D01*
X117790685Y-50424000D01*
X117736147Y-50478538D01*
X117700211Y-50493423D01*
X117576512Y-50526568D01*
X117362419Y-50626402D01*
X117168920Y-50761891D01*
X117001888Y-50928923D01*
X116921552Y-51043655D01*
X116862469Y-51093232D01*
X116786512Y-51106625D01*
X116714036Y-51080245D01*
X116664459Y-51021162D01*
X116650499Y-50958192D01*
X116650499Y-50905133D01*
X116647585Y-50880010D01*
X116647584Y-50880008D01*
X116602206Y-50777235D01*
X116522765Y-50697794D01*
X116522764Y-50697793D01*
X116419994Y-50652416D01*
X116419991Y-50652415D01*
X116419982Y-50652414D01*
X116394865Y-50649500D01*
X116394859Y-50649500D01*
X114605133Y-50649500D01*
X114580010Y-50652414D01*
X114580007Y-50652415D01*
X114477235Y-50697793D01*
X114397793Y-50777235D01*
X114352416Y-50880005D01*
X114352415Y-50880008D01*
X114352415Y-50880009D01*
X114349500Y-50905135D01*
X114349500Y-50905136D01*
X114349500Y-50905140D01*
X114349500Y-52694866D01*
X114352414Y-52719989D01*
X114352415Y-52719992D01*
X114397793Y-52822764D01*
X114397794Y-52822765D01*
X114477235Y-52902206D01*
X114580009Y-52947585D01*
X114605135Y-52950500D01*
X116394864Y-52950499D01*
X116394866Y-52950499D01*
X116407427Y-52949042D01*
X116419991Y-52947585D01*
X116522765Y-52902206D01*
X116602206Y-52822765D01*
X116647585Y-52719991D01*
X116650500Y-52694865D01*
X116650499Y-52641808D01*
X116670460Y-52567311D01*
X116724997Y-52512773D01*
X116799496Y-52492809D01*
X116873997Y-52512770D01*
X116921552Y-52556345D01*
X117001890Y-52671078D01*
X117168923Y-52838111D01*
X117362411Y-52973593D01*
X117362420Y-52973599D01*
X117576508Y-53073430D01*
X117576513Y-53073432D01*
X117790000Y-53130634D01*
X117790000Y-52233012D01*
X117847007Y-52265925D01*
X117974174Y-52300000D01*
X118105826Y-52300000D01*
X118232993Y-52265925D01*
X118290000Y-52233012D01*
X118290000Y-53130633D01*
X118503486Y-53073432D01*
X118503491Y-53073430D01*
X118717579Y-52973599D01*
X118717588Y-52973593D01*
X118911076Y-52838111D01*
X119078111Y-52671076D01*
X119213593Y-52477588D01*
X119213599Y-52477579D01*
X119285374Y-52323656D01*
X119334951Y-52264573D01*
X119407427Y-52238193D01*
X119483384Y-52251586D01*
X119542467Y-52301163D01*
X119553793Y-52320211D01*
X119597633Y-52408254D01*
X119597636Y-52408258D01*
X119726127Y-52578406D01*
X119726128Y-52578407D01*
X119881441Y-52719994D01*
X119883697Y-52722051D01*
X119883698Y-52722052D01*
X120064977Y-52834296D01*
X120064983Y-52834299D01*
X120152189Y-52868082D01*
X120263802Y-52911321D01*
X120473390Y-52950500D01*
X120473393Y-52950500D01*
X120686607Y-52950500D01*
X120686610Y-52950500D01*
X120896198Y-52911321D01*
X121095019Y-52834298D01*
X121276302Y-52722052D01*
X121433872Y-52578407D01*
X121562366Y-52408255D01*
X121657405Y-52217389D01*
X121706688Y-52044177D01*
X121746276Y-51977986D01*
X121813657Y-51940455D01*
X121890776Y-51941643D01*
X121956969Y-51981231D01*
X121993312Y-52044179D01*
X122042594Y-52217388D01*
X122060881Y-52254112D01*
X122069695Y-52276007D01*
X122070923Y-52279931D01*
X122070925Y-52279935D01*
X122115075Y-52363066D01*
X122116857Y-52366531D01*
X122137634Y-52408255D01*
X122137640Y-52408263D01*
X122141264Y-52414116D01*
X122141085Y-52414226D01*
X122148043Y-52425141D01*
X122245146Y-52607979D01*
X122258573Y-52630810D01*
X122259674Y-52632508D01*
X122259677Y-52632513D01*
X122274989Y-52654042D01*
X122415318Y-52834299D01*
X122448720Y-52877204D01*
X122448971Y-52877558D01*
X122452293Y-52881794D01*
X122452624Y-52882218D01*
X122453003Y-52882705D01*
X122453155Y-52882894D01*
X122571452Y-53033757D01*
X122590349Y-53065160D01*
X122646490Y-53191419D01*
X122658442Y-53235601D01*
X122690196Y-53523121D01*
X122691411Y-53529289D01*
X122690349Y-53529498D01*
X122694500Y-53559061D01*
X122694500Y-53738822D01*
X122694500Y-53800000D01*
X122694500Y-53946716D01*
X122713792Y-54105602D01*
X122729870Y-54238013D01*
X122800089Y-54522904D01*
X122800091Y-54522911D01*
X122800092Y-54522912D01*
X122904144Y-54797276D01*
X123040509Y-55057096D01*
X123207197Y-55298586D01*
X123401778Y-55518222D01*
X123621414Y-55712803D01*
X123862904Y-55879491D01*
X123937357Y-55918567D01*
X123994047Y-55970865D01*
X124016992Y-56044501D01*
X124000046Y-56119744D01*
X123947748Y-56176434D01*
X123874112Y-56199379D01*
X123868113Y-56199500D01*
X119621530Y-56199500D01*
X119606927Y-56198783D01*
X119511854Y-56189420D01*
X119483208Y-56183722D01*
X119448192Y-56173101D01*
X119398830Y-56158128D01*
X119371845Y-56146950D01*
X119294083Y-56105387D01*
X119269795Y-56089159D01*
X119204975Y-56035963D01*
X119160049Y-55973270D01*
X119150499Y-55920784D01*
X119150499Y-54505133D01*
X119147585Y-54480010D01*
X119147584Y-54480008D01*
X119102206Y-54377235D01*
X119022765Y-54297794D01*
X119022764Y-54297793D01*
X118919994Y-54252416D01*
X118919991Y-54252415D01*
X118919982Y-54252414D01*
X118894865Y-54249500D01*
X118894859Y-54249500D01*
X117105133Y-54249500D01*
X117080010Y-54252414D01*
X117080007Y-54252415D01*
X116977235Y-54297793D01*
X116897793Y-54377235D01*
X116852416Y-54480005D01*
X116852415Y-54480008D01*
X116852415Y-54480009D01*
X116849500Y-54505135D01*
X116849500Y-54505136D01*
X116849500Y-54505140D01*
X116849500Y-56294866D01*
X116852414Y-56319989D01*
X116852415Y-56319992D01*
X116897793Y-56422764D01*
X116897794Y-56422765D01*
X116977235Y-56502206D01*
X117080009Y-56547585D01*
X117105135Y-56550500D01*
X117604787Y-56550499D01*
X117679285Y-56570461D01*
X117733823Y-56624999D01*
X117753785Y-56699499D01*
X117733823Y-56773999D01*
X117679285Y-56828537D01*
X117658610Y-56838437D01*
X117484983Y-56905700D01*
X117484977Y-56905703D01*
X117303698Y-57017947D01*
X117303697Y-57017948D01*
X117146127Y-57161593D01*
X117017636Y-57331740D01*
X116922594Y-57522612D01*
X116922593Y-57522614D01*
X116875014Y-57689837D01*
X116864401Y-57727140D01*
X116864243Y-57727694D01*
X116844571Y-57939995D01*
X116844571Y-57940004D01*
X116864243Y-58152305D01*
X116864243Y-58152307D01*
X116864244Y-58152310D01*
X116880734Y-58210264D01*
X116922593Y-58357385D01*
X116922594Y-58357387D01*
X117017636Y-58548259D01*
X117146127Y-58718406D01*
X117303697Y-58862051D01*
X117303698Y-58862052D01*
X117484977Y-58974296D01*
X117484983Y-58974299D01*
X117485502Y-58974500D01*
X117683802Y-59051321D01*
X117749152Y-59063537D01*
X117818716Y-59096849D01*
X117862303Y-59160480D01*
X117868236Y-59237379D01*
X117834924Y-59306943D01*
X117771293Y-59350530D01*
X117749153Y-59356462D01*
X117683802Y-59368679D01*
X117683795Y-59368681D01*
X117484983Y-59445700D01*
X117484977Y-59445703D01*
X117303698Y-59557947D01*
X117303697Y-59557948D01*
X117146127Y-59701593D01*
X117017636Y-59871740D01*
X116922594Y-60062612D01*
X116922593Y-60062614D01*
X116864243Y-60267694D01*
X116844571Y-60479995D01*
X116844571Y-60480004D01*
X116864243Y-60692305D01*
X116922593Y-60897385D01*
X116922594Y-60897387D01*
X117017636Y-61088259D01*
X117126956Y-61233020D01*
X117146128Y-61258407D01*
X117263578Y-61365477D01*
X117303697Y-61402051D01*
X117303698Y-61402052D01*
X117484977Y-61514296D01*
X117484983Y-61514299D01*
X117572189Y-61548082D01*
X117683802Y-61591321D01*
X117749152Y-61603537D01*
X117818716Y-61636849D01*
X117862303Y-61700480D01*
X117868236Y-61777379D01*
X117834924Y-61846943D01*
X117771293Y-61890530D01*
X117749153Y-61896462D01*
X117722046Y-61901530D01*
X117683802Y-61908679D01*
X117683795Y-61908681D01*
X117484983Y-61985700D01*
X117484977Y-61985703D01*
X117303698Y-62097947D01*
X117303697Y-62097948D01*
X117146127Y-62241593D01*
X117017636Y-62411740D01*
X116922594Y-62602612D01*
X116922593Y-62602614D01*
X116864243Y-62807694D01*
X116844571Y-63019995D01*
X116844571Y-63020004D01*
X116864243Y-63232305D01*
X116922593Y-63437385D01*
X116922594Y-63437387D01*
X117017636Y-63628259D01*
X117142099Y-63793072D01*
X117146128Y-63798407D01*
X117232970Y-63877574D01*
X117303697Y-63942051D01*
X117303698Y-63942052D01*
X117484977Y-64054296D01*
X117484983Y-64054299D01*
X117572189Y-64088082D01*
X117683802Y-64131321D01*
X117749152Y-64143537D01*
X117818716Y-64176849D01*
X117862303Y-64240480D01*
X117868236Y-64317379D01*
X117834924Y-64386943D01*
X117771293Y-64430530D01*
X117749153Y-64436462D01*
X117683802Y-64448679D01*
X117683795Y-64448681D01*
X117484983Y-64525700D01*
X117484977Y-64525703D01*
X117303698Y-64637947D01*
X117303697Y-64637948D01*
X117146127Y-64781593D01*
X117017636Y-64951740D01*
X116922594Y-65142612D01*
X116922593Y-65142614D01*
X116864243Y-65347694D01*
X116844571Y-65559995D01*
X116844571Y-65560004D01*
X116864243Y-65772305D01*
X116922593Y-65977385D01*
X116922594Y-65977387D01*
X117017636Y-66168259D01*
X117146127Y-66338406D01*
X117303697Y-66482051D01*
X117303698Y-66482052D01*
X117484977Y-66594296D01*
X117484983Y-66594299D01*
X117572189Y-66628082D01*
X117683802Y-66671321D01*
X117749152Y-66683537D01*
X117818716Y-66716849D01*
X117862303Y-66780480D01*
X117868236Y-66857379D01*
X117834924Y-66926943D01*
X117771293Y-66970530D01*
X117749153Y-66976462D01*
X117683802Y-66988679D01*
X117683795Y-66988681D01*
X117484983Y-67065700D01*
X117484977Y-67065703D01*
X117303698Y-67177947D01*
X117303697Y-67177948D01*
X117146127Y-67321593D01*
X117017636Y-67491740D01*
X116922594Y-67682612D01*
X116922593Y-67682614D01*
X116864243Y-67887694D01*
X116844571Y-68099995D01*
X116844571Y-68100004D01*
X116864243Y-68312305D01*
X116922593Y-68517385D01*
X116922594Y-68517387D01*
X117017636Y-68708259D01*
X117146127Y-68878406D01*
X117303697Y-69022051D01*
X117303698Y-69022052D01*
X117484977Y-69134296D01*
X117484983Y-69134299D01*
X117572189Y-69168082D01*
X117683802Y-69211321D01*
X117749152Y-69223537D01*
X117818716Y-69256849D01*
X117862303Y-69320480D01*
X117868236Y-69397379D01*
X117834924Y-69466943D01*
X117771293Y-69510530D01*
X117749153Y-69516462D01*
X117683802Y-69528679D01*
X117683795Y-69528681D01*
X117484983Y-69605700D01*
X117484977Y-69605703D01*
X117303698Y-69717947D01*
X117303697Y-69717948D01*
X117146127Y-69861593D01*
X117017636Y-70031740D01*
X116922594Y-70222612D01*
X116922593Y-70222614D01*
X116864243Y-70427694D01*
X116844571Y-70639995D01*
X116844571Y-70640004D01*
X116864243Y-70852305D01*
X116922593Y-71057385D01*
X116922594Y-71057387D01*
X117017636Y-71248259D01*
X117146127Y-71418406D01*
X117303697Y-71562051D01*
X117303698Y-71562052D01*
X117484977Y-71674296D01*
X117484983Y-71674299D01*
X117572189Y-71708082D01*
X117683802Y-71751321D01*
X117749152Y-71763537D01*
X117818716Y-71796849D01*
X117862303Y-71860480D01*
X117868236Y-71937379D01*
X117834924Y-72006943D01*
X117771293Y-72050530D01*
X117749153Y-72056462D01*
X117683802Y-72068679D01*
X117683795Y-72068681D01*
X117484983Y-72145700D01*
X117484977Y-72145703D01*
X117303698Y-72257947D01*
X117303697Y-72257948D01*
X117146127Y-72401593D01*
X117017636Y-72571740D01*
X116922594Y-72762612D01*
X116922593Y-72762614D01*
X116864243Y-72967694D01*
X116844571Y-73179995D01*
X116844571Y-73180004D01*
X116864243Y-73392305D01*
X116922593Y-73597385D01*
X116922594Y-73597387D01*
X117017636Y-73788259D01*
X117146127Y-73958406D01*
X117303697Y-74102051D01*
X117303698Y-74102052D01*
X117484977Y-74214296D01*
X117484983Y-74214299D01*
X117572189Y-74248082D01*
X117683802Y-74291321D01*
X117893390Y-74330500D01*
X117893393Y-74330500D01*
X118106607Y-74330500D01*
X118106610Y-74330500D01*
X118316198Y-74291321D01*
X118515019Y-74214298D01*
X118696302Y-74102052D01*
X118853872Y-73958407D01*
X118982366Y-73788255D01*
X119077405Y-73597389D01*
X119135756Y-73392310D01*
X119155429Y-73180000D01*
X119135756Y-72967690D01*
X119077405Y-72762611D01*
X118982366Y-72571745D01*
X118982364Y-72571743D01*
X118982363Y-72571740D01*
X118853872Y-72401593D01*
X118696302Y-72257948D01*
X118696301Y-72257947D01*
X118515022Y-72145703D01*
X118515016Y-72145700D01*
X118316204Y-72068681D01*
X118316200Y-72068680D01*
X118316198Y-72068679D01*
X118250846Y-72056462D01*
X118181284Y-72023151D01*
X118137696Y-71959521D01*
X118131763Y-71882621D01*
X118165075Y-71813058D01*
X118228705Y-71769470D01*
X118250843Y-71763537D01*
X118316198Y-71751321D01*
X118515019Y-71674298D01*
X118696302Y-71562052D01*
X118853872Y-71418407D01*
X118982366Y-71248255D01*
X119077405Y-71057389D01*
X119135756Y-70852310D01*
X119155429Y-70640000D01*
X119135756Y-70427690D01*
X119077405Y-70222611D01*
X118982366Y-70031745D01*
X118982364Y-70031743D01*
X118982363Y-70031740D01*
X118853872Y-69861593D01*
X118696302Y-69717948D01*
X118696301Y-69717947D01*
X118515022Y-69605703D01*
X118515016Y-69605700D01*
X118316204Y-69528681D01*
X118316200Y-69528680D01*
X118316198Y-69528679D01*
X118250846Y-69516462D01*
X118181284Y-69483151D01*
X118137696Y-69419521D01*
X118131763Y-69342621D01*
X118165075Y-69273058D01*
X118228705Y-69229470D01*
X118250843Y-69223537D01*
X118316198Y-69211321D01*
X118515019Y-69134298D01*
X118696302Y-69022052D01*
X118853872Y-68878407D01*
X118982366Y-68708255D01*
X119077405Y-68517389D01*
X119135756Y-68312310D01*
X119155429Y-68100000D01*
X119135756Y-67887690D01*
X119077405Y-67682611D01*
X118982366Y-67491745D01*
X118982364Y-67491743D01*
X118982363Y-67491740D01*
X118853872Y-67321593D01*
X118696302Y-67177948D01*
X118696301Y-67177947D01*
X118515022Y-67065703D01*
X118515016Y-67065700D01*
X118316204Y-66988681D01*
X118316200Y-66988680D01*
X118316198Y-66988679D01*
X118250846Y-66976462D01*
X118181284Y-66943151D01*
X118137696Y-66879521D01*
X118131763Y-66802621D01*
X118165075Y-66733058D01*
X118228705Y-66689470D01*
X118250843Y-66683537D01*
X118316198Y-66671321D01*
X118515019Y-66594298D01*
X118696302Y-66482052D01*
X118853872Y-66338407D01*
X118982366Y-66168255D01*
X119077405Y-65977389D01*
X119135756Y-65772310D01*
X119150595Y-65612171D01*
X119155429Y-65560004D01*
X119155429Y-65559995D01*
X119137805Y-65369807D01*
X119135756Y-65347690D01*
X119077405Y-65142611D01*
X118982366Y-64951745D01*
X118982364Y-64951743D01*
X118982363Y-64951740D01*
X118853872Y-64781593D01*
X118696302Y-64637948D01*
X118696301Y-64637947D01*
X118515022Y-64525703D01*
X118515016Y-64525700D01*
X118316204Y-64448681D01*
X118316200Y-64448680D01*
X118316198Y-64448679D01*
X118250846Y-64436462D01*
X118181284Y-64403151D01*
X118137696Y-64339521D01*
X118131763Y-64262621D01*
X118165075Y-64193058D01*
X118228705Y-64149470D01*
X118250843Y-64143537D01*
X118316198Y-64131321D01*
X118515019Y-64054298D01*
X118696302Y-63942052D01*
X118853872Y-63798407D01*
X118982366Y-63628255D01*
X119077405Y-63437389D01*
X119135756Y-63232310D01*
X119155429Y-63020000D01*
X119135756Y-62807690D01*
X119077405Y-62602611D01*
X118982366Y-62411745D01*
X118982364Y-62411743D01*
X118982363Y-62411740D01*
X118853872Y-62241593D01*
X118696302Y-62097948D01*
X118696301Y-62097947D01*
X118515022Y-61985703D01*
X118515016Y-61985700D01*
X118316204Y-61908681D01*
X118316200Y-61908680D01*
X118316198Y-61908679D01*
X118250846Y-61896462D01*
X118181284Y-61863151D01*
X118137696Y-61799521D01*
X118131763Y-61722621D01*
X118165075Y-61653058D01*
X118228705Y-61609470D01*
X118250843Y-61603537D01*
X118316198Y-61591321D01*
X118515019Y-61514298D01*
X118696302Y-61402052D01*
X118853872Y-61258407D01*
X118982366Y-61088255D01*
X119077405Y-60897389D01*
X119135756Y-60692310D01*
X119155429Y-60480000D01*
X119135756Y-60267690D01*
X119077405Y-60062611D01*
X118982366Y-59871745D01*
X118982364Y-59871743D01*
X118982363Y-59871740D01*
X118853872Y-59701593D01*
X118696302Y-59557948D01*
X118696301Y-59557947D01*
X118515022Y-59445703D01*
X118515016Y-59445700D01*
X118316204Y-59368681D01*
X118316200Y-59368680D01*
X118316198Y-59368679D01*
X118250846Y-59356462D01*
X118181284Y-59323151D01*
X118137696Y-59259521D01*
X118131763Y-59182621D01*
X118165075Y-59113058D01*
X118228705Y-59069470D01*
X118250843Y-59063537D01*
X118316198Y-59051321D01*
X118515019Y-58974298D01*
X118696302Y-58862052D01*
X118853872Y-58718407D01*
X118982366Y-58548255D01*
X119077405Y-58357389D01*
X119135756Y-58152310D01*
X119149823Y-58000499D01*
X119155429Y-57940004D01*
X119155429Y-57939995D01*
X119142119Y-57796355D01*
X119135756Y-57727690D01*
X119077405Y-57522611D01*
X118982366Y-57331745D01*
X118982364Y-57331743D01*
X118982363Y-57331740D01*
X118853872Y-57161593D01*
X118724360Y-57043526D01*
X118682752Y-56978583D01*
X118679191Y-56901537D01*
X118714629Y-56833033D01*
X118779572Y-56791425D01*
X118856618Y-56787864D01*
X118899240Y-56804376D01*
X118993456Y-56858771D01*
X118993457Y-56858771D01*
X118993460Y-56858773D01*
X119163074Y-56929027D01*
X119340408Y-56976541D01*
X119522426Y-57000501D01*
X119614220Y-57000500D01*
X121563846Y-57000500D01*
X121638346Y-57020462D01*
X121692884Y-57075000D01*
X121712846Y-57149500D01*
X121711571Y-57168948D01*
X121694318Y-57299997D01*
X121694318Y-57300002D01*
X121714954Y-57456757D01*
X121775463Y-57602840D01*
X121870842Y-57727140D01*
X121871718Y-57728282D01*
X121997159Y-57824536D01*
X122143238Y-57885044D01*
X122143241Y-57885044D01*
X122143243Y-57885045D01*
X122143240Y-57885045D01*
X122299997Y-57905682D01*
X122300000Y-57905682D01*
X122300003Y-57905682D01*
X122456756Y-57885045D01*
X122456759Y-57885044D01*
X122456762Y-57885044D01*
X122520559Y-57858617D01*
X122538800Y-57852411D01*
X122558266Y-57847165D01*
X122663987Y-57796348D01*
X122675810Y-57790346D01*
X122676703Y-57789868D01*
X122688211Y-57783385D01*
X122760799Y-57740392D01*
X122766847Y-57737000D01*
X122785453Y-57727136D01*
X122844756Y-57710153D01*
X122910614Y-57705509D01*
X122910618Y-57705508D01*
X122912215Y-57705102D01*
X122916368Y-57704581D01*
X122917199Y-57704448D01*
X122917203Y-57704477D01*
X122948960Y-57700500D01*
X131251070Y-57700500D01*
X131282560Y-57704540D01*
X131282585Y-57704392D01*
X131286800Y-57705084D01*
X131288684Y-57705326D01*
X131288852Y-57705369D01*
X131289382Y-57705508D01*
X131289386Y-57705509D01*
X131355240Y-57710153D01*
X131414550Y-57727140D01*
X131433103Y-57736976D01*
X131439241Y-57740419D01*
X131511779Y-57783381D01*
X131523295Y-57789869D01*
X131523840Y-57790160D01*
X131524187Y-57790346D01*
X131536012Y-57796349D01*
X131554655Y-57805310D01*
X131641738Y-57847168D01*
X131643667Y-57848065D01*
X131648757Y-57850433D01*
X131649315Y-57850684D01*
X131663422Y-57856609D01*
X131669011Y-57857671D01*
X131698211Y-57866393D01*
X131743235Y-57885043D01*
X131743236Y-57885043D01*
X131743238Y-57885044D01*
X131743240Y-57885044D01*
X131743243Y-57885045D01*
X131899997Y-57905682D01*
X131900000Y-57905682D01*
X131900003Y-57905682D01*
X131987627Y-57894146D01*
X132064095Y-57904213D01*
X132125285Y-57951166D01*
X132154800Y-58022423D01*
X132147089Y-58092831D01*
X132129900Y-58140056D01*
X132129899Y-58140059D01*
X132119244Y-58200490D01*
X132099500Y-58312468D01*
X132099500Y-58312471D01*
X132099500Y-63778469D01*
X132098783Y-63793072D01*
X132089420Y-63888145D01*
X132083722Y-63916793D01*
X132058128Y-64001169D01*
X132046950Y-64028155D01*
X132005387Y-64105916D01*
X131989159Y-64130203D01*
X131928619Y-64203972D01*
X131918799Y-64214807D01*
X115844579Y-80289027D01*
X115844262Y-80289387D01*
X115752550Y-80381099D01*
X115752547Y-80381103D01*
X115505551Y-80675455D01*
X115505550Y-80675457D01*
X115285140Y-80990229D01*
X115285137Y-80990233D01*
X115093019Y-81322986D01*
X115093010Y-81323003D01*
X114930609Y-81671262D01*
X114799185Y-82032337D01*
X114699729Y-82403497D01*
X114699725Y-82403513D01*
X114632998Y-82781914D01*
X114632997Y-82781924D01*
X114632997Y-82781925D01*
X114605513Y-83096031D01*
X114599502Y-83164722D01*
X114599501Y-83164728D01*
X114599500Y-83271845D01*
X114599500Y-83304124D01*
X114599500Y-83304127D01*
X114599500Y-97442417D01*
X114599500Y-97500000D01*
X114599500Y-97594481D01*
X114629060Y-97781118D01*
X114687453Y-97960832D01*
X114773240Y-98129199D01*
X114884310Y-98282073D01*
X115017927Y-98415690D01*
X115079257Y-98460249D01*
X115099170Y-98477615D01*
X115104160Y-98482814D01*
X115195433Y-98548136D01*
X115209184Y-98557423D01*
X115210268Y-98558113D01*
X115224831Y-98566824D01*
X115302520Y-98610412D01*
X115302569Y-98610439D01*
X115302635Y-98610476D01*
X115306776Y-98612756D01*
X115306858Y-98612800D01*
X115307171Y-98612969D01*
X115310998Y-98615001D01*
X115311066Y-98615037D01*
X115358696Y-98639888D01*
X115372184Y-98647853D01*
X115398858Y-98665562D01*
X115415779Y-98678639D01*
X115471279Y-98728281D01*
X115475976Y-98732482D01*
X115475983Y-98732486D01*
X115477078Y-98733300D01*
X115488211Y-98740937D01*
X115597159Y-98824536D01*
X115743238Y-98885044D01*
X115743241Y-98885044D01*
X115743243Y-98885045D01*
X115743240Y-98885045D01*
X115899997Y-98905682D01*
X115900000Y-98905682D01*
X115900003Y-98905682D01*
X116056757Y-98885045D01*
X116056758Y-98885044D01*
X116056762Y-98885044D01*
X116202841Y-98824536D01*
X116328282Y-98728282D01*
X116424536Y-98602841D01*
X116431479Y-98586078D01*
X131399500Y-98586078D01*
X131399500Y-98733921D01*
X131428341Y-98878911D01*
X131484916Y-99015497D01*
X131550532Y-99113697D01*
X131567049Y-99138416D01*
X131671584Y-99242951D01*
X131720685Y-99275759D01*
X131794502Y-99325083D01*
X131825444Y-99337899D01*
X131931087Y-99381658D01*
X132076082Y-99410500D01*
X132076086Y-99410500D01*
X132223914Y-99410500D01*
X132223918Y-99410500D01*
X132368913Y-99381658D01*
X132505495Y-99325084D01*
X132505495Y-99325083D01*
X132505497Y-99325083D01*
X132530213Y-99308567D01*
X132628416Y-99242951D01*
X132732951Y-99138416D01*
X132815084Y-99015495D01*
X132871658Y-98878913D01*
X132900500Y-98733918D01*
X132900500Y-98586082D01*
X132900499Y-98586078D01*
X134399500Y-98586078D01*
X134399500Y-98733921D01*
X134428341Y-98878911D01*
X134484916Y-99015497D01*
X134550532Y-99113697D01*
X134567049Y-99138416D01*
X134671584Y-99242951D01*
X134720685Y-99275759D01*
X134794502Y-99325083D01*
X134825444Y-99337899D01*
X134931087Y-99381658D01*
X135076082Y-99410500D01*
X135076086Y-99410500D01*
X135223914Y-99410500D01*
X135223918Y-99410500D01*
X135368913Y-99381658D01*
X135505495Y-99325084D01*
X135505495Y-99325083D01*
X135505497Y-99325083D01*
X135530213Y-99308567D01*
X135628416Y-99242951D01*
X135732951Y-99138416D01*
X135815084Y-99015495D01*
X135871658Y-98878913D01*
X135900500Y-98733918D01*
X135900500Y-98586082D01*
X135871658Y-98441087D01*
X135815084Y-98304505D01*
X135815083Y-98304502D01*
X135765759Y-98230685D01*
X135732951Y-98181584D01*
X135628416Y-98077049D01*
X135603697Y-98060532D01*
X135505497Y-97994916D01*
X135399852Y-97951157D01*
X135368913Y-97938342D01*
X135368911Y-97938341D01*
X135368912Y-97938341D01*
X135223921Y-97909500D01*
X135223918Y-97909500D01*
X135076082Y-97909500D01*
X135076078Y-97909500D01*
X134931088Y-97938341D01*
X134794502Y-97994916D01*
X134671585Y-98077048D01*
X134671580Y-98077052D01*
X134567052Y-98181580D01*
X134567048Y-98181585D01*
X134484916Y-98304502D01*
X134428341Y-98441088D01*
X134399500Y-98586078D01*
X132900499Y-98586078D01*
X132871658Y-98441087D01*
X132815084Y-98304505D01*
X132815083Y-98304502D01*
X132765759Y-98230685D01*
X132732951Y-98181584D01*
X132628416Y-98077049D01*
X132603697Y-98060532D01*
X132505497Y-97994916D01*
X132399852Y-97951157D01*
X132368913Y-97938342D01*
X132368911Y-97938341D01*
X132368912Y-97938341D01*
X132223921Y-97909500D01*
X132223918Y-97909500D01*
X132076082Y-97909500D01*
X132076078Y-97909500D01*
X131931088Y-97938341D01*
X131794502Y-97994916D01*
X131671585Y-98077048D01*
X131671580Y-98077052D01*
X131567052Y-98181580D01*
X131567048Y-98181585D01*
X131484916Y-98304502D01*
X131428341Y-98441088D01*
X131399500Y-98586078D01*
X116431479Y-98586078D01*
X116485044Y-98456762D01*
X116490452Y-98415690D01*
X116505682Y-98300002D01*
X116505682Y-98299997D01*
X116485045Y-98143242D01*
X116485044Y-98143240D01*
X116485044Y-98143238D01*
X116424536Y-97997159D01*
X116328282Y-97871718D01*
X116230074Y-97796360D01*
X116202840Y-97775463D01*
X116122944Y-97742369D01*
X116056762Y-97714956D01*
X116056760Y-97714955D01*
X116056756Y-97714954D01*
X116056759Y-97714954D01*
X115900003Y-97694318D01*
X115899996Y-97694318D01*
X115856462Y-97700049D01*
X115834947Y-97701310D01*
X115834404Y-97701302D01*
X115796948Y-97707764D01*
X115791069Y-97708658D01*
X115743240Y-97714955D01*
X115733810Y-97717482D01*
X115733653Y-97716897D01*
X115721313Y-97720469D01*
X115721316Y-97720486D01*
X115721350Y-97720622D01*
X115721345Y-97720623D01*
X115721364Y-97720713D01*
X115718807Y-97721247D01*
X115677196Y-97731477D01*
X115677161Y-97731487D01*
X115674084Y-97732477D01*
X115674073Y-97732481D01*
X115674068Y-97732483D01*
X115657705Y-97739048D01*
X115633763Y-97748656D01*
X115557187Y-97757872D01*
X115486263Y-97727566D01*
X115440620Y-97667392D01*
X115421618Y-97621517D01*
X115411552Y-97583949D01*
X115401775Y-97509683D01*
X115400500Y-97490235D01*
X115400500Y-83360498D01*
X115400680Y-83353185D01*
X115404677Y-83271845D01*
X115417477Y-83011351D01*
X115418907Y-82996823D01*
X115468599Y-82661856D01*
X115471446Y-82647549D01*
X115553727Y-82319078D01*
X115557963Y-82305110D01*
X115672050Y-81986269D01*
X115677631Y-81972796D01*
X115822417Y-81666680D01*
X115829292Y-81653817D01*
X116003391Y-81363356D01*
X116011497Y-81351226D01*
X116213208Y-81079255D01*
X116222482Y-81067956D01*
X116292931Y-80990229D01*
X116452797Y-80813846D01*
X116457797Y-80808594D01*
X132437322Y-64829068D01*
X132437327Y-64829065D01*
X132446659Y-64819734D01*
X132446694Y-64819713D01*
X132490312Y-64776092D01*
X132490313Y-64776093D01*
X132555220Y-64711184D01*
X132666980Y-64565533D01*
X132758773Y-64406540D01*
X132829027Y-64236926D01*
X132876541Y-64059592D01*
X132900501Y-63877574D01*
X132900500Y-63785780D01*
X132900500Y-63769113D01*
X132900500Y-62132479D01*
X132920462Y-62057979D01*
X132975000Y-62003441D01*
X133049500Y-61983479D01*
X133098713Y-61991841D01*
X133115301Y-61997646D01*
X133145734Y-62000500D01*
X133275500Y-62000500D01*
X133350000Y-62020462D01*
X133404538Y-62075000D01*
X133424500Y-62149500D01*
X133424500Y-64941703D01*
X133424181Y-64951446D01*
X133411457Y-65145611D01*
X133408913Y-65164935D01*
X133371908Y-65350982D01*
X133366864Y-65369807D01*
X133305891Y-65549436D01*
X133298434Y-65567439D01*
X133273253Y-65618505D01*
X133214536Y-65737574D01*
X133204791Y-65754453D01*
X133099400Y-65912185D01*
X133087535Y-65927648D01*
X132959440Y-66073715D01*
X132952778Y-66080828D01*
X132924038Y-66109570D01*
X132924034Y-66109574D01*
X117414932Y-81618673D01*
X117414839Y-81618726D01*
X117252336Y-81781231D01*
X117252333Y-81781235D01*
X117040374Y-82039514D01*
X116854757Y-82317317D01*
X116854755Y-82317320D01*
X116697259Y-82611983D01*
X116569402Y-82920667D01*
X116472417Y-83240401D01*
X116407243Y-83568077D01*
X116407242Y-83568082D01*
X116407242Y-83568085D01*
X116382993Y-83814333D01*
X116374498Y-83900594D01*
X116374500Y-84067636D01*
X116374500Y-88751062D01*
X116370458Y-88782560D01*
X116370607Y-88782585D01*
X116369914Y-88786801D01*
X116369674Y-88788675D01*
X116369492Y-88789372D01*
X116369490Y-88789383D01*
X116364844Y-88855241D01*
X116347857Y-88914546D01*
X116338011Y-88933118D01*
X116334569Y-88939256D01*
X116291600Y-89011804D01*
X116285271Y-89023027D01*
X116284804Y-89023897D01*
X116278654Y-89035997D01*
X116227781Y-89141841D01*
X116224500Y-89148901D01*
X116224255Y-89149447D01*
X116218390Y-89163418D01*
X116218387Y-89163431D01*
X116217323Y-89169028D01*
X116208604Y-89198217D01*
X116189954Y-89243242D01*
X116169318Y-89399997D01*
X116169318Y-89400002D01*
X116189954Y-89556757D01*
X116250463Y-89702840D01*
X116250464Y-89702841D01*
X116346718Y-89828282D01*
X116472159Y-89924536D01*
X116618238Y-89985044D01*
X116618241Y-89985044D01*
X116618243Y-89985045D01*
X116618240Y-89985045D01*
X116774997Y-90005682D01*
X116775000Y-90005682D01*
X116775003Y-90005682D01*
X116931757Y-89985045D01*
X116931758Y-89985044D01*
X116931762Y-89985044D01*
X117077841Y-89924536D01*
X117203282Y-89828282D01*
X117299536Y-89702841D01*
X117299841Y-89702103D01*
X117300328Y-89701468D01*
X117304420Y-89694382D01*
X117305352Y-89694920D01*
X117346793Y-89640913D01*
X117418050Y-89611397D01*
X117494518Y-89621463D01*
X117555709Y-89668415D01*
X117575158Y-89702102D01*
X117575464Y-89702841D01*
X117671718Y-89828282D01*
X117797159Y-89924536D01*
X117943238Y-89985044D01*
X117943241Y-89985044D01*
X117943243Y-89985045D01*
X117943240Y-89985045D01*
X118099997Y-90005682D01*
X118100000Y-90005682D01*
X118100003Y-90005682D01*
X118256757Y-89985045D01*
X118256758Y-89985044D01*
X118256762Y-89985044D01*
X118402841Y-89924536D01*
X118528282Y-89828282D01*
X118624536Y-89702841D01*
X118624536Y-89702840D01*
X118630481Y-89695093D01*
X118632983Y-89697013D01*
X118675482Y-89654503D01*
X118749979Y-89634530D01*
X118824482Y-89654482D01*
X118867021Y-89697009D01*
X118869519Y-89695093D01*
X118875463Y-89702840D01*
X118875464Y-89702841D01*
X118971718Y-89828282D01*
X119097159Y-89924536D01*
X119243238Y-89985044D01*
X119243241Y-89985044D01*
X119243243Y-89985045D01*
X119243240Y-89985045D01*
X119399997Y-90005682D01*
X119400000Y-90005682D01*
X119400003Y-90005682D01*
X119556757Y-89985045D01*
X119556758Y-89985044D01*
X119556762Y-89985044D01*
X119702841Y-89924536D01*
X119828282Y-89828282D01*
X119924536Y-89702841D01*
X119985044Y-89556762D01*
X120005682Y-89400000D01*
X119985044Y-89243238D01*
X119958620Y-89179447D01*
X119952411Y-89161198D01*
X119952300Y-89160787D01*
X119947166Y-89141735D01*
X119896349Y-89036012D01*
X119890346Y-89024187D01*
X119889868Y-89023294D01*
X119883386Y-89011787D01*
X119883385Y-89011786D01*
X119861034Y-88974050D01*
X119840417Y-88939240D01*
X119836993Y-88933136D01*
X119827136Y-88914543D01*
X119810153Y-88855240D01*
X119805510Y-88789389D01*
X119805101Y-88787780D01*
X119804580Y-88783625D01*
X119804449Y-88782808D01*
X119804477Y-88782803D01*
X119800500Y-88751040D01*
X119800500Y-83521530D01*
X119801217Y-83506928D01*
X119809538Y-83422429D01*
X119810580Y-83411847D01*
X119816274Y-83383217D01*
X119841873Y-83298823D01*
X119853049Y-83271845D01*
X119869852Y-83240408D01*
X119894614Y-83194078D01*
X119910833Y-83169804D01*
X119971384Y-83096020D01*
X119981186Y-83085205D01*
X137539386Y-65527005D01*
X137551987Y-65515760D01*
X137568367Y-65502736D01*
X137595550Y-65471374D01*
X137602756Y-65463635D01*
X137620146Y-65446245D01*
X137686940Y-65407685D01*
X137764068Y-65407687D01*
X137830862Y-65446253D01*
X137869424Y-65513049D01*
X137874500Y-65551609D01*
X137874500Y-94594684D01*
X137874120Y-94605314D01*
X137859234Y-94813442D01*
X137856209Y-94834484D01*
X137812987Y-95033172D01*
X137806997Y-95053570D01*
X137735937Y-95244089D01*
X137727106Y-95263427D01*
X137629662Y-95441884D01*
X137618168Y-95459769D01*
X137496313Y-95622547D01*
X137482392Y-95638613D01*
X137338613Y-95782392D01*
X137322547Y-95796313D01*
X137159769Y-95918168D01*
X137141884Y-95929662D01*
X136963427Y-96027106D01*
X136944089Y-96035937D01*
X136753570Y-96106997D01*
X136733172Y-96112987D01*
X136534484Y-96156209D01*
X136513442Y-96159234D01*
X136328793Y-96172440D01*
X136305312Y-96174120D01*
X136294684Y-96174500D01*
X133543806Y-96174500D01*
X133508915Y-96170357D01*
X133504663Y-96169333D01*
X133504666Y-96169333D01*
X133437603Y-96165869D01*
X133437603Y-96165868D01*
X133437588Y-96165868D01*
X133427270Y-96165334D01*
X133403239Y-96162115D01*
X133393600Y-96160014D01*
X133367167Y-96151610D01*
X133348243Y-96143586D01*
X133338478Y-96139022D01*
X133270586Y-96104245D01*
X133264125Y-96101031D01*
X133263617Y-96100785D01*
X133257946Y-96098120D01*
X133152897Y-96050058D01*
X133148377Y-96048034D01*
X133147994Y-96047867D01*
X133145428Y-96046804D01*
X133136666Y-96043175D01*
X133136664Y-96043174D01*
X133136663Y-96043174D01*
X133129941Y-96041896D01*
X133100750Y-96033176D01*
X133056761Y-96014955D01*
X132900003Y-95994318D01*
X132899997Y-95994318D01*
X132743242Y-96014954D01*
X132597159Y-96075463D01*
X132471718Y-96171717D01*
X132471717Y-96171718D01*
X132375463Y-96297159D01*
X132314954Y-96443242D01*
X132294318Y-96599997D01*
X132294318Y-96600002D01*
X132314954Y-96756757D01*
X132375463Y-96902840D01*
X132375464Y-96902841D01*
X132471718Y-97028282D01*
X132597159Y-97124536D01*
X132743238Y-97185044D01*
X132743241Y-97185044D01*
X132743243Y-97185045D01*
X132743240Y-97185045D01*
X132899997Y-97205682D01*
X132900000Y-97205682D01*
X132900003Y-97205682D01*
X133056756Y-97185045D01*
X133056757Y-97185045D01*
X133056758Y-97185044D01*
X133056762Y-97185044D01*
X133114092Y-97161296D01*
X133135059Y-97154383D01*
X133152907Y-97149935D01*
X133257925Y-97101887D01*
X133264134Y-97098961D01*
X133264600Y-97098735D01*
X133270569Y-97095759D01*
X133338481Y-97060970D01*
X133348225Y-97056416D01*
X133367162Y-97048386D01*
X133393595Y-97039983D01*
X133403251Y-97037878D01*
X133427286Y-97034661D01*
X133504657Y-97030667D01*
X133506283Y-97030277D01*
X133509132Y-97029596D01*
X133543827Y-97025500D01*
X136446709Y-97025500D01*
X136446716Y-97025500D01*
X136738008Y-96990130D01*
X136738011Y-96990129D01*
X136738013Y-96990129D01*
X137022904Y-96919910D01*
X137022904Y-96919909D01*
X137022912Y-96919908D01*
X137297276Y-96815856D01*
X137557096Y-96679491D01*
X137798586Y-96512803D01*
X138018222Y-96318222D01*
X138212803Y-96098586D01*
X138379491Y-95857096D01*
X138515856Y-95597276D01*
X138515857Y-95597272D01*
X138517948Y-95593289D01*
X138519466Y-95594086D01*
X138563385Y-95540277D01*
X138635496Y-95512914D01*
X138711628Y-95525273D01*
X138771380Y-95574042D01*
X138798743Y-95646153D01*
X138799500Y-95661157D01*
X138799500Y-98995121D01*
X138799181Y-99004867D01*
X138784743Y-99225138D01*
X138782199Y-99244460D01*
X138740088Y-99456168D01*
X138735043Y-99474995D01*
X138665660Y-99679389D01*
X138658202Y-99697395D01*
X138562732Y-99890990D01*
X138552987Y-99907869D01*
X138433062Y-100087349D01*
X138421200Y-100102807D01*
X138388161Y-100140483D01*
X138278879Y-100265096D01*
X138265099Y-100278875D01*
X138102811Y-100421198D01*
X138087349Y-100433062D01*
X137907869Y-100552987D01*
X137890990Y-100562732D01*
X137697395Y-100658202D01*
X137679389Y-100665660D01*
X137474995Y-100735043D01*
X137456168Y-100740088D01*
X137244460Y-100782199D01*
X137225138Y-100784743D01*
X137024993Y-100797861D01*
X137004865Y-100799181D01*
X136995122Y-100799500D01*
X52004878Y-100799500D01*
X51995134Y-100799181D01*
X51972997Y-100797730D01*
X51774861Y-100784743D01*
X51755539Y-100782199D01*
X51543831Y-100740088D01*
X51525004Y-100735043D01*
X51320610Y-100665660D01*
X51302604Y-100658202D01*
X51109009Y-100562732D01*
X51092130Y-100552987D01*
X50912650Y-100433062D01*
X50897199Y-100421206D01*
X50734892Y-100278868D01*
X50721131Y-100265107D01*
X50578791Y-100102798D01*
X50566937Y-100087349D01*
X50447012Y-99907869D01*
X50437267Y-99890990D01*
X50341797Y-99697395D01*
X50334339Y-99679389D01*
X50264956Y-99474995D01*
X50259911Y-99456168D01*
X50217800Y-99244460D01*
X50215256Y-99225137D01*
X50200819Y-99004866D01*
X50200500Y-98995121D01*
X50200500Y-93600000D01*
X52200000Y-93600000D01*
X113400000Y-93600000D01*
X113400000Y-52200000D01*
X52200000Y-52200000D01*
X52200000Y-93600000D01*
X50200500Y-93600000D01*
X50200500Y-52004878D01*
X50200819Y-51995133D01*
X50209294Y-51865826D01*
X50215256Y-51774856D01*
X50217800Y-51755539D01*
X50229047Y-51699000D01*
X50259911Y-51543827D01*
X50264956Y-51525004D01*
X50271064Y-51507012D01*
X50334340Y-51320605D01*
X50341797Y-51302604D01*
X50437270Y-51109002D01*
X50447007Y-51092137D01*
X50566944Y-50912639D01*
X50578785Y-50897208D01*
X50721138Y-50734884D01*
X50734884Y-50721138D01*
X50897208Y-50578785D01*
X50912639Y-50566944D01*
X51092137Y-50447007D01*
X51109002Y-50437270D01*
X51302609Y-50341794D01*
X51320605Y-50334340D01*
X51525008Y-50264954D01*
X51543827Y-50259911D01*
X51755544Y-50217799D01*
X51774856Y-50215256D01*
X51995133Y-50200818D01*
X52004878Y-50200500D01*
X52039882Y-50200500D01*
X117661647Y-50200500D01*
X117736147Y-50220462D01*
G37*
%TD.AperFunction*%
%TA.AperFunction,Conductor*%
G36*
X135876290Y-57384402D02*
G01*
X135937480Y-57431354D01*
X135964866Y-57490388D01*
X135981209Y-57565513D01*
X135984234Y-57586556D01*
X135999120Y-57794680D01*
X135999500Y-57805310D01*
X135999500Y-58825500D01*
X135979538Y-58900000D01*
X135925000Y-58954538D01*
X135850500Y-58974500D01*
X135201997Y-58974500D01*
X135127497Y-58954538D01*
X135072959Y-58900000D01*
X135052997Y-58825500D01*
X135058913Y-58783930D01*
X135097100Y-58652488D01*
X135097296Y-58650000D01*
X133724000Y-58650000D01*
X133649500Y-58630038D01*
X133594962Y-58575500D01*
X133575000Y-58501000D01*
X133575000Y-58349500D01*
X133594962Y-58275000D01*
X133649500Y-58220462D01*
X133724000Y-58200500D01*
X134248830Y-58200500D01*
X134248965Y-58200490D01*
X134277574Y-58200491D01*
X134459590Y-58176531D01*
X134539661Y-58155077D01*
X134578224Y-58150000D01*
X135097296Y-58150000D01*
X135097296Y-58149999D01*
X135097100Y-58147511D01*
X135084179Y-58103036D01*
X135082564Y-58025925D01*
X135119721Y-57958337D01*
X135174979Y-57921940D01*
X135191133Y-57915888D01*
X135194771Y-57914499D01*
X135195033Y-57914397D01*
X135198232Y-57913130D01*
X135280841Y-57879892D01*
X135317786Y-57865029D01*
X135318126Y-57864891D01*
X135318654Y-57864679D01*
X135318728Y-57864649D01*
X135326420Y-57861407D01*
X135333389Y-57856666D01*
X135360163Y-57842213D01*
X135402841Y-57824536D01*
X135528282Y-57728282D01*
X135624536Y-57602841D01*
X135681617Y-57465035D01*
X135728564Y-57403852D01*
X135799821Y-57374336D01*
X135876290Y-57384402D01*
G37*
%TD.AperFunction*%
%TD*%
%TA.AperFunction,Conductor*%
%TO.N,/SDA*%
G36*
X115895081Y-98004326D02*
G01*
X115899865Y-98011896D01*
X115900035Y-98013855D01*
X115900768Y-98295736D01*
X115897363Y-98304018D01*
X115897314Y-98304066D01*
X115695693Y-98504358D01*
X115687408Y-98507758D01*
X115679647Y-98504779D01*
X115595083Y-98429140D01*
X115595080Y-98429138D01*
X115595078Y-98429136D01*
X115521223Y-98380103D01*
X115521216Y-98380100D01*
X115452316Y-98344151D01*
X115452003Y-98343982D01*
X115374314Y-98300394D01*
X115373230Y-98299704D01*
X115281957Y-98234382D01*
X115277223Y-98226781D01*
X115279252Y-98218059D01*
X115279597Y-98217601D01*
X115390664Y-98078327D01*
X115398500Y-98073997D01*
X115405147Y-98075212D01*
X115500888Y-98124327D01*
X115586462Y-98114365D01*
X115670147Y-98070625D01*
X115670332Y-98070532D01*
X115767642Y-98023300D01*
X115770753Y-98022299D01*
X115886347Y-98002355D01*
X115895081Y-98004326D01*
G37*
%TD.AperFunction*%
%TD*%
%TA.AperFunction,Conductor*%
%TO.N,+BATT*%
G36*
X133025448Y-96327711D02*
G01*
X133025770Y-96327852D01*
X133130837Y-96375922D01*
X133131276Y-96376134D01*
X133213844Y-96418429D01*
X133287025Y-96449459D01*
X133374458Y-96468515D01*
X133374465Y-96468515D01*
X133374468Y-96468516D01*
X133418493Y-96470789D01*
X133488904Y-96474426D01*
X133496989Y-96478275D01*
X133500000Y-96486110D01*
X133500000Y-96713889D01*
X133496573Y-96722162D01*
X133488903Y-96725573D01*
X133374468Y-96731482D01*
X133374464Y-96731483D01*
X133374459Y-96731483D01*
X133374458Y-96731484D01*
X133306765Y-96746237D01*
X133287020Y-96750541D01*
X133213832Y-96781574D01*
X133131289Y-96823856D01*
X133130823Y-96824082D01*
X133025805Y-96872130D01*
X133016856Y-96872456D01*
X133010298Y-96866359D01*
X133010141Y-96866002D01*
X132992582Y-96823976D01*
X132900883Y-96604509D01*
X132900857Y-96595556D01*
X132900862Y-96595542D01*
X133010142Y-96333994D01*
X133016493Y-96327684D01*
X133025448Y-96327711D01*
G37*
%TD.AperFunction*%
%TD*%
%TA.AperFunction,Conductor*%
%TO.N,+BATT*%
G36*
X138566002Y-64810141D02*
G01*
X138572314Y-64816493D01*
X138572287Y-64825448D01*
X138572130Y-64825805D01*
X138524082Y-64930823D01*
X138523856Y-64931289D01*
X138481574Y-65013832D01*
X138450541Y-65087020D01*
X138431483Y-65174464D01*
X138431482Y-65174468D01*
X138425573Y-65288903D01*
X138421724Y-65296989D01*
X138413889Y-65300000D01*
X138186111Y-65300000D01*
X138177838Y-65296573D01*
X138174427Y-65288904D01*
X138168516Y-65174467D01*
X138168515Y-65174464D01*
X138168515Y-65174458D01*
X138149459Y-65087025D01*
X138118429Y-65013844D01*
X138076134Y-64931276D01*
X138075915Y-64930823D01*
X138027867Y-64825803D01*
X138027542Y-64816856D01*
X138033639Y-64810298D01*
X138033945Y-64810163D01*
X138295490Y-64700883D01*
X138304444Y-64700857D01*
X138566002Y-64810141D01*
G37*
%TD.AperFunction*%
%TD*%
%TA.AperFunction,Conductor*%
%TO.N,+BATT*%
G36*
X123124484Y-51800863D02*
G01*
X123893421Y-52120346D01*
X123899746Y-52126685D01*
X123899737Y-52135640D01*
X123899265Y-52136639D01*
X123725046Y-52464676D01*
X123723945Y-52466375D01*
X123546836Y-52693878D01*
X123546811Y-52693911D01*
X123393383Y-52889574D01*
X123285656Y-53131847D01*
X123246150Y-53489584D01*
X123241836Y-53497431D01*
X123234521Y-53500000D01*
X123005479Y-53500000D01*
X122997206Y-53496573D01*
X122993850Y-53489584D01*
X122954342Y-53131847D01*
X122846615Y-52889574D01*
X122693188Y-52693911D01*
X122693189Y-52693909D01*
X122693162Y-52693878D01*
X122516052Y-52466375D01*
X122514951Y-52464676D01*
X122340734Y-52136639D01*
X122339880Y-52127725D01*
X122345579Y-52120818D01*
X122346566Y-52120351D01*
X123115511Y-51800864D01*
X123124466Y-51800856D01*
X123124484Y-51800863D01*
G37*
%TD.AperFunction*%
%TD*%
%TA.AperFunction,Conductor*%
%TO.N,+BATT*%
G36*
X138352595Y-64065679D02*
G01*
X138352625Y-64065742D01*
X138408918Y-64184441D01*
X138409016Y-64184652D01*
X138450630Y-64277113D01*
X138450750Y-64277388D01*
X138484666Y-64358208D01*
X138484722Y-64358344D01*
X138522873Y-64452578D01*
X138535257Y-64482828D01*
X138572764Y-64574447D01*
X138572727Y-64583402D01*
X138566449Y-64589674D01*
X138304938Y-64699016D01*
X138295984Y-64699045D01*
X138034423Y-64590024D01*
X138028106Y-64583679D01*
X138028126Y-64574725D01*
X138028461Y-64573993D01*
X138073827Y-64483651D01*
X138074277Y-64482839D01*
X138120735Y-64406540D01*
X138151785Y-64338659D01*
X138153911Y-64300906D01*
X138156037Y-64263157D01*
X138156037Y-64263156D01*
X138156036Y-64263155D01*
X138156037Y-64263153D01*
X138125657Y-64173378D01*
X138126251Y-64164444D01*
X138131661Y-64159090D01*
X138336979Y-64060213D01*
X138345918Y-64059712D01*
X138352595Y-64065679D01*
G37*
%TD.AperFunction*%
%TD*%
%TA.AperFunction,Conductor*%
%TO.N,/SCL*%
G36*
X116872369Y-88803427D02*
G01*
X116875767Y-88810877D01*
X116883936Y-88926728D01*
X116883936Y-88926731D01*
X116908897Y-89013639D01*
X116908899Y-89013644D01*
X116947093Y-89085687D01*
X116947114Y-89085724D01*
X116995527Y-89167466D01*
X116996005Y-89168359D01*
X117046822Y-89274082D01*
X117047318Y-89283023D01*
X117041346Y-89289696D01*
X117040788Y-89289947D01*
X116779511Y-89399115D01*
X116770556Y-89399142D01*
X116770489Y-89399115D01*
X116509210Y-89289947D01*
X116502898Y-89283595D01*
X116502925Y-89274640D01*
X116503155Y-89274128D01*
X116553998Y-89168346D01*
X116554468Y-89167470D01*
X116602893Y-89085709D01*
X116641102Y-89013640D01*
X116666062Y-88926727D01*
X116674233Y-88810877D01*
X116678233Y-88802865D01*
X116685904Y-88800000D01*
X116864096Y-88800000D01*
X116872369Y-88803427D01*
G37*
%TD.AperFunction*%
%TD*%
%TA.AperFunction,Conductor*%
%TO.N,/SCL*%
G36*
X135287106Y-61547451D02*
G01*
X135377583Y-61602287D01*
X135453491Y-61636143D01*
X135523102Y-61657799D01*
X135603900Y-61681730D01*
X135604605Y-61681965D01*
X135703452Y-61718625D01*
X135710018Y-61724715D01*
X135710354Y-61733663D01*
X135710208Y-61734037D01*
X135602686Y-61996033D01*
X135596375Y-62002386D01*
X135596309Y-62002413D01*
X135334934Y-62109832D01*
X135325980Y-62109807D01*
X135319665Y-62103457D01*
X135319238Y-62102228D01*
X135292239Y-62007848D01*
X135291837Y-62005697D01*
X135283938Y-61919476D01*
X135275744Y-61845476D01*
X135244269Y-61777423D01*
X135174009Y-61714716D01*
X135170120Y-61706652D01*
X135172072Y-61699489D01*
X135271317Y-61550956D01*
X135278760Y-61545983D01*
X135287106Y-61547451D01*
G37*
%TD.AperFunction*%
%TD*%
%TA.AperFunction,Conductor*%
%TO.N,/SDA*%
G36*
X134834693Y-57190074D02*
G01*
X135096405Y-57297759D01*
X135102752Y-57304076D01*
X135102777Y-57304138D01*
X135210333Y-57566265D01*
X135210303Y-57575219D01*
X135203950Y-57581530D01*
X135203876Y-57581560D01*
X135084201Y-57629710D01*
X135083939Y-57629812D01*
X134990489Y-57664828D01*
X134990346Y-57664881D01*
X134909031Y-57694145D01*
X134815379Y-57729236D01*
X134695390Y-57777513D01*
X134686436Y-57777422D01*
X134680214Y-57771136D01*
X134612014Y-57606478D01*
X134612014Y-57597523D01*
X134616907Y-57591907D01*
X134704303Y-57540697D01*
X134750790Y-57475484D01*
X134770653Y-57397266D01*
X134786847Y-57302632D01*
X134787195Y-57301171D01*
X134819067Y-57197458D01*
X134824772Y-57190559D01*
X134833687Y-57189713D01*
X134834693Y-57190074D01*
G37*
%TD.AperFunction*%
%TD*%
%TA.AperFunction,Conductor*%
%TO.N,/INT*%
G36*
X137404102Y-64702711D02*
G01*
X137404149Y-64702758D01*
X137604479Y-64904428D01*
X137607878Y-64912713D01*
X137605019Y-64920337D01*
X137532835Y-65003610D01*
X137487628Y-65077873D01*
X137454021Y-65145922D01*
X137453525Y-65146825D01*
X137409096Y-65219812D01*
X137407943Y-65221391D01*
X137337519Y-65302637D01*
X137329511Y-65306644D01*
X137321015Y-65303815D01*
X137320405Y-65303247D01*
X137194396Y-65177238D01*
X137190969Y-65168965D01*
X137192698Y-65162844D01*
X137243739Y-65079730D01*
X137230073Y-65000837D01*
X137179807Y-64920555D01*
X137179554Y-64920130D01*
X137175017Y-64912132D01*
X137126306Y-64826254D01*
X137125019Y-64822818D01*
X137102852Y-64714001D01*
X137104559Y-64705211D01*
X137111982Y-64700201D01*
X137114284Y-64699966D01*
X137395821Y-64699304D01*
X137404102Y-64702711D01*
G37*
%TD.AperFunction*%
%TD*%
%TA.AperFunction,Conductor*%
%TO.N,/INT*%
G36*
X119497369Y-88803427D02*
G01*
X119500767Y-88810877D01*
X119508936Y-88926728D01*
X119508936Y-88926731D01*
X119533897Y-89013639D01*
X119533899Y-89013644D01*
X119572093Y-89085687D01*
X119572114Y-89085724D01*
X119620527Y-89167466D01*
X119621005Y-89168359D01*
X119671822Y-89274082D01*
X119672318Y-89283023D01*
X119666346Y-89289696D01*
X119665788Y-89289947D01*
X119404511Y-89399115D01*
X119395556Y-89399142D01*
X119395489Y-89399115D01*
X119134210Y-89289947D01*
X119127898Y-89283595D01*
X119127925Y-89274640D01*
X119128155Y-89274128D01*
X119178998Y-89168346D01*
X119179468Y-89167470D01*
X119227893Y-89085709D01*
X119266102Y-89013640D01*
X119291062Y-88926727D01*
X119299233Y-88810877D01*
X119303233Y-88802865D01*
X119310904Y-88800000D01*
X119489096Y-88800000D01*
X119497369Y-88803427D01*
G37*
%TD.AperFunction*%
%TD*%
%TA.AperFunction,Conductor*%
%TO.N,/SYNC*%
G36*
X135924990Y-64789868D02*
G01*
X136122873Y-64871122D01*
X136186957Y-64897436D01*
X136193309Y-64903748D01*
X136193336Y-64903815D01*
X136300895Y-65165759D01*
X136300868Y-65174714D01*
X136294516Y-65181026D01*
X136293944Y-65181244D01*
X136183246Y-65220070D01*
X136182276Y-65220363D01*
X136090251Y-65243928D01*
X136090245Y-65243930D01*
X136012252Y-65267877D01*
X136012251Y-65267877D01*
X135933153Y-65311678D01*
X135845453Y-65387825D01*
X135836959Y-65390661D01*
X135829509Y-65387263D01*
X135703509Y-65261263D01*
X135700082Y-65252990D01*
X135702946Y-65245320D01*
X135779088Y-65157623D01*
X135779090Y-65157619D01*
X135779092Y-65157617D01*
X135822893Y-65078520D01*
X135822895Y-65078517D01*
X135846837Y-65000539D01*
X135870408Y-64908488D01*
X135870695Y-64907537D01*
X135909529Y-64796825D01*
X135915500Y-64790155D01*
X135924442Y-64789659D01*
X135924990Y-64789868D01*
G37*
%TD.AperFunction*%
%TD*%
%TA.AperFunction,Conductor*%
%TO.N,/SYNC*%
G36*
X118197369Y-88803427D02*
G01*
X118200767Y-88810877D01*
X118208936Y-88926728D01*
X118208936Y-88926731D01*
X118233897Y-89013639D01*
X118233899Y-89013644D01*
X118272093Y-89085687D01*
X118272114Y-89085724D01*
X118320527Y-89167466D01*
X118321005Y-89168359D01*
X118371822Y-89274082D01*
X118372318Y-89283023D01*
X118366346Y-89289696D01*
X118365788Y-89289947D01*
X118104511Y-89399115D01*
X118095556Y-89399142D01*
X118095489Y-89399115D01*
X117834210Y-89289947D01*
X117827898Y-89283595D01*
X117827925Y-89274640D01*
X117828155Y-89274128D01*
X117878998Y-89168346D01*
X117879468Y-89167470D01*
X117927893Y-89085709D01*
X117966102Y-89013640D01*
X117991062Y-88926727D01*
X117999233Y-88810877D01*
X118003233Y-88802865D01*
X118010904Y-88800000D01*
X118189096Y-88800000D01*
X118197369Y-88803427D01*
G37*
%TD.AperFunction*%
%TD*%
%TA.AperFunction,Conductor*%
%TO.N,Net-(D2-A)*%
G36*
X131789696Y-57033652D02*
G01*
X131789947Y-57034210D01*
X131899115Y-57295489D01*
X131899142Y-57304444D01*
X131899115Y-57304511D01*
X131789947Y-57565788D01*
X131783595Y-57572100D01*
X131774640Y-57572073D01*
X131774082Y-57571822D01*
X131668359Y-57521005D01*
X131667466Y-57520527D01*
X131585724Y-57472114D01*
X131585709Y-57472105D01*
X131585695Y-57472098D01*
X131585687Y-57472093D01*
X131513644Y-57433899D01*
X131513643Y-57433898D01*
X131513640Y-57433897D01*
X131491911Y-57427656D01*
X131426730Y-57408936D01*
X131310877Y-57400766D01*
X131302865Y-57396766D01*
X131300000Y-57389095D01*
X131300000Y-57210903D01*
X131303427Y-57202630D01*
X131310874Y-57199233D01*
X131426727Y-57191062D01*
X131426730Y-57191061D01*
X131426732Y-57191061D01*
X131513630Y-57166105D01*
X131513631Y-57166104D01*
X131513640Y-57166102D01*
X131585709Y-57127893D01*
X131667477Y-57079463D01*
X131668346Y-57078998D01*
X131774085Y-57028175D01*
X131783024Y-57027680D01*
X131789696Y-57033652D01*
G37*
%TD.AperFunction*%
%TD*%
%TA.AperFunction,Conductor*%
%TO.N,Net-(D2-A)*%
G36*
X122425359Y-57027926D02*
G01*
X122425915Y-57028176D01*
X122531654Y-57079000D01*
X122532517Y-57079462D01*
X122614290Y-57127893D01*
X122686359Y-57166102D01*
X122686364Y-57166103D01*
X122686368Y-57166105D01*
X122773268Y-57191061D01*
X122773272Y-57191062D01*
X122889124Y-57199232D01*
X122897135Y-57203232D01*
X122900000Y-57210903D01*
X122900000Y-57389095D01*
X122896573Y-57397368D01*
X122889123Y-57400766D01*
X122773270Y-57408936D01*
X122773267Y-57408936D01*
X122686359Y-57433897D01*
X122686354Y-57433899D01*
X122614311Y-57472093D01*
X122614274Y-57472114D01*
X122532531Y-57520527D01*
X122531638Y-57521005D01*
X122425917Y-57571822D01*
X122416976Y-57572318D01*
X122410303Y-57566346D01*
X122410052Y-57565788D01*
X122354945Y-57433897D01*
X122300883Y-57304509D01*
X122300857Y-57295556D01*
X122300862Y-57295542D01*
X122410052Y-57034210D01*
X122416404Y-57027899D01*
X122425359Y-57027926D01*
G37*
%TD.AperFunction*%
%TD*%
%TA.AperFunction,Conductor*%
%TO.N,/~{RESET}*%
G36*
X132649856Y-56644399D02*
G01*
X132715379Y-56670761D01*
X132809031Y-56705852D01*
X132809055Y-56705860D01*
X132809064Y-56705864D01*
X132890386Y-56735131D01*
X132983975Y-56770199D01*
X132984160Y-56770271D01*
X133103877Y-56818439D01*
X133110272Y-56824705D01*
X133110363Y-56833659D01*
X133110333Y-56833733D01*
X133002777Y-57095861D01*
X132996466Y-57102214D01*
X132996405Y-57102240D01*
X132734702Y-57209922D01*
X132725747Y-57209901D01*
X132719430Y-57203554D01*
X132719069Y-57202549D01*
X132687194Y-57098826D01*
X132686847Y-57097363D01*
X132686590Y-57095861D01*
X132670653Y-57002732D01*
X132650790Y-56924514D01*
X132604303Y-56859302D01*
X132560666Y-56833733D01*
X132516908Y-56808093D01*
X132511502Y-56800953D01*
X132512014Y-56793521D01*
X132580214Y-56628862D01*
X132586545Y-56622531D01*
X132595388Y-56622486D01*
X132649856Y-56644399D01*
G37*
%TD.AperFunction*%
%TD*%
%TA.AperFunction,Conductor*%
%TO.N,unconnected-(U2-RX5-Pad23)*%
G36*
X89414033Y-89503427D02*
G01*
X89417149Y-89509022D01*
X89420529Y-89523396D01*
X89420531Y-89523400D01*
X89483764Y-89615709D01*
X89485766Y-89621285D01*
X89485791Y-89621561D01*
X89486369Y-89628070D01*
X89486369Y-89628071D01*
X89486370Y-89628074D01*
X89517195Y-89714392D01*
X89517195Y-89714393D01*
X89562549Y-89785198D01*
X89617105Y-89866113D01*
X89617854Y-89867393D01*
X89671516Y-89973978D01*
X89672176Y-89982908D01*
X89666327Y-89989689D01*
X89665577Y-89990035D01*
X89404511Y-90099115D01*
X89395556Y-90099142D01*
X89395489Y-90099115D01*
X89134421Y-89990035D01*
X89128109Y-89983683D01*
X89128136Y-89974728D01*
X89128467Y-89974010D01*
X89182152Y-89867378D01*
X89182884Y-89866127D01*
X89237445Y-89785203D01*
X89282803Y-89714394D01*
X89313630Y-89628070D01*
X89314208Y-89621558D01*
X89317215Y-89614711D01*
X89335032Y-89595168D01*
X89384693Y-89506006D01*
X89391712Y-89500447D01*
X89394914Y-89500000D01*
X89405760Y-89500000D01*
X89414033Y-89503427D01*
G37*
%TD.AperFunction*%
%TD*%
%TA.AperFunction,Conductor*%
%TO.N,unconnected-(U2-RX5-Pad23)*%
G36*
X89594791Y-90180387D02*
G01*
X89665577Y-90209964D01*
X89671889Y-90216316D01*
X89671862Y-90225271D01*
X89671516Y-90226021D01*
X89617854Y-90332605D01*
X89617105Y-90333885D01*
X89562549Y-90414800D01*
X89517195Y-90485604D01*
X89517195Y-90485605D01*
X89486370Y-90571923D01*
X89486369Y-90571929D01*
X89475947Y-90689335D01*
X89471802Y-90697272D01*
X89464293Y-90700000D01*
X89335707Y-90700000D01*
X89327434Y-90696573D01*
X89324053Y-90689335D01*
X89313630Y-90571928D01*
X89282803Y-90485604D01*
X89237445Y-90414796D01*
X89182888Y-90333878D01*
X89182148Y-90332613D01*
X89128481Y-90226018D01*
X89127822Y-90217091D01*
X89133671Y-90210310D01*
X89134408Y-90209969D01*
X89395490Y-90100883D01*
X89404444Y-90100857D01*
X89594791Y-90180387D01*
G37*
%TD.AperFunction*%
%TD*%
%TA.AperFunction,Conductor*%
%TO.N,unconnected-(U2-RX3-Pad21)*%
G36*
X76214033Y-89503427D02*
G01*
X76217149Y-89509022D01*
X76220529Y-89523396D01*
X76220531Y-89523400D01*
X76283764Y-89615709D01*
X76285766Y-89621285D01*
X76285791Y-89621561D01*
X76286369Y-89628070D01*
X76286369Y-89628071D01*
X76286370Y-89628074D01*
X76317195Y-89714392D01*
X76317195Y-89714393D01*
X76362549Y-89785198D01*
X76417105Y-89866113D01*
X76417854Y-89867393D01*
X76471516Y-89973978D01*
X76472176Y-89982908D01*
X76466327Y-89989689D01*
X76465577Y-89990035D01*
X76204511Y-90099115D01*
X76195556Y-90099142D01*
X76195489Y-90099115D01*
X75934421Y-89990035D01*
X75928109Y-89983683D01*
X75928136Y-89974728D01*
X75928467Y-89974010D01*
X75982152Y-89867378D01*
X75982884Y-89866127D01*
X76037445Y-89785203D01*
X76082803Y-89714394D01*
X76113630Y-89628070D01*
X76114208Y-89621558D01*
X76117215Y-89614711D01*
X76135032Y-89595168D01*
X76184693Y-89506006D01*
X76191712Y-89500447D01*
X76194914Y-89500000D01*
X76205760Y-89500000D01*
X76214033Y-89503427D01*
G37*
%TD.AperFunction*%
%TD*%
%TA.AperFunction,Conductor*%
%TO.N,unconnected-(U2-RX3-Pad21)*%
G36*
X76394791Y-90180387D02*
G01*
X76465577Y-90209964D01*
X76471889Y-90216316D01*
X76471862Y-90225271D01*
X76471516Y-90226021D01*
X76417854Y-90332605D01*
X76417105Y-90333885D01*
X76362549Y-90414800D01*
X76317195Y-90485604D01*
X76317195Y-90485605D01*
X76286370Y-90571923D01*
X76286369Y-90571929D01*
X76275947Y-90689335D01*
X76271802Y-90697272D01*
X76264293Y-90700000D01*
X76135707Y-90700000D01*
X76127434Y-90696573D01*
X76124053Y-90689335D01*
X76113630Y-90571928D01*
X76082803Y-90485604D01*
X76037445Y-90414796D01*
X75982888Y-90333878D01*
X75982148Y-90332613D01*
X75928481Y-90226018D01*
X75927822Y-90217091D01*
X75933671Y-90210310D01*
X75934408Y-90209969D01*
X76195490Y-90100883D01*
X76204444Y-90100857D01*
X76394791Y-90180387D01*
G37*
%TD.AperFunction*%
%TD*%
%TA.AperFunction,Conductor*%
%TO.N,unconnected-(U2-RX8-Pad26)*%
G36*
X109394791Y-90180387D02*
G01*
X109465577Y-90209964D01*
X109471889Y-90216316D01*
X109471862Y-90225271D01*
X109471516Y-90226021D01*
X109417854Y-90332605D01*
X109417105Y-90333885D01*
X109362549Y-90414800D01*
X109317195Y-90485604D01*
X109317195Y-90485605D01*
X109286370Y-90571923D01*
X109286369Y-90571929D01*
X109275947Y-90689335D01*
X109271802Y-90697272D01*
X109264293Y-90700000D01*
X109135707Y-90700000D01*
X109127434Y-90696573D01*
X109124053Y-90689335D01*
X109113630Y-90571928D01*
X109082803Y-90485604D01*
X109037445Y-90414796D01*
X108982888Y-90333878D01*
X108982148Y-90332613D01*
X108928481Y-90226018D01*
X108927822Y-90217091D01*
X108933671Y-90210310D01*
X108934408Y-90209969D01*
X109195490Y-90100883D01*
X109204444Y-90100857D01*
X109394791Y-90180387D01*
G37*
%TD.AperFunction*%
%TD*%
%TA.AperFunction,Conductor*%
%TO.N,unconnected-(U2-RX8-Pad26)*%
G36*
X109214033Y-89503427D02*
G01*
X109217149Y-89509022D01*
X109220529Y-89523396D01*
X109220531Y-89523400D01*
X109283764Y-89615709D01*
X109285766Y-89621285D01*
X109285791Y-89621561D01*
X109286369Y-89628070D01*
X109286369Y-89628071D01*
X109286370Y-89628074D01*
X109317195Y-89714392D01*
X109317195Y-89714393D01*
X109362549Y-89785198D01*
X109417105Y-89866113D01*
X109417854Y-89867393D01*
X109471516Y-89973978D01*
X109472176Y-89982908D01*
X109466327Y-89989689D01*
X109465577Y-89990035D01*
X109204511Y-90099115D01*
X109195556Y-90099142D01*
X109195489Y-90099115D01*
X108934421Y-89990035D01*
X108928109Y-89983683D01*
X108928136Y-89974728D01*
X108928467Y-89974010D01*
X108982152Y-89867378D01*
X108982884Y-89866127D01*
X109037445Y-89785203D01*
X109082803Y-89714394D01*
X109113630Y-89628070D01*
X109114208Y-89621558D01*
X109117215Y-89614711D01*
X109135032Y-89595168D01*
X109184693Y-89506006D01*
X109191712Y-89500447D01*
X109194914Y-89500000D01*
X109205760Y-89500000D01*
X109214033Y-89503427D01*
G37*
%TD.AperFunction*%
%TD*%
%TA.AperFunction,Conductor*%
%TO.N,unconnected-(U2-RX0-Pad16)*%
G36*
X56414033Y-89503427D02*
G01*
X56417149Y-89509022D01*
X56420529Y-89523396D01*
X56420531Y-89523400D01*
X56483764Y-89615709D01*
X56485766Y-89621285D01*
X56485791Y-89621561D01*
X56486369Y-89628070D01*
X56486369Y-89628071D01*
X56486370Y-89628074D01*
X56517195Y-89714392D01*
X56517195Y-89714393D01*
X56562549Y-89785198D01*
X56617105Y-89866113D01*
X56617854Y-89867393D01*
X56671516Y-89973978D01*
X56672176Y-89982908D01*
X56666327Y-89989689D01*
X56665577Y-89990035D01*
X56404511Y-90099115D01*
X56395556Y-90099142D01*
X56395489Y-90099115D01*
X56134421Y-89990035D01*
X56128109Y-89983683D01*
X56128136Y-89974728D01*
X56128467Y-89974010D01*
X56182152Y-89867378D01*
X56182884Y-89866127D01*
X56237445Y-89785203D01*
X56282803Y-89714394D01*
X56313630Y-89628070D01*
X56314208Y-89621558D01*
X56317215Y-89614711D01*
X56335032Y-89595168D01*
X56384693Y-89506006D01*
X56391712Y-89500447D01*
X56394914Y-89500000D01*
X56405760Y-89500000D01*
X56414033Y-89503427D01*
G37*
%TD.AperFunction*%
%TD*%
%TA.AperFunction,Conductor*%
%TO.N,unconnected-(U2-RX0-Pad16)*%
G36*
X56594791Y-90180387D02*
G01*
X56665577Y-90209964D01*
X56671889Y-90216316D01*
X56671862Y-90225271D01*
X56671516Y-90226021D01*
X56617854Y-90332605D01*
X56617105Y-90333885D01*
X56562549Y-90414800D01*
X56517195Y-90485604D01*
X56517195Y-90485605D01*
X56486370Y-90571923D01*
X56486369Y-90571929D01*
X56475947Y-90689335D01*
X56471802Y-90697272D01*
X56464293Y-90700000D01*
X56335707Y-90700000D01*
X56327434Y-90696573D01*
X56324053Y-90689335D01*
X56313630Y-90571928D01*
X56282803Y-90485604D01*
X56237445Y-90414796D01*
X56182888Y-90333878D01*
X56182148Y-90332613D01*
X56128481Y-90226018D01*
X56127822Y-90217091D01*
X56133671Y-90210310D01*
X56134408Y-90209969D01*
X56395490Y-90100883D01*
X56404444Y-90100857D01*
X56594791Y-90180387D01*
G37*
%TD.AperFunction*%
%TD*%
%TA.AperFunction,Conductor*%
%TO.N,unconnected-(U2-RX7-Pad25)*%
G36*
X102614033Y-89503427D02*
G01*
X102617149Y-89509022D01*
X102620529Y-89523396D01*
X102620531Y-89523400D01*
X102683764Y-89615709D01*
X102685766Y-89621285D01*
X102685791Y-89621561D01*
X102686369Y-89628070D01*
X102686369Y-89628071D01*
X102686370Y-89628074D01*
X102717195Y-89714392D01*
X102717195Y-89714393D01*
X102762549Y-89785198D01*
X102817105Y-89866113D01*
X102817854Y-89867393D01*
X102871516Y-89973978D01*
X102872176Y-89982908D01*
X102866327Y-89989689D01*
X102865577Y-89990035D01*
X102604511Y-90099115D01*
X102595556Y-90099142D01*
X102595489Y-90099115D01*
X102334421Y-89990035D01*
X102328109Y-89983683D01*
X102328136Y-89974728D01*
X102328467Y-89974010D01*
X102382152Y-89867378D01*
X102382884Y-89866127D01*
X102437445Y-89785203D01*
X102482803Y-89714394D01*
X102513630Y-89628070D01*
X102514208Y-89621558D01*
X102517215Y-89614711D01*
X102535032Y-89595168D01*
X102584693Y-89506006D01*
X102591712Y-89500447D01*
X102594914Y-89500000D01*
X102605760Y-89500000D01*
X102614033Y-89503427D01*
G37*
%TD.AperFunction*%
%TD*%
%TA.AperFunction,Conductor*%
%TO.N,unconnected-(U2-RX7-Pad25)*%
G36*
X102794791Y-90180387D02*
G01*
X102865577Y-90209964D01*
X102871889Y-90216316D01*
X102871862Y-90225271D01*
X102871516Y-90226021D01*
X102817854Y-90332605D01*
X102817105Y-90333885D01*
X102762549Y-90414800D01*
X102717195Y-90485604D01*
X102717195Y-90485605D01*
X102686370Y-90571923D01*
X102686369Y-90571929D01*
X102675947Y-90689335D01*
X102671802Y-90697272D01*
X102664293Y-90700000D01*
X102535707Y-90700000D01*
X102527434Y-90696573D01*
X102524053Y-90689335D01*
X102513630Y-90571928D01*
X102482803Y-90485604D01*
X102437445Y-90414796D01*
X102382888Y-90333878D01*
X102382148Y-90332613D01*
X102328481Y-90226018D01*
X102327822Y-90217091D01*
X102333671Y-90210310D01*
X102334408Y-90209969D01*
X102595490Y-90100883D01*
X102604444Y-90100857D01*
X102794791Y-90180387D01*
G37*
%TD.AperFunction*%
%TD*%
%TA.AperFunction,Conductor*%
%TO.N,unconnected-(U2-RX2-Pad18)*%
G36*
X69794791Y-90180387D02*
G01*
X69865577Y-90209964D01*
X69871889Y-90216316D01*
X69871862Y-90225271D01*
X69871516Y-90226021D01*
X69817854Y-90332605D01*
X69817105Y-90333885D01*
X69762549Y-90414800D01*
X69717195Y-90485604D01*
X69717195Y-90485605D01*
X69686370Y-90571923D01*
X69686369Y-90571929D01*
X69675947Y-90689335D01*
X69671802Y-90697272D01*
X69664293Y-90700000D01*
X69535707Y-90700000D01*
X69527434Y-90696573D01*
X69524053Y-90689335D01*
X69513630Y-90571928D01*
X69482803Y-90485604D01*
X69437445Y-90414796D01*
X69382888Y-90333878D01*
X69382148Y-90332613D01*
X69328481Y-90226018D01*
X69327822Y-90217091D01*
X69333671Y-90210310D01*
X69334408Y-90209969D01*
X69595490Y-90100883D01*
X69604444Y-90100857D01*
X69794791Y-90180387D01*
G37*
%TD.AperFunction*%
%TD*%
%TA.AperFunction,Conductor*%
%TO.N,unconnected-(U2-RX2-Pad18)*%
G36*
X69614033Y-89503427D02*
G01*
X69617149Y-89509022D01*
X69620529Y-89523396D01*
X69620531Y-89523400D01*
X69683764Y-89615709D01*
X69685766Y-89621285D01*
X69685791Y-89621561D01*
X69686369Y-89628070D01*
X69686369Y-89628071D01*
X69686370Y-89628074D01*
X69717195Y-89714392D01*
X69717195Y-89714393D01*
X69762549Y-89785198D01*
X69817105Y-89866113D01*
X69817854Y-89867393D01*
X69871516Y-89973978D01*
X69872176Y-89982908D01*
X69866327Y-89989689D01*
X69865577Y-89990035D01*
X69604511Y-90099115D01*
X69595556Y-90099142D01*
X69595489Y-90099115D01*
X69334421Y-89990035D01*
X69328109Y-89983683D01*
X69328136Y-89974728D01*
X69328467Y-89974010D01*
X69382152Y-89867378D01*
X69382884Y-89866127D01*
X69437445Y-89785203D01*
X69482803Y-89714394D01*
X69513630Y-89628070D01*
X69514208Y-89621558D01*
X69517215Y-89614711D01*
X69535032Y-89595168D01*
X69584693Y-89506006D01*
X69591712Y-89500447D01*
X69594914Y-89500000D01*
X69605760Y-89500000D01*
X69614033Y-89503427D01*
G37*
%TD.AperFunction*%
%TD*%
%TA.AperFunction,Conductor*%
%TO.N,unconnected-(U2-RX6-Pad24)*%
G36*
X96194791Y-90180387D02*
G01*
X96265577Y-90209964D01*
X96271889Y-90216316D01*
X96271862Y-90225271D01*
X96271516Y-90226021D01*
X96217854Y-90332605D01*
X96217105Y-90333885D01*
X96162549Y-90414800D01*
X96117195Y-90485604D01*
X96117195Y-90485605D01*
X96086370Y-90571923D01*
X96086369Y-90571929D01*
X96075947Y-90689335D01*
X96071802Y-90697272D01*
X96064293Y-90700000D01*
X95935707Y-90700000D01*
X95927434Y-90696573D01*
X95924053Y-90689335D01*
X95913630Y-90571928D01*
X95882803Y-90485604D01*
X95837445Y-90414796D01*
X95782888Y-90333878D01*
X95782148Y-90332613D01*
X95728481Y-90226018D01*
X95727822Y-90217091D01*
X95733671Y-90210310D01*
X95734408Y-90209969D01*
X95995490Y-90100883D01*
X96004444Y-90100857D01*
X96194791Y-90180387D01*
G37*
%TD.AperFunction*%
%TD*%
%TA.AperFunction,Conductor*%
%TO.N,unconnected-(U2-RX6-Pad24)*%
G36*
X96014033Y-89503427D02*
G01*
X96017149Y-89509022D01*
X96020529Y-89523396D01*
X96020531Y-89523400D01*
X96083764Y-89615709D01*
X96085766Y-89621285D01*
X96085791Y-89621561D01*
X96086369Y-89628070D01*
X96086369Y-89628071D01*
X96086370Y-89628074D01*
X96117195Y-89714392D01*
X96117195Y-89714393D01*
X96162549Y-89785198D01*
X96217105Y-89866113D01*
X96217854Y-89867393D01*
X96271516Y-89973978D01*
X96272176Y-89982908D01*
X96266327Y-89989689D01*
X96265577Y-89990035D01*
X96004511Y-90099115D01*
X95995556Y-90099142D01*
X95995489Y-90099115D01*
X95734421Y-89990035D01*
X95728109Y-89983683D01*
X95728136Y-89974728D01*
X95728467Y-89974010D01*
X95782152Y-89867378D01*
X95782884Y-89866127D01*
X95837445Y-89785203D01*
X95882803Y-89714394D01*
X95913630Y-89628070D01*
X95914208Y-89621558D01*
X95917215Y-89614711D01*
X95935032Y-89595168D01*
X95984693Y-89506006D01*
X95991712Y-89500447D01*
X95994914Y-89500000D01*
X96005760Y-89500000D01*
X96014033Y-89503427D01*
G37*
%TD.AperFunction*%
%TD*%
%TA.AperFunction,Conductor*%
%TO.N,unconnected-(U2-RX1-Pad17)*%
G36*
X63194791Y-90180387D02*
G01*
X63265577Y-90209964D01*
X63271889Y-90216316D01*
X63271862Y-90225271D01*
X63271516Y-90226021D01*
X63217854Y-90332605D01*
X63217105Y-90333885D01*
X63162549Y-90414800D01*
X63117195Y-90485604D01*
X63117195Y-90485605D01*
X63086370Y-90571923D01*
X63086369Y-90571929D01*
X63075947Y-90689335D01*
X63071802Y-90697272D01*
X63064293Y-90700000D01*
X62935707Y-90700000D01*
X62927434Y-90696573D01*
X62924053Y-90689335D01*
X62913630Y-90571928D01*
X62882803Y-90485604D01*
X62837445Y-90414796D01*
X62782888Y-90333878D01*
X62782148Y-90332613D01*
X62728481Y-90226018D01*
X62727822Y-90217091D01*
X62733671Y-90210310D01*
X62734408Y-90209969D01*
X62995490Y-90100883D01*
X63004444Y-90100857D01*
X63194791Y-90180387D01*
G37*
%TD.AperFunction*%
%TD*%
%TA.AperFunction,Conductor*%
%TO.N,unconnected-(U2-RX1-Pad17)*%
G36*
X63014033Y-89503427D02*
G01*
X63017149Y-89509022D01*
X63020529Y-89523396D01*
X63020531Y-89523400D01*
X63083764Y-89615709D01*
X63085766Y-89621285D01*
X63085791Y-89621561D01*
X63086369Y-89628070D01*
X63086369Y-89628071D01*
X63086370Y-89628074D01*
X63117195Y-89714392D01*
X63117195Y-89714393D01*
X63162549Y-89785198D01*
X63217105Y-89866113D01*
X63217854Y-89867393D01*
X63271516Y-89973978D01*
X63272176Y-89982908D01*
X63266327Y-89989689D01*
X63265577Y-89990035D01*
X63004511Y-90099115D01*
X62995556Y-90099142D01*
X62995489Y-90099115D01*
X62734421Y-89990035D01*
X62728109Y-89983683D01*
X62728136Y-89974728D01*
X62728467Y-89974010D01*
X62782152Y-89867378D01*
X62782884Y-89866127D01*
X62837445Y-89785203D01*
X62882803Y-89714394D01*
X62913630Y-89628070D01*
X62914208Y-89621558D01*
X62917215Y-89614711D01*
X62935032Y-89595168D01*
X62984693Y-89506006D01*
X62991712Y-89500447D01*
X62994914Y-89500000D01*
X63005760Y-89500000D01*
X63014033Y-89503427D01*
G37*
%TD.AperFunction*%
%TD*%
%TA.AperFunction,Conductor*%
%TO.N,unconnected-(U2-RX4-Pad22)*%
G36*
X82994791Y-90180387D02*
G01*
X83065577Y-90209964D01*
X83071889Y-90216316D01*
X83071862Y-90225271D01*
X83071516Y-90226021D01*
X83017854Y-90332605D01*
X83017105Y-90333885D01*
X82962549Y-90414800D01*
X82917195Y-90485604D01*
X82917195Y-90485605D01*
X82886370Y-90571923D01*
X82886369Y-90571929D01*
X82875947Y-90689335D01*
X82871802Y-90697272D01*
X82864293Y-90700000D01*
X82735707Y-90700000D01*
X82727434Y-90696573D01*
X82724053Y-90689335D01*
X82713630Y-90571928D01*
X82682803Y-90485604D01*
X82637445Y-90414796D01*
X82582888Y-90333878D01*
X82582148Y-90332613D01*
X82528481Y-90226018D01*
X82527822Y-90217091D01*
X82533671Y-90210310D01*
X82534408Y-90209969D01*
X82795490Y-90100883D01*
X82804444Y-90100857D01*
X82994791Y-90180387D01*
G37*
%TD.AperFunction*%
%TD*%
%TA.AperFunction,Conductor*%
%TO.N,unconnected-(U2-RX4-Pad22)*%
G36*
X82814033Y-89503427D02*
G01*
X82817149Y-89509022D01*
X82820529Y-89523396D01*
X82820531Y-89523400D01*
X82883764Y-89615709D01*
X82885766Y-89621285D01*
X82885791Y-89621561D01*
X82886369Y-89628070D01*
X82886369Y-89628071D01*
X82886370Y-89628074D01*
X82917195Y-89714392D01*
X82917195Y-89714393D01*
X82962549Y-89785198D01*
X83017105Y-89866113D01*
X83017854Y-89867393D01*
X83071516Y-89973978D01*
X83072176Y-89982908D01*
X83066327Y-89989689D01*
X83065577Y-89990035D01*
X82804511Y-90099115D01*
X82795556Y-90099142D01*
X82795489Y-90099115D01*
X82534421Y-89990035D01*
X82528109Y-89983683D01*
X82528136Y-89974728D01*
X82528467Y-89974010D01*
X82582152Y-89867378D01*
X82582884Y-89866127D01*
X82637445Y-89785203D01*
X82682803Y-89714394D01*
X82713630Y-89628070D01*
X82714208Y-89621558D01*
X82717215Y-89614711D01*
X82735032Y-89595168D01*
X82784693Y-89506006D01*
X82791712Y-89500447D01*
X82794914Y-89500000D01*
X82805760Y-89500000D01*
X82814033Y-89503427D01*
G37*
%TD.AperFunction*%
%TD*%
M02*
