%TF.GenerationSoftware,KiCad,Pcbnew,8.0.8*%
%TF.CreationDate,2025-06-16T14:26:01+09:00*%
%TF.ProjectId,card,63617264-2e6b-4696-9361-645f70636258,rev?*%
%TF.SameCoordinates,Original*%
%TF.FileFunction,Copper,L1,Top*%
%TF.FilePolarity,Positive*%
%FSLAX46Y46*%
G04 Gerber Fmt 4.6, Leading zero omitted, Abs format (unit mm)*
G04 Created by KiCad (PCBNEW 8.0.8) date 2025-06-16 14:26:01*
%MOMM*%
%LPD*%
G01*
G04 APERTURE LIST*
G04 Aperture macros list*
%AMRoundRect*
0 Rectangle with rounded corners*
0 $1 Rounding radius*
0 $2 $3 $4 $5 $6 $7 $8 $9 X,Y pos of 4 corners*
0 Add a 4 corners polygon primitive as box body*
4,1,4,$2,$3,$4,$5,$6,$7,$8,$9,$2,$3,0*
0 Add four circle primitives for the rounded corners*
1,1,$1+$1,$2,$3*
1,1,$1+$1,$4,$5*
1,1,$1+$1,$6,$7*
1,1,$1+$1,$8,$9*
0 Add four rect primitives between the rounded corners*
20,1,$1+$1,$2,$3,$4,$5,0*
20,1,$1+$1,$4,$5,$6,$7,0*
20,1,$1+$1,$6,$7,$8,$9,0*
20,1,$1+$1,$8,$9,$2,$3,0*%
G04 Aperture macros list end*
%TA.AperFunction,SMDPad,CuDef*%
%ADD10RoundRect,0.200000X0.200000X0.275000X-0.200000X0.275000X-0.200000X-0.275000X0.200000X-0.275000X0*%
%TD*%
%TA.AperFunction,SMDPad,CuDef*%
%ADD11R,5.000000X5.000000*%
%TD*%
%TA.AperFunction,SMDPad,CuDef*%
%ADD12R,4.000000X4.000000*%
%TD*%
%TA.AperFunction,SMDPad,CuDef*%
%ADD13RoundRect,0.140000X-0.170000X0.140000X-0.170000X-0.140000X0.170000X-0.140000X0.170000X0.140000X0*%
%TD*%
%TA.AperFunction,SMDPad,CuDef*%
%ADD14R,0.450000X1.750000*%
%TD*%
%TA.AperFunction,SMDPad,CuDef*%
%ADD15RoundRect,0.200000X0.275000X-0.200000X0.275000X0.200000X-0.275000X0.200000X-0.275000X-0.200000X0*%
%TD*%
%TA.AperFunction,SMDPad,CuDef*%
%ADD16RoundRect,0.200000X-0.200000X-0.275000X0.200000X-0.275000X0.200000X0.275000X-0.200000X0.275000X0*%
%TD*%
%TA.AperFunction,SMDPad,CuDef*%
%ADD17RoundRect,0.250000X-1.000000X-0.650000X1.000000X-0.650000X1.000000X0.650000X-1.000000X0.650000X0*%
%TD*%
%TA.AperFunction,SMDPad,CuDef*%
%ADD18RoundRect,0.218750X0.256250X-0.218750X0.256250X0.218750X-0.256250X0.218750X-0.256250X-0.218750X0*%
%TD*%
%TA.AperFunction,SMDPad,CuDef*%
%ADD19R,0.800000X0.800000*%
%TD*%
%TA.AperFunction,SMDPad,CuDef*%
%ADD20R,0.400000X0.400000*%
%TD*%
%TA.AperFunction,SMDPad,CuDef*%
%ADD21RoundRect,0.250000X-0.650000X0.325000X-0.650000X-0.325000X0.650000X-0.325000X0.650000X0.325000X0*%
%TD*%
%TA.AperFunction,ComponentPad*%
%ADD22R,1.700000X1.700000*%
%TD*%
%TA.AperFunction,ComponentPad*%
%ADD23O,1.700000X1.700000*%
%TD*%
%TA.AperFunction,ViaPad*%
%ADD24C,0.600000*%
%TD*%
%TA.AperFunction,Conductor*%
%ADD25C,0.200000*%
%TD*%
%TA.AperFunction,Conductor*%
%ADD26C,0.250000*%
%TD*%
%TA.AperFunction,Conductor*%
%ADD27C,0.300000*%
%TD*%
%TA.AperFunction,Conductor*%
%ADD28C,0.150000*%
%TD*%
G04 APERTURE END LIST*
D10*
%TO.P,R4,1*%
%TO.N,+BATT*%
X138150000Y-63000000D03*
%TO.P,R4,2*%
%TO.N,/SYNC*%
X136500000Y-63000000D03*
%TD*%
%TO.P,R3,1*%
%TO.N,+BATT*%
X138150000Y-66000000D03*
%TO.P,R3,2*%
%TO.N,/INT*%
X136500000Y-66000000D03*
%TD*%
D11*
%TO.P,BT1,1,+*%
%TO.N,Net-(BT1-+)*%
X132790773Y-66750000D03*
X132790773Y-92650000D03*
D12*
%TO.P,BT1,2,-*%
%TO.N,GND*%
X132790773Y-79700000D03*
%TD*%
D13*
%TO.P,C2,1*%
%TO.N,+BATT*%
X128600000Y-98100000D03*
%TO.P,C2,2*%
%TO.N,GND*%
X128600000Y-99060000D03*
%TD*%
D14*
%TO.P,U2,1,NRST*%
%TO.N,Net-(U2-NRST)*%
X125225000Y-91100000D03*
%TO.P,U2,2,RX9*%
%TO.N,unconnected-(U2-RX9-Pad2)*%
X124575000Y-91100000D03*
%TO.P,U2,3,RX10*%
%TO.N,unconnected-(U2-RX10-Pad3)*%
X123925000Y-91100000D03*
%TO.P,U2,4,RX11*%
%TO.N,unconnected-(U2-RX11-Pad4)*%
X123275000Y-91100000D03*
%TO.P,U2,5,RX12*%
%TO.N,unconnected-(U2-RX12-Pad5)*%
X122625000Y-91100000D03*
%TO.P,U2,6,NC*%
%TO.N,unconnected-(U2-NC-Pad6)*%
X121975000Y-91100000D03*
%TO.P,U2,7,RX13*%
%TO.N,unconnected-(U2-RX13-Pad7)*%
X121325000Y-91100000D03*
%TO.P,U2,8,VSS*%
%TO.N,GND*%
X120675000Y-91100000D03*
%TO.P,U2,9,NC*%
%TO.N,unconnected-(U2-NC-Pad9)*%
X120025000Y-91100000D03*
%TO.P,U2,10,NC*%
%TO.N,unconnected-(U2-NC-Pad10)*%
X119375000Y-91100000D03*
%TO.P,U2,11,INT*%
%TO.N,/INT*%
X118725000Y-91100000D03*
%TO.P,U2,12,SYNC*%
%TO.N,/SYNC*%
X118075000Y-91100000D03*
%TO.P,U2,13,RX14*%
%TO.N,unconnected-(U2-RX14-Pad13)*%
X117425000Y-91100000D03*
%TO.P,U2,14,SCL*%
%TO.N,/SCL*%
X116775000Y-91100000D03*
%TO.P,U2,15,SDA*%
%TO.N,/SDA*%
X116775000Y-98300000D03*
%TO.P,U2,16,RX0*%
%TO.N,unconnected-(U2-RX0-Pad16)*%
X117425000Y-98300000D03*
%TO.P,U2,17,RX1*%
%TO.N,unconnected-(U2-RX1-Pad17)*%
X118075000Y-98300000D03*
%TO.P,U2,18,RX2*%
%TO.N,unconnected-(U2-RX2-Pad18)*%
X118725000Y-98300000D03*
%TO.P,U2,19,VSS*%
%TO.N,GND*%
X119375000Y-98300000D03*
%TO.P,U2,20,VDD*%
%TO.N,+BATT*%
X120025000Y-98300000D03*
%TO.P,U2,21,RX3*%
%TO.N,unconnected-(U2-RX3-Pad21)*%
X120675000Y-98300000D03*
%TO.P,U2,22,RX4*%
%TO.N,unconnected-(U2-RX4-Pad22)*%
X121325000Y-98300000D03*
%TO.P,U2,23,RX5*%
%TO.N,unconnected-(U2-RX5-Pad23)*%
X121975000Y-98300000D03*
%TO.P,U2,24,RX6*%
%TO.N,unconnected-(U2-RX6-Pad24)*%
X122625000Y-98300000D03*
%TO.P,U2,25,RX7*%
%TO.N,unconnected-(U2-RX7-Pad25)*%
X123275000Y-98300000D03*
%TO.P,U2,26,RX8*%
%TO.N,unconnected-(U2-RX8-Pad26)*%
X123925000Y-98300000D03*
%TO.P,U2,27,NC*%
%TO.N,unconnected-(U2-NC-Pad27)*%
X124575000Y-98300000D03*
%TO.P,U2,28,NC*%
%TO.N,unconnected-(U2-NC-Pad28)*%
X125225000Y-98300000D03*
%TD*%
D15*
%TO.P,R5,1*%
%TO.N,+BATT*%
X128600000Y-95025000D03*
%TO.P,R5,2*%
%TO.N,Net-(U2-NRST)*%
X128600000Y-93375000D03*
%TD*%
D16*
%TO.P,R2,1*%
%TO.N,+BATT*%
X113075000Y-98300000D03*
%TO.P,R2,2*%
%TO.N,/SDA*%
X114725000Y-98300000D03*
%TD*%
D13*
%TO.P,C1,1*%
%TO.N,+BATT*%
X127300000Y-98100000D03*
%TO.P,C1,2*%
%TO.N,GND*%
X127300000Y-99060000D03*
%TD*%
D17*
%TO.P,D1,1,K*%
%TO.N,+BATT*%
X131200000Y-97800000D03*
%TO.P,D1,2,A*%
%TO.N,Net-(BT1-+)*%
X135200000Y-97800000D03*
%TD*%
D18*
%TO.P,D2,1,K*%
%TO.N,Net-(D2-K)*%
X120600000Y-58900000D03*
%TO.P,D2,2,A*%
%TO.N,Net-(D2-A)*%
X120600000Y-57325000D03*
%TD*%
D19*
%TO.P,U1,1,VSS*%
%TO.N,GND*%
X137000000Y-59000000D03*
D20*
%TO.P,U1,2,P0_12*%
%TO.N,/SCL*%
X137200000Y-58100000D03*
%TO.P,U1,3*%
%TO.N,unconnected-(U1-Pad3)*%
X136550000Y-57775000D03*
%TO.P,U1,4,P0_14*%
%TO.N,/SYNC*%
X137200000Y-57450000D03*
%TO.P,U1,5*%
%TO.N,unconnected-(U1-Pad5)*%
X136550000Y-57125000D03*
%TO.P,U1,6,P0_18*%
%TO.N,/INT*%
X137200000Y-56800000D03*
D19*
%TO.P,U1,7,VSS*%
%TO.N,GND*%
X137000000Y-55900000D03*
D20*
%TO.P,U1,8,VSS*%
X136100000Y-55700000D03*
%TO.P,U1,9,P0_16*%
%TO.N,/SDA*%
X135775000Y-56350000D03*
%TO.P,U1,10,VSS*%
%TO.N,GND*%
X135450000Y-55700000D03*
%TO.P,U1,11*%
%TO.N,unconnected-(U1-Pad11)*%
X135125000Y-56350000D03*
%TO.P,U1,12,VSS*%
%TO.N,GND*%
X134800000Y-55700000D03*
%TO.P,U1,13,P0_21_nRST*%
%TO.N,/~{RESET}*%
X134475000Y-56350000D03*
%TO.P,U1,14,VSS*%
%TO.N,GND*%
X134150000Y-55700000D03*
%TO.P,U1,15*%
%TO.N,unconnected-(U1-Pad15)*%
X133825000Y-56350000D03*
%TO.P,U1,16,VSS*%
%TO.N,GND*%
X133500000Y-55700000D03*
%TO.P,U1,17*%
%TO.N,unconnected-(U1-Pad17)*%
X133175000Y-56350000D03*
%TO.P,U1,18,VSS*%
%TO.N,GND*%
X132850000Y-55700000D03*
%TO.P,U1,19,P0_20*%
%TO.N,Net-(D2-A)*%
X132525000Y-56350000D03*
%TO.P,U1,20,OUT_ANT*%
%TO.N,Net-(U1-OUT_ANT)*%
X132200000Y-55700000D03*
%TO.P,U1,21,VSS*%
%TO.N,GND*%
X131875000Y-56350000D03*
%TO.P,U1,22,OUT_MOD*%
%TO.N,Net-(U1-OUT_ANT)*%
X131550000Y-55700000D03*
%TO.P,U1,23,VSS*%
%TO.N,GND*%
X131225000Y-56350000D03*
%TO.P,U1,24,VSS*%
X130900000Y-55700000D03*
D19*
%TO.P,U1,25,VSS*%
X130000000Y-55900000D03*
D20*
%TO.P,U1,26,VCC_nRF*%
%TO.N,+BATT*%
X129800000Y-56800000D03*
%TO.P,U1,27*%
%TO.N,unconnected-(U1-Pad27)*%
X130450000Y-57125000D03*
%TO.P,U1,28,SWDIO*%
%TO.N,/SWDIO*%
X129800000Y-57450000D03*
%TO.P,U1,29*%
%TO.N,unconnected-(U1-Pad29)*%
X130450000Y-57775000D03*
%TO.P,U1,30,SWDCLK*%
%TO.N,/SWDCLK*%
X129800000Y-58100000D03*
D19*
%TO.P,U1,31,VSS*%
%TO.N,GND*%
X130000000Y-59000000D03*
D20*
%TO.P,U1,32,P0_08*%
%TO.N,/P0_08*%
X130900000Y-59200000D03*
%TO.P,U1,33*%
%TO.N,unconnected-(U1-Pad33)*%
X131225000Y-58550000D03*
%TO.P,U1,34,P0_17*%
%TO.N,/P0_17*%
X131550000Y-59200000D03*
%TO.P,U1,35*%
%TO.N,unconnected-(U1-Pad35)*%
X131875000Y-58550000D03*
%TO.P,U1,36,P0_05_AIN3*%
%TO.N,/P0_05*%
X132200000Y-59200000D03*
%TO.P,U1,37*%
%TO.N,unconnected-(U1-Pad37)*%
X132525000Y-58550000D03*
%TO.P,U1,38,P0_03_AIN1*%
%TO.N,/P0_03*%
X132850000Y-59200000D03*
%TO.P,U1,39*%
%TO.N,unconnected-(U1-Pad39)*%
X133175000Y-58550000D03*
%TO.P,U1,40,P0_01*%
%TO.N,unconnected-(U1-P0_01-Pad40)*%
X133500000Y-59200000D03*
%TO.P,U1,41*%
%TO.N,unconnected-(U1-Pad41)*%
X133825000Y-58550000D03*
%TO.P,U1,42,P0_00*%
%TO.N,unconnected-(U1-P0_00-Pad42)*%
X134150000Y-59200000D03*
%TO.P,U1,43*%
%TO.N,unconnected-(U1-Pad43)*%
X134475000Y-58550000D03*
%TO.P,U1,44,P0_15*%
%TO.N,/P0_15*%
X134800000Y-59200000D03*
%TO.P,U1,45*%
%TO.N,unconnected-(U1-Pad45)*%
X135125000Y-58550000D03*
%TO.P,U1,46,P0_04_AIN2*%
%TO.N,/P0_04*%
X135450000Y-59200000D03*
%TO.P,U1,47*%
%TO.N,unconnected-(U1-Pad47)*%
X135775000Y-58550000D03*
%TO.P,U1,48,P0_11*%
%TO.N,/P0_11*%
X136100000Y-59200000D03*
%TO.P,U1,49*%
%TO.N,N/C*%
X137200000Y-54950000D03*
%TO.P,U1,50*%
X137200000Y-53950000D03*
%TO.P,U1,51*%
X137200000Y-52950000D03*
D19*
%TO.P,U1,52*%
X137000000Y-52000000D03*
D20*
%TO.P,U1,53*%
X136000000Y-51800000D03*
%TO.P,U1,54*%
X135000000Y-51800000D03*
%TO.P,U1,55*%
X134000000Y-51800000D03*
%TO.P,U1,56*%
X133000000Y-51800000D03*
%TO.P,U1,57*%
X132000000Y-51800000D03*
%TO.P,U1,58*%
X131000000Y-51800000D03*
D19*
%TO.P,U1,59*%
X130000000Y-52000000D03*
D20*
%TO.P,U1,60*%
X129800000Y-52950000D03*
%TO.P,U1,61*%
X129800000Y-53950000D03*
%TO.P,U1,62*%
X129800000Y-54950000D03*
%TD*%
D16*
%TO.P,R6,1*%
%TO.N,Net-(D2-K)*%
X122250000Y-58900000D03*
%TO.P,R6,2*%
%TO.N,GND*%
X123900000Y-58900000D03*
%TD*%
D10*
%TO.P,R1,1*%
%TO.N,+BATT*%
X138150000Y-67500000D03*
%TO.P,R1,2*%
%TO.N,/SCL*%
X136500000Y-67500000D03*
%TD*%
D21*
%TO.P,C3,1*%
%TO.N,+BATT*%
X127700000Y-56400000D03*
%TO.P,C3,2*%
%TO.N,GND*%
X127700000Y-59350000D03*
%TD*%
D22*
%TO.P,J2,1,Pin_1*%
%TO.N,/SWDCLK*%
X115500000Y-51800000D03*
D23*
%TO.P,J2,2,Pin_2*%
%TO.N,GND*%
X118040000Y-51800000D03*
%TO.P,J2,3,Pin_3*%
%TO.N,/SWDIO*%
X120580000Y-51800000D03*
%TO.P,J2,4,Pin_4*%
%TO.N,+BATT*%
X123120000Y-51800000D03*
%TD*%
D22*
%TO.P,J1,1,Pin_1*%
%TO.N,/~{RESET}*%
X118000000Y-55400000D03*
D23*
%TO.P,J1,2,Pin_2*%
%TO.N,/P0_08*%
X118000000Y-57940000D03*
%TO.P,J1,3,Pin_3*%
%TO.N,/P0_17*%
X118000000Y-60480000D03*
%TO.P,J1,4,Pin_4*%
%TO.N,/P0_05*%
X118000000Y-63020000D03*
%TO.P,J1,5,Pin_5*%
%TO.N,/P0_03*%
X118000000Y-65560000D03*
%TO.P,J1,6,Pin_6*%
%TO.N,/P0_15*%
X118000000Y-68100000D03*
%TO.P,J1,7,Pin_7*%
%TO.N,/P0_04*%
X118000000Y-70640000D03*
%TO.P,J1,8,Pin_8*%
%TO.N,/P0_11*%
X118000000Y-73180000D03*
%TD*%
D24*
%TO.N,GND*%
X114000000Y-72900000D03*
X81500000Y-51500000D03*
X59700000Y-93900000D03*
X51500000Y-81500000D03*
X138200000Y-94100000D03*
X127500000Y-79700000D03*
X72900000Y-93900000D03*
X61500000Y-51500000D03*
X131600000Y-63500000D03*
X114000000Y-91400000D03*
X79500000Y-93900000D03*
X111500000Y-51500000D03*
X91500000Y-51500000D03*
X136800000Y-91700000D03*
X105900000Y-93700000D03*
X114000000Y-79500000D03*
X137500000Y-99500000D03*
X71500000Y-51500000D03*
X133200000Y-62600000D03*
X137000000Y-68600000D03*
X129300000Y-97200000D03*
X114000000Y-85800000D03*
X114000000Y-66300000D03*
X133100000Y-96700000D03*
X126500000Y-100200000D03*
X101500000Y-51500000D03*
X51500000Y-91500000D03*
X51500000Y-99500000D03*
X125100000Y-73100000D03*
X61500000Y-99500000D03*
X137100000Y-80100000D03*
X123800000Y-71500000D03*
X99300000Y-93900000D03*
X117000000Y-81100000D03*
X101500000Y-99500000D03*
X86100000Y-93900000D03*
X125600000Y-59200000D03*
X51500000Y-51500000D03*
X115900000Y-85800000D03*
X121000000Y-84700000D03*
X81500000Y-99500000D03*
X111500000Y-99500000D03*
X51500000Y-71500000D03*
X91500000Y-99500000D03*
X92700000Y-93900000D03*
X119300000Y-96600000D03*
X66300000Y-93900000D03*
X135800000Y-57800000D03*
X51500000Y-61500000D03*
X114000000Y-59700000D03*
X125400000Y-96600000D03*
X71500000Y-99500000D03*
%TO.N,+BATT*%
X133200000Y-97800000D03*
X138300000Y-64700000D03*
%TO.N,/SCL*%
X116775000Y-89400000D03*
X135600000Y-62000000D03*
%TO.N,/SDA*%
X135100000Y-57300000D03*
X115900000Y-98300000D03*
%TO.N,/INT*%
X137400000Y-64700000D03*
X119400000Y-89400000D03*
%TO.N,/SYNC*%
X118100000Y-89400000D03*
X136190773Y-64900000D03*
%TO.N,Net-(D2-A)*%
X131900000Y-57300000D03*
X122300000Y-57300000D03*
%TO.N,/~{RESET}*%
X133000000Y-57100000D03*
%TO.N,unconnected-(U2-RX5-Pad23)*%
X89400000Y-90100000D03*
%TO.N,unconnected-(U2-RX3-Pad21)*%
X76200000Y-90100000D03*
%TO.N,unconnected-(U2-RX8-Pad26)*%
X109200000Y-90100000D03*
%TO.N,unconnected-(U2-RX0-Pad16)*%
X56400000Y-90100000D03*
%TO.N,unconnected-(U2-RX7-Pad25)*%
X102600000Y-90100000D03*
%TO.N,unconnected-(U2-RX9-Pad2)*%
X75500000Y-56400000D03*
X103300000Y-56400000D03*
X90100000Y-56400000D03*
X57100000Y-56400000D03*
X76900000Y-56400000D03*
X88700000Y-56400000D03*
X70300000Y-56400000D03*
X95300000Y-56400000D03*
X96700000Y-56400000D03*
X101900000Y-56400000D03*
X62300000Y-56400000D03*
X63700000Y-56400000D03*
X68900000Y-56400000D03*
X55700000Y-56400000D03*
X82100000Y-56400000D03*
X108500000Y-56400000D03*
X109900000Y-56400000D03*
X83500000Y-56400000D03*
%TO.N,unconnected-(U2-RX12-Pad5)*%
X108500000Y-76200000D03*
X95300000Y-76200000D03*
X109900000Y-76200000D03*
X90100000Y-76200000D03*
X101900000Y-76200000D03*
X62300000Y-76200000D03*
X83500000Y-76200000D03*
X55700000Y-76200000D03*
X96700000Y-76200000D03*
X82100000Y-76200000D03*
X88700000Y-76200000D03*
X68900000Y-76200000D03*
X76900000Y-76200000D03*
X75500000Y-76200000D03*
X57100000Y-76200000D03*
X70300000Y-76200000D03*
X103300000Y-76200000D03*
X63700000Y-76200000D03*
%TO.N,unconnected-(U2-RX13-Pad7)*%
X108500000Y-82800000D03*
X57100000Y-82800000D03*
X62300000Y-82800000D03*
X83500000Y-82800000D03*
X103300000Y-82800000D03*
X95300000Y-82800000D03*
X96700000Y-82800000D03*
X68900000Y-82800000D03*
X82100000Y-82800000D03*
X76900000Y-82800000D03*
X109900000Y-82800000D03*
X63700000Y-82800000D03*
X55700000Y-82800000D03*
X88700000Y-82800000D03*
X70300000Y-82800000D03*
X75500000Y-82800000D03*
X101900000Y-82800000D03*
X90100000Y-82800000D03*
%TO.N,unconnected-(U2-RX14-Pad13)*%
X101900000Y-89400000D03*
X109900000Y-89400000D03*
X82100000Y-89400000D03*
X57100000Y-89400000D03*
X62300000Y-89400000D03*
X88700000Y-89400000D03*
X68900000Y-89400000D03*
X103300000Y-89400000D03*
X75500000Y-89400000D03*
X63700000Y-89400000D03*
X83500000Y-89400000D03*
X96700000Y-89400000D03*
X90100000Y-89400000D03*
X95300000Y-89400000D03*
X76900000Y-89400000D03*
X55700000Y-89400000D03*
X70300000Y-89400000D03*
X108500000Y-89400000D03*
%TO.N,unconnected-(U2-RX2-Pad18)*%
X69600000Y-90100000D03*
%TO.N,unconnected-(U2-RX6-Pad24)*%
X96000000Y-90100000D03*
%TO.N,unconnected-(U2-RX1-Pad17)*%
X63000000Y-90100000D03*
%TO.N,unconnected-(U2-RX4-Pad22)*%
X82800000Y-90100000D03*
%TO.N,unconnected-(U2-RX10-Pad3)*%
X96700000Y-63000000D03*
X55700000Y-63000000D03*
X88700000Y-63000000D03*
X90100000Y-63000000D03*
X95300000Y-63000000D03*
X83500000Y-63000000D03*
X62300000Y-63000000D03*
X68900000Y-63000000D03*
X109900000Y-63000000D03*
X76900000Y-63000000D03*
X82100000Y-63000000D03*
X70300000Y-63000000D03*
X108500000Y-63000000D03*
X101900000Y-63000000D03*
X63700000Y-63000000D03*
X57100000Y-63000000D03*
X103300000Y-63000000D03*
X75500000Y-63000000D03*
%TO.N,unconnected-(U2-RX11-Pad4)*%
X103300000Y-69600000D03*
X101900000Y-69600000D03*
X96700000Y-69600000D03*
X108500000Y-69600000D03*
X109900000Y-69600000D03*
X75500000Y-69600000D03*
X76900000Y-69600000D03*
X88700000Y-69600000D03*
X83500000Y-69600000D03*
X82100000Y-69600000D03*
X63700000Y-69600000D03*
X95300000Y-69600000D03*
X57100000Y-69600000D03*
X55700000Y-69600000D03*
X70300000Y-69600000D03*
X90100000Y-69600000D03*
X62300000Y-69600000D03*
X68900000Y-69600000D03*
%TD*%
D25*
%TO.N,GND*%
X118040000Y-51800000D02*
X116890000Y-50650000D01*
D26*
X137000000Y-55900000D02*
X137000000Y-55901040D01*
X120675000Y-91100000D02*
X120675000Y-92737500D01*
X121037500Y-93100000D02*
X123500000Y-93100000D01*
D25*
X136800000Y-55700000D02*
X137000000Y-55900000D01*
X130200000Y-55700000D02*
X130000000Y-55900000D01*
X129650000Y-59350000D02*
X130000000Y-59000000D01*
D26*
X131225000Y-57775000D02*
X131225000Y-56350000D01*
X125400000Y-95000000D02*
X125400000Y-96600000D01*
X119375000Y-98300000D02*
X119375000Y-96675000D01*
D25*
X130900000Y-55700000D02*
X130200000Y-55700000D01*
D26*
X119375000Y-96675000D02*
X119300000Y-96600000D01*
X133100000Y-63500000D02*
X136575745Y-60024255D01*
X137000000Y-55901040D02*
X135800000Y-57101040D01*
X120675000Y-91100000D02*
X120675000Y-89175000D01*
X130000000Y-59000000D02*
X131225000Y-57775000D01*
D25*
X112350000Y-50650000D02*
X111500000Y-51500000D01*
D26*
X120675000Y-89175000D02*
X117300000Y-85800000D01*
D25*
X131150000Y-56350000D02*
X130900000Y-56100000D01*
D26*
X117300000Y-85800000D02*
X115900000Y-85800000D01*
D25*
X132850000Y-55700000D02*
X136800000Y-55700000D01*
D26*
X120675000Y-92737500D02*
X121037500Y-93100000D01*
X137000000Y-59000000D02*
X135800000Y-57800000D01*
X123500000Y-93100000D02*
X125400000Y-95000000D01*
D25*
X127700000Y-59350000D02*
X129650000Y-59350000D01*
X130900000Y-56100000D02*
X130900000Y-55700000D01*
D26*
X131600000Y-63500000D02*
X133100000Y-63500000D01*
D25*
X131875000Y-56350000D02*
X131150000Y-56350000D01*
X116890000Y-50650000D02*
X112350000Y-50650000D01*
D26*
X135800000Y-57101040D02*
X135800000Y-57800000D01*
X136575745Y-60024255D02*
G75*
G03*
X137000008Y-59000000I-1024245J1024255D01*
G01*
%TO.N,Net-(BT1-+)*%
X135200000Y-95059227D02*
X132790773Y-92650000D01*
X132790773Y-66750000D02*
X135514214Y-69473441D01*
X136100000Y-70887654D02*
X136100000Y-88512346D01*
X135200000Y-97800000D02*
X135200000Y-95059227D01*
X135514213Y-89926560D02*
X132790773Y-92650000D01*
X136100000Y-88512346D02*
G75*
G02*
X135514190Y-89926537I-2000000J46D01*
G01*
X136100000Y-70887654D02*
G75*
G03*
X135514191Y-69473464I-2000000J-46D01*
G01*
%TO.N,+BATT*%
X120100000Y-99500000D02*
X126100000Y-99500000D01*
X123412893Y-54589671D02*
X124930329Y-56107107D01*
D27*
X127700000Y-56400000D02*
X128100000Y-56800000D01*
D26*
X123120000Y-51800000D02*
X123120000Y-53882564D01*
X131200000Y-97800000D02*
X133200000Y-97800000D01*
X130900000Y-98100000D02*
X131200000Y-97800000D01*
D27*
X128100000Y-56800000D02*
X129800000Y-56800000D01*
D26*
X125637436Y-56400000D02*
X127700000Y-56400000D01*
X128600000Y-98100000D02*
X130900000Y-98100000D01*
X138150000Y-66000000D02*
X138150000Y-64850000D01*
X138150000Y-63000000D02*
X138150000Y-64550000D01*
X127100000Y-98100000D02*
X127300000Y-98100000D01*
X120025000Y-99425000D02*
X120100000Y-99500000D01*
X127300000Y-98100000D02*
X128600000Y-98100000D01*
X138150000Y-67500000D02*
X138150000Y-66000000D01*
X126600000Y-99000000D02*
X126600000Y-98600000D01*
X114075000Y-99500000D02*
X120100000Y-99500000D01*
X128600000Y-95025000D02*
X128600000Y-98100000D01*
X113075000Y-98300000D02*
X113075000Y-98500000D01*
X138150000Y-64550000D02*
X138300000Y-64700000D01*
X138150000Y-64850000D02*
X138300000Y-64700000D01*
X120025000Y-98300000D02*
X120025000Y-99425000D01*
X127100000Y-98100000D02*
G75*
G03*
X126600000Y-98600000I0J-500000D01*
G01*
X123120000Y-53882564D02*
G75*
G03*
X123412875Y-54589689I1000000J-36D01*
G01*
X125637436Y-56400000D02*
G75*
G02*
X124930311Y-56107125I-36J1000000D01*
G01*
X126600000Y-99000000D02*
G75*
G02*
X126100000Y-99500000I-500000J0D01*
G01*
X113075000Y-98500000D02*
G75*
G03*
X114075000Y-99500000I1000000J0D01*
G01*
D25*
%TO.N,/SCL*%
X135600000Y-62000000D02*
X135590773Y-62009227D01*
X137700000Y-58600010D02*
X137700000Y-59485786D01*
X116775000Y-89400000D02*
X116775000Y-91100000D01*
X137407107Y-60192893D02*
X135600000Y-62000000D01*
X135883666Y-66883666D02*
X136500000Y-67500000D01*
X135590773Y-62009227D02*
X135590773Y-66176559D01*
X137200000Y-58100000D02*
G75*
G02*
X137700000Y-58600010I0J-500000D01*
G01*
X135590773Y-66176559D02*
G75*
G03*
X135883640Y-66883692I1000027J-41D01*
G01*
X137407107Y-60192893D02*
G75*
G03*
X137699990Y-59485786I-707107J707093D01*
G01*
%TO.N,/SDA*%
X135775000Y-56350000D02*
X135775000Y-56525000D01*
X115900000Y-98300000D02*
X114725000Y-98300000D01*
X135775000Y-56525000D02*
X135100000Y-57200000D01*
X135100000Y-57200000D02*
X135100000Y-57300000D01*
X115900000Y-98300000D02*
X116775000Y-98300000D01*
%TO.N,/INT*%
X137692893Y-61657107D02*
X137972792Y-61377208D01*
X137400000Y-64700000D02*
X137400000Y-65100000D01*
X118725000Y-90074996D02*
X118725000Y-91100000D01*
X138500000Y-60104416D02*
X138500000Y-58099991D01*
X137400000Y-64700000D02*
X137400000Y-62364214D01*
X137400000Y-65100000D02*
X136500000Y-66000000D01*
X138500000Y-60104416D02*
G75*
G02*
X137972784Y-61377200I-1800000J16D01*
G01*
X118725000Y-90074996D02*
G75*
G02*
X119400000Y-89400000I675000J-4D01*
G01*
X137692893Y-61657107D02*
G75*
G03*
X137400010Y-62364214I707107J-707093D01*
G01*
X138500000Y-58099991D02*
G75*
G03*
X137200000Y-56800000I-1300000J-9D01*
G01*
%TO.N,/SYNC*%
X136500000Y-62579899D02*
X136500000Y-63000000D01*
X137689949Y-60810051D02*
X136910050Y-61589950D01*
X118075000Y-89625000D02*
X118075000Y-91100000D01*
X137200000Y-57450000D02*
X137200000Y-57450000D01*
X138100000Y-58349994D02*
X138100000Y-59820101D01*
X118100000Y-89400000D02*
X118100000Y-89600000D01*
X118100000Y-89600000D02*
X118075000Y-89625000D01*
X136500000Y-64590773D02*
X136190773Y-64900000D01*
X136500000Y-63000000D02*
X136500000Y-64590773D01*
X138100000Y-59820101D02*
G75*
G02*
X137689948Y-60810050I-1400000J1D01*
G01*
X136500000Y-62579899D02*
G75*
G02*
X136910051Y-61589951I1400000J-1D01*
G01*
X138100000Y-58349994D02*
G75*
G03*
X137200000Y-57450000I-900000J-6D01*
G01*
%TO.N,Net-(U2-NRST)*%
X125225000Y-91100000D02*
X127600000Y-91100000D01*
X128600000Y-92100000D02*
X128600000Y-93375000D01*
X128600000Y-92100000D02*
G75*
G03*
X127600000Y-91100000I-1000000J0D01*
G01*
%TO.N,/SWDCLK*%
X129800000Y-58100000D02*
X125046195Y-58100000D01*
X118702945Y-53600000D02*
X118045584Y-53600000D01*
X123172362Y-57323833D02*
X119975737Y-54127208D01*
X116772792Y-53072792D02*
X115500000Y-51800000D01*
X116772792Y-53072792D02*
G75*
G03*
X118045584Y-53600011I1272808J1272792D01*
G01*
X119975737Y-54127208D02*
G75*
G03*
X118702945Y-53599968I-1272837J-1272792D01*
G01*
X125046195Y-58100000D02*
G75*
G02*
X123172365Y-57323830I5J2650000D01*
G01*
%TO.N,Net-(D2-A)*%
X131900000Y-57300000D02*
X132525000Y-56675000D01*
X132525000Y-56675000D02*
X132525000Y-56350000D01*
X122275000Y-57325000D02*
X122300000Y-57300000D01*
X120600000Y-57325000D02*
X122275000Y-57325000D01*
%TO.N,Net-(D2-K)*%
X122250000Y-58900000D02*
X120600000Y-58900000D01*
%TO.N,/P0_08*%
X118000000Y-57940000D02*
X118000000Y-58340000D01*
X130900000Y-59500000D02*
X130900000Y-59200000D01*
X120299214Y-60225000D02*
X129967893Y-60225000D01*
X118000000Y-58340000D02*
X119592107Y-59932107D01*
X130321447Y-60078553D02*
X130900000Y-59500000D01*
X129967893Y-60225000D02*
G75*
G03*
X130321450Y-60078556I7J500000D01*
G01*
X120299214Y-60225000D02*
G75*
G02*
X119592100Y-59932114I-14J1000000D01*
G01*
%TO.N,/P0_05*%
X128988579Y-62727107D02*
X132200000Y-59515686D01*
X118000000Y-63020000D02*
X128281472Y-63020000D01*
X132200000Y-59515686D02*
X132200000Y-59200000D01*
X128281472Y-63020000D02*
G75*
G03*
X128988593Y-62727121I28J1000000D01*
G01*
%TO.N,/~{RESET}*%
X134475000Y-56750000D02*
X134475000Y-56350000D01*
X134125000Y-57100000D02*
X134475000Y-56750000D01*
X133000000Y-57100000D02*
X134125000Y-57100000D01*
%TO.N,Net-(U1-OUT_ANT)*%
X132200000Y-55700000D02*
X131550000Y-55700000D01*
%TO.N,/SWDIO*%
X121165787Y-53587868D02*
X124442133Y-56864214D01*
X125856346Y-57450000D02*
X129800000Y-57450000D01*
X120580000Y-51800000D02*
X120580000Y-52173654D01*
X120580000Y-52173654D02*
G75*
G03*
X121165764Y-53587891I2000000J-46D01*
G01*
X125856346Y-57450000D02*
G75*
G02*
X124442110Y-56864237I-46J2000000D01*
G01*
%TO.N,/P0_11*%
X120218531Y-73180000D02*
X118000000Y-73180000D01*
X133009801Y-60968629D02*
X121208480Y-72769950D01*
X134800005Y-60500000D02*
X134141172Y-60500000D01*
X133009801Y-60968629D02*
G75*
G02*
X134141172Y-60499980I1131399J-1131371D01*
G01*
X121208480Y-72769950D02*
G75*
G02*
X120218531Y-73180022I-989980J989950D01*
G01*
X134800005Y-60500000D02*
G75*
G03*
X136100000Y-59200000I-5J1300000D01*
G01*
%TO.N,/P0_03*%
X132850000Y-59431372D02*
X132850000Y-59200000D01*
X127043555Y-65237817D02*
X132850000Y-59431372D01*
X118000000Y-65560000D02*
X126265737Y-65560000D01*
X127043555Y-65237817D02*
G75*
G02*
X126265737Y-65560026I-777855J777817D01*
G01*
%TO.N,/P0_04*%
X132726957Y-60685787D02*
X123153505Y-70259239D01*
X134550001Y-60100000D02*
X134141171Y-60100000D01*
X122234266Y-70640000D02*
X118000000Y-70640000D01*
X134550001Y-60100000D02*
G75*
G03*
X135450000Y-59200000I-1J900000D01*
G01*
X123153505Y-70259239D02*
G75*
G02*
X122234266Y-70639976I-919205J919239D01*
G01*
X134141171Y-60100000D02*
G75*
G03*
X132726971Y-60685801I29J-2000000D01*
G01*
%TO.N,/P0_15*%
X134141171Y-59700000D02*
X134300006Y-59700000D01*
X118000000Y-68100000D02*
X124250002Y-68100000D01*
X125098530Y-67748528D02*
X132444115Y-60402943D01*
X132444115Y-60402943D02*
G75*
G02*
X134141171Y-59699979I1697085J-1697057D01*
G01*
X124250002Y-68100000D02*
G75*
G03*
X125098529Y-67748527I-2J1200000D01*
G01*
X134800000Y-59200000D02*
G75*
G02*
X134300006Y-59700000I-500000J0D01*
G01*
%TO.N,/P0_17*%
X118145000Y-60625000D02*
X118000000Y-60480000D01*
X130152208Y-60625000D02*
X118145000Y-60625000D01*
X131550000Y-59200000D02*
X131550000Y-59600000D01*
X131550000Y-59600000D02*
X130788604Y-60361396D01*
X130152208Y-60625000D02*
G75*
G03*
X130788600Y-60361392I-8J900000D01*
G01*
%TO.N,unconnected-(U2-RX5-Pad23)*%
X89400000Y-93800000D02*
X89400000Y-90100000D01*
X121975000Y-98300000D02*
X121975000Y-97400000D01*
X119675000Y-95100000D02*
X90700000Y-95100000D01*
X90700000Y-95100000D02*
G75*
G02*
X89400000Y-93800000I0J1300000D01*
G01*
X119675000Y-95100000D02*
G75*
G02*
X121975000Y-97400000I0J-2300000D01*
G01*
%TO.N,unconnected-(U2-RX3-Pad21)*%
X120675000Y-98300000D02*
X120675000Y-97400000D01*
X119175000Y-95900000D02*
X77700000Y-95900000D01*
X76200000Y-94400000D02*
X76200000Y-90100000D01*
X77700000Y-95900000D02*
G75*
G02*
X76200000Y-94400000I0J1500000D01*
G01*
X119175000Y-95900000D02*
G75*
G02*
X120675000Y-97400000I0J-1500000D01*
G01*
%TO.N,unconnected-(U2-RX8-Pad26)*%
X123925000Y-98300000D02*
X123925000Y-97400000D01*
X120425000Y-93900000D02*
X110200000Y-93900000D01*
X109200000Y-92900000D02*
X109200000Y-90100000D01*
X110200000Y-93900000D02*
G75*
G02*
X109200000Y-92900000I0J1000000D01*
G01*
X120425000Y-93900000D02*
G75*
G02*
X123925000Y-97400000I0J-3500000D01*
G01*
%TO.N,unconnected-(U2-RX0-Pad16)*%
X56400000Y-95300000D02*
X56400000Y-90100000D01*
X117425000Y-98300000D02*
X117425000Y-97400000D01*
X117125000Y-97100000D02*
X58200000Y-97100000D01*
X117425000Y-97400000D02*
G75*
G03*
X117125000Y-97100000I-300000J0D01*
G01*
X58200000Y-97100000D02*
G75*
G02*
X56400000Y-95300000I0J1800000D01*
G01*
%TO.N,unconnected-(U2-RX7-Pad25)*%
X120175000Y-94300000D02*
X103700000Y-94300000D01*
X102600000Y-93200000D02*
X102600000Y-90100000D01*
X123275000Y-98300000D02*
X123275000Y-97400000D01*
X103700000Y-94300000D02*
G75*
G02*
X102600000Y-93200000I0J1100000D01*
G01*
X123275000Y-97400000D02*
G75*
G03*
X120175000Y-94300000I-3100000J0D01*
G01*
D28*
%TO.N,unconnected-(U2-RX9-Pad2)*%
X90100000Y-56400000D02*
X88700000Y-56400000D01*
D25*
X124575000Y-91100000D02*
X124575000Y-83696930D01*
D28*
X109900000Y-56400000D02*
X108500000Y-56400000D01*
X68900000Y-56400000D02*
X70300000Y-56400000D01*
X96700000Y-56400000D02*
X95300000Y-56400000D01*
D25*
X116000000Y-73485786D02*
X116000000Y-57900000D01*
D28*
X103300000Y-56400000D02*
X101900000Y-56400000D01*
X57100000Y-56400000D02*
X55700000Y-56400000D01*
X76900000Y-56400000D02*
X75500000Y-56400000D01*
D25*
X123710965Y-81610965D02*
X116292893Y-74192893D01*
D28*
X82100000Y-56400000D02*
X83500000Y-56400000D01*
D25*
X114500000Y-56400000D02*
X109900000Y-56400000D01*
D28*
X63700000Y-56400000D02*
X62300000Y-56400000D01*
D25*
X116000000Y-73485786D02*
G75*
G03*
X116292886Y-74192900I1000000J-14D01*
G01*
X116000000Y-57900000D02*
G75*
G03*
X114500000Y-56400000I-1500000J0D01*
G01*
X124575000Y-83696930D02*
G75*
G03*
X123710980Y-81610950I-2950000J30D01*
G01*
D28*
%TO.N,unconnected-(U2-RX12-Pad5)*%
X90100000Y-76200000D02*
X88700000Y-76200000D01*
X57100000Y-76200000D02*
X55700000Y-76200000D01*
X68900000Y-76200000D02*
X70300000Y-76200000D01*
X96700000Y-76200000D02*
X95300000Y-76200000D01*
X109900000Y-76200000D02*
X108500000Y-76200000D01*
D25*
X122625000Y-91100000D02*
X122625000Y-83639214D01*
D28*
X82100000Y-76200000D02*
X83500000Y-76200000D01*
X76900000Y-76200000D02*
X75500000Y-76200000D01*
D25*
X115185786Y-76200000D02*
X109900000Y-76200000D01*
D28*
X63700000Y-76200000D02*
X62300000Y-76200000D01*
D25*
X122332107Y-82932107D02*
X115892893Y-76492893D01*
D28*
X103300000Y-76200000D02*
X101900000Y-76200000D01*
D25*
X122332107Y-82932107D02*
G75*
G02*
X122624990Y-83639214I-707107J-707093D01*
G01*
X115892893Y-76492893D02*
G75*
G03*
X115185786Y-76200010I-707093J-707107D01*
G01*
D28*
%TO.N,unconnected-(U2-RX13-Pad7)*%
X109900000Y-82800000D02*
X108500000Y-82800000D01*
X103300000Y-82800000D02*
X101900000Y-82800000D01*
X76900000Y-82800000D02*
X75500000Y-82800000D01*
X68900000Y-82800000D02*
X70300000Y-82800000D01*
X57100000Y-82800000D02*
X55700000Y-82800000D01*
D25*
X121325000Y-91100000D02*
X121325000Y-88687743D01*
D28*
X90100000Y-82800000D02*
X88700000Y-82800000D01*
D25*
X121032107Y-87980636D02*
X116144364Y-83092893D01*
D28*
X96700000Y-82800000D02*
X95300000Y-82800000D01*
X82100000Y-82800000D02*
X83500000Y-82800000D01*
X63700000Y-82800000D02*
X62300000Y-82800000D01*
D25*
X115437257Y-82800000D02*
X109900000Y-82800000D01*
X116144364Y-83092893D02*
G75*
G03*
X115437257Y-82800030I-707064J-707107D01*
G01*
X121032107Y-87980636D02*
G75*
G02*
X121324970Y-88687743I-707107J-707064D01*
G01*
D28*
%TO.N,unconnected-(U2-RX14-Pad13)*%
X82100000Y-89400000D02*
X83500000Y-89400000D01*
X109900000Y-89400000D02*
X108500000Y-89400000D01*
D25*
X117425000Y-91100000D02*
X117425000Y-89400000D01*
D28*
X90100000Y-89400000D02*
X88700000Y-89400000D01*
D25*
X116825000Y-88800000D02*
X110914214Y-88800000D01*
D28*
X96700000Y-89400000D02*
X95300000Y-89400000D01*
X68900000Y-89400000D02*
X70300000Y-89400000D01*
X57100000Y-89400000D02*
X55700000Y-89400000D01*
X103300000Y-89400000D02*
X101900000Y-89400000D01*
D25*
X110207107Y-89092893D02*
X109900000Y-89400000D01*
D28*
X76900000Y-89400000D02*
X75500000Y-89400000D01*
X63700000Y-89400000D02*
X62300000Y-89400000D01*
D25*
X117425000Y-89400000D02*
G75*
G03*
X116825000Y-88800000I-600000J0D01*
G01*
X110207107Y-89092893D02*
G75*
G02*
X110914214Y-88800010I707093J-707107D01*
G01*
%TO.N,unconnected-(U2-RX2-Pad18)*%
X117625000Y-96300000D02*
X71200000Y-96300000D01*
X118725000Y-98300000D02*
X118725000Y-97400000D01*
X69600000Y-94700000D02*
X69600000Y-90100000D01*
X118725000Y-97400000D02*
G75*
G03*
X117625000Y-96300000I-1100000J0D01*
G01*
X71200000Y-96300000D02*
G75*
G02*
X69600000Y-94700000I0J1600000D01*
G01*
%TO.N,unconnected-(U2-RX6-Pad24)*%
X122625000Y-98300000D02*
X122625000Y-97400000D01*
X119925000Y-94700000D02*
X97200000Y-94700000D01*
X96000000Y-93500000D02*
X96000000Y-90100000D01*
X97200000Y-94700000D02*
G75*
G02*
X96000000Y-93500000I0J1200000D01*
G01*
X122625000Y-97400000D02*
G75*
G03*
X119925000Y-94700000I-2700000J0D01*
G01*
%TO.N,unconnected-(U2-RX1-Pad17)*%
X118075000Y-97400000D02*
X118075000Y-98300000D01*
X63000000Y-90100000D02*
X63000000Y-95000000D01*
X64700000Y-96700000D02*
X117375000Y-96700000D01*
X118075000Y-97400000D02*
G75*
G03*
X117375000Y-96700000I-700000J0D01*
G01*
X63000000Y-95000000D02*
G75*
G03*
X64700000Y-96700000I1700000J0D01*
G01*
%TO.N,unconnected-(U2-RX4-Pad22)*%
X82800000Y-94100000D02*
X82800000Y-90100000D01*
X119425000Y-95500000D02*
X84200000Y-95500000D01*
X121325000Y-98300000D02*
X121325000Y-97400000D01*
X84200000Y-95500000D02*
G75*
G02*
X82800000Y-94100000I0J1400000D01*
G01*
X121325000Y-97400000D02*
G75*
G03*
X119425000Y-95500000I-1900000J0D01*
G01*
D28*
%TO.N,unconnected-(U2-RX10-Pad3)*%
X90100000Y-63000000D02*
X88700000Y-63000000D01*
D25*
X123251345Y-82051345D02*
X115797918Y-74597918D01*
X115300000Y-73395837D02*
X115300000Y-64400000D01*
D28*
X68900000Y-63000000D02*
X70300000Y-63000000D01*
D25*
X113900000Y-63000000D02*
X109900000Y-63000000D01*
D28*
X63700000Y-63000000D02*
X62300000Y-63000000D01*
X109900000Y-63000000D02*
X108500000Y-63000000D01*
X82100000Y-63000000D02*
X83500000Y-63000000D01*
D25*
X123925000Y-91100000D02*
X123925000Y-83677691D01*
D28*
X96700000Y-63000000D02*
X95300000Y-63000000D01*
X103300000Y-63000000D02*
X101900000Y-63000000D01*
X76900000Y-63000000D02*
X75500000Y-63000000D01*
X57100000Y-63000000D02*
X55700000Y-63000000D01*
D25*
X123925000Y-83677691D02*
G75*
G03*
X123251341Y-82051349I-2300000J-9D01*
G01*
X115300000Y-64400000D02*
G75*
G03*
X113900000Y-63000000I-1400000J0D01*
G01*
X115300000Y-73395837D02*
G75*
G03*
X115797936Y-74597900I1700000J37D01*
G01*
D28*
%TO.N,unconnected-(U2-RX11-Pad4)*%
X96700000Y-69600000D02*
X95300000Y-69600000D01*
D25*
X114600000Y-70900000D02*
X114600000Y-73305887D01*
D28*
X63700000Y-69600000D02*
X62300000Y-69600000D01*
X109900000Y-69600000D02*
X108500000Y-69600000D01*
X82100000Y-69600000D02*
X83500000Y-69600000D01*
X57100000Y-69600000D02*
X55700000Y-69600000D01*
X76900000Y-69600000D02*
X75500000Y-69600000D01*
D25*
X123275000Y-83658452D02*
X123275000Y-91100000D01*
D28*
X103300000Y-69600000D02*
X101900000Y-69600000D01*
D25*
X115302944Y-75002944D02*
X122791726Y-82491726D01*
D28*
X68900000Y-69600000D02*
X70300000Y-69600000D01*
X90100000Y-69600000D02*
X88700000Y-69600000D01*
D25*
X109900000Y-69600000D02*
X113300000Y-69600000D01*
X114600000Y-73305887D02*
G75*
G03*
X115302938Y-75002950I2400000J-13D01*
G01*
X113300000Y-69600000D02*
G75*
G02*
X114600000Y-70900000I0J-1300000D01*
G01*
X122791726Y-82491726D02*
G75*
G02*
X123275034Y-83658452I-1166726J-1166774D01*
G01*
%TD*%
%TA.AperFunction,Conductor*%
%TO.N,GND*%
G36*
X117736147Y-50220462D02*
G01*
X117790685Y-50275000D01*
X117810647Y-50349500D01*
X117790685Y-50424000D01*
X117736147Y-50478538D01*
X117700211Y-50493423D01*
X117576512Y-50526568D01*
X117362419Y-50626402D01*
X117168920Y-50761891D01*
X117001888Y-50928923D01*
X116921552Y-51043655D01*
X116862469Y-51093232D01*
X116786512Y-51106625D01*
X116714036Y-51080245D01*
X116664459Y-51021162D01*
X116650499Y-50958192D01*
X116650499Y-50905133D01*
X116647585Y-50880010D01*
X116647584Y-50880008D01*
X116602206Y-50777235D01*
X116522765Y-50697794D01*
X116522764Y-50697793D01*
X116419994Y-50652416D01*
X116419991Y-50652415D01*
X116419982Y-50652414D01*
X116394865Y-50649500D01*
X116394859Y-50649500D01*
X114605133Y-50649500D01*
X114580010Y-50652414D01*
X114580007Y-50652415D01*
X114477235Y-50697793D01*
X114397793Y-50777235D01*
X114352416Y-50880005D01*
X114352415Y-50880008D01*
X114352415Y-50880009D01*
X114349500Y-50905135D01*
X114349500Y-50905136D01*
X114349500Y-50905140D01*
X114349500Y-52694866D01*
X114352414Y-52719989D01*
X114352415Y-52719992D01*
X114397793Y-52822764D01*
X114397794Y-52822765D01*
X114477235Y-52902206D01*
X114580009Y-52947585D01*
X114605135Y-52950500D01*
X116022388Y-52950499D01*
X116096888Y-52970461D01*
X116127747Y-52994140D01*
X116534102Y-53400494D01*
X116534216Y-53400594D01*
X116576983Y-53443361D01*
X116770215Y-53597461D01*
X116906450Y-53683064D01*
X116979479Y-53728952D01*
X116979481Y-53728953D01*
X116979486Y-53728956D01*
X117202163Y-53836194D01*
X117202167Y-53836195D01*
X117202175Y-53836199D01*
X117435438Y-53917822D01*
X117435447Y-53917825D01*
X117435449Y-53917825D01*
X117435451Y-53917826D01*
X117453558Y-53921959D01*
X117599354Y-53955237D01*
X117667542Y-53991276D01*
X117708576Y-54056582D01*
X117711460Y-54133656D01*
X117675420Y-54201846D01*
X117610114Y-54242880D01*
X117566196Y-54249500D01*
X117105133Y-54249500D01*
X117080010Y-54252414D01*
X117080007Y-54252415D01*
X116977235Y-54297793D01*
X116897793Y-54377235D01*
X116852416Y-54480005D01*
X116852415Y-54480008D01*
X116852415Y-54480009D01*
X116849500Y-54505135D01*
X116849500Y-54505136D01*
X116849500Y-54505140D01*
X116849500Y-56294866D01*
X116852414Y-56319989D01*
X116852415Y-56319992D01*
X116897793Y-56422764D01*
X116897794Y-56422765D01*
X116977235Y-56502206D01*
X117080009Y-56547585D01*
X117105135Y-56550500D01*
X117604787Y-56550499D01*
X117679285Y-56570461D01*
X117733823Y-56624999D01*
X117753785Y-56699499D01*
X117733823Y-56773999D01*
X117679285Y-56828537D01*
X117658610Y-56838437D01*
X117484983Y-56905700D01*
X117484977Y-56905703D01*
X117303698Y-57017947D01*
X117303697Y-57017948D01*
X117146127Y-57161593D01*
X117017636Y-57331740D01*
X116922594Y-57522612D01*
X116922593Y-57522614D01*
X116864243Y-57727694D01*
X116844571Y-57939995D01*
X116844571Y-57940004D01*
X116864243Y-58152305D01*
X116864243Y-58152307D01*
X116864244Y-58152310D01*
X116872465Y-58181202D01*
X116922593Y-58357385D01*
X116922594Y-58357387D01*
X117017636Y-58548259D01*
X117146127Y-58718406D01*
X117303697Y-58862051D01*
X117303698Y-58862052D01*
X117484977Y-58974296D01*
X117484983Y-58974299D01*
X117525776Y-58990102D01*
X117683802Y-59051321D01*
X117749152Y-59063537D01*
X117818716Y-59096849D01*
X117862303Y-59160480D01*
X117868236Y-59237379D01*
X117834924Y-59306943D01*
X117771293Y-59350530D01*
X117749153Y-59356462D01*
X117690050Y-59367511D01*
X117683802Y-59368679D01*
X117683795Y-59368681D01*
X117484983Y-59445700D01*
X117484977Y-59445703D01*
X117303698Y-59557947D01*
X117303697Y-59557948D01*
X117146127Y-59701593D01*
X117017636Y-59871740D01*
X116922594Y-60062612D01*
X116922593Y-60062614D01*
X116864243Y-60267694D01*
X116844571Y-60479995D01*
X116844571Y-60480004D01*
X116864243Y-60692305D01*
X116864243Y-60692307D01*
X116864244Y-60692310D01*
X116865381Y-60696305D01*
X116922593Y-60897385D01*
X116922594Y-60897387D01*
X117017636Y-61088259D01*
X117146127Y-61258406D01*
X117146128Y-61258407D01*
X117279273Y-61379785D01*
X117303697Y-61402051D01*
X117303698Y-61402052D01*
X117484977Y-61514296D01*
X117484983Y-61514299D01*
X117572189Y-61548082D01*
X117683802Y-61591321D01*
X117749152Y-61603537D01*
X117818716Y-61636849D01*
X117862303Y-61700480D01*
X117868236Y-61777379D01*
X117834924Y-61846943D01*
X117771293Y-61890530D01*
X117749153Y-61896462D01*
X117683802Y-61908679D01*
X117683795Y-61908681D01*
X117484983Y-61985700D01*
X117484977Y-61985703D01*
X117303698Y-62097947D01*
X117303697Y-62097948D01*
X117146127Y-62241593D01*
X117017636Y-62411740D01*
X116922594Y-62602612D01*
X116922593Y-62602614D01*
X116864243Y-62807694D01*
X116844571Y-63019995D01*
X116844571Y-63020004D01*
X116864243Y-63232305D01*
X116922593Y-63437385D01*
X116922594Y-63437387D01*
X117017636Y-63628259D01*
X117145838Y-63798023D01*
X117146128Y-63798407D01*
X117246130Y-63889571D01*
X117303697Y-63942051D01*
X117303698Y-63942052D01*
X117484977Y-64054296D01*
X117484983Y-64054299D01*
X117527436Y-64070745D01*
X117683802Y-64131321D01*
X117749152Y-64143537D01*
X117818716Y-64176849D01*
X117862303Y-64240480D01*
X117868236Y-64317379D01*
X117834924Y-64386943D01*
X117771293Y-64430530D01*
X117749153Y-64436462D01*
X117683802Y-64448679D01*
X117683795Y-64448681D01*
X117484983Y-64525700D01*
X117484977Y-64525703D01*
X117303698Y-64637947D01*
X117303697Y-64637948D01*
X117146127Y-64781593D01*
X117017636Y-64951740D01*
X116922594Y-65142612D01*
X116922593Y-65142614D01*
X116864243Y-65347694D01*
X116844571Y-65559995D01*
X116844571Y-65560004D01*
X116864243Y-65772305D01*
X116922593Y-65977385D01*
X116922594Y-65977387D01*
X117017636Y-66168259D01*
X117146127Y-66338406D01*
X117303697Y-66482051D01*
X117303698Y-66482052D01*
X117484977Y-66594296D01*
X117484983Y-66594299D01*
X117572189Y-66628082D01*
X117683802Y-66671321D01*
X117749152Y-66683537D01*
X117818716Y-66716849D01*
X117862303Y-66780480D01*
X117868236Y-66857379D01*
X117834924Y-66926943D01*
X117771293Y-66970530D01*
X117749153Y-66976462D01*
X117715926Y-66982674D01*
X117683802Y-66988679D01*
X117683795Y-66988681D01*
X117484983Y-67065700D01*
X117484977Y-67065703D01*
X117303698Y-67177947D01*
X117303697Y-67177948D01*
X117146127Y-67321593D01*
X117017636Y-67491740D01*
X116922594Y-67682612D01*
X116922593Y-67682614D01*
X116864243Y-67887694D01*
X116844571Y-68099995D01*
X116844571Y-68100004D01*
X116864243Y-68312305D01*
X116922593Y-68517385D01*
X116922594Y-68517387D01*
X117017636Y-68708259D01*
X117146127Y-68878406D01*
X117303697Y-69022051D01*
X117303698Y-69022052D01*
X117484977Y-69134296D01*
X117484983Y-69134299D01*
X117572189Y-69168082D01*
X117683802Y-69211321D01*
X117749152Y-69223537D01*
X117818716Y-69256849D01*
X117862303Y-69320480D01*
X117868236Y-69397379D01*
X117834924Y-69466943D01*
X117771293Y-69510530D01*
X117749153Y-69516462D01*
X117683802Y-69528679D01*
X117683795Y-69528681D01*
X117484983Y-69605700D01*
X117484977Y-69605703D01*
X117303698Y-69717947D01*
X117303697Y-69717948D01*
X117146127Y-69861593D01*
X117017636Y-70031740D01*
X116922594Y-70222612D01*
X116922593Y-70222614D01*
X116864243Y-70427694D01*
X116844571Y-70639995D01*
X116844571Y-70640004D01*
X116864243Y-70852305D01*
X116864243Y-70852307D01*
X116864244Y-70852310D01*
X116875739Y-70892710D01*
X116922593Y-71057385D01*
X116922594Y-71057387D01*
X117017636Y-71248259D01*
X117146127Y-71418406D01*
X117303697Y-71562051D01*
X117303698Y-71562052D01*
X117484977Y-71674296D01*
X117484983Y-71674299D01*
X117572189Y-71708082D01*
X117683802Y-71751321D01*
X117749152Y-71763537D01*
X117818716Y-71796849D01*
X117862303Y-71860480D01*
X117868236Y-71937379D01*
X117834924Y-72006943D01*
X117771293Y-72050530D01*
X117749153Y-72056462D01*
X117683802Y-72068679D01*
X117683795Y-72068681D01*
X117484983Y-72145700D01*
X117484977Y-72145703D01*
X117303698Y-72257947D01*
X117303697Y-72257948D01*
X117146127Y-72401593D01*
X117017636Y-72571740D01*
X116922594Y-72762612D01*
X116922593Y-72762614D01*
X116864243Y-72967694D01*
X116844571Y-73179995D01*
X116844571Y-73180004D01*
X116864243Y-73392305D01*
X116922593Y-73597385D01*
X116922594Y-73597387D01*
X117017636Y-73788259D01*
X117146127Y-73958406D01*
X117146128Y-73958407D01*
X117177682Y-73987172D01*
X117303697Y-74102051D01*
X117303698Y-74102052D01*
X117484977Y-74214296D01*
X117484983Y-74214299D01*
X117572189Y-74248082D01*
X117683802Y-74291321D01*
X117893390Y-74330500D01*
X117893393Y-74330500D01*
X118106607Y-74330500D01*
X118106610Y-74330500D01*
X118316198Y-74291321D01*
X118515019Y-74214298D01*
X118696302Y-74102052D01*
X118853872Y-73958407D01*
X118982366Y-73788255D01*
X119044693Y-73663083D01*
X119095769Y-73605294D01*
X119168899Y-73580783D01*
X119178072Y-73580500D01*
X120156783Y-73580500D01*
X120156868Y-73580522D01*
X120218540Y-73580520D01*
X120218540Y-73580521D01*
X120336551Y-73580518D01*
X120570554Y-73549706D01*
X120798533Y-73488614D01*
X121016588Y-73398288D01*
X121220987Y-73280274D01*
X121408234Y-73136589D01*
X121442126Y-73102696D01*
X121454391Y-73090430D01*
X121454393Y-73090430D01*
X129735916Y-64808905D01*
X129802709Y-64770343D01*
X129879837Y-64770343D01*
X129946632Y-64808907D01*
X129985196Y-64875702D01*
X129990273Y-64914266D01*
X129990273Y-69294866D01*
X129993187Y-69319989D01*
X129993188Y-69319992D01*
X130038566Y-69422764D01*
X130038567Y-69422765D01*
X130118008Y-69502206D01*
X130220782Y-69547585D01*
X130245908Y-69550500D01*
X134927806Y-69550499D01*
X135002306Y-69570461D01*
X135033165Y-69594140D01*
X135163618Y-69724593D01*
X135163643Y-69724621D01*
X135209887Y-69770862D01*
X135216553Y-69777978D01*
X135342707Y-69921824D01*
X135354564Y-69937276D01*
X135458144Y-70092288D01*
X135467889Y-70109167D01*
X135550346Y-70276367D01*
X135557805Y-70294372D01*
X135617735Y-70470907D01*
X135622779Y-70489734D01*
X135659150Y-70672564D01*
X135661695Y-70691886D01*
X135674181Y-70882309D01*
X135674500Y-70892058D01*
X135674500Y-88507452D01*
X135674181Y-88517201D01*
X135661663Y-88708109D01*
X135659118Y-88727431D01*
X135622747Y-88910262D01*
X135617702Y-88929089D01*
X135557775Y-89105614D01*
X135550317Y-89123619D01*
X135467860Y-89290819D01*
X135458115Y-89307696D01*
X135354543Y-89462698D01*
X135342681Y-89478156D01*
X135216205Y-89622369D01*
X135209539Y-89629485D01*
X135166346Y-89672675D01*
X135166347Y-89672676D01*
X135033164Y-89805859D01*
X134966369Y-89844423D01*
X134927805Y-89849500D01*
X130245906Y-89849500D01*
X130220783Y-89852414D01*
X130220780Y-89852415D01*
X130118008Y-89897793D01*
X130038566Y-89977235D01*
X129993189Y-90080005D01*
X129993188Y-90080008D01*
X129993188Y-90080009D01*
X129990273Y-90105135D01*
X129990273Y-90105139D01*
X129990273Y-90105140D01*
X129990273Y-95194866D01*
X129993187Y-95219989D01*
X129993188Y-95219992D01*
X130038566Y-95322764D01*
X130038567Y-95322765D01*
X130118008Y-95402206D01*
X130220782Y-95447585D01*
X130245908Y-95450500D01*
X134625500Y-95450499D01*
X134700000Y-95470461D01*
X134754538Y-95524999D01*
X134774500Y-95599499D01*
X134774500Y-96450500D01*
X134754538Y-96525000D01*
X134700000Y-96579538D01*
X134625500Y-96599500D01*
X134156894Y-96599500D01*
X134068436Y-96610122D01*
X133927658Y-96665638D01*
X133927658Y-96665639D01*
X133807079Y-96757076D01*
X133807076Y-96757079D01*
X133715639Y-96877658D01*
X133715638Y-96877658D01*
X133660122Y-97018436D01*
X133649500Y-97106894D01*
X133649500Y-97113217D01*
X133629538Y-97187717D01*
X133575000Y-97242255D01*
X133500500Y-97262217D01*
X133443482Y-97250876D01*
X133356757Y-97214954D01*
X133200003Y-97194318D01*
X133199997Y-97194318D01*
X133043242Y-97214954D01*
X132956518Y-97250876D01*
X132880050Y-97260942D01*
X132808793Y-97231426D01*
X132761841Y-97170235D01*
X132750500Y-97113217D01*
X132750500Y-97106899D01*
X132750500Y-97106898D01*
X132739877Y-97018436D01*
X132684361Y-96877658D01*
X132592922Y-96757078D01*
X132592920Y-96757076D01*
X132545982Y-96721482D01*
X132472342Y-96665639D01*
X132472341Y-96665638D01*
X132331563Y-96610122D01*
X132243105Y-96599500D01*
X132243102Y-96599500D01*
X130156898Y-96599500D01*
X130156894Y-96599500D01*
X130068436Y-96610122D01*
X129927658Y-96665638D01*
X129927658Y-96665639D01*
X129807079Y-96757076D01*
X129807076Y-96757079D01*
X129715639Y-96877658D01*
X129715638Y-96877658D01*
X129660122Y-97018436D01*
X129649500Y-97106894D01*
X129649500Y-97525500D01*
X129629538Y-97600000D01*
X129575000Y-97654538D01*
X129500500Y-97674500D01*
X129174500Y-97674500D01*
X129100000Y-97654538D01*
X129045462Y-97600000D01*
X129025500Y-97525500D01*
X129025500Y-95806499D01*
X129045462Y-95731999D01*
X129100000Y-95677461D01*
X129110650Y-95672444D01*
X129117331Y-95668796D01*
X129209281Y-95599962D01*
X129232546Y-95582546D01*
X129288919Y-95507242D01*
X129318795Y-95467333D01*
X129318797Y-95467329D01*
X129361739Y-95352195D01*
X129369091Y-95332483D01*
X129371956Y-95305832D01*
X129375499Y-95272885D01*
X129375499Y-95272882D01*
X129375500Y-95272873D01*
X129375499Y-94777128D01*
X129369091Y-94717517D01*
X129341081Y-94642417D01*
X129318797Y-94582670D01*
X129318795Y-94582666D01*
X129232547Y-94467455D01*
X129232544Y-94467452D01*
X129117333Y-94381204D01*
X129117331Y-94381203D01*
X129005800Y-94339605D01*
X128942973Y-94294866D01*
X128910933Y-94224708D01*
X128918264Y-94147929D01*
X128963003Y-94085102D01*
X129005799Y-94060394D01*
X129117331Y-94018796D01*
X129117331Y-94018795D01*
X129117333Y-94018795D01*
X129175188Y-93975484D01*
X129232546Y-93932546D01*
X129297144Y-93846254D01*
X129318795Y-93817333D01*
X129318797Y-93817329D01*
X129352968Y-93725710D01*
X129369091Y-93682483D01*
X129371941Y-93655975D01*
X129375499Y-93622885D01*
X129375499Y-93622882D01*
X129375500Y-93622873D01*
X129375499Y-93127128D01*
X129369091Y-93067517D01*
X129354588Y-93028633D01*
X129318797Y-92932670D01*
X129318795Y-92932666D01*
X129232547Y-92817455D01*
X129232544Y-92817452D01*
X129117336Y-92731207D01*
X129117333Y-92731205D01*
X129117331Y-92731204D01*
X129097428Y-92723780D01*
X129034603Y-92679043D01*
X129002563Y-92608884D01*
X129000500Y-92584176D01*
X129000500Y-91989781D01*
X128996828Y-91966599D01*
X128966015Y-91772049D01*
X128966014Y-91772048D01*
X128966014Y-91772043D01*
X128917379Y-91622360D01*
X128897895Y-91562394D01*
X128797815Y-91365978D01*
X128668242Y-91187635D01*
X128512365Y-91031758D01*
X128423193Y-90966971D01*
X128334024Y-90902186D01*
X128334023Y-90902185D01*
X128137606Y-90802105D01*
X127927956Y-90733985D01*
X127806990Y-90714826D01*
X127710222Y-90699500D01*
X127710218Y-90699500D01*
X125899499Y-90699500D01*
X125824999Y-90679538D01*
X125770461Y-90625000D01*
X125750499Y-90550500D01*
X125750499Y-90180133D01*
X125747585Y-90155010D01*
X125747584Y-90155008D01*
X125702206Y-90052235D01*
X125622765Y-89972794D01*
X125622764Y-89972793D01*
X125519994Y-89927416D01*
X125519991Y-89927415D01*
X125494865Y-89924500D01*
X125494859Y-89924500D01*
X125124500Y-89924500D01*
X125050000Y-89904538D01*
X124995462Y-89850000D01*
X124975500Y-89775500D01*
X124975500Y-83634351D01*
X124975478Y-83634026D01*
X124975478Y-83632030D01*
X124975480Y-83532335D01*
X124943216Y-83204722D01*
X124926728Y-83121828D01*
X124878998Y-82881855D01*
X124878995Y-82881846D01*
X124869458Y-82850407D01*
X124837411Y-82744758D01*
X124783443Y-82566843D01*
X124783440Y-82566834D01*
X124783438Y-82566831D01*
X124783437Y-82566825D01*
X124657461Y-82262684D01*
X124502281Y-81972356D01*
X124502278Y-81972350D01*
X124352255Y-81747822D01*
X130290773Y-81747822D01*
X130290774Y-81747842D01*
X130297174Y-81807377D01*
X130347418Y-81942084D01*
X130347423Y-81942094D01*
X130433582Y-82057187D01*
X130433585Y-82057190D01*
X130548678Y-82143349D01*
X130548688Y-82143354D01*
X130683396Y-82193598D01*
X130683394Y-82193598D01*
X130742930Y-82199998D01*
X130742950Y-82200000D01*
X132540773Y-82200000D01*
X133040773Y-82200000D01*
X134838596Y-82200000D01*
X134838615Y-82199998D01*
X134898150Y-82193598D01*
X135032857Y-82143354D01*
X135032867Y-82143349D01*
X135147960Y-82057190D01*
X135147963Y-82057187D01*
X135234122Y-81942094D01*
X135234127Y-81942084D01*
X135284371Y-81807377D01*
X135290771Y-81747842D01*
X135290773Y-81747822D01*
X135290773Y-79950000D01*
X133040773Y-79950000D01*
X133040773Y-82200000D01*
X132540773Y-82200000D01*
X132540773Y-79950000D01*
X130290773Y-79950000D01*
X130290773Y-81747822D01*
X124352255Y-81747822D01*
X124319392Y-81698639D01*
X124319384Y-81698629D01*
X124110558Y-81444170D01*
X124110551Y-81444161D01*
X124031447Y-81365055D01*
X124031445Y-81365052D01*
X120318570Y-77652177D01*
X130290773Y-77652177D01*
X130290773Y-79450000D01*
X132540773Y-79450000D01*
X133040773Y-79450000D01*
X135290773Y-79450000D01*
X135290773Y-77652177D01*
X135290771Y-77652157D01*
X135284371Y-77592622D01*
X135234127Y-77457915D01*
X135234122Y-77457905D01*
X135147963Y-77342812D01*
X135147960Y-77342809D01*
X135032867Y-77256650D01*
X135032857Y-77256645D01*
X134898149Y-77206401D01*
X134898151Y-77206401D01*
X134838615Y-77200001D01*
X134838596Y-77200000D01*
X133040773Y-77200000D01*
X133040773Y-79450000D01*
X132540773Y-79450000D01*
X132540773Y-77200000D01*
X130742950Y-77200000D01*
X130742930Y-77200001D01*
X130683395Y-77206401D01*
X130548688Y-77256645D01*
X130548678Y-77256650D01*
X130433585Y-77342809D01*
X130433582Y-77342812D01*
X130347423Y-77457905D01*
X130347418Y-77457915D01*
X130297174Y-77592622D01*
X130290774Y-77652157D01*
X130290773Y-77652177D01*
X120318570Y-77652177D01*
X116581268Y-73914875D01*
X116571447Y-73904039D01*
X116510848Y-73830197D01*
X116494621Y-73805910D01*
X116453059Y-73728150D01*
X116441882Y-73701166D01*
X116416288Y-73616792D01*
X116410590Y-73588148D01*
X116401217Y-73492968D01*
X116400500Y-73478366D01*
X116400500Y-57775435D01*
X116400499Y-57775429D01*
X116399847Y-57770480D01*
X116367982Y-57528435D01*
X116303502Y-57287793D01*
X116208164Y-57057627D01*
X116083599Y-56841873D01*
X115931938Y-56644224D01*
X115755776Y-56468062D01*
X115558127Y-56316401D01*
X115348569Y-56195413D01*
X115342377Y-56191838D01*
X115342375Y-56191837D01*
X115342373Y-56191836D01*
X115146704Y-56110787D01*
X115112210Y-56096499D01*
X115112208Y-56096498D01*
X115112207Y-56096498D01*
X114871565Y-56032018D01*
X114871563Y-56032017D01*
X114871557Y-56032016D01*
X114624570Y-55999500D01*
X114624565Y-55999500D01*
X114552727Y-55999500D01*
X113549000Y-55999500D01*
X113474500Y-55979538D01*
X113419962Y-55925000D01*
X113400000Y-55850500D01*
X113400000Y-52200000D01*
X52200000Y-52200000D01*
X52200000Y-93600000D01*
X55850500Y-93600000D01*
X55925000Y-93619962D01*
X55979538Y-93674500D01*
X55999500Y-93749000D01*
X55999500Y-95242417D01*
X55999500Y-95300000D01*
X55999500Y-95433106D01*
X56028561Y-95672444D01*
X56031589Y-95697384D01*
X56095292Y-95955836D01*
X56095300Y-95955862D01*
X56189690Y-96204749D01*
X56189699Y-96204769D01*
X56313405Y-96440474D01*
X56313416Y-96440492D01*
X56464633Y-96659565D01*
X56464635Y-96659567D01*
X56464637Y-96659570D01*
X56641168Y-96858832D01*
X56840430Y-97035363D01*
X56840432Y-97035364D01*
X56840434Y-97035366D01*
X57059507Y-97186583D01*
X57059525Y-97186594D01*
X57228855Y-97275464D01*
X57295236Y-97310303D01*
X57295240Y-97310304D01*
X57295250Y-97310309D01*
X57530083Y-97399369D01*
X57544148Y-97404703D01*
X57544158Y-97404705D01*
X57544163Y-97404707D01*
X57802615Y-97468410D01*
X57802616Y-97468410D01*
X57802624Y-97468412D01*
X58066894Y-97500500D01*
X58147273Y-97500500D01*
X112344769Y-97500500D01*
X112419269Y-97520462D01*
X112473807Y-97575000D01*
X112493769Y-97649500D01*
X112473807Y-97724000D01*
X112464049Y-97738793D01*
X112431204Y-97782666D01*
X112431202Y-97782670D01*
X112380908Y-97917517D01*
X112374500Y-97977114D01*
X112374500Y-98622863D01*
X112374502Y-98622888D01*
X112380908Y-98682478D01*
X112380909Y-98682484D01*
X112431202Y-98817329D01*
X112431204Y-98817333D01*
X112517452Y-98932544D01*
X112517455Y-98932547D01*
X112632666Y-99018795D01*
X112632668Y-99018795D01*
X112632669Y-99018796D01*
X112682147Y-99037250D01*
X112710165Y-99047700D01*
X112772992Y-99092438D01*
X112790856Y-99119660D01*
X112855805Y-99247129D01*
X112901484Y-99310000D01*
X112987689Y-99428651D01*
X113146349Y-99587311D01*
X113327875Y-99719197D01*
X113457789Y-99785392D01*
X113527795Y-99821062D01*
X113527797Y-99821062D01*
X113527798Y-99821063D01*
X113741195Y-99890400D01*
X113962811Y-99925500D01*
X113962816Y-99925500D01*
X126180970Y-99925500D01*
X126180971Y-99925500D01*
X126340452Y-99897379D01*
X126492627Y-99841992D01*
X126632873Y-99761021D01*
X126632879Y-99761016D01*
X126638207Y-99757287D01*
X126639437Y-99759044D01*
X126699848Y-99730855D01*
X126776685Y-99737558D01*
X126801606Y-99749334D01*
X126873801Y-99792029D01*
X126873808Y-99792032D01*
X127029085Y-99837144D01*
X127029090Y-99837145D01*
X127050000Y-99838790D01*
X127550000Y-99838790D01*
X127570909Y-99837145D01*
X127570914Y-99837144D01*
X127726191Y-99792032D01*
X127726194Y-99792031D01*
X127873447Y-99704947D01*
X127875231Y-99707965D01*
X127929730Y-99685035D01*
X128006253Y-99694677D01*
X128025913Y-99706028D01*
X128026553Y-99704947D01*
X128173805Y-99792031D01*
X128173808Y-99792032D01*
X128329085Y-99837144D01*
X128329090Y-99837145D01*
X128350000Y-99838790D01*
X128850000Y-99838790D01*
X128870909Y-99837145D01*
X128870914Y-99837144D01*
X129026191Y-99792032D01*
X129026194Y-99792031D01*
X129165374Y-99709720D01*
X129165376Y-99709719D01*
X129279719Y-99595376D01*
X129279720Y-99595374D01*
X129362033Y-99456190D01*
X129404505Y-99310000D01*
X128850000Y-99310000D01*
X128850000Y-99838790D01*
X128350000Y-99838790D01*
X128350000Y-99310000D01*
X127550000Y-99310000D01*
X127550000Y-99838790D01*
X127050000Y-99838790D01*
X127050000Y-98959000D01*
X127069962Y-98884500D01*
X127124500Y-98829962D01*
X127199000Y-98810000D01*
X129404505Y-98810000D01*
X129404505Y-98809999D01*
X129377216Y-98716069D01*
X129375601Y-98638958D01*
X129412758Y-98571370D01*
X129478731Y-98531416D01*
X129520300Y-98525500D01*
X129536605Y-98525500D01*
X129611105Y-98545462D01*
X129665643Y-98600000D01*
X129675216Y-98619838D01*
X129713165Y-98716069D01*
X129715639Y-98722342D01*
X129765984Y-98788732D01*
X129787671Y-98817331D01*
X129807078Y-98842922D01*
X129927658Y-98934361D01*
X130068436Y-98989877D01*
X130156898Y-99000500D01*
X130156899Y-99000500D01*
X132243101Y-99000500D01*
X132243102Y-99000500D01*
X132331564Y-98989877D01*
X132472342Y-98934361D01*
X132592922Y-98842922D01*
X132684361Y-98722342D01*
X132739877Y-98581564D01*
X132750500Y-98493102D01*
X132750500Y-98486782D01*
X132770462Y-98412282D01*
X132825000Y-98357744D01*
X132899500Y-98337782D01*
X132956519Y-98349123D01*
X133043238Y-98385044D01*
X133043241Y-98385044D01*
X133043243Y-98385045D01*
X133043240Y-98385045D01*
X133199997Y-98405682D01*
X133200000Y-98405682D01*
X133200003Y-98405682D01*
X133356757Y-98385045D01*
X133356758Y-98385044D01*
X133356762Y-98385044D01*
X133443480Y-98349123D01*
X133519949Y-98339057D01*
X133591206Y-98368573D01*
X133638158Y-98429762D01*
X133649500Y-98486782D01*
X133649500Y-98493105D01*
X133660122Y-98581563D01*
X133715638Y-98722341D01*
X133787671Y-98817331D01*
X133807078Y-98842922D01*
X133927658Y-98934361D01*
X134068436Y-98989877D01*
X134156898Y-99000500D01*
X134156899Y-99000500D01*
X136243101Y-99000500D01*
X136243102Y-99000500D01*
X136331564Y-98989877D01*
X136472342Y-98934361D01*
X136592922Y-98842922D01*
X136684361Y-98722342D01*
X136739877Y-98581564D01*
X136750500Y-98493102D01*
X136750500Y-97106898D01*
X136739877Y-97018436D01*
X136684361Y-96877658D01*
X136592922Y-96757078D01*
X136592920Y-96757076D01*
X136545982Y-96721482D01*
X136472342Y-96665639D01*
X136472341Y-96665638D01*
X136331563Y-96610122D01*
X136243105Y-96599500D01*
X136243102Y-96599500D01*
X135774500Y-96599500D01*
X135700000Y-96579538D01*
X135645462Y-96525000D01*
X135625500Y-96450500D01*
X135625500Y-95003209D01*
X135625499Y-95003205D01*
X135596349Y-94894414D01*
X135591272Y-94855850D01*
X135591272Y-90512966D01*
X135611234Y-90438466D01*
X135634913Y-90407607D01*
X135854698Y-90187823D01*
X135854699Y-90187820D01*
X135861473Y-90181047D01*
X135861781Y-90180695D01*
X135911377Y-90131101D01*
X136081235Y-89918115D01*
X136226177Y-89687449D01*
X136344382Y-89442006D01*
X136434364Y-89184871D01*
X136494989Y-88919278D01*
X136525497Y-88648568D01*
X136525497Y-88585717D01*
X136525500Y-88585703D01*
X136525500Y-88512337D01*
X136525500Y-88507452D01*
X136525502Y-88451178D01*
X136525500Y-88451173D01*
X136525501Y-88440813D01*
X136525500Y-88440783D01*
X136525500Y-70960841D01*
X136525501Y-70960816D01*
X136525501Y-70949404D01*
X136525532Y-70949284D01*
X136525531Y-70887644D01*
X136525532Y-70887644D01*
X136525529Y-70751430D01*
X136495021Y-70480717D01*
X136434395Y-70215121D01*
X136344412Y-69957983D01*
X136226206Y-69712536D01*
X136226202Y-69712529D01*
X136226201Y-69712527D01*
X136081261Y-69481866D01*
X135911407Y-69268884D01*
X135911402Y-69268879D01*
X135842021Y-69199500D01*
X135634913Y-68992392D01*
X135596349Y-68925597D01*
X135591272Y-68887033D01*
X135591272Y-68111097D01*
X135611234Y-68036597D01*
X135665772Y-67982059D01*
X135740272Y-67962097D01*
X135814772Y-67982059D01*
X135859552Y-68021804D01*
X135942452Y-68132544D01*
X135942455Y-68132547D01*
X136057666Y-68218795D01*
X136057670Y-68218797D01*
X136192517Y-68269091D01*
X136252114Y-68275499D01*
X136252118Y-68275499D01*
X136252127Y-68275500D01*
X136747872Y-68275499D01*
X136807483Y-68269091D01*
X136903447Y-68233298D01*
X136942329Y-68218797D01*
X136942333Y-68218795D01*
X136999938Y-68175671D01*
X137057546Y-68132546D01*
X137100671Y-68074938D01*
X137143795Y-68017333D01*
X137143797Y-68017329D01*
X137185394Y-67905801D01*
X137230132Y-67842974D01*
X137300290Y-67810933D01*
X137377069Y-67818264D01*
X137439896Y-67863002D01*
X137464606Y-67905801D01*
X137506202Y-68017329D01*
X137506204Y-68017333D01*
X137592452Y-68132544D01*
X137592455Y-68132547D01*
X137707666Y-68218795D01*
X137707670Y-68218797D01*
X137842517Y-68269091D01*
X137902114Y-68275499D01*
X137902118Y-68275499D01*
X137902127Y-68275500D01*
X138397872Y-68275499D01*
X138457483Y-68269091D01*
X138571143Y-68226698D01*
X138598431Y-68216521D01*
X138675210Y-68209190D01*
X138745368Y-68241231D01*
X138790106Y-68304058D01*
X138799500Y-68356127D01*
X138799500Y-98995121D01*
X138799181Y-99004867D01*
X138784743Y-99225138D01*
X138782199Y-99244460D01*
X138740088Y-99456168D01*
X138735043Y-99474995D01*
X138665660Y-99679389D01*
X138658202Y-99697395D01*
X138562732Y-99890990D01*
X138552987Y-99907869D01*
X138433062Y-100087349D01*
X138421200Y-100102807D01*
X138388161Y-100140483D01*
X138278879Y-100265096D01*
X138265099Y-100278875D01*
X138102811Y-100421198D01*
X138087349Y-100433062D01*
X137907869Y-100552987D01*
X137890990Y-100562732D01*
X137697395Y-100658202D01*
X137679389Y-100665660D01*
X137474995Y-100735043D01*
X137456168Y-100740088D01*
X137244460Y-100782199D01*
X137225138Y-100784743D01*
X137024993Y-100797861D01*
X137004865Y-100799181D01*
X136995122Y-100799500D01*
X52004878Y-100799500D01*
X51995134Y-100799181D01*
X51972997Y-100797730D01*
X51774861Y-100784743D01*
X51755539Y-100782199D01*
X51543831Y-100740088D01*
X51525004Y-100735043D01*
X51320610Y-100665660D01*
X51302604Y-100658202D01*
X51109009Y-100562732D01*
X51092130Y-100552987D01*
X50912650Y-100433062D01*
X50897199Y-100421206D01*
X50734892Y-100278868D01*
X50721131Y-100265107D01*
X50578791Y-100102798D01*
X50566937Y-100087349D01*
X50447012Y-99907869D01*
X50437267Y-99890990D01*
X50341797Y-99697395D01*
X50334339Y-99679389D01*
X50264956Y-99474995D01*
X50259911Y-99456168D01*
X50217800Y-99244460D01*
X50215256Y-99225137D01*
X50200819Y-99004866D01*
X50200500Y-98995121D01*
X50200500Y-52004878D01*
X50200819Y-51995133D01*
X50209294Y-51865826D01*
X50215256Y-51774856D01*
X50217800Y-51755539D01*
X50236895Y-51659544D01*
X50259911Y-51543827D01*
X50264956Y-51525004D01*
X50271064Y-51507012D01*
X50334340Y-51320605D01*
X50341797Y-51302604D01*
X50437270Y-51109002D01*
X50447007Y-51092137D01*
X50566944Y-50912639D01*
X50578785Y-50897208D01*
X50721138Y-50734884D01*
X50734884Y-50721138D01*
X50897208Y-50578785D01*
X50912639Y-50566944D01*
X51092137Y-50447007D01*
X51109002Y-50437270D01*
X51302609Y-50341794D01*
X51320605Y-50334340D01*
X51525008Y-50264954D01*
X51543827Y-50259911D01*
X51755544Y-50217799D01*
X51774856Y-50215256D01*
X51995133Y-50200818D01*
X52004878Y-50200500D01*
X52039882Y-50200500D01*
X117661647Y-50200500D01*
X117736147Y-50220462D01*
G37*
%TD.AperFunction*%
%TA.AperFunction,Conductor*%
G36*
X116100181Y-89220462D02*
G01*
X116154719Y-89275000D01*
X116174681Y-89349500D01*
X116173406Y-89368949D01*
X116169318Y-89399998D01*
X116169318Y-89400002D01*
X116189954Y-89556757D01*
X116250463Y-89702840D01*
X116343164Y-89823651D01*
X116372679Y-89894908D01*
X116362612Y-89971377D01*
X116330314Y-90019714D01*
X116297793Y-90052234D01*
X116252416Y-90155005D01*
X116252415Y-90155008D01*
X116252415Y-90155009D01*
X116249500Y-90180135D01*
X116249500Y-90180136D01*
X116249500Y-90180140D01*
X116249500Y-92019866D01*
X116252414Y-92044989D01*
X116252415Y-92044992D01*
X116297793Y-92147764D01*
X116297794Y-92147765D01*
X116377235Y-92227206D01*
X116480009Y-92272585D01*
X116505135Y-92275500D01*
X117044864Y-92275499D01*
X117044866Y-92275499D01*
X117081126Y-92271294D01*
X117081554Y-92274987D01*
X117118462Y-92274839D01*
X117118874Y-92271293D01*
X117130007Y-92272584D01*
X117130009Y-92272585D01*
X117155135Y-92275500D01*
X117694864Y-92275499D01*
X117694866Y-92275499D01*
X117731126Y-92271294D01*
X117731554Y-92274987D01*
X117768462Y-92274839D01*
X117768874Y-92271293D01*
X117780007Y-92272584D01*
X117780009Y-92272585D01*
X117805135Y-92275500D01*
X118344864Y-92275499D01*
X118344866Y-92275499D01*
X118381126Y-92271294D01*
X118381554Y-92274987D01*
X118418462Y-92274839D01*
X118418874Y-92271293D01*
X118430007Y-92272584D01*
X118430009Y-92272585D01*
X118455135Y-92275500D01*
X118994864Y-92275499D01*
X118994866Y-92275499D01*
X119031126Y-92271294D01*
X119031554Y-92274987D01*
X119068462Y-92274839D01*
X119068874Y-92271293D01*
X119080007Y-92272584D01*
X119080009Y-92272585D01*
X119105135Y-92275500D01*
X119644864Y-92275499D01*
X119644866Y-92275499D01*
X119681126Y-92271294D01*
X119681554Y-92274987D01*
X119718462Y-92274839D01*
X119718874Y-92271293D01*
X119730007Y-92272584D01*
X119730009Y-92272585D01*
X119755135Y-92275500D01*
X119975790Y-92275499D01*
X120050288Y-92295461D01*
X120084290Y-92325639D01*
X120085276Y-92324654D01*
X120092812Y-92332190D01*
X120207905Y-92418349D01*
X120207915Y-92418354D01*
X120342623Y-92468598D01*
X120342621Y-92468598D01*
X120402157Y-92474998D01*
X120402177Y-92475000D01*
X120450000Y-92475000D01*
X120450000Y-92261689D01*
X120469962Y-92187189D01*
X120493641Y-92156330D01*
X120502206Y-92147765D01*
X120538697Y-92065120D01*
X120587047Y-92005035D01*
X120658966Y-91977172D01*
X120735182Y-91989002D01*
X120795271Y-92037355D01*
X120811303Y-92065122D01*
X120847794Y-92147765D01*
X120856359Y-92156330D01*
X120894923Y-92223125D01*
X120900000Y-92261689D01*
X120900000Y-92475000D01*
X120947823Y-92475000D01*
X120947842Y-92474998D01*
X121007377Y-92468598D01*
X121142084Y-92418354D01*
X121142094Y-92418349D01*
X121257187Y-92332190D01*
X121264725Y-92324653D01*
X121266320Y-92326248D01*
X121315557Y-92287529D01*
X121374209Y-92275499D01*
X121594864Y-92275499D01*
X121594867Y-92275499D01*
X121631126Y-92271294D01*
X121631554Y-92274987D01*
X121668462Y-92274839D01*
X121668874Y-92271293D01*
X121680007Y-92272584D01*
X121680009Y-92272585D01*
X121705135Y-92275500D01*
X122244864Y-92275499D01*
X122244866Y-92275499D01*
X122281126Y-92271294D01*
X122281554Y-92274987D01*
X122318462Y-92274839D01*
X122318874Y-92271293D01*
X122330007Y-92272584D01*
X122330009Y-92272585D01*
X122355135Y-92275500D01*
X122894864Y-92275499D01*
X122894866Y-92275499D01*
X122931126Y-92271294D01*
X122931554Y-92274987D01*
X122968462Y-92274839D01*
X122968874Y-92271293D01*
X122980007Y-92272584D01*
X122980009Y-92272585D01*
X123005135Y-92275500D01*
X123544864Y-92275499D01*
X123544866Y-92275499D01*
X123581126Y-92271294D01*
X123581554Y-92274987D01*
X123618462Y-92274839D01*
X123618874Y-92271293D01*
X123630007Y-92272584D01*
X123630009Y-92272585D01*
X123655135Y-92275500D01*
X124194864Y-92275499D01*
X124194866Y-92275499D01*
X124231126Y-92271294D01*
X124231554Y-92274987D01*
X124268462Y-92274839D01*
X124268874Y-92271293D01*
X124280007Y-92272584D01*
X124280009Y-92272585D01*
X124305135Y-92275500D01*
X124844864Y-92275499D01*
X124844866Y-92275499D01*
X124881126Y-92271294D01*
X124881554Y-92274987D01*
X124918462Y-92274839D01*
X124918874Y-92271293D01*
X124930007Y-92272584D01*
X124930009Y-92272585D01*
X124955135Y-92275500D01*
X125494864Y-92275499D01*
X125494866Y-92275499D01*
X125507427Y-92274042D01*
X125519991Y-92272585D01*
X125622765Y-92227206D01*
X125702206Y-92147765D01*
X125747585Y-92044991D01*
X125750500Y-92019865D01*
X125750500Y-91649500D01*
X125770462Y-91575000D01*
X125825000Y-91520462D01*
X125899500Y-91500500D01*
X127542417Y-91500500D01*
X127591633Y-91500500D01*
X127608315Y-91501436D01*
X127716718Y-91513651D01*
X127749245Y-91521075D01*
X127844266Y-91554324D01*
X127874328Y-91568801D01*
X127959567Y-91622360D01*
X127985653Y-91643163D01*
X128056836Y-91714346D01*
X128077639Y-91740432D01*
X128131198Y-91825671D01*
X128145675Y-91855733D01*
X128178924Y-91950754D01*
X128186348Y-91983281D01*
X128198563Y-92091683D01*
X128199500Y-92108367D01*
X128199500Y-92584176D01*
X128179538Y-92658676D01*
X128125000Y-92713214D01*
X128102571Y-92723781D01*
X128082671Y-92731203D01*
X128082663Y-92731207D01*
X127967455Y-92817452D01*
X127967452Y-92817455D01*
X127881204Y-92932666D01*
X127881202Y-92932670D01*
X127830908Y-93067517D01*
X127824500Y-93127114D01*
X127824500Y-93622863D01*
X127824502Y-93622888D01*
X127830908Y-93682478D01*
X127830909Y-93682484D01*
X127881202Y-93817329D01*
X127881204Y-93817333D01*
X127967452Y-93932544D01*
X127967455Y-93932547D01*
X128082666Y-94018795D01*
X128082670Y-94018797D01*
X128194198Y-94060394D01*
X128257025Y-94105133D01*
X128289066Y-94175291D01*
X128281735Y-94252069D01*
X128236996Y-94314896D01*
X128194198Y-94339606D01*
X128082670Y-94381202D01*
X128082666Y-94381204D01*
X127967455Y-94467452D01*
X127967452Y-94467455D01*
X127881204Y-94582666D01*
X127881202Y-94582670D01*
X127830908Y-94717517D01*
X127824500Y-94777114D01*
X127824500Y-95272863D01*
X127824502Y-95272888D01*
X127830908Y-95332478D01*
X127830909Y-95332484D01*
X127881202Y-95467329D01*
X127881204Y-95467333D01*
X127967452Y-95582544D01*
X127967455Y-95582547D01*
X128082668Y-95668796D01*
X128092021Y-95673903D01*
X128090729Y-95676268D01*
X128140380Y-95711611D01*
X128172433Y-95781764D01*
X128174500Y-95806499D01*
X128174500Y-97525500D01*
X128154538Y-97600000D01*
X128100000Y-97654538D01*
X128025500Y-97674500D01*
X127873999Y-97674500D01*
X127799499Y-97654538D01*
X127785520Y-97645385D01*
X127678158Y-97566148D01*
X127638267Y-97552189D01*
X127552819Y-97522290D01*
X127552816Y-97522289D01*
X127552814Y-97522289D01*
X127523074Y-97519500D01*
X127523066Y-97519500D01*
X127076934Y-97519500D01*
X127076925Y-97519500D01*
X127047185Y-97522289D01*
X127047182Y-97522289D01*
X127047181Y-97522290D01*
X127022550Y-97530909D01*
X126921841Y-97566148D01*
X126815002Y-97644999D01*
X126815001Y-97645000D01*
X126766837Y-97710259D01*
X126712827Y-97754446D01*
X126713006Y-97754756D01*
X126711116Y-97755847D01*
X126709938Y-97756811D01*
X126707380Y-97758004D01*
X126567127Y-97838979D01*
X126443073Y-97943072D01*
X126443072Y-97943073D01*
X126338979Y-98067127D01*
X126258009Y-98207369D01*
X126258007Y-98207374D01*
X126202621Y-98359546D01*
X126202619Y-98359554D01*
X126174500Y-98519025D01*
X126174500Y-98925500D01*
X126154538Y-99000000D01*
X126100000Y-99054538D01*
X126025500Y-99074500D01*
X125899500Y-99074500D01*
X125825000Y-99054538D01*
X125770462Y-99000000D01*
X125750500Y-98925500D01*
X125750499Y-97380133D01*
X125747585Y-97355010D01*
X125747584Y-97355007D01*
X125706050Y-97260942D01*
X125702206Y-97252235D01*
X125622765Y-97172794D01*
X125622764Y-97172793D01*
X125519994Y-97127416D01*
X125519991Y-97127415D01*
X125494865Y-97124500D01*
X125494859Y-97124500D01*
X124955133Y-97124500D01*
X124918875Y-97128706D01*
X124918447Y-97125018D01*
X124881536Y-97125155D01*
X124881125Y-97128706D01*
X124844868Y-97124500D01*
X124844865Y-97124500D01*
X124452512Y-97124500D01*
X124378012Y-97104538D01*
X124323474Y-97050000D01*
X124304148Y-96989247D01*
X124293808Y-96877658D01*
X124292222Y-96860546D01*
X124291901Y-96858831D01*
X124280411Y-96797366D01*
X124225950Y-96506025D01*
X124167189Y-96299500D01*
X124127255Y-96159144D01*
X124127253Y-96159139D01*
X124127251Y-96159131D01*
X124074067Y-96021848D01*
X123996968Y-95822830D01*
X123996963Y-95822819D01*
X123836209Y-95499982D01*
X123836208Y-95499981D01*
X123836204Y-95499972D01*
X123826272Y-95483932D01*
X123778960Y-95407520D01*
X123646340Y-95193331D01*
X123645032Y-95191599D01*
X123428994Y-94905519D01*
X123428985Y-94905509D01*
X123186017Y-94638985D01*
X123186014Y-94638982D01*
X122919490Y-94396014D01*
X122919480Y-94396005D01*
X122631675Y-94178664D01*
X122626227Y-94175291D01*
X122463674Y-94074642D01*
X122325037Y-93988801D01*
X122325017Y-93988790D01*
X122002180Y-93828036D01*
X122002169Y-93828031D01*
X121665883Y-93697754D01*
X121665855Y-93697744D01*
X121318991Y-93599054D01*
X121318971Y-93599049D01*
X120964459Y-93532778D01*
X120964442Y-93532776D01*
X120605340Y-93499500D01*
X120605331Y-93499500D01*
X120477727Y-93499500D01*
X113549000Y-93499500D01*
X113474500Y-93479538D01*
X113419962Y-93425000D01*
X113400000Y-93350500D01*
X113400000Y-89349500D01*
X113419962Y-89275000D01*
X113474500Y-89220462D01*
X113549000Y-89200500D01*
X116025681Y-89200500D01*
X116100181Y-89220462D01*
G37*
%TD.AperFunction*%
%TA.AperFunction,Conductor*%
G36*
X119181480Y-96301066D02*
G01*
X119352947Y-96316068D01*
X119378506Y-96320575D01*
X119538462Y-96363434D01*
X119562865Y-96372317D01*
X119712934Y-96442295D01*
X119735426Y-96455280D01*
X119842215Y-96530055D01*
X119871067Y-96550257D01*
X119890963Y-96566952D01*
X120008047Y-96684036D01*
X120024742Y-96703932D01*
X120100514Y-96812146D01*
X120126893Y-96884623D01*
X120113500Y-96960579D01*
X120063923Y-97019663D01*
X119991446Y-97046042D01*
X119915490Y-97032649D01*
X119889167Y-97016889D01*
X119842095Y-96981650D01*
X119842084Y-96981645D01*
X119707376Y-96931401D01*
X119707378Y-96931401D01*
X119647842Y-96925001D01*
X119647823Y-96925000D01*
X119600000Y-96925000D01*
X119600000Y-97138311D01*
X119580038Y-97212811D01*
X119556359Y-97243670D01*
X119547794Y-97252234D01*
X119511304Y-97334877D01*
X119462951Y-97394965D01*
X119391031Y-97422827D01*
X119314815Y-97410996D01*
X119254727Y-97362643D01*
X119238696Y-97334877D01*
X119227844Y-97310300D01*
X119202206Y-97252235D01*
X119193641Y-97243670D01*
X119155077Y-97176875D01*
X119150000Y-97138311D01*
X119150000Y-96925000D01*
X119148755Y-96923755D01*
X119078899Y-96905038D01*
X119024361Y-96850500D01*
X119017864Y-96837897D01*
X118954660Y-96699500D01*
X118945321Y-96679050D01*
X118849567Y-96530053D01*
X118826084Y-96456589D01*
X118842479Y-96381224D01*
X118894360Y-96324153D01*
X118967826Y-96300669D01*
X118974915Y-96300500D01*
X119117417Y-96300500D01*
X119168495Y-96300500D01*
X119181480Y-96301066D01*
G37*
%TD.AperFunction*%
%TA.AperFunction,Conductor*%
G36*
X62525000Y-93619962D02*
G01*
X62579538Y-93674500D01*
X62599500Y-93749000D01*
X62599500Y-95137679D01*
X62635437Y-95410650D01*
X62635440Y-95410667D01*
X62706703Y-95676629D01*
X62706703Y-95676630D01*
X62775836Y-95843529D01*
X62812077Y-95931021D01*
X62949751Y-96169479D01*
X63112228Y-96381224D01*
X63117373Y-96387929D01*
X63174585Y-96445141D01*
X63213149Y-96511936D01*
X63213149Y-96589064D01*
X63174585Y-96655859D01*
X63107790Y-96694423D01*
X63069226Y-96699500D01*
X58205858Y-96699500D01*
X58194168Y-96699041D01*
X58177603Y-96697737D01*
X57992756Y-96683189D01*
X57969664Y-96679531D01*
X57778935Y-96633741D01*
X57756698Y-96626516D01*
X57575474Y-96551451D01*
X57554641Y-96540836D01*
X57387392Y-96438345D01*
X57368478Y-96424603D01*
X57293899Y-96360907D01*
X57219319Y-96297210D01*
X57202787Y-96280678D01*
X57140101Y-96207282D01*
X57075396Y-96131521D01*
X57061654Y-96112607D01*
X56959163Y-95945358D01*
X56948548Y-95924525D01*
X56873483Y-95743301D01*
X56866258Y-95721064D01*
X56832182Y-95579129D01*
X56820467Y-95530333D01*
X56816810Y-95507242D01*
X56814975Y-95483932D01*
X56800959Y-95305832D01*
X56800500Y-95294142D01*
X56800500Y-93749000D01*
X56820462Y-93674500D01*
X56875000Y-93619962D01*
X56949500Y-93600000D01*
X62450500Y-93600000D01*
X62525000Y-93619962D01*
G37*
%TD.AperFunction*%
%TA.AperFunction,Conductor*%
G36*
X69125000Y-93619962D02*
G01*
X69179538Y-93674500D01*
X69199500Y-93749000D01*
X69199500Y-94831123D01*
X69233728Y-95091107D01*
X69233728Y-95091110D01*
X69301600Y-95344415D01*
X69301600Y-95344416D01*
X69348701Y-95458127D01*
X69398822Y-95579129D01*
X69401959Y-95586701D01*
X69453881Y-95676632D01*
X69514578Y-95781764D01*
X69533078Y-95813806D01*
X69533078Y-95813807D01*
X69692715Y-96021848D01*
X69716008Y-96045141D01*
X69754572Y-96111936D01*
X69754572Y-96189064D01*
X69716008Y-96255859D01*
X69649213Y-96294423D01*
X69610649Y-96299500D01*
X64705858Y-96299500D01*
X64694168Y-96299041D01*
X64678270Y-96297789D01*
X64508399Y-96284420D01*
X64485307Y-96280762D01*
X64309836Y-96238635D01*
X64287600Y-96231410D01*
X64120870Y-96162349D01*
X64100037Y-96151734D01*
X64067052Y-96131521D01*
X63946172Y-96057445D01*
X63927257Y-96043703D01*
X63790031Y-95926500D01*
X63773499Y-95909968D01*
X63656294Y-95772740D01*
X63642553Y-95753826D01*
X63548262Y-95599956D01*
X63537650Y-95579129D01*
X63468589Y-95412399D01*
X63461364Y-95390163D01*
X63423644Y-95233047D01*
X63419236Y-95214690D01*
X63415579Y-95191599D01*
X63411335Y-95137679D01*
X63400959Y-95005832D01*
X63400500Y-94994142D01*
X63400500Y-93749000D01*
X63420462Y-93674500D01*
X63475000Y-93619962D01*
X63549500Y-93600000D01*
X69050500Y-93600000D01*
X69125000Y-93619962D01*
G37*
%TD.AperFunction*%
%TA.AperFunction,Conductor*%
G36*
X75725000Y-93619962D02*
G01*
X75779538Y-93674500D01*
X75799500Y-93749000D01*
X75799500Y-94524570D01*
X75832016Y-94771557D01*
X75832017Y-94771563D01*
X75832018Y-94771565D01*
X75891657Y-94994142D01*
X75896499Y-95012210D01*
X75932421Y-95098933D01*
X75982565Y-95219992D01*
X75991838Y-95242377D01*
X76043858Y-95332478D01*
X76116401Y-95458127D01*
X76225235Y-95599962D01*
X76271032Y-95659646D01*
X76269253Y-95661010D01*
X76299053Y-95721249D01*
X76294105Y-95798218D01*
X76251336Y-95862401D01*
X76182204Y-95896600D01*
X76152953Y-95899500D01*
X71205859Y-95899500D01*
X71194168Y-95899041D01*
X71024043Y-95885651D01*
X71000950Y-95881993D01*
X70840737Y-95843529D01*
X70818502Y-95836304D01*
X70666269Y-95773248D01*
X70645436Y-95762633D01*
X70631064Y-95753826D01*
X70504952Y-95676544D01*
X70486037Y-95662802D01*
X70411918Y-95599499D01*
X70360740Y-95555789D01*
X70344208Y-95539257D01*
X70326847Y-95518930D01*
X70237195Y-95413960D01*
X70223455Y-95395047D01*
X70220462Y-95390163D01*
X70137362Y-95254556D01*
X70126751Y-95233730D01*
X70121059Y-95219989D01*
X70077971Y-95115963D01*
X70063695Y-95081497D01*
X70056470Y-95059262D01*
X70051659Y-95039223D01*
X70018005Y-94899044D01*
X70014348Y-94875955D01*
X70000959Y-94705831D01*
X70000500Y-94694141D01*
X70000500Y-93749000D01*
X70020462Y-93674500D01*
X70075000Y-93619962D01*
X70149500Y-93600000D01*
X75650500Y-93600000D01*
X75725000Y-93619962D01*
G37*
%TD.AperFunction*%
%TA.AperFunction,Conductor*%
G36*
X82325000Y-93619962D02*
G01*
X82379538Y-93674500D01*
X82399500Y-93749000D01*
X82399500Y-94218016D01*
X82430305Y-94452006D01*
X82430306Y-94452012D01*
X82430307Y-94452014D01*
X82478274Y-94631030D01*
X82491395Y-94679996D01*
X82581719Y-94898056D01*
X82647625Y-95012207D01*
X82699727Y-95102450D01*
X82820463Y-95259796D01*
X82849977Y-95331052D01*
X82839910Y-95407520D01*
X82792958Y-95468710D01*
X82721700Y-95498225D01*
X82702252Y-95499500D01*
X77706505Y-95499500D01*
X77693519Y-95498933D01*
X77522060Y-95483932D01*
X77496484Y-95479422D01*
X77417008Y-95458127D01*
X77336539Y-95436565D01*
X77312134Y-95427682D01*
X77162065Y-95357704D01*
X77139572Y-95344718D01*
X77003932Y-95249742D01*
X76984036Y-95233047D01*
X76866952Y-95115963D01*
X76850257Y-95096067D01*
X76810454Y-95039223D01*
X76755280Y-94960426D01*
X76742295Y-94937934D01*
X76672317Y-94787865D01*
X76663434Y-94763460D01*
X76657809Y-94742466D01*
X76620575Y-94603506D01*
X76616068Y-94577947D01*
X76601067Y-94406480D01*
X76600500Y-94393494D01*
X76600500Y-93749000D01*
X76620462Y-93674500D01*
X76675000Y-93619962D01*
X76749500Y-93600000D01*
X82250500Y-93600000D01*
X82325000Y-93619962D01*
G37*
%TD.AperFunction*%
%TA.AperFunction,Conductor*%
G36*
X88925000Y-93619962D02*
G01*
X88979538Y-93674500D01*
X88999500Y-93749000D01*
X88999500Y-93921618D01*
X88999501Y-93921633D01*
X89034116Y-94162388D01*
X89034117Y-94162395D01*
X89102647Y-94395782D01*
X89102647Y-94395784D01*
X89203692Y-94617041D01*
X89203692Y-94617042D01*
X89203694Y-94617045D01*
X89306578Y-94777136D01*
X89335203Y-94821676D01*
X89362281Y-94852926D01*
X89395981Y-94922302D01*
X89390479Y-94999234D01*
X89347248Y-95063107D01*
X89277872Y-95096807D01*
X89249674Y-95099500D01*
X84206506Y-95099500D01*
X84193519Y-95098933D01*
X84169219Y-95096807D01*
X84104173Y-95091116D01*
X84039424Y-95085451D01*
X84013847Y-95080941D01*
X83870745Y-95042597D01*
X83846338Y-95033714D01*
X83712063Y-94971100D01*
X83689571Y-94958114D01*
X83568211Y-94873137D01*
X83548315Y-94856442D01*
X83443557Y-94751684D01*
X83426862Y-94731788D01*
X83341885Y-94610428D01*
X83328899Y-94587936D01*
X83272716Y-94467452D01*
X83266284Y-94453660D01*
X83257402Y-94429254D01*
X83251300Y-94406480D01*
X83219056Y-94286144D01*
X83214549Y-94260582D01*
X83201067Y-94106479D01*
X83200500Y-94093493D01*
X83200500Y-93749000D01*
X83220462Y-93674500D01*
X83275000Y-93619962D01*
X83349500Y-93600000D01*
X88850500Y-93600000D01*
X88925000Y-93619962D01*
G37*
%TD.AperFunction*%
%TA.AperFunction,Conductor*%
G36*
X95542810Y-93619962D02*
G01*
X95597348Y-93674500D01*
X95615793Y-93727794D01*
X95632081Y-93841080D01*
X95696582Y-94060746D01*
X95696582Y-94060748D01*
X95791682Y-94268987D01*
X95791687Y-94268997D01*
X95802342Y-94285576D01*
X95918338Y-94466071D01*
X95917368Y-94466694D01*
X95943837Y-94532812D01*
X95932860Y-94609155D01*
X95885183Y-94669781D01*
X95813579Y-94698446D01*
X95795891Y-94699500D01*
X90707315Y-94699500D01*
X90692710Y-94698782D01*
X90539121Y-94683654D01*
X90510474Y-94677956D01*
X90369821Y-94635290D01*
X90342834Y-94624112D01*
X90213205Y-94554823D01*
X90188920Y-94538596D01*
X90101306Y-94466694D01*
X90075299Y-94445351D01*
X90054646Y-94424698D01*
X90039695Y-94406480D01*
X89961403Y-94311079D01*
X89945176Y-94286794D01*
X89887379Y-94178664D01*
X89875886Y-94157163D01*
X89864709Y-94130178D01*
X89845038Y-94065332D01*
X89822042Y-93989522D01*
X89816346Y-93960890D01*
X89801216Y-93807271D01*
X89800500Y-93792684D01*
X89800500Y-93749000D01*
X89820462Y-93674500D01*
X89875000Y-93619962D01*
X89949500Y-93600000D01*
X95468310Y-93600000D01*
X95542810Y-93619962D01*
G37*
%TD.AperFunction*%
%TA.AperFunction,Conductor*%
G36*
X102216564Y-93619962D02*
G01*
X102271102Y-93674500D01*
X102285028Y-93707019D01*
X102290517Y-93725714D01*
X102369555Y-93898782D01*
X102379679Y-93920950D01*
X102442560Y-94018796D01*
X102475432Y-94069945D01*
X102498916Y-94143411D01*
X102482521Y-94218776D01*
X102430640Y-94275847D01*
X102357174Y-94299331D01*
X102350085Y-94299500D01*
X97207324Y-94299500D01*
X97192720Y-94298783D01*
X97058626Y-94285576D01*
X97029978Y-94279877D01*
X96994121Y-94269000D01*
X96908087Y-94242901D01*
X96881107Y-94231726D01*
X96768761Y-94171676D01*
X96744479Y-94155451D01*
X96658758Y-94085102D01*
X96646010Y-94074640D01*
X96625357Y-94053987D01*
X96544548Y-93955520D01*
X96528321Y-93931234D01*
X96523183Y-93921622D01*
X96468458Y-93819238D01*
X96450944Y-93744125D01*
X96473333Y-93670318D01*
X96529626Y-93617594D01*
X96599864Y-93600000D01*
X102142064Y-93600000D01*
X102216564Y-93619962D01*
G37*
%TD.AperFunction*%
%TA.AperFunction,Conductor*%
G36*
X108976047Y-93619962D02*
G01*
X109022122Y-93661463D01*
X109023211Y-93662963D01*
X109050825Y-93734978D01*
X109038733Y-93811152D01*
X108990173Y-93871075D01*
X108918158Y-93898689D01*
X108902636Y-93899500D01*
X103707315Y-93899500D01*
X103692710Y-93898782D01*
X103677481Y-93897282D01*
X103605296Y-93870114D01*
X103556367Y-93810493D01*
X103543804Y-93734395D01*
X103570972Y-93662210D01*
X103630593Y-93613281D01*
X103692086Y-93600000D01*
X108901547Y-93600000D01*
X108976047Y-93619962D01*
G37*
%TD.AperFunction*%
%TA.AperFunction,Conductor*%
G36*
X115369325Y-83200501D02*
G01*
X115379686Y-83200500D01*
X115379691Y-83200502D01*
X115429959Y-83200500D01*
X115444556Y-83201216D01*
X115539634Y-83210577D01*
X115568265Y-83216271D01*
X115652661Y-83241868D01*
X115679633Y-83253039D01*
X115757410Y-83294608D01*
X115781688Y-83310829D01*
X115855306Y-83371242D01*
X115866131Y-83381053D01*
X120743718Y-88258640D01*
X120753542Y-88269479D01*
X120814143Y-88343328D01*
X120830367Y-88367612D01*
X120871927Y-88445368D01*
X120883106Y-88472359D01*
X120908695Y-88556731D01*
X120914392Y-88585378D01*
X120923782Y-88680758D01*
X120924499Y-88695358D01*
X120924498Y-88757303D01*
X120924500Y-88757328D01*
X120924500Y-89638782D01*
X120904538Y-89713282D01*
X120900000Y-89719196D01*
X120900000Y-89938311D01*
X120880038Y-90012811D01*
X120856359Y-90043670D01*
X120847794Y-90052234D01*
X120811304Y-90134877D01*
X120762951Y-90194965D01*
X120691031Y-90222827D01*
X120614815Y-90210996D01*
X120554727Y-90162643D01*
X120538696Y-90134877D01*
X120525566Y-90105140D01*
X120502206Y-90052235D01*
X120493641Y-90043670D01*
X120455077Y-89976875D01*
X120450000Y-89938311D01*
X120450000Y-89725000D01*
X120402177Y-89725000D01*
X120402157Y-89725001D01*
X120342622Y-89731401D01*
X120207915Y-89781645D01*
X120207905Y-89781650D01*
X120184660Y-89799052D01*
X120113057Y-89827717D01*
X120036714Y-89816741D01*
X119976087Y-89769063D01*
X119947422Y-89697460D01*
X119957710Y-89622751D01*
X119985044Y-89556762D01*
X119997429Y-89462693D01*
X120005682Y-89400002D01*
X120005682Y-89399997D01*
X119985045Y-89243242D01*
X119985044Y-89243240D01*
X119985044Y-89243238D01*
X119924536Y-89097159D01*
X119828282Y-88971718D01*
X119702841Y-88875464D01*
X119702840Y-88875463D01*
X119622944Y-88842369D01*
X119556762Y-88814956D01*
X119556760Y-88814955D01*
X119556756Y-88814954D01*
X119556759Y-88814954D01*
X119400003Y-88794318D01*
X119399997Y-88794318D01*
X119243242Y-88814954D01*
X119097159Y-88875463D01*
X118971718Y-88971717D01*
X118971716Y-88971719D01*
X118869519Y-89104906D01*
X118867024Y-89102992D01*
X118824450Y-89145534D01*
X118749942Y-89165468D01*
X118675450Y-89145478D01*
X118632980Y-89102988D01*
X118630481Y-89104907D01*
X118528282Y-88971718D01*
X118528281Y-88971717D01*
X118402840Y-88875463D01*
X118322944Y-88842369D01*
X118256762Y-88814956D01*
X118256760Y-88814955D01*
X118256756Y-88814954D01*
X118256759Y-88814954D01*
X118100003Y-88794318D01*
X118099997Y-88794318D01*
X117943240Y-88814954D01*
X117819257Y-88866310D01*
X117742789Y-88876377D01*
X117671532Y-88846861D01*
X117648097Y-88824427D01*
X117535163Y-88689837D01*
X117535162Y-88689836D01*
X117401055Y-88577308D01*
X117401051Y-88577305D01*
X117249450Y-88489777D01*
X117249437Y-88489772D01*
X117084939Y-88429899D01*
X117084940Y-88429899D01*
X117027469Y-88419766D01*
X116912532Y-88399500D01*
X116912528Y-88399500D01*
X113549000Y-88399500D01*
X113474500Y-88379538D01*
X113419962Y-88325000D01*
X113400000Y-88250500D01*
X113400000Y-83349500D01*
X113419962Y-83275000D01*
X113474500Y-83220462D01*
X113549000Y-83200500D01*
X115369297Y-83200500D01*
X115369325Y-83200501D01*
G37*
%TD.AperFunction*%
%TA.AperFunction,Conductor*%
G36*
X115193072Y-76601217D02*
G01*
X115200786Y-76601976D01*
X115288150Y-76610580D01*
X115316784Y-76616275D01*
X115401172Y-76641872D01*
X115428154Y-76653049D01*
X115505916Y-76694612D01*
X115530201Y-76710838D01*
X115577312Y-76749500D01*
X115603967Y-76771375D01*
X115614802Y-76781195D01*
X122034108Y-83200500D01*
X122043725Y-83210117D01*
X122053546Y-83220953D01*
X122114151Y-83294802D01*
X122130378Y-83319089D01*
X122171940Y-83396849D01*
X122183117Y-83423833D01*
X122208711Y-83508207D01*
X122214410Y-83536856D01*
X122223783Y-83632030D01*
X122224500Y-83646633D01*
X122224500Y-89775500D01*
X122204538Y-89850000D01*
X122150000Y-89904538D01*
X122075500Y-89924500D01*
X121874500Y-89924500D01*
X121800000Y-89904538D01*
X121745462Y-89850000D01*
X121725500Y-89775500D01*
X121725500Y-88625440D01*
X121725471Y-88625011D01*
X121725473Y-88595967D01*
X121701518Y-88413951D01*
X121654009Y-88236618D01*
X121583760Y-88067004D01*
X121491972Y-87908011D01*
X121380217Y-87762358D01*
X121358576Y-87740715D01*
X121358548Y-87740684D01*
X121312382Y-87694518D01*
X121269397Y-87651532D01*
X121269386Y-87651522D01*
X116476764Y-82858900D01*
X116476762Y-82858897D01*
X116471213Y-82853348D01*
X116471154Y-82853246D01*
X116362661Y-82744759D01*
X116362659Y-82744758D01*
X116217017Y-82633009D01*
X116217009Y-82633004D01*
X116217006Y-82633002D01*
X116058010Y-82541212D01*
X116058011Y-82541212D01*
X116058007Y-82541210D01*
X116058002Y-82541208D01*
X115888403Y-82470966D01*
X115888388Y-82470960D01*
X115711065Y-82423454D01*
X115711044Y-82423450D01*
X115529040Y-82399496D01*
X115529035Y-82399496D01*
X115437240Y-82399500D01*
X113549000Y-82399500D01*
X113474500Y-82379538D01*
X113419962Y-82325000D01*
X113400000Y-82250500D01*
X113400000Y-76749500D01*
X113419962Y-76675000D01*
X113474500Y-76620462D01*
X113549000Y-76600500D01*
X115128208Y-76600500D01*
X115178470Y-76600500D01*
X115193072Y-76601217D01*
G37*
%TD.AperFunction*%
%TA.AperFunction,Conductor*%
G36*
X113592246Y-70053203D02*
G01*
X113630184Y-70064711D01*
X113657165Y-70075887D01*
X113786794Y-70145176D01*
X113811079Y-70161403D01*
X113924700Y-70254648D01*
X113945353Y-70275301D01*
X114038596Y-70388920D01*
X114054823Y-70413205D01*
X114124112Y-70542834D01*
X114135290Y-70569821D01*
X114177956Y-70710474D01*
X114183654Y-70739121D01*
X114198782Y-70892710D01*
X114199500Y-70907315D01*
X114199500Y-73368479D01*
X114199509Y-73368614D01*
X114199509Y-73443464D01*
X114221139Y-73663085D01*
X114226479Y-73717309D01*
X114280154Y-73987162D01*
X114280157Y-73987172D01*
X114360026Y-74250473D01*
X114360029Y-74250481D01*
X114360030Y-74250483D01*
X114393174Y-74330500D01*
X114465330Y-74504702D01*
X114465333Y-74504709D01*
X114595030Y-74747356D01*
X114595033Y-74747361D01*
X114747906Y-74976153D01*
X114922452Y-75188841D01*
X114922458Y-75188848D01*
X114922464Y-75188855D01*
X114973966Y-75240357D01*
X114973979Y-75240372D01*
X115278748Y-75545141D01*
X115317312Y-75611936D01*
X115317312Y-75689064D01*
X115278748Y-75755859D01*
X115211953Y-75794423D01*
X115173389Y-75799500D01*
X113549000Y-75799500D01*
X113474500Y-75779538D01*
X113419962Y-75725000D01*
X113400000Y-75650500D01*
X113400000Y-70195788D01*
X113419962Y-70121288D01*
X113474500Y-70066750D01*
X113549000Y-70046788D01*
X113592246Y-70053203D01*
G37*
%TD.AperFunction*%
%TA.AperFunction,Conductor*%
G36*
X113906480Y-63401067D02*
G01*
X113917678Y-63402046D01*
X114060582Y-63414549D01*
X114086144Y-63419056D01*
X114229256Y-63457402D01*
X114253661Y-63466285D01*
X114387936Y-63528899D01*
X114410428Y-63541885D01*
X114531788Y-63626862D01*
X114551684Y-63643557D01*
X114656442Y-63748315D01*
X114673137Y-63768211D01*
X114758114Y-63889571D01*
X114771100Y-63912063D01*
X114833714Y-64046338D01*
X114842597Y-64070745D01*
X114880941Y-64213847D01*
X114885451Y-64239424D01*
X114898933Y-64393519D01*
X114899500Y-64406506D01*
X114899500Y-69749700D01*
X114879538Y-69824200D01*
X114825000Y-69878738D01*
X114750500Y-69898700D01*
X114676000Y-69878738D01*
X114637893Y-69847274D01*
X114505507Y-69694493D01*
X114505506Y-69694492D01*
X114403038Y-69605703D01*
X114321675Y-69535202D01*
X114117045Y-69403694D01*
X114117042Y-69403692D01*
X113895783Y-69302647D01*
X113662395Y-69234117D01*
X113662389Y-69234116D01*
X113527794Y-69214764D01*
X113456894Y-69184402D01*
X113410673Y-69122658D01*
X113400000Y-69067281D01*
X113400000Y-63549500D01*
X113419962Y-63475000D01*
X113474500Y-63420462D01*
X113549000Y-63400500D01*
X113842417Y-63400500D01*
X113893494Y-63400500D01*
X113906480Y-63401067D01*
G37*
%TD.AperFunction*%
%TA.AperFunction,Conductor*%
G36*
X136485323Y-59891872D02*
G01*
X136492630Y-59893599D01*
X136552157Y-59899998D01*
X136552177Y-59900000D01*
X136773888Y-59900000D01*
X136848388Y-59919962D01*
X136902926Y-59974500D01*
X136922888Y-60049000D01*
X136902926Y-60123500D01*
X136879247Y-60154359D01*
X135681009Y-61352596D01*
X135614214Y-61391160D01*
X135595099Y-61394962D01*
X135443241Y-61414954D01*
X135297159Y-61475463D01*
X135171718Y-61571717D01*
X135171717Y-61571718D01*
X135075463Y-61697159D01*
X135014954Y-61843242D01*
X134994318Y-61999997D01*
X134994318Y-62000002D01*
X135014954Y-62156757D01*
X135075462Y-62302838D01*
X135075463Y-62302840D01*
X135075464Y-62302841D01*
X135159484Y-62412339D01*
X135188998Y-62483592D01*
X135190273Y-62503041D01*
X135190273Y-63800500D01*
X135170311Y-63875000D01*
X135115773Y-63929538D01*
X135041273Y-63949500D01*
X130955040Y-63949500D01*
X130880540Y-63929538D01*
X130826002Y-63875000D01*
X130806040Y-63800500D01*
X130826002Y-63726000D01*
X130849681Y-63695141D01*
X131942211Y-62602611D01*
X133288873Y-61255949D01*
X133297450Y-61248022D01*
X133427209Y-61137194D01*
X133446124Y-61123451D01*
X133586619Y-61037353D01*
X133607435Y-61026745D01*
X133759688Y-60963676D01*
X133781899Y-60956459D01*
X133942143Y-60917985D01*
X133965211Y-60914331D01*
X134135106Y-60900958D01*
X134146774Y-60900500D01*
X134921625Y-60900500D01*
X134921628Y-60900500D01*
X134921631Y-60900499D01*
X134921638Y-60900499D01*
X135162396Y-60865882D01*
X135162401Y-60865881D01*
X135305827Y-60823765D01*
X135395787Y-60797351D01*
X135617049Y-60696304D01*
X135821678Y-60564796D01*
X136005509Y-60405504D01*
X136164800Y-60221673D01*
X136296307Y-60017043D01*
X136315516Y-59974980D01*
X136364621Y-59915507D01*
X136436885Y-59888552D01*
X136485323Y-59891872D01*
G37*
%TD.AperFunction*%
%TA.AperFunction,Conductor*%
G36*
X114506480Y-56801066D02*
G01*
X114677947Y-56816068D01*
X114703506Y-56820575D01*
X114863462Y-56863434D01*
X114887865Y-56872317D01*
X115037934Y-56942295D01*
X115060426Y-56955280D01*
X115195698Y-57049999D01*
X115196067Y-57050257D01*
X115215963Y-57066952D01*
X115333047Y-57184036D01*
X115349742Y-57203932D01*
X115444718Y-57339572D01*
X115457704Y-57362065D01*
X115527682Y-57512134D01*
X115536565Y-57536539D01*
X115544219Y-57565102D01*
X115576357Y-57685045D01*
X115579422Y-57696481D01*
X115583932Y-57722060D01*
X115598933Y-57893519D01*
X115599500Y-57906505D01*
X115599500Y-63218247D01*
X115579538Y-63292747D01*
X115525000Y-63347285D01*
X115450500Y-63367247D01*
X115376000Y-63347285D01*
X115332291Y-63308953D01*
X115256591Y-63210300D01*
X115089704Y-63043413D01*
X115089699Y-63043408D01*
X114902450Y-62899727D01*
X114876013Y-62884463D01*
X114698056Y-62781719D01*
X114479996Y-62691395D01*
X114479994Y-62691394D01*
X114479993Y-62691394D01*
X114252014Y-62630307D01*
X114252012Y-62630306D01*
X114252006Y-62630305D01*
X114018016Y-62599500D01*
X114018011Y-62599500D01*
X113952727Y-62599500D01*
X113549000Y-62599500D01*
X113474500Y-62579538D01*
X113419962Y-62525000D01*
X113400000Y-62450500D01*
X113400000Y-56949500D01*
X113419962Y-56875000D01*
X113474500Y-56820462D01*
X113549000Y-56800500D01*
X114442417Y-56800500D01*
X114493495Y-56800500D01*
X114506480Y-56801066D01*
G37*
%TD.AperFunction*%
%TA.AperFunction,Conductor*%
G36*
X126302029Y-58520462D02*
G01*
X126356567Y-58575000D01*
X126376529Y-58649500D01*
X126366022Y-58696862D01*
X126368372Y-58697641D01*
X126310494Y-58872302D01*
X126310492Y-58872311D01*
X126300000Y-58975010D01*
X126300000Y-59100000D01*
X127801000Y-59100000D01*
X127875500Y-59119962D01*
X127930038Y-59174500D01*
X127950000Y-59249000D01*
X127950000Y-59451000D01*
X127930038Y-59525500D01*
X127875500Y-59580038D01*
X127801000Y-59600000D01*
X126300001Y-59600000D01*
X126300001Y-59675500D01*
X126280039Y-59750000D01*
X126225501Y-59804538D01*
X126151001Y-59824500D01*
X124789513Y-59824500D01*
X124715013Y-59804538D01*
X124660475Y-59750000D01*
X124640513Y-59675500D01*
X124660475Y-59601000D01*
X124662001Y-59598417D01*
X124743019Y-59464395D01*
X124743019Y-59464394D01*
X124793590Y-59302109D01*
X124800000Y-59231569D01*
X124800000Y-59150000D01*
X123799000Y-59150000D01*
X123724500Y-59130038D01*
X123669962Y-59075500D01*
X123650000Y-59001000D01*
X123650000Y-58799000D01*
X123669962Y-58724500D01*
X123724500Y-58669962D01*
X123799000Y-58650000D01*
X124799999Y-58650000D01*
X124799999Y-58649500D01*
X124819961Y-58575000D01*
X124874499Y-58520462D01*
X124948999Y-58500500D01*
X126227529Y-58500500D01*
X126302029Y-58520462D01*
G37*
%TD.AperFunction*%
%TA.AperFunction,Conductor*%
G36*
X136205859Y-56871251D02*
G01*
X136244423Y-56938046D01*
X136249500Y-56976610D01*
X136249500Y-57334896D01*
X136252416Y-57349555D01*
X136255331Y-57364213D01*
X136255331Y-57364214D01*
X136255332Y-57364215D01*
X136257341Y-57367222D01*
X136260810Y-57377441D01*
X136260948Y-57377775D01*
X136260926Y-57377784D01*
X136282132Y-57440257D01*
X136267084Y-57515903D01*
X136257342Y-57532776D01*
X136255333Y-57535782D01*
X136255331Y-57535787D01*
X136249500Y-57565101D01*
X136249500Y-57984896D01*
X136252416Y-57999555D01*
X136255331Y-58014213D01*
X136255331Y-58014214D01*
X136255332Y-58014215D01*
X136255332Y-58014216D01*
X136277541Y-58047455D01*
X136277542Y-58047456D01*
X136277543Y-58047457D01*
X136310787Y-58069669D01*
X136340101Y-58075500D01*
X136367333Y-58075499D01*
X136441830Y-58095459D01*
X136472693Y-58119140D01*
X137248194Y-58894641D01*
X137286758Y-58961436D01*
X137286758Y-59038564D01*
X137248194Y-59105359D01*
X137105359Y-59248194D01*
X137038564Y-59286758D01*
X136961436Y-59286758D01*
X136894641Y-59248194D01*
X136119140Y-58472693D01*
X136080576Y-58405898D01*
X136075499Y-58367334D01*
X136075499Y-58340103D01*
X136075499Y-58340101D01*
X136069669Y-58310787D01*
X136069667Y-58310784D01*
X136069667Y-58310783D01*
X136047458Y-58277544D01*
X136047456Y-58277542D01*
X136014213Y-58255331D01*
X136010473Y-58254587D01*
X135984899Y-58249500D01*
X135984898Y-58249500D01*
X135565103Y-58249500D01*
X135545602Y-58253378D01*
X135535787Y-58255331D01*
X135535786Y-58255331D01*
X135535784Y-58255332D01*
X135535783Y-58255332D01*
X135532773Y-58257344D01*
X135522546Y-58260814D01*
X135522225Y-58260948D01*
X135522216Y-58260926D01*
X135459737Y-58282132D01*
X135384092Y-58267082D01*
X135367224Y-58257343D01*
X135364213Y-58255331D01*
X135334899Y-58249500D01*
X135334898Y-58249500D01*
X134915103Y-58249500D01*
X134895602Y-58253378D01*
X134885787Y-58255331D01*
X134885786Y-58255331D01*
X134885784Y-58255332D01*
X134885783Y-58255332D01*
X134882773Y-58257344D01*
X134872546Y-58260814D01*
X134872225Y-58260948D01*
X134872216Y-58260926D01*
X134809737Y-58282132D01*
X134734092Y-58267082D01*
X134717224Y-58257343D01*
X134714213Y-58255331D01*
X134684899Y-58249500D01*
X134684898Y-58249500D01*
X134265103Y-58249500D01*
X134245602Y-58253378D01*
X134235787Y-58255331D01*
X134235786Y-58255331D01*
X134235784Y-58255332D01*
X134235783Y-58255332D01*
X134232773Y-58257344D01*
X134222546Y-58260814D01*
X134222225Y-58260948D01*
X134222216Y-58260926D01*
X134159737Y-58282132D01*
X134084092Y-58267082D01*
X134067224Y-58257343D01*
X134064213Y-58255331D01*
X134034899Y-58249500D01*
X134034898Y-58249500D01*
X133615103Y-58249500D01*
X133595602Y-58253378D01*
X133585787Y-58255331D01*
X133585786Y-58255331D01*
X133585784Y-58255332D01*
X133585783Y-58255332D01*
X133582773Y-58257344D01*
X133572546Y-58260814D01*
X133572225Y-58260948D01*
X133572216Y-58260926D01*
X133509737Y-58282132D01*
X133434092Y-58267082D01*
X133417224Y-58257343D01*
X133414213Y-58255331D01*
X133384899Y-58249500D01*
X133384898Y-58249500D01*
X132965103Y-58249500D01*
X132945602Y-58253378D01*
X132935787Y-58255331D01*
X132935786Y-58255331D01*
X132935784Y-58255332D01*
X132935783Y-58255332D01*
X132932773Y-58257344D01*
X132922546Y-58260814D01*
X132922225Y-58260948D01*
X132922216Y-58260926D01*
X132859737Y-58282132D01*
X132784092Y-58267082D01*
X132767224Y-58257343D01*
X132764213Y-58255331D01*
X132734899Y-58249500D01*
X132734898Y-58249500D01*
X132315103Y-58249500D01*
X132295602Y-58253378D01*
X132285787Y-58255331D01*
X132285786Y-58255331D01*
X132285784Y-58255332D01*
X132285783Y-58255332D01*
X132282773Y-58257344D01*
X132272546Y-58260814D01*
X132272225Y-58260948D01*
X132272216Y-58260926D01*
X132209737Y-58282132D01*
X132134092Y-58267082D01*
X132117224Y-58257343D01*
X132114213Y-58255331D01*
X132084899Y-58249500D01*
X132084898Y-58249500D01*
X131665103Y-58249500D01*
X131645602Y-58253378D01*
X131635787Y-58255331D01*
X131635786Y-58255331D01*
X131635784Y-58255332D01*
X131635783Y-58255332D01*
X131632773Y-58257344D01*
X131622546Y-58260814D01*
X131622225Y-58260948D01*
X131622216Y-58260926D01*
X131559737Y-58282132D01*
X131484092Y-58267082D01*
X131467224Y-58257343D01*
X131464213Y-58255331D01*
X131434899Y-58249500D01*
X131434898Y-58249500D01*
X131015103Y-58249500D01*
X130995602Y-58253378D01*
X130985787Y-58255331D01*
X130985786Y-58255331D01*
X130985784Y-58255332D01*
X130985783Y-58255332D01*
X130952544Y-58277541D01*
X130952542Y-58277543D01*
X130930331Y-58310786D01*
X130930331Y-58310787D01*
X130924500Y-58340102D01*
X130924500Y-58367333D01*
X130904538Y-58441833D01*
X130880859Y-58472692D01*
X130105358Y-59248193D01*
X130038563Y-59286757D01*
X129961435Y-59286757D01*
X129894640Y-59248193D01*
X129751805Y-59105358D01*
X129713241Y-59038563D01*
X129713241Y-58961435D01*
X129751805Y-58894640D01*
X130527305Y-58119140D01*
X130594100Y-58080576D01*
X130632663Y-58075499D01*
X130659898Y-58075499D01*
X130689213Y-58069669D01*
X130722457Y-58047457D01*
X130744669Y-58014213D01*
X130750500Y-57984899D01*
X130750499Y-57565102D01*
X130744669Y-57535787D01*
X130742658Y-57532778D01*
X130739187Y-57522551D01*
X130739052Y-57522225D01*
X130739073Y-57522216D01*
X130717867Y-57459744D01*
X130732914Y-57384098D01*
X130742653Y-57367230D01*
X130744669Y-57364213D01*
X130750500Y-57334899D01*
X130750499Y-57191506D01*
X130770461Y-57117009D01*
X130824998Y-57062471D01*
X130899498Y-57042508D01*
X130915427Y-57043362D01*
X130977159Y-57049999D01*
X130977177Y-57050000D01*
X131157329Y-57050000D01*
X131231829Y-57069962D01*
X131286367Y-57124500D01*
X131306329Y-57199000D01*
X131305054Y-57218448D01*
X131294318Y-57299997D01*
X131294318Y-57300002D01*
X131314954Y-57456757D01*
X131375463Y-57602840D01*
X131467736Y-57723092D01*
X131471718Y-57728282D01*
X131597159Y-57824536D01*
X131743238Y-57885044D01*
X131743241Y-57885044D01*
X131743243Y-57885045D01*
X131743240Y-57885045D01*
X131899997Y-57905682D01*
X131900000Y-57905682D01*
X131900003Y-57905682D01*
X132056757Y-57885045D01*
X132056758Y-57885044D01*
X132056762Y-57885044D01*
X132202841Y-57824536D01*
X132328282Y-57728282D01*
X132424385Y-57603037D01*
X132485572Y-57556086D01*
X132562040Y-57546019D01*
X132633298Y-57575534D01*
X132697159Y-57624536D01*
X132843238Y-57685044D01*
X132843241Y-57685044D01*
X132843243Y-57685045D01*
X132843240Y-57685045D01*
X132999997Y-57705682D01*
X133000000Y-57705682D01*
X133000003Y-57705682D01*
X133156757Y-57685045D01*
X133156758Y-57685044D01*
X133156762Y-57685044D01*
X133302841Y-57624536D01*
X133424362Y-57531290D01*
X133495619Y-57501775D01*
X133515067Y-57500500D01*
X134177725Y-57500500D01*
X134177727Y-57500500D01*
X134279588Y-57473207D01*
X134327888Y-57445320D01*
X134402386Y-57425357D01*
X134476886Y-57445317D01*
X134531425Y-57499854D01*
X134540047Y-57517337D01*
X134575463Y-57602840D01*
X134667736Y-57723092D01*
X134671718Y-57728282D01*
X134797159Y-57824536D01*
X134943238Y-57885044D01*
X134943241Y-57885044D01*
X134943243Y-57885045D01*
X134943240Y-57885045D01*
X135099997Y-57905682D01*
X135100000Y-57905682D01*
X135100003Y-57905682D01*
X135256757Y-57885045D01*
X135256758Y-57885044D01*
X135256762Y-57885044D01*
X135402841Y-57824536D01*
X135528282Y-57728282D01*
X135624536Y-57602841D01*
X135685044Y-57456762D01*
X135685492Y-57453365D01*
X135705682Y-57300002D01*
X135705682Y-57300000D01*
X135699672Y-57254352D01*
X135699068Y-57249764D01*
X135709134Y-57173298D01*
X135741431Y-57124960D01*
X135995142Y-56871249D01*
X136061936Y-56832687D01*
X136139064Y-56832687D01*
X136205859Y-56871251D01*
G37*
%TD.AperFunction*%
%TD*%
M02*
