M48
; DRILL file {KiCad 8.0.6} date 2025-06-19T14:33:08+0900
; FORMAT={-:-/ absolute / inch / decimal}
; #@! TF.CreationDate,2025-06-19T14:33:08+09:00
; #@! TF.GenerationSoftware,Kicad,Pcbnew,8.0.6
; #@! TF.FileFunction,Plated,1,2,PTH
FMAT,2
INCH
; #@! TA.AperFunction,Plated,PTH,ViaDrill
T1C0.0118
; #@! TA.AperFunction,Plated,PTH,ComponentDrill
T2C0.0394
%
G90
G05
T1
X2.0276Y-2.0276
X2.0276Y-2.4213
X2.0276Y-2.815
X2.0276Y-3.2087
X2.0276Y-3.6024
X2.0276Y-3.9173
X2.1929Y-2.2205
X2.1929Y-2.4803
X2.1929Y-2.7402
X2.1929Y-3.0
X2.1929Y-3.2598
X2.1929Y-3.5197
X2.2205Y-3.5472
X2.248Y-2.2205
X2.248Y-2.4803
X2.248Y-2.7402
X2.248Y-3.0
X2.248Y-3.2598
X2.248Y-3.5197
X2.3504Y-3.6969
X2.4213Y-2.0276
X2.4213Y-3.9173
X2.4528Y-2.2205
X2.4528Y-2.4803
X2.4528Y-2.7402
X2.4528Y-3.0
X2.4528Y-3.2598
X2.4528Y-3.5197
X2.4803Y-3.5472
X2.5079Y-2.2205
X2.5079Y-2.4803
X2.5079Y-2.7402
X2.5079Y-3.0
X2.5079Y-3.2598
X2.5079Y-3.5197
X2.6102Y-3.6969
X2.7126Y-2.2205
X2.7126Y-2.4803
X2.7126Y-2.7402
X2.7126Y-3.0
X2.7126Y-3.2598
X2.7126Y-3.5197
X2.7402Y-3.5472
X2.7677Y-2.2205
X2.7677Y-2.4803
X2.7677Y-2.7402
X2.7677Y-3.0
X2.7677Y-3.2598
X2.7677Y-3.5197
X2.815Y-2.0276
X2.815Y-3.9173
X2.8701Y-3.6969
X2.9724Y-2.2205
X2.9724Y-2.4803
X2.9724Y-2.7402
X2.9724Y-3.0
X2.9724Y-3.2598
X2.9724Y-3.5197
X3.0Y-3.5472
X3.0276Y-2.2205
X3.0276Y-2.4803
X3.0276Y-2.7402
X3.0276Y-3.0
X3.0276Y-3.2598
X3.0276Y-3.5197
X3.1299Y-3.6969
X3.2087Y-2.0276
X3.2087Y-3.9173
X3.2323Y-2.2205
X3.2323Y-2.4803
X3.2323Y-2.7402
X3.2323Y-3.0
X3.2323Y-3.2598
X3.2323Y-3.5197
X3.2598Y-3.5472
X3.2874Y-2.2205
X3.2874Y-2.4803
X3.2874Y-2.7402
X3.2874Y-3.0
X3.2874Y-3.2598
X3.2874Y-3.5197
X3.3898Y-3.6969
X3.4921Y-2.2205
X3.4921Y-2.4803
X3.4921Y-2.7402
X3.4921Y-3.0
X3.4921Y-3.2598
X3.4921Y-3.5197
X3.5197Y-3.5472
X3.5472Y-2.2205
X3.5472Y-2.4803
X3.5472Y-2.7402
X3.5472Y-3.0
X3.5472Y-3.2598
X3.5472Y-3.5197
X3.6024Y-2.0276
X3.6024Y-3.9173
X3.6496Y-3.6969
X3.752Y-2.2205
X3.752Y-2.4803
X3.752Y-2.7402
X3.752Y-3.0
X3.752Y-3.2598
X3.752Y-3.5197
X3.7795Y-3.5472
X3.8071Y-2.2205
X3.8071Y-2.4803
X3.8071Y-2.7402
X3.8071Y-3.0
X3.8071Y-3.2598
X3.8071Y-3.5197
X3.9094Y-3.6969
X3.9961Y-2.0276
X3.9961Y-3.9173
X4.0118Y-2.2205
X4.0118Y-2.4803
X4.0118Y-2.7402
X4.0118Y-3.0
X4.0118Y-3.2598
X4.0118Y-3.5197
X4.0394Y-3.5472
X4.0669Y-2.2205
X4.0669Y-2.4803
X4.0669Y-2.7402
X4.0669Y-3.0
X4.0669Y-3.2598
X4.0669Y-3.5197
X4.1693Y-3.689
X4.2717Y-2.2205
X4.2717Y-2.4803
X4.2717Y-2.7402
X4.2717Y-3.0
X4.2717Y-3.2598
X4.2717Y-3.5197
X4.2992Y-3.5472
X4.3268Y-2.2205
X4.3268Y-2.4803
X4.3268Y-2.7402
X4.3268Y-3.0
X4.3268Y-3.2598
X4.3268Y-3.5197
X4.3898Y-2.0276
X4.3898Y-3.9173
X4.4882Y-2.3504
X4.4882Y-2.6102
X4.4882Y-2.8701
X4.4882Y-3.1299
X4.4882Y-3.378
X4.4882Y-3.5984
X4.563Y-3.378
X4.563Y-3.8701
X4.5974Y-3.5197
X4.6063Y-3.1929
X4.6496Y-3.5197
X4.6969Y-3.8031
X4.7008Y-3.5197
X4.7638Y-3.3346
X4.815Y-2.2559
X4.874Y-2.815
X4.9016Y-3.8071
X4.9252Y-2.878
X4.9449Y-2.3307
X4.9646Y-3.5
X4.9803Y-3.9449
X5.0197Y-3.1378
X5.1102Y-3.7717
X5.1811Y-2.5
X5.1929Y-2.2559
X5.2323Y-3.8031
X5.2362Y-2.248
X5.2441Y-2.4646
X5.2598Y-3.8858
X5.3189Y-2.2559
X5.3386Y-2.4409
X5.3465Y-2.2756
X5.3618Y-2.5551
X5.3976Y-2.7047
X5.3976Y-3.1378
X5.4016Y-3.6772
X5.4094Y-2.5472
X5.4449Y-2.5472
X5.4449Y-3.8858
T2
X4.5472Y-2.0394
X4.6457Y-2.1811
X4.6457Y-2.2811
X4.6457Y-2.3811
X4.6457Y-2.4811
X4.6457Y-2.5811
X4.6457Y-2.6811
X4.6457Y-2.7811
X4.6457Y-2.8811
X4.6472Y-2.0394
X4.7472Y-2.0394
X4.8472Y-2.0394
M30
