%TF.GenerationSoftware,KiCad,Pcbnew,8.0.8*%
%TF.CreationDate,2025-06-16T14:26:01+09:00*%
%TF.ProjectId,card,63617264-2e6b-4696-9361-645f70636258,rev?*%
%TF.SameCoordinates,Original*%
%TF.FileFunction,Copper,L2,Bot*%
%TF.FilePolarity,Positive*%
%FSLAX46Y46*%
G04 Gerber Fmt 4.6, Leading zero omitted, Abs format (unit mm)*
G04 Created by KiCad (PCBNEW 8.0.8) date 2025-06-16 14:26:01*
%MOMM*%
%LPD*%
G01*
G04 APERTURE LIST*
G04 Aperture macros list*
%AMRoundRect*
0 Rectangle with rounded corners*
0 $1 Rounding radius*
0 $2 $3 $4 $5 $6 $7 $8 $9 X,Y pos of 4 corners*
0 Add a 4 corners polygon primitive as box body*
4,1,4,$2,$3,$4,$5,$6,$7,$8,$9,$2,$3,0*
0 Add four circle primitives for the rounded corners*
1,1,$1+$1,$2,$3*
1,1,$1+$1,$4,$5*
1,1,$1+$1,$6,$7*
1,1,$1+$1,$8,$9*
0 Add four rect primitives between the rounded corners*
20,1,$1+$1,$2,$3,$4,$5,0*
20,1,$1+$1,$4,$5,$6,$7,0*
20,1,$1+$1,$6,$7,$8,$9,0*
20,1,$1+$1,$8,$9,$2,$3,0*%
G04 Aperture macros list end*
%TA.AperFunction,Conductor*%
%ADD10C,0.200000*%
%TD*%
%TA.AperFunction,SMDPad,CuDef*%
%ADD11RoundRect,0.150000X-0.625000X0.150000X-0.625000X-0.150000X0.625000X-0.150000X0.625000X0.150000X0*%
%TD*%
%TA.AperFunction,SMDPad,CuDef*%
%ADD12RoundRect,0.250000X-0.650000X0.350000X-0.650000X-0.350000X0.650000X-0.350000X0.650000X0.350000X0*%
%TD*%
%TA.AperFunction,ComponentPad*%
%ADD13R,1.700000X1.700000*%
%TD*%
%TA.AperFunction,ComponentPad*%
%ADD14O,1.700000X1.700000*%
%TD*%
%TA.AperFunction,ViaPad*%
%ADD15C,0.600000*%
%TD*%
%TA.AperFunction,Conductor*%
%ADD16C,0.250000*%
%TD*%
%TA.AperFunction,Conductor*%
%ADD17C,0.150000*%
%TD*%
G04 APERTURE END LIST*
D10*
%TO.N,unconnected-(U2-RX11-Pad4)*%
X56100000Y-69600000D02*
X53100000Y-72600000D01*
X53100000Y-66600000D01*
X56100000Y-69600000D01*
%TA.AperFunction,Conductor*%
G36*
X56100000Y-69600000D02*
G01*
X53100000Y-72600000D01*
X53100000Y-66600000D01*
X56100000Y-69600000D01*
G37*
%TD.AperFunction*%
%TO.N,unconnected-(U2-RX10-Pad3)*%
X112500000Y-66000000D02*
X109500000Y-63000000D01*
X112500000Y-60000000D01*
X112500000Y-66000000D01*
%TA.AperFunction,Conductor*%
G36*
X112500000Y-66000000D02*
G01*
X109500000Y-63000000D01*
X112500000Y-60000000D01*
X112500000Y-66000000D01*
G37*
%TD.AperFunction*%
%TO.N,unconnected-(U2-RX1-Pad17)*%
X66000000Y-92700000D02*
X60000000Y-92700000D01*
X63000000Y-89700000D01*
X66000000Y-92700000D01*
%TA.AperFunction,Conductor*%
G36*
X66000000Y-92700000D02*
G01*
X60000000Y-92700000D01*
X63000000Y-89700000D01*
X66000000Y-92700000D01*
G37*
%TD.AperFunction*%
%TO.N,unconnected-(U2-RX14-Pad13)*%
X62700000Y-89400000D02*
X59700000Y-92400000D01*
X56700000Y-89400000D01*
X59700000Y-86400000D01*
X62700000Y-89400000D01*
%TA.AperFunction,Conductor*%
G36*
X62700000Y-89400000D02*
G01*
X59700000Y-92400000D01*
X56700000Y-89400000D01*
X59700000Y-86400000D01*
X62700000Y-89400000D01*
G37*
%TD.AperFunction*%
%TO.N,unconnected-(U2-RX5-Pad23)*%
X92400000Y-86100000D02*
X89400000Y-89100000D01*
X86400000Y-86100000D01*
X89400000Y-83100000D01*
X92400000Y-86100000D01*
%TA.AperFunction,Conductor*%
G36*
X92400000Y-86100000D02*
G01*
X89400000Y-89100000D01*
X86400000Y-86100000D01*
X89400000Y-83100000D01*
X92400000Y-86100000D01*
G37*
%TD.AperFunction*%
%TO.N,unconnected-(U2-RX0-Pad16)*%
X59400000Y-79500000D02*
X56400000Y-82500000D01*
X53400000Y-79500000D01*
X56400000Y-76500000D01*
X59400000Y-79500000D01*
%TA.AperFunction,Conductor*%
G36*
X59400000Y-79500000D02*
G01*
X56400000Y-82500000D01*
X53400000Y-79500000D01*
X56400000Y-76500000D01*
X59400000Y-79500000D01*
G37*
%TD.AperFunction*%
%TO.N,unconnected-(U2-RX14-Pad13)*%
X108900000Y-89400000D02*
X105900000Y-92400000D01*
X102900000Y-89400000D01*
X105900000Y-86400000D01*
X108900000Y-89400000D01*
%TA.AperFunction,Conductor*%
G36*
X108900000Y-89400000D02*
G01*
X105900000Y-92400000D01*
X102900000Y-89400000D01*
X105900000Y-86400000D01*
X108900000Y-89400000D01*
G37*
%TD.AperFunction*%
%TO.N,unconnected-(U2-RX0-Pad16)*%
X59400000Y-92700000D02*
X53400000Y-92700000D01*
X56400000Y-89700000D01*
X59400000Y-92700000D01*
%TA.AperFunction,Conductor*%
G36*
X59400000Y-92700000D02*
G01*
X53400000Y-92700000D01*
X56400000Y-89700000D01*
X59400000Y-92700000D01*
G37*
%TD.AperFunction*%
%TO.N,unconnected-(U2-RX14-Pad13)*%
X112500000Y-92400000D02*
X109500000Y-89400000D01*
X112500000Y-86400000D01*
X112500000Y-92400000D01*
%TA.AperFunction,Conductor*%
G36*
X112500000Y-92400000D02*
G01*
X109500000Y-89400000D01*
X112500000Y-86400000D01*
X112500000Y-92400000D01*
G37*
%TD.AperFunction*%
%TO.N,unconnected-(U2-RX4-Pad22)*%
X85800000Y-66300000D02*
X82800000Y-69300000D01*
X79800000Y-66300000D01*
X82800000Y-63300000D01*
X85800000Y-66300000D01*
%TA.AperFunction,Conductor*%
G36*
X85800000Y-66300000D02*
G01*
X82800000Y-69300000D01*
X79800000Y-66300000D01*
X82800000Y-63300000D01*
X85800000Y-66300000D01*
G37*
%TD.AperFunction*%
%TO.N,unconnected-(U2-RX2-Pad18)*%
X72600000Y-72900000D02*
X69600000Y-75900000D01*
X66600000Y-72900000D01*
X69600000Y-69900000D01*
X72600000Y-72900000D01*
%TA.AperFunction,Conductor*%
G36*
X72600000Y-72900000D02*
G01*
X69600000Y-75900000D01*
X66600000Y-72900000D01*
X69600000Y-69900000D01*
X72600000Y-72900000D01*
G37*
%TD.AperFunction*%
%TO.N,unconnected-(U2-RX10-Pad3)*%
X56100000Y-63000000D02*
X53100000Y-66000000D01*
X53100000Y-60000000D01*
X56100000Y-63000000D01*
%TA.AperFunction,Conductor*%
G36*
X56100000Y-63000000D02*
G01*
X53100000Y-66000000D01*
X53100000Y-60000000D01*
X56100000Y-63000000D01*
G37*
%TD.AperFunction*%
%TO.N,unconnected-(U2-RX13-Pad7)*%
X69300000Y-82800000D02*
X66300000Y-85800000D01*
X63300000Y-82800000D01*
X66300000Y-79800000D01*
X69300000Y-82800000D01*
%TA.AperFunction,Conductor*%
G36*
X69300000Y-82800000D02*
G01*
X66300000Y-85800000D01*
X63300000Y-82800000D01*
X66300000Y-79800000D01*
X69300000Y-82800000D01*
G37*
%TD.AperFunction*%
%TO.N,unconnected-(U2-RX2-Pad18)*%
X72600000Y-86100000D02*
X69600000Y-89100000D01*
X66600000Y-86100000D01*
X69600000Y-83100000D01*
X72600000Y-86100000D01*
%TA.AperFunction,Conductor*%
G36*
X72600000Y-86100000D02*
G01*
X69600000Y-89100000D01*
X66600000Y-86100000D01*
X69600000Y-83100000D01*
X72600000Y-86100000D01*
G37*
%TD.AperFunction*%
%TO.N,unconnected-(U2-RX5-Pad23)*%
X92400000Y-92700000D02*
X86400000Y-92700000D01*
X89400000Y-89700000D01*
X92400000Y-92700000D01*
%TA.AperFunction,Conductor*%
G36*
X92400000Y-92700000D02*
G01*
X86400000Y-92700000D01*
X89400000Y-89700000D01*
X92400000Y-92700000D01*
G37*
%TD.AperFunction*%
%TO.N,unconnected-(U2-RX2-Pad18)*%
X69600000Y-56100000D02*
X66600000Y-53100000D01*
X72600000Y-53100000D01*
X69600000Y-56100000D01*
%TA.AperFunction,Conductor*%
G36*
X69600000Y-56100000D02*
G01*
X66600000Y-53100000D01*
X72600000Y-53100000D01*
X69600000Y-56100000D01*
G37*
%TD.AperFunction*%
%TO.N,unconnected-(U2-RX6-Pad24)*%
X99000000Y-72900000D02*
X96000000Y-75900000D01*
X93000000Y-72900000D01*
X96000000Y-69900000D01*
X99000000Y-72900000D01*
%TA.AperFunction,Conductor*%
G36*
X99000000Y-72900000D02*
G01*
X96000000Y-75900000D01*
X93000000Y-72900000D01*
X96000000Y-69900000D01*
X99000000Y-72900000D01*
G37*
%TD.AperFunction*%
%TO.N,unconnected-(U2-RX7-Pad25)*%
X105600000Y-66300000D02*
X102600000Y-69300000D01*
X99600000Y-66300000D01*
X102600000Y-63300000D01*
X105600000Y-66300000D01*
%TA.AperFunction,Conductor*%
G36*
X105600000Y-66300000D02*
G01*
X102600000Y-69300000D01*
X99600000Y-66300000D01*
X102600000Y-63300000D01*
X105600000Y-66300000D01*
G37*
%TD.AperFunction*%
%TO.N,unconnected-(U2-RX9-Pad2)*%
X56100000Y-56400000D02*
X53100000Y-59400000D01*
X53100000Y-53400000D01*
X56100000Y-56400000D01*
%TA.AperFunction,Conductor*%
G36*
X56100000Y-56400000D02*
G01*
X53100000Y-59400000D01*
X53100000Y-53400000D01*
X56100000Y-56400000D01*
G37*
%TD.AperFunction*%
%TO.N,unconnected-(U2-RX11-Pad4)*%
X69300000Y-69600000D02*
X66300000Y-72600000D01*
X63300000Y-69600000D01*
X66300000Y-66600000D01*
X69300000Y-69600000D01*
%TA.AperFunction,Conductor*%
G36*
X69300000Y-69600000D02*
G01*
X66300000Y-72600000D01*
X63300000Y-69600000D01*
X66300000Y-66600000D01*
X69300000Y-69600000D01*
G37*
%TD.AperFunction*%
%TO.N,unconnected-(U2-RX9-Pad2)*%
X108900000Y-56400000D02*
X105900000Y-59400000D01*
X102900000Y-56400000D01*
X105900000Y-53400000D01*
X108900000Y-56400000D01*
%TA.AperFunction,Conductor*%
G36*
X108900000Y-56400000D02*
G01*
X105900000Y-59400000D01*
X102900000Y-56400000D01*
X105900000Y-53400000D01*
X108900000Y-56400000D01*
G37*
%TD.AperFunction*%
%TO.N,unconnected-(U2-RX10-Pad3)*%
X69300000Y-63000000D02*
X66300000Y-66000000D01*
X63300000Y-63000000D01*
X66300000Y-60000000D01*
X69300000Y-63000000D01*
%TA.AperFunction,Conductor*%
G36*
X69300000Y-63000000D02*
G01*
X66300000Y-66000000D01*
X63300000Y-63000000D01*
X66300000Y-60000000D01*
X69300000Y-63000000D01*
G37*
%TD.AperFunction*%
%TO.N,unconnected-(U2-RX5-Pad23)*%
X92400000Y-59700000D02*
X89400000Y-62700000D01*
X86400000Y-59700000D01*
X89400000Y-56700000D01*
X92400000Y-59700000D01*
%TA.AperFunction,Conductor*%
G36*
X92400000Y-59700000D02*
G01*
X89400000Y-62700000D01*
X86400000Y-59700000D01*
X89400000Y-56700000D01*
X92400000Y-59700000D01*
G37*
%TD.AperFunction*%
%TO.N,unconnected-(U2-RX2-Pad18)*%
X72600000Y-92700000D02*
X66600000Y-92700000D01*
X69600000Y-89700000D01*
X72600000Y-92700000D01*
%TA.AperFunction,Conductor*%
G36*
X72600000Y-92700000D02*
G01*
X66600000Y-92700000D01*
X69600000Y-89700000D01*
X72600000Y-92700000D01*
G37*
%TD.AperFunction*%
%TO.N,unconnected-(U2-RX13-Pad7)*%
X108900000Y-82800000D02*
X105900000Y-85800000D01*
X102900000Y-82800000D01*
X105900000Y-79800000D01*
X108900000Y-82800000D01*
%TA.AperFunction,Conductor*%
G36*
X108900000Y-82800000D02*
G01*
X105900000Y-85800000D01*
X102900000Y-82800000D01*
X105900000Y-79800000D01*
X108900000Y-82800000D01*
G37*
%TD.AperFunction*%
%TO.N,unconnected-(U2-RX11-Pad4)*%
X95700000Y-69600000D02*
X92700000Y-72600000D01*
X89700000Y-69600000D01*
X92700000Y-66600000D01*
X95700000Y-69600000D01*
%TA.AperFunction,Conductor*%
G36*
X95700000Y-69600000D02*
G01*
X92700000Y-72600000D01*
X89700000Y-69600000D01*
X92700000Y-66600000D01*
X95700000Y-69600000D01*
G37*
%TD.AperFunction*%
%TO.N,unconnected-(U2-RX8-Pad26)*%
X112200000Y-86100000D02*
X109200000Y-89100000D01*
X106200000Y-86100000D01*
X109200000Y-83100000D01*
X112200000Y-86100000D01*
%TA.AperFunction,Conductor*%
G36*
X112200000Y-86100000D02*
G01*
X109200000Y-89100000D01*
X106200000Y-86100000D01*
X109200000Y-83100000D01*
X112200000Y-86100000D01*
G37*
%TD.AperFunction*%
%TO.N,unconnected-(U2-RX5-Pad23)*%
X89400000Y-56100000D02*
X86400000Y-53100000D01*
X92400000Y-53100000D01*
X89400000Y-56100000D01*
%TA.AperFunction,Conductor*%
G36*
X89400000Y-56100000D02*
G01*
X86400000Y-53100000D01*
X92400000Y-53100000D01*
X89400000Y-56100000D01*
G37*
%TD.AperFunction*%
%TO.N,unconnected-(U2-RX4-Pad22)*%
X85800000Y-72900000D02*
X82800000Y-75900000D01*
X79800000Y-72900000D01*
X82800000Y-69900000D01*
X85800000Y-72900000D01*
%TA.AperFunction,Conductor*%
G36*
X85800000Y-72900000D02*
G01*
X82800000Y-75900000D01*
X79800000Y-72900000D01*
X82800000Y-69900000D01*
X85800000Y-72900000D01*
G37*
%TD.AperFunction*%
%TO.N,unconnected-(U2-RX10-Pad3)*%
X108900000Y-63000000D02*
X105900000Y-66000000D01*
X102900000Y-63000000D01*
X105900000Y-60000000D01*
X108900000Y-63000000D01*
%TA.AperFunction,Conductor*%
G36*
X108900000Y-63000000D02*
G01*
X105900000Y-66000000D01*
X102900000Y-63000000D01*
X105900000Y-60000000D01*
X108900000Y-63000000D01*
G37*
%TD.AperFunction*%
%TO.N,unconnected-(U2-RX0-Pad16)*%
X56400000Y-56100000D02*
X53400000Y-53100000D01*
X59400000Y-53100000D01*
X56400000Y-56100000D01*
%TA.AperFunction,Conductor*%
G36*
X56400000Y-56100000D02*
G01*
X53400000Y-53100000D01*
X59400000Y-53100000D01*
X56400000Y-56100000D01*
G37*
%TD.AperFunction*%
%TO.N,unconnected-(U2-RX10-Pad3)*%
X95700000Y-63000000D02*
X92700000Y-66000000D01*
X89700000Y-63000000D01*
X92700000Y-60000000D01*
X95700000Y-63000000D01*
%TA.AperFunction,Conductor*%
G36*
X95700000Y-63000000D02*
G01*
X92700000Y-66000000D01*
X89700000Y-63000000D01*
X92700000Y-60000000D01*
X95700000Y-63000000D01*
G37*
%TD.AperFunction*%
%TO.N,unconnected-(U2-RX3-Pad21)*%
X79200000Y-92700000D02*
X73200000Y-92700000D01*
X76200000Y-89700000D01*
X79200000Y-92700000D01*
%TA.AperFunction,Conductor*%
G36*
X79200000Y-92700000D02*
G01*
X73200000Y-92700000D01*
X76200000Y-89700000D01*
X79200000Y-92700000D01*
G37*
%TD.AperFunction*%
%TO.N,unconnected-(U2-RX12-Pad5)*%
X62700000Y-76200000D02*
X59700000Y-79200000D01*
X56700000Y-76200000D01*
X59700000Y-73200000D01*
X62700000Y-76200000D01*
%TA.AperFunction,Conductor*%
G36*
X62700000Y-76200000D02*
G01*
X59700000Y-79200000D01*
X56700000Y-76200000D01*
X59700000Y-73200000D01*
X62700000Y-76200000D01*
G37*
%TD.AperFunction*%
%TO.N,unconnected-(U2-RX9-Pad2)*%
X75900000Y-56400000D02*
X72900000Y-59400000D01*
X69900000Y-56400000D01*
X72900000Y-53400000D01*
X75900000Y-56400000D01*
%TA.AperFunction,Conductor*%
G36*
X75900000Y-56400000D02*
G01*
X72900000Y-59400000D01*
X69900000Y-56400000D01*
X72900000Y-53400000D01*
X75900000Y-56400000D01*
G37*
%TD.AperFunction*%
X62700000Y-56400000D02*
X59700000Y-59400000D01*
X56700000Y-56400000D01*
X59700000Y-53400000D01*
X62700000Y-56400000D01*
%TA.AperFunction,Conductor*%
G36*
X62700000Y-56400000D02*
G01*
X59700000Y-59400000D01*
X56700000Y-56400000D01*
X59700000Y-53400000D01*
X62700000Y-56400000D01*
G37*
%TD.AperFunction*%
%TO.N,unconnected-(U2-RX3-Pad21)*%
X79200000Y-79500000D02*
X76200000Y-82500000D01*
X73200000Y-79500000D01*
X76200000Y-76500000D01*
X79200000Y-79500000D01*
%TA.AperFunction,Conductor*%
G36*
X79200000Y-79500000D02*
G01*
X76200000Y-82500000D01*
X73200000Y-79500000D01*
X76200000Y-76500000D01*
X79200000Y-79500000D01*
G37*
%TD.AperFunction*%
%TO.N,unconnected-(U2-RX10-Pad3)*%
X102300000Y-63000000D02*
X99300000Y-66000000D01*
X96300000Y-63000000D01*
X99300000Y-60000000D01*
X102300000Y-63000000D01*
%TA.AperFunction,Conductor*%
G36*
X102300000Y-63000000D02*
G01*
X99300000Y-66000000D01*
X96300000Y-63000000D01*
X99300000Y-60000000D01*
X102300000Y-63000000D01*
G37*
%TD.AperFunction*%
%TO.N,unconnected-(U2-RX1-Pad17)*%
X66000000Y-86100000D02*
X63000000Y-89100000D01*
X60000000Y-86100000D01*
X63000000Y-83100000D01*
X66000000Y-86100000D01*
%TA.AperFunction,Conductor*%
G36*
X66000000Y-86100000D02*
G01*
X63000000Y-89100000D01*
X60000000Y-86100000D01*
X63000000Y-83100000D01*
X66000000Y-86100000D01*
G37*
%TD.AperFunction*%
%TO.N,unconnected-(U2-RX0-Pad16)*%
X59400000Y-72900000D02*
X56400000Y-75900000D01*
X53400000Y-72900000D01*
X56400000Y-69900000D01*
X59400000Y-72900000D01*
%TA.AperFunction,Conductor*%
G36*
X59400000Y-72900000D02*
G01*
X56400000Y-75900000D01*
X53400000Y-72900000D01*
X56400000Y-69900000D01*
X59400000Y-72900000D01*
G37*
%TD.AperFunction*%
%TO.N,unconnected-(U2-RX12-Pad5)*%
X89100000Y-76200000D02*
X86100000Y-79200000D01*
X83100000Y-76200000D01*
X86100000Y-73200000D01*
X89100000Y-76200000D01*
%TA.AperFunction,Conductor*%
G36*
X89100000Y-76200000D02*
G01*
X86100000Y-79200000D01*
X83100000Y-76200000D01*
X86100000Y-73200000D01*
X89100000Y-76200000D01*
G37*
%TD.AperFunction*%
%TO.N,unconnected-(U2-RX14-Pad13)*%
X82500000Y-89400000D02*
X79500000Y-92400000D01*
X76500000Y-89400000D01*
X79500000Y-86400000D01*
X82500000Y-89400000D01*
%TA.AperFunction,Conductor*%
G36*
X82500000Y-89400000D02*
G01*
X79500000Y-92400000D01*
X76500000Y-89400000D01*
X79500000Y-86400000D01*
X82500000Y-89400000D01*
G37*
%TD.AperFunction*%
%TO.N,unconnected-(U2-RX7-Pad25)*%
X105600000Y-59700000D02*
X102600000Y-62700000D01*
X99600000Y-59700000D01*
X102600000Y-56700000D01*
X105600000Y-59700000D01*
%TA.AperFunction,Conductor*%
G36*
X105600000Y-59700000D02*
G01*
X102600000Y-62700000D01*
X99600000Y-59700000D01*
X102600000Y-56700000D01*
X105600000Y-59700000D01*
G37*
%TD.AperFunction*%
%TO.N,unconnected-(U2-RX3-Pad21)*%
X79200000Y-72900000D02*
X76200000Y-75900000D01*
X73200000Y-72900000D01*
X76200000Y-69900000D01*
X79200000Y-72900000D01*
%TA.AperFunction,Conductor*%
G36*
X79200000Y-72900000D02*
G01*
X76200000Y-75900000D01*
X73200000Y-72900000D01*
X76200000Y-69900000D01*
X79200000Y-72900000D01*
G37*
%TD.AperFunction*%
%TO.N,unconnected-(U2-RX8-Pad26)*%
X112200000Y-79500000D02*
X109200000Y-82500000D01*
X106200000Y-79500000D01*
X109200000Y-76500000D01*
X112200000Y-79500000D01*
%TA.AperFunction,Conductor*%
G36*
X112200000Y-79500000D02*
G01*
X109200000Y-82500000D01*
X106200000Y-79500000D01*
X109200000Y-76500000D01*
X112200000Y-79500000D01*
G37*
%TD.AperFunction*%
%TO.N,unconnected-(U2-RX5-Pad23)*%
X92400000Y-72900000D02*
X89400000Y-75900000D01*
X86400000Y-72900000D01*
X89400000Y-69900000D01*
X92400000Y-72900000D01*
%TA.AperFunction,Conductor*%
G36*
X92400000Y-72900000D02*
G01*
X89400000Y-75900000D01*
X86400000Y-72900000D01*
X89400000Y-69900000D01*
X92400000Y-72900000D01*
G37*
%TD.AperFunction*%
%TO.N,unconnected-(U2-RX9-Pad2)*%
X95700000Y-56400000D02*
X92700000Y-59400000D01*
X89700000Y-56400000D01*
X92700000Y-53400000D01*
X95700000Y-56400000D01*
%TA.AperFunction,Conductor*%
G36*
X95700000Y-56400000D02*
G01*
X92700000Y-59400000D01*
X89700000Y-56400000D01*
X92700000Y-53400000D01*
X95700000Y-56400000D01*
G37*
%TD.AperFunction*%
%TO.N,unconnected-(U2-RX13-Pad7)*%
X75900000Y-82800000D02*
X72900000Y-85800000D01*
X69900000Y-82800000D01*
X72900000Y-79800000D01*
X75900000Y-82800000D01*
%TA.AperFunction,Conductor*%
G36*
X75900000Y-82800000D02*
G01*
X72900000Y-85800000D01*
X69900000Y-82800000D01*
X72900000Y-79800000D01*
X75900000Y-82800000D01*
G37*
%TD.AperFunction*%
%TO.N,unconnected-(U2-RX14-Pad13)*%
X69300000Y-89400000D02*
X66300000Y-92400000D01*
X63300000Y-89400000D01*
X66300000Y-86400000D01*
X69300000Y-89400000D01*
%TA.AperFunction,Conductor*%
G36*
X69300000Y-89400000D02*
G01*
X66300000Y-92400000D01*
X63300000Y-89400000D01*
X66300000Y-86400000D01*
X69300000Y-89400000D01*
G37*
%TD.AperFunction*%
%TO.N,unconnected-(U2-RX0-Pad16)*%
X59400000Y-66300000D02*
X56400000Y-69300000D01*
X53400000Y-66300000D01*
X56400000Y-63300000D01*
X59400000Y-66300000D01*
%TA.AperFunction,Conductor*%
G36*
X59400000Y-66300000D02*
G01*
X56400000Y-69300000D01*
X53400000Y-66300000D01*
X56400000Y-63300000D01*
X59400000Y-66300000D01*
G37*
%TD.AperFunction*%
%TO.N,unconnected-(U2-RX1-Pad17)*%
X66000000Y-79500000D02*
X63000000Y-82500000D01*
X60000000Y-79500000D01*
X63000000Y-76500000D01*
X66000000Y-79500000D01*
%TA.AperFunction,Conductor*%
G36*
X66000000Y-79500000D02*
G01*
X63000000Y-82500000D01*
X60000000Y-79500000D01*
X63000000Y-76500000D01*
X66000000Y-79500000D01*
G37*
%TD.AperFunction*%
%TO.N,unconnected-(U2-RX11-Pad4)*%
X82500000Y-69600000D02*
X79500000Y-72600000D01*
X76500000Y-69600000D01*
X79500000Y-66600000D01*
X82500000Y-69600000D01*
%TA.AperFunction,Conductor*%
G36*
X82500000Y-69600000D02*
G01*
X79500000Y-72600000D01*
X76500000Y-69600000D01*
X79500000Y-66600000D01*
X82500000Y-69600000D01*
G37*
%TD.AperFunction*%
%TO.N,unconnected-(U2-RX0-Pad16)*%
X59400000Y-86100000D02*
X56400000Y-89100000D01*
X53400000Y-86100000D01*
X56400000Y-83100000D01*
X59400000Y-86100000D01*
%TA.AperFunction,Conductor*%
G36*
X59400000Y-86100000D02*
G01*
X56400000Y-89100000D01*
X53400000Y-86100000D01*
X56400000Y-83100000D01*
X59400000Y-86100000D01*
G37*
%TD.AperFunction*%
%TO.N,unconnected-(U2-RX4-Pad22)*%
X82800000Y-56100000D02*
X79800000Y-53100000D01*
X85800000Y-53100000D01*
X82800000Y-56100000D01*
%TA.AperFunction,Conductor*%
G36*
X82800000Y-56100000D02*
G01*
X79800000Y-53100000D01*
X85800000Y-53100000D01*
X82800000Y-56100000D01*
G37*
%TD.AperFunction*%
%TO.N,unconnected-(U2-RX12-Pad5)*%
X69300000Y-76200000D02*
X66300000Y-79200000D01*
X63300000Y-76200000D01*
X66300000Y-73200000D01*
X69300000Y-76200000D01*
%TA.AperFunction,Conductor*%
G36*
X69300000Y-76200000D02*
G01*
X66300000Y-79200000D01*
X63300000Y-76200000D01*
X66300000Y-73200000D01*
X69300000Y-76200000D01*
G37*
%TD.AperFunction*%
%TO.N,unconnected-(U2-RX6-Pad24)*%
X99000000Y-59700000D02*
X96000000Y-62700000D01*
X93000000Y-59700000D01*
X96000000Y-56700000D01*
X99000000Y-59700000D01*
%TA.AperFunction,Conductor*%
G36*
X99000000Y-59700000D02*
G01*
X96000000Y-62700000D01*
X93000000Y-59700000D01*
X96000000Y-56700000D01*
X99000000Y-59700000D01*
G37*
%TD.AperFunction*%
%TO.N,unconnected-(U2-RX7-Pad25)*%
X105600000Y-86100000D02*
X102600000Y-89100000D01*
X99600000Y-86100000D01*
X102600000Y-83100000D01*
X105600000Y-86100000D01*
%TA.AperFunction,Conductor*%
G36*
X105600000Y-86100000D02*
G01*
X102600000Y-89100000D01*
X99600000Y-86100000D01*
X102600000Y-83100000D01*
X105600000Y-86100000D01*
G37*
%TD.AperFunction*%
%TO.N,unconnected-(U2-RX11-Pad4)*%
X112500000Y-72600000D02*
X109500000Y-69600000D01*
X112500000Y-66600000D01*
X112500000Y-72600000D01*
%TA.AperFunction,Conductor*%
G36*
X112500000Y-72600000D02*
G01*
X109500000Y-69600000D01*
X112500000Y-66600000D01*
X112500000Y-72600000D01*
G37*
%TD.AperFunction*%
%TO.N,unconnected-(U2-RX12-Pad5)*%
X95700000Y-76200000D02*
X92700000Y-79200000D01*
X89700000Y-76200000D01*
X92700000Y-73200000D01*
X95700000Y-76200000D01*
%TA.AperFunction,Conductor*%
G36*
X95700000Y-76200000D02*
G01*
X92700000Y-79200000D01*
X89700000Y-76200000D01*
X92700000Y-73200000D01*
X95700000Y-76200000D01*
G37*
%TD.AperFunction*%
%TO.N,unconnected-(U2-RX13-Pad7)*%
X95700000Y-82800000D02*
X92700000Y-85800000D01*
X89700000Y-82800000D01*
X92700000Y-79800000D01*
X95700000Y-82800000D01*
%TA.AperFunction,Conductor*%
G36*
X95700000Y-82800000D02*
G01*
X92700000Y-85800000D01*
X89700000Y-82800000D01*
X92700000Y-79800000D01*
X95700000Y-82800000D01*
G37*
%TD.AperFunction*%
%TO.N,unconnected-(U2-RX12-Pad5)*%
X102300000Y-76200000D02*
X99300000Y-79200000D01*
X96300000Y-76200000D01*
X99300000Y-73200000D01*
X102300000Y-76200000D01*
%TA.AperFunction,Conductor*%
G36*
X102300000Y-76200000D02*
G01*
X99300000Y-79200000D01*
X96300000Y-76200000D01*
X99300000Y-73200000D01*
X102300000Y-76200000D01*
G37*
%TD.AperFunction*%
%TO.N,unconnected-(U2-RX13-Pad7)*%
X89100000Y-82800000D02*
X86100000Y-85800000D01*
X83100000Y-82800000D01*
X86100000Y-79800000D01*
X89100000Y-82800000D01*
%TA.AperFunction,Conductor*%
G36*
X89100000Y-82800000D02*
G01*
X86100000Y-85800000D01*
X83100000Y-82800000D01*
X86100000Y-79800000D01*
X89100000Y-82800000D01*
G37*
%TD.AperFunction*%
X82500000Y-82800000D02*
X79500000Y-85800000D01*
X76500000Y-82800000D01*
X79500000Y-79800000D01*
X82500000Y-82800000D01*
%TA.AperFunction,Conductor*%
G36*
X82500000Y-82800000D02*
G01*
X79500000Y-85800000D01*
X76500000Y-82800000D01*
X79500000Y-79800000D01*
X82500000Y-82800000D01*
G37*
%TD.AperFunction*%
%TO.N,unconnected-(U2-RX10-Pad3)*%
X89100000Y-63000000D02*
X86100000Y-66000000D01*
X83100000Y-63000000D01*
X86100000Y-60000000D01*
X89100000Y-63000000D01*
%TA.AperFunction,Conductor*%
G36*
X89100000Y-63000000D02*
G01*
X86100000Y-66000000D01*
X83100000Y-63000000D01*
X86100000Y-60000000D01*
X89100000Y-63000000D01*
G37*
%TD.AperFunction*%
%TO.N,unconnected-(U2-RX12-Pad5)*%
X75900000Y-76200000D02*
X72900000Y-79200000D01*
X69900000Y-76200000D01*
X72900000Y-73200000D01*
X75900000Y-76200000D01*
%TA.AperFunction,Conductor*%
G36*
X75900000Y-76200000D02*
G01*
X72900000Y-79200000D01*
X69900000Y-76200000D01*
X72900000Y-73200000D01*
X75900000Y-76200000D01*
G37*
%TD.AperFunction*%
%TO.N,unconnected-(U2-RX9-Pad2)*%
X102300000Y-56400000D02*
X99300000Y-59400000D01*
X96300000Y-56400000D01*
X99300000Y-53400000D01*
X102300000Y-56400000D01*
%TA.AperFunction,Conductor*%
G36*
X102300000Y-56400000D02*
G01*
X99300000Y-59400000D01*
X96300000Y-56400000D01*
X99300000Y-53400000D01*
X102300000Y-56400000D01*
G37*
%TD.AperFunction*%
%TO.N,unconnected-(U2-RX7-Pad25)*%
X105600000Y-92700000D02*
X99600000Y-92700000D01*
X102600000Y-89700000D01*
X105600000Y-92700000D01*
%TA.AperFunction,Conductor*%
G36*
X105600000Y-92700000D02*
G01*
X99600000Y-92700000D01*
X102600000Y-89700000D01*
X105600000Y-92700000D01*
G37*
%TD.AperFunction*%
%TO.N,unconnected-(U2-RX14-Pad13)*%
X89100000Y-89400000D02*
X86100000Y-92400000D01*
X83100000Y-89400000D01*
X86100000Y-86400000D01*
X89100000Y-89400000D01*
%TA.AperFunction,Conductor*%
G36*
X89100000Y-89400000D02*
G01*
X86100000Y-92400000D01*
X83100000Y-89400000D01*
X86100000Y-86400000D01*
X89100000Y-89400000D01*
G37*
%TD.AperFunction*%
%TO.N,unconnected-(U2-RX13-Pad7)*%
X102300000Y-82800000D02*
X99300000Y-85800000D01*
X96300000Y-82800000D01*
X99300000Y-79800000D01*
X102300000Y-82800000D01*
%TA.AperFunction,Conductor*%
G36*
X102300000Y-82800000D02*
G01*
X99300000Y-85800000D01*
X96300000Y-82800000D01*
X99300000Y-79800000D01*
X102300000Y-82800000D01*
G37*
%TD.AperFunction*%
%TO.N,unconnected-(U2-RX6-Pad24)*%
X99000000Y-79500000D02*
X96000000Y-82500000D01*
X93000000Y-79500000D01*
X96000000Y-76500000D01*
X99000000Y-79500000D01*
%TA.AperFunction,Conductor*%
G36*
X99000000Y-79500000D02*
G01*
X96000000Y-82500000D01*
X93000000Y-79500000D01*
X96000000Y-76500000D01*
X99000000Y-79500000D01*
G37*
%TD.AperFunction*%
%TO.N,unconnected-(U2-RX5-Pad23)*%
X92400000Y-79500000D02*
X89400000Y-82500000D01*
X86400000Y-79500000D01*
X89400000Y-76500000D01*
X92400000Y-79500000D01*
%TA.AperFunction,Conductor*%
G36*
X92400000Y-79500000D02*
G01*
X89400000Y-82500000D01*
X86400000Y-79500000D01*
X89400000Y-76500000D01*
X92400000Y-79500000D01*
G37*
%TD.AperFunction*%
%TO.N,unconnected-(U2-RX14-Pad13)*%
X102300000Y-89400000D02*
X99300000Y-92400000D01*
X96300000Y-89400000D01*
X99300000Y-86400000D01*
X102300000Y-89400000D01*
%TA.AperFunction,Conductor*%
G36*
X102300000Y-89400000D02*
G01*
X99300000Y-92400000D01*
X96300000Y-89400000D01*
X99300000Y-86400000D01*
X102300000Y-89400000D01*
G37*
%TD.AperFunction*%
%TO.N,unconnected-(U2-RX3-Pad21)*%
X79200000Y-59700000D02*
X76200000Y-62700000D01*
X73200000Y-59700000D01*
X76200000Y-56700000D01*
X79200000Y-59700000D01*
%TA.AperFunction,Conductor*%
G36*
X79200000Y-59700000D02*
G01*
X76200000Y-62700000D01*
X73200000Y-59700000D01*
X76200000Y-56700000D01*
X79200000Y-59700000D01*
G37*
%TD.AperFunction*%
%TO.N,unconnected-(U2-RX7-Pad25)*%
X102600000Y-56100000D02*
X99600000Y-53100000D01*
X105600000Y-53100000D01*
X102600000Y-56100000D01*
%TA.AperFunction,Conductor*%
G36*
X102600000Y-56100000D02*
G01*
X99600000Y-53100000D01*
X105600000Y-53100000D01*
X102600000Y-56100000D01*
G37*
%TD.AperFunction*%
%TO.N,unconnected-(U2-RX14-Pad13)*%
X95700000Y-89400000D02*
X92700000Y-92400000D01*
X89700000Y-89400000D01*
X92700000Y-86400000D01*
X95700000Y-89400000D01*
%TA.AperFunction,Conductor*%
G36*
X95700000Y-89400000D02*
G01*
X92700000Y-92400000D01*
X89700000Y-89400000D01*
X92700000Y-86400000D01*
X95700000Y-89400000D01*
G37*
%TD.AperFunction*%
%TO.N,unconnected-(U2-RX11-Pad4)*%
X108900000Y-69600000D02*
X105900000Y-72600000D01*
X102900000Y-69600000D01*
X105900000Y-66600000D01*
X108900000Y-69600000D01*
%TA.AperFunction,Conductor*%
G36*
X108900000Y-69600000D02*
G01*
X105900000Y-72600000D01*
X102900000Y-69600000D01*
X105900000Y-66600000D01*
X108900000Y-69600000D01*
G37*
%TD.AperFunction*%
%TO.N,unconnected-(U2-RX9-Pad2)*%
X69300000Y-56400000D02*
X66300000Y-59400000D01*
X63300000Y-56400000D01*
X66300000Y-53400000D01*
X69300000Y-56400000D01*
%TA.AperFunction,Conductor*%
G36*
X69300000Y-56400000D02*
G01*
X66300000Y-59400000D01*
X63300000Y-56400000D01*
X66300000Y-53400000D01*
X69300000Y-56400000D01*
G37*
%TD.AperFunction*%
%TO.N,unconnected-(U2-RX14-Pad13)*%
X56100000Y-89400000D02*
X53100000Y-92400000D01*
X53100000Y-86400000D01*
X56100000Y-89400000D01*
%TA.AperFunction,Conductor*%
G36*
X56100000Y-89400000D02*
G01*
X53100000Y-92400000D01*
X53100000Y-86400000D01*
X56100000Y-89400000D01*
G37*
%TD.AperFunction*%
%TO.N,unconnected-(U2-RX11-Pad4)*%
X89100000Y-69600000D02*
X86100000Y-72600000D01*
X83100000Y-69600000D01*
X86100000Y-66600000D01*
X89100000Y-69600000D01*
%TA.AperFunction,Conductor*%
G36*
X89100000Y-69600000D02*
G01*
X86100000Y-72600000D01*
X83100000Y-69600000D01*
X86100000Y-66600000D01*
X89100000Y-69600000D01*
G37*
%TD.AperFunction*%
%TO.N,unconnected-(U2-RX10-Pad3)*%
X82500000Y-63000000D02*
X79500000Y-66000000D01*
X76500000Y-63000000D01*
X79500000Y-60000000D01*
X82500000Y-63000000D01*
%TA.AperFunction,Conductor*%
G36*
X82500000Y-63000000D02*
G01*
X79500000Y-66000000D01*
X76500000Y-63000000D01*
X79500000Y-60000000D01*
X82500000Y-63000000D01*
G37*
%TD.AperFunction*%
%TO.N,unconnected-(U2-RX2-Pad18)*%
X72600000Y-66300000D02*
X69600000Y-69300000D01*
X66600000Y-66300000D01*
X69600000Y-63300000D01*
X72600000Y-66300000D01*
%TA.AperFunction,Conductor*%
G36*
X72600000Y-66300000D02*
G01*
X69600000Y-69300000D01*
X66600000Y-66300000D01*
X69600000Y-63300000D01*
X72600000Y-66300000D01*
G37*
%TD.AperFunction*%
%TO.N,unconnected-(U2-RX9-Pad2)*%
X82500000Y-56400000D02*
X79500000Y-59400000D01*
X76500000Y-56400000D01*
X79500000Y-53400000D01*
X82500000Y-56400000D01*
%TA.AperFunction,Conductor*%
G36*
X82500000Y-56400000D02*
G01*
X79500000Y-59400000D01*
X76500000Y-56400000D01*
X79500000Y-53400000D01*
X82500000Y-56400000D01*
G37*
%TD.AperFunction*%
%TO.N,unconnected-(U2-RX10-Pad3)*%
X75900000Y-63000000D02*
X72900000Y-66000000D01*
X69900000Y-63000000D01*
X72900000Y-60000000D01*
X75900000Y-63000000D01*
%TA.AperFunction,Conductor*%
G36*
X75900000Y-63000000D02*
G01*
X72900000Y-66000000D01*
X69900000Y-63000000D01*
X72900000Y-60000000D01*
X75900000Y-63000000D01*
G37*
%TD.AperFunction*%
%TO.N,unconnected-(U2-RX13-Pad7)*%
X112500000Y-85800000D02*
X109500000Y-82800000D01*
X112500000Y-79800000D01*
X112500000Y-85800000D01*
%TA.AperFunction,Conductor*%
G36*
X112500000Y-85800000D02*
G01*
X109500000Y-82800000D01*
X112500000Y-79800000D01*
X112500000Y-85800000D01*
G37*
%TD.AperFunction*%
%TO.N,unconnected-(U2-RX4-Pad22)*%
X85800000Y-92700000D02*
X79800000Y-92700000D01*
X82800000Y-89700000D01*
X85800000Y-92700000D01*
%TA.AperFunction,Conductor*%
G36*
X85800000Y-92700000D02*
G01*
X79800000Y-92700000D01*
X82800000Y-89700000D01*
X85800000Y-92700000D01*
G37*
%TD.AperFunction*%
%TO.N,unconnected-(U2-RX5-Pad23)*%
X92400000Y-66300000D02*
X89400000Y-69300000D01*
X86400000Y-66300000D01*
X89400000Y-63300000D01*
X92400000Y-66300000D01*
%TA.AperFunction,Conductor*%
G36*
X92400000Y-66300000D02*
G01*
X89400000Y-69300000D01*
X86400000Y-66300000D01*
X89400000Y-63300000D01*
X92400000Y-66300000D01*
G37*
%TD.AperFunction*%
%TO.N,unconnected-(U2-RX0-Pad16)*%
X59400000Y-59700000D02*
X56400000Y-62700000D01*
X53400000Y-59700000D01*
X56400000Y-56700000D01*
X59400000Y-59700000D01*
%TA.AperFunction,Conductor*%
G36*
X59400000Y-59700000D02*
G01*
X56400000Y-62700000D01*
X53400000Y-59700000D01*
X56400000Y-56700000D01*
X59400000Y-59700000D01*
G37*
%TD.AperFunction*%
%TO.N,unconnected-(U2-RX8-Pad26)*%
X112200000Y-92700000D02*
X106200000Y-92700000D01*
X109200000Y-89700000D01*
X112200000Y-92700000D01*
%TA.AperFunction,Conductor*%
G36*
X112200000Y-92700000D02*
G01*
X106200000Y-92700000D01*
X109200000Y-89700000D01*
X112200000Y-92700000D01*
G37*
%TD.AperFunction*%
%TO.N,unconnected-(U2-RX4-Pad22)*%
X85800000Y-86100000D02*
X82800000Y-89100000D01*
X79800000Y-86100000D01*
X82800000Y-83100000D01*
X85800000Y-86100000D01*
%TA.AperFunction,Conductor*%
G36*
X85800000Y-86100000D02*
G01*
X82800000Y-89100000D01*
X79800000Y-86100000D01*
X82800000Y-83100000D01*
X85800000Y-86100000D01*
G37*
%TD.AperFunction*%
%TO.N,unconnected-(U2-RX7-Pad25)*%
X105600000Y-79500000D02*
X102600000Y-82500000D01*
X99600000Y-79500000D01*
X102600000Y-76500000D01*
X105600000Y-79500000D01*
%TA.AperFunction,Conductor*%
G36*
X105600000Y-79500000D02*
G01*
X102600000Y-82500000D01*
X99600000Y-79500000D01*
X102600000Y-76500000D01*
X105600000Y-79500000D01*
G37*
%TD.AperFunction*%
%TO.N,unconnected-(U2-RX8-Pad26)*%
X112200000Y-72900000D02*
X109200000Y-75900000D01*
X106200000Y-72900000D01*
X109200000Y-69900000D01*
X112200000Y-72900000D01*
%TA.AperFunction,Conductor*%
G36*
X112200000Y-72900000D02*
G01*
X109200000Y-75900000D01*
X106200000Y-72900000D01*
X109200000Y-69900000D01*
X112200000Y-72900000D01*
G37*
%TD.AperFunction*%
%TO.N,unconnected-(U2-RX6-Pad24)*%
X99000000Y-66300000D02*
X96000000Y-69300000D01*
X93000000Y-66300000D01*
X96000000Y-63300000D01*
X99000000Y-66300000D01*
%TA.AperFunction,Conductor*%
G36*
X99000000Y-66300000D02*
G01*
X96000000Y-69300000D01*
X93000000Y-66300000D01*
X96000000Y-63300000D01*
X99000000Y-66300000D01*
G37*
%TD.AperFunction*%
%TO.N,unconnected-(U2-RX13-Pad7)*%
X56100000Y-82800000D02*
X53100000Y-85800000D01*
X53100000Y-79800000D01*
X56100000Y-82800000D01*
%TA.AperFunction,Conductor*%
G36*
X56100000Y-82800000D02*
G01*
X53100000Y-85800000D01*
X53100000Y-79800000D01*
X56100000Y-82800000D01*
G37*
%TD.AperFunction*%
%TO.N,unconnected-(U2-RX6-Pad24)*%
X96000000Y-56100000D02*
X93000000Y-53100000D01*
X99000000Y-53100000D01*
X96000000Y-56100000D01*
%TA.AperFunction,Conductor*%
G36*
X96000000Y-56100000D02*
G01*
X93000000Y-53100000D01*
X99000000Y-53100000D01*
X96000000Y-56100000D01*
G37*
%TD.AperFunction*%
%TO.N,unconnected-(U2-RX12-Pad5)*%
X112500000Y-79200000D02*
X109500000Y-76200000D01*
X112500000Y-73200000D01*
X112500000Y-79200000D01*
%TA.AperFunction,Conductor*%
G36*
X112500000Y-79200000D02*
G01*
X109500000Y-76200000D01*
X112500000Y-73200000D01*
X112500000Y-79200000D01*
G37*
%TD.AperFunction*%
%TO.N,unconnected-(U2-RX2-Pad18)*%
X72600000Y-59700000D02*
X69600000Y-62700000D01*
X66600000Y-59700000D01*
X69600000Y-56700000D01*
X72600000Y-59700000D01*
%TA.AperFunction,Conductor*%
G36*
X72600000Y-59700000D02*
G01*
X69600000Y-62700000D01*
X66600000Y-59700000D01*
X69600000Y-56700000D01*
X72600000Y-59700000D01*
G37*
%TD.AperFunction*%
%TO.N,unconnected-(U2-RX11-Pad4)*%
X62700000Y-69600000D02*
X59700000Y-72600000D01*
X56700000Y-69600000D01*
X59700000Y-66600000D01*
X62700000Y-69600000D01*
%TA.AperFunction,Conductor*%
G36*
X62700000Y-69600000D02*
G01*
X59700000Y-72600000D01*
X56700000Y-69600000D01*
X59700000Y-66600000D01*
X62700000Y-69600000D01*
G37*
%TD.AperFunction*%
%TO.N,unconnected-(U2-RX10-Pad3)*%
X62700000Y-63000000D02*
X59700000Y-66000000D01*
X56700000Y-63000000D01*
X59700000Y-60000000D01*
X62700000Y-63000000D01*
%TA.AperFunction,Conductor*%
G36*
X62700000Y-63000000D02*
G01*
X59700000Y-66000000D01*
X56700000Y-63000000D01*
X59700000Y-60000000D01*
X62700000Y-63000000D01*
G37*
%TD.AperFunction*%
%TO.N,unconnected-(U2-RX11-Pad4)*%
X75900000Y-69600000D02*
X72900000Y-72600000D01*
X69900000Y-69600000D01*
X72900000Y-66600000D01*
X75900000Y-69600000D01*
%TA.AperFunction,Conductor*%
G36*
X75900000Y-69600000D02*
G01*
X72900000Y-72600000D01*
X69900000Y-69600000D01*
X72900000Y-66600000D01*
X75900000Y-69600000D01*
G37*
%TD.AperFunction*%
X102300000Y-69600000D02*
X99300000Y-72600000D01*
X96300000Y-69600000D01*
X99300000Y-66600000D01*
X102300000Y-69600000D01*
%TA.AperFunction,Conductor*%
G36*
X102300000Y-69600000D02*
G01*
X99300000Y-72600000D01*
X96300000Y-69600000D01*
X99300000Y-66600000D01*
X102300000Y-69600000D01*
G37*
%TD.AperFunction*%
%TO.N,unconnected-(U2-RX6-Pad24)*%
X99000000Y-86100000D02*
X96000000Y-89100000D01*
X93000000Y-86100000D01*
X96000000Y-83100000D01*
X99000000Y-86100000D01*
%TA.AperFunction,Conductor*%
G36*
X99000000Y-86100000D02*
G01*
X96000000Y-89100000D01*
X93000000Y-86100000D01*
X96000000Y-83100000D01*
X99000000Y-86100000D01*
G37*
%TD.AperFunction*%
%TO.N,unconnected-(U2-RX13-Pad7)*%
X62700000Y-82800000D02*
X59700000Y-85800000D01*
X56700000Y-82800000D01*
X59700000Y-79800000D01*
X62700000Y-82800000D01*
%TA.AperFunction,Conductor*%
G36*
X62700000Y-82800000D02*
G01*
X59700000Y-85800000D01*
X56700000Y-82800000D01*
X59700000Y-79800000D01*
X62700000Y-82800000D01*
G37*
%TD.AperFunction*%
%TO.N,unconnected-(U2-RX8-Pad26)*%
X109200000Y-56100000D02*
X106200000Y-53100000D01*
X112200000Y-53100000D01*
X109200000Y-56100000D01*
%TA.AperFunction,Conductor*%
G36*
X109200000Y-56100000D02*
G01*
X106200000Y-53100000D01*
X112200000Y-53100000D01*
X109200000Y-56100000D01*
G37*
%TD.AperFunction*%
%TO.N,unconnected-(U2-RX4-Pad22)*%
X85800000Y-79500000D02*
X82800000Y-82500000D01*
X79800000Y-79500000D01*
X82800000Y-76500000D01*
X85800000Y-79500000D01*
%TA.AperFunction,Conductor*%
G36*
X85800000Y-79500000D02*
G01*
X82800000Y-82500000D01*
X79800000Y-79500000D01*
X82800000Y-76500000D01*
X85800000Y-79500000D01*
G37*
%TD.AperFunction*%
%TO.N,unconnected-(U2-RX8-Pad26)*%
X112200000Y-66300000D02*
X109200000Y-69300000D01*
X106200000Y-66300000D01*
X109200000Y-63300000D01*
X112200000Y-66300000D01*
%TA.AperFunction,Conductor*%
G36*
X112200000Y-66300000D02*
G01*
X109200000Y-69300000D01*
X106200000Y-66300000D01*
X109200000Y-63300000D01*
X112200000Y-66300000D01*
G37*
%TD.AperFunction*%
%TO.N,unconnected-(U2-RX1-Pad17)*%
X66000000Y-72900000D02*
X63000000Y-75900000D01*
X60000000Y-72900000D01*
X63000000Y-69900000D01*
X66000000Y-72900000D01*
%TA.AperFunction,Conductor*%
G36*
X66000000Y-72900000D02*
G01*
X63000000Y-75900000D01*
X60000000Y-72900000D01*
X63000000Y-69900000D01*
X66000000Y-72900000D01*
G37*
%TD.AperFunction*%
%TO.N,unconnected-(U2-RX12-Pad5)*%
X108900000Y-76200000D02*
X105900000Y-79200000D01*
X102900000Y-76200000D01*
X105900000Y-73200000D01*
X108900000Y-76200000D01*
%TA.AperFunction,Conductor*%
G36*
X108900000Y-76200000D02*
G01*
X105900000Y-79200000D01*
X102900000Y-76200000D01*
X105900000Y-73200000D01*
X108900000Y-76200000D01*
G37*
%TD.AperFunction*%
%TO.N,unconnected-(U2-RX3-Pad21)*%
X79200000Y-86100000D02*
X76200000Y-89100000D01*
X73200000Y-86100000D01*
X76200000Y-83100000D01*
X79200000Y-86100000D01*
%TA.AperFunction,Conductor*%
G36*
X79200000Y-86100000D02*
G01*
X76200000Y-89100000D01*
X73200000Y-86100000D01*
X76200000Y-83100000D01*
X79200000Y-86100000D01*
G37*
%TD.AperFunction*%
%TO.N,unconnected-(U2-RX12-Pad5)*%
X56100000Y-76200000D02*
X53100000Y-79200000D01*
X53100000Y-73200000D01*
X56100000Y-76200000D01*
%TA.AperFunction,Conductor*%
G36*
X56100000Y-76200000D02*
G01*
X53100000Y-79200000D01*
X53100000Y-73200000D01*
X56100000Y-76200000D01*
G37*
%TD.AperFunction*%
%TO.N,unconnected-(U2-RX1-Pad17)*%
X66000000Y-59700000D02*
X63000000Y-62700000D01*
X60000000Y-59700000D01*
X63000000Y-56700000D01*
X66000000Y-59700000D01*
%TA.AperFunction,Conductor*%
G36*
X66000000Y-59700000D02*
G01*
X63000000Y-62700000D01*
X60000000Y-59700000D01*
X63000000Y-56700000D01*
X66000000Y-59700000D01*
G37*
%TD.AperFunction*%
X66000000Y-66300000D02*
X63000000Y-69300000D01*
X60000000Y-66300000D01*
X63000000Y-63300000D01*
X66000000Y-66300000D01*
%TA.AperFunction,Conductor*%
G36*
X66000000Y-66300000D02*
G01*
X63000000Y-69300000D01*
X60000000Y-66300000D01*
X63000000Y-63300000D01*
X66000000Y-66300000D01*
G37*
%TD.AperFunction*%
%TO.N,unconnected-(U2-RX14-Pad13)*%
X75900000Y-89400000D02*
X72900000Y-92400000D01*
X69900000Y-89400000D01*
X72900000Y-86400000D01*
X75900000Y-89400000D01*
%TA.AperFunction,Conductor*%
G36*
X75900000Y-89400000D02*
G01*
X72900000Y-92400000D01*
X69900000Y-89400000D01*
X72900000Y-86400000D01*
X75900000Y-89400000D01*
G37*
%TD.AperFunction*%
%TO.N,unconnected-(U2-RX4-Pad22)*%
X85800000Y-59700000D02*
X82800000Y-62700000D01*
X79800000Y-59700000D01*
X82800000Y-56700000D01*
X85800000Y-59700000D01*
%TA.AperFunction,Conductor*%
G36*
X85800000Y-59700000D02*
G01*
X82800000Y-62700000D01*
X79800000Y-59700000D01*
X82800000Y-56700000D01*
X85800000Y-59700000D01*
G37*
%TD.AperFunction*%
%TO.N,unconnected-(U2-RX7-Pad25)*%
X105600000Y-72900000D02*
X102600000Y-75900000D01*
X99600000Y-72900000D01*
X102600000Y-69900000D01*
X105600000Y-72900000D01*
%TA.AperFunction,Conductor*%
G36*
X105600000Y-72900000D02*
G01*
X102600000Y-75900000D01*
X99600000Y-72900000D01*
X102600000Y-69900000D01*
X105600000Y-72900000D01*
G37*
%TD.AperFunction*%
%TO.N,unconnected-(U2-RX9-Pad2)*%
X112500000Y-59400000D02*
X109500000Y-56400000D01*
X112500000Y-53400000D01*
X112500000Y-59400000D01*
%TA.AperFunction,Conductor*%
G36*
X112500000Y-59400000D02*
G01*
X109500000Y-56400000D01*
X112500000Y-53400000D01*
X112500000Y-59400000D01*
G37*
%TD.AperFunction*%
%TO.N,unconnected-(U2-RX3-Pad21)*%
X79200000Y-66300000D02*
X76200000Y-69300000D01*
X73200000Y-66300000D01*
X76200000Y-63300000D01*
X79200000Y-66300000D01*
%TA.AperFunction,Conductor*%
G36*
X79200000Y-66300000D02*
G01*
X76200000Y-69300000D01*
X73200000Y-66300000D01*
X76200000Y-63300000D01*
X79200000Y-66300000D01*
G37*
%TD.AperFunction*%
%TO.N,unconnected-(U2-RX12-Pad5)*%
X82500000Y-76200000D02*
X79500000Y-79200000D01*
X76500000Y-76200000D01*
X79500000Y-73200000D01*
X82500000Y-76200000D01*
%TA.AperFunction,Conductor*%
G36*
X82500000Y-76200000D02*
G01*
X79500000Y-79200000D01*
X76500000Y-76200000D01*
X79500000Y-73200000D01*
X82500000Y-76200000D01*
G37*
%TD.AperFunction*%
%TO.N,unconnected-(U2-RX6-Pad24)*%
X99000000Y-92700000D02*
X93000000Y-92700000D01*
X96000000Y-89700000D01*
X99000000Y-92700000D01*
%TA.AperFunction,Conductor*%
G36*
X99000000Y-92700000D02*
G01*
X93000000Y-92700000D01*
X96000000Y-89700000D01*
X99000000Y-92700000D01*
G37*
%TD.AperFunction*%
%TO.N,unconnected-(U2-RX2-Pad18)*%
X72600000Y-79500000D02*
X69600000Y-82500000D01*
X66600000Y-79500000D01*
X69600000Y-76500000D01*
X72600000Y-79500000D01*
%TA.AperFunction,Conductor*%
G36*
X72600000Y-79500000D02*
G01*
X69600000Y-82500000D01*
X66600000Y-79500000D01*
X69600000Y-76500000D01*
X72600000Y-79500000D01*
G37*
%TD.AperFunction*%
%TO.N,unconnected-(U2-RX3-Pad21)*%
X76200000Y-56100000D02*
X73200000Y-53100000D01*
X79200000Y-53100000D01*
X76200000Y-56100000D01*
%TA.AperFunction,Conductor*%
G36*
X76200000Y-56100000D02*
G01*
X73200000Y-53100000D01*
X79200000Y-53100000D01*
X76200000Y-56100000D01*
G37*
%TD.AperFunction*%
%TO.N,unconnected-(U2-RX9-Pad2)*%
X89100000Y-56400000D02*
X86100000Y-59400000D01*
X83100000Y-56400000D01*
X86100000Y-53400000D01*
X89100000Y-56400000D01*
%TA.AperFunction,Conductor*%
G36*
X89100000Y-56400000D02*
G01*
X86100000Y-59400000D01*
X83100000Y-56400000D01*
X86100000Y-53400000D01*
X89100000Y-56400000D01*
G37*
%TD.AperFunction*%
%TO.N,unconnected-(U2-RX1-Pad17)*%
X63000000Y-56100000D02*
X60000000Y-53100000D01*
X66000000Y-53100000D01*
X63000000Y-56100000D01*
%TA.AperFunction,Conductor*%
G36*
X63000000Y-56100000D02*
G01*
X60000000Y-53100000D01*
X66000000Y-53100000D01*
X63000000Y-56100000D01*
G37*
%TD.AperFunction*%
%TO.N,unconnected-(U2-RX8-Pad26)*%
X112200000Y-59700000D02*
X109200000Y-62700000D01*
X106200000Y-59700000D01*
X109200000Y-56700000D01*
X112200000Y-59700000D01*
%TA.AperFunction,Conductor*%
G36*
X112200000Y-59700000D02*
G01*
X109200000Y-62700000D01*
X106200000Y-59700000D01*
X109200000Y-56700000D01*
X112200000Y-59700000D01*
G37*
%TD.AperFunction*%
%TD*%
D11*
%TO.P,J3,1,Pin_1*%
%TO.N,GND*%
X133825000Y-58400000D03*
%TO.P,J3,2,Pin_2*%
%TO.N,+BATT*%
X133825000Y-59400000D03*
%TO.P,J3,3,Pin_3*%
%TO.N,/SDA*%
X133825000Y-60400000D03*
%TO.P,J3,4,Pin_4*%
%TO.N,/SCL*%
X133825000Y-61400000D03*
D12*
%TO.P,J3,MP*%
%TO.N,N/C*%
X137700000Y-57100000D03*
X137700000Y-62700000D03*
%TD*%
D13*
%TO.P,J2,1,Pin_1*%
%TO.N,/SWDCLK*%
X115500000Y-51800000D03*
D14*
%TO.P,J2,2,Pin_2*%
%TO.N,GND*%
X118040000Y-51800000D03*
%TO.P,J2,3,Pin_3*%
%TO.N,/SWDIO*%
X120580000Y-51800000D03*
%TO.P,J2,4,Pin_4*%
%TO.N,+BATT*%
X123120000Y-51800000D03*
%TD*%
D13*
%TO.P,J1,1,Pin_1*%
%TO.N,/~{RESET}*%
X118000000Y-55400000D03*
D14*
%TO.P,J1,2,Pin_2*%
%TO.N,/P0_08*%
X118000000Y-57940000D03*
%TO.P,J1,3,Pin_3*%
%TO.N,/P0_17*%
X118000000Y-60480000D03*
%TO.P,J1,4,Pin_4*%
%TO.N,/P0_05*%
X118000000Y-63020000D03*
%TO.P,J1,5,Pin_5*%
%TO.N,/P0_03*%
X118000000Y-65560000D03*
%TO.P,J1,6,Pin_6*%
%TO.N,/P0_15*%
X118000000Y-68100000D03*
%TO.P,J1,7,Pin_7*%
%TO.N,/P0_04*%
X118000000Y-70640000D03*
%TO.P,J1,8,Pin_8*%
%TO.N,/P0_11*%
X118000000Y-73180000D03*
%TD*%
D15*
%TO.N,GND*%
X114000000Y-72900000D03*
X81500000Y-51500000D03*
X59700000Y-93900000D03*
X51500000Y-81500000D03*
X138200000Y-94100000D03*
X127500000Y-79700000D03*
X72900000Y-93900000D03*
X61500000Y-51500000D03*
X131600000Y-63500000D03*
X114000000Y-91400000D03*
X79500000Y-93900000D03*
X111500000Y-51500000D03*
X91500000Y-51500000D03*
X136800000Y-91700000D03*
X105900000Y-93700000D03*
X114000000Y-79500000D03*
X137500000Y-99500000D03*
X71500000Y-51500000D03*
X133200000Y-62600000D03*
X137000000Y-68600000D03*
X129300000Y-97200000D03*
X114000000Y-85800000D03*
X114000000Y-66300000D03*
X133100000Y-96700000D03*
X126500000Y-100200000D03*
X101500000Y-51500000D03*
X51500000Y-91500000D03*
X51500000Y-99500000D03*
X125100000Y-73100000D03*
X61500000Y-99500000D03*
X137100000Y-80100000D03*
X123800000Y-71500000D03*
X99300000Y-93900000D03*
X117000000Y-81100000D03*
X101500000Y-99500000D03*
X86100000Y-93900000D03*
X125600000Y-59200000D03*
X51500000Y-51500000D03*
X115900000Y-85800000D03*
X121000000Y-84700000D03*
X81500000Y-99500000D03*
X111500000Y-99500000D03*
X51500000Y-71500000D03*
X91500000Y-99500000D03*
X92700000Y-93900000D03*
X119300000Y-96600000D03*
X66300000Y-93900000D03*
X135800000Y-57800000D03*
X51500000Y-61500000D03*
X114000000Y-59700000D03*
X125400000Y-96600000D03*
X71500000Y-99500000D03*
%TO.N,+BATT*%
X133200000Y-97800000D03*
X138300000Y-64700000D03*
%TO.N,/SCL*%
X116775000Y-89400000D03*
X135600000Y-62000000D03*
%TO.N,/SDA*%
X135100000Y-57300000D03*
X115900000Y-98300000D03*
%TO.N,/INT*%
X137400000Y-64700000D03*
X119400000Y-89400000D03*
%TO.N,/SYNC*%
X118100000Y-89400000D03*
X136190773Y-64900000D03*
%TO.N,Net-(D2-A)*%
X131900000Y-57300000D03*
X122300000Y-57300000D03*
%TO.N,/~{RESET}*%
X133000000Y-57100000D03*
%TO.N,unconnected-(U2-RX5-Pad23)*%
X89400000Y-90100000D03*
%TO.N,unconnected-(U2-RX3-Pad21)*%
X76200000Y-90100000D03*
%TO.N,unconnected-(U2-RX8-Pad26)*%
X109200000Y-90100000D03*
%TO.N,unconnected-(U2-RX0-Pad16)*%
X56400000Y-90100000D03*
%TO.N,unconnected-(U2-RX7-Pad25)*%
X102600000Y-90100000D03*
%TO.N,unconnected-(U2-RX9-Pad2)*%
X75500000Y-56400000D03*
X103300000Y-56400000D03*
X90100000Y-56400000D03*
X57100000Y-56400000D03*
X76900000Y-56400000D03*
X88700000Y-56400000D03*
X70300000Y-56400000D03*
X95300000Y-56400000D03*
X96700000Y-56400000D03*
X101900000Y-56400000D03*
X62300000Y-56400000D03*
X63700000Y-56400000D03*
X68900000Y-56400000D03*
X55700000Y-56400000D03*
X82100000Y-56400000D03*
X108500000Y-56400000D03*
X109900000Y-56400000D03*
X83500000Y-56400000D03*
%TO.N,unconnected-(U2-RX12-Pad5)*%
X108500000Y-76200000D03*
X95300000Y-76200000D03*
X109900000Y-76200000D03*
X90100000Y-76200000D03*
X101900000Y-76200000D03*
X62300000Y-76200000D03*
X83500000Y-76200000D03*
X55700000Y-76200000D03*
X96700000Y-76200000D03*
X82100000Y-76200000D03*
X88700000Y-76200000D03*
X68900000Y-76200000D03*
X76900000Y-76200000D03*
X75500000Y-76200000D03*
X57100000Y-76200000D03*
X70300000Y-76200000D03*
X103300000Y-76200000D03*
X63700000Y-76200000D03*
%TO.N,unconnected-(U2-RX13-Pad7)*%
X108500000Y-82800000D03*
X57100000Y-82800000D03*
X62300000Y-82800000D03*
X83500000Y-82800000D03*
X103300000Y-82800000D03*
X95300000Y-82800000D03*
X96700000Y-82800000D03*
X68900000Y-82800000D03*
X82100000Y-82800000D03*
X76900000Y-82800000D03*
X109900000Y-82800000D03*
X63700000Y-82800000D03*
X55700000Y-82800000D03*
X88700000Y-82800000D03*
X70300000Y-82800000D03*
X75500000Y-82800000D03*
X101900000Y-82800000D03*
X90100000Y-82800000D03*
%TO.N,unconnected-(U2-RX14-Pad13)*%
X101900000Y-89400000D03*
X109900000Y-89400000D03*
X82100000Y-89400000D03*
X57100000Y-89400000D03*
X62300000Y-89400000D03*
X88700000Y-89400000D03*
X68900000Y-89400000D03*
X103300000Y-89400000D03*
X75500000Y-89400000D03*
X63700000Y-89400000D03*
X83500000Y-89400000D03*
X96700000Y-89400000D03*
X90100000Y-89400000D03*
X95300000Y-89400000D03*
X76900000Y-89400000D03*
X55700000Y-89400000D03*
X70300000Y-89400000D03*
X108500000Y-89400000D03*
%TO.N,unconnected-(U2-RX2-Pad18)*%
X69600000Y-90100000D03*
%TO.N,unconnected-(U2-RX6-Pad24)*%
X96000000Y-90100000D03*
%TO.N,unconnected-(U2-RX1-Pad17)*%
X63000000Y-90100000D03*
%TO.N,unconnected-(U2-RX4-Pad22)*%
X82800000Y-90100000D03*
%TO.N,unconnected-(U2-RX10-Pad3)*%
X96700000Y-63000000D03*
X55700000Y-63000000D03*
X88700000Y-63000000D03*
X90100000Y-63000000D03*
X95300000Y-63000000D03*
X83500000Y-63000000D03*
X62300000Y-63000000D03*
X68900000Y-63000000D03*
X109900000Y-63000000D03*
X76900000Y-63000000D03*
X82100000Y-63000000D03*
X70300000Y-63000000D03*
X108500000Y-63000000D03*
X101900000Y-63000000D03*
X63700000Y-63000000D03*
X57100000Y-63000000D03*
X103300000Y-63000000D03*
X75500000Y-63000000D03*
%TO.N,unconnected-(U2-RX11-Pad4)*%
X103300000Y-69600000D03*
X101900000Y-69600000D03*
X96700000Y-69600000D03*
X108500000Y-69600000D03*
X109900000Y-69600000D03*
X75500000Y-69600000D03*
X76900000Y-69600000D03*
X88700000Y-69600000D03*
X83500000Y-69600000D03*
X82100000Y-69600000D03*
X63700000Y-69600000D03*
X95300000Y-69600000D03*
X57100000Y-69600000D03*
X55700000Y-69600000D03*
X70300000Y-69600000D03*
X90100000Y-69600000D03*
X62300000Y-69600000D03*
X68900000Y-69600000D03*
%TD*%
D16*
%TO.N,+BATT*%
X136425000Y-59400000D02*
X136425000Y-57800000D01*
X138300000Y-91457359D02*
X138300000Y-64700000D01*
X137600000Y-63700000D02*
X137125000Y-63700000D01*
X133200000Y-97800000D02*
X137421321Y-93578679D01*
X133825000Y-59400000D02*
X136425000Y-59400000D01*
X134425000Y-55800000D02*
X125120000Y-55800000D01*
X138300000Y-64700000D02*
X138300000Y-64400000D01*
X123120000Y-53800000D02*
X123120000Y-51800000D01*
X136425000Y-63000000D02*
X136425000Y-59400000D01*
X137125000Y-63700000D02*
G75*
G02*
X136425000Y-63000000I0J700000D01*
G01*
X134425000Y-55800000D02*
G75*
G02*
X136425000Y-57800000I0J-2000000D01*
G01*
X137600000Y-63700000D02*
G75*
G02*
X138300000Y-64400000I0J-700000D01*
G01*
X137421321Y-93578679D02*
G75*
G03*
X138299971Y-91457359I-2121321J2121279D01*
G01*
X125120000Y-55800000D02*
G75*
G02*
X123120000Y-53800000I0J2000000D01*
G01*
D10*
%TO.N,/SCL*%
X133825000Y-61400000D02*
X133825000Y-64946573D01*
X116775000Y-84067641D02*
X116775000Y-89400000D01*
X133825000Y-61400000D02*
X134585786Y-61400000D01*
X135292893Y-61692893D02*
X135600000Y-62000000D01*
X133239213Y-66360787D02*
X117653679Y-81946321D01*
X135292893Y-61692893D02*
G75*
G03*
X134585786Y-61400010I-707093J-707107D01*
G01*
X133239213Y-66360787D02*
G75*
G03*
X133824981Y-64946573I-1414213J1414187D01*
G01*
X117653679Y-81946321D02*
G75*
G03*
X116775029Y-84067641I2121321J-2121279D01*
G01*
%TO.N,/SDA*%
X134185786Y-57800000D02*
X133100000Y-57800000D01*
X133825000Y-60400000D02*
X132500000Y-60400000D01*
X132500000Y-58400000D02*
X132500000Y-60400000D01*
X135100000Y-57300000D02*
X134892893Y-57507107D01*
X132500000Y-60400000D02*
X132500000Y-63785786D01*
X115000000Y-97400000D02*
X115900000Y-98300000D01*
X132207107Y-64492893D02*
X116171573Y-80528427D01*
X115000000Y-83356854D02*
X115000000Y-97400000D01*
X116171573Y-80528427D02*
G75*
G03*
X114999968Y-83356854I2828427J-2828473D01*
G01*
X133100000Y-57800000D02*
G75*
G03*
X132500000Y-58400000I0J-600000D01*
G01*
X134892893Y-57507107D02*
G75*
G02*
X134185786Y-57799990I-707093J707107D01*
G01*
X132500000Y-63785786D02*
G75*
G02*
X132207114Y-64492900I-1000000J-14D01*
G01*
%TO.N,/INT*%
X137400000Y-65100000D02*
X119692893Y-82807107D01*
X137400000Y-64700000D02*
X137400000Y-65100000D01*
X119400000Y-83514214D02*
X119400000Y-89400000D01*
X119692893Y-82807107D02*
G75*
G03*
X119400010Y-83514214I707107J-707093D01*
G01*
%TO.N,/SYNC*%
X136190773Y-64900000D02*
X118685786Y-82404987D01*
X118100000Y-83819200D02*
X118100000Y-89400000D01*
X118100000Y-83819200D02*
G75*
G02*
X118685786Y-82404987I2000000J0D01*
G01*
%TO.N,Net-(D2-A)*%
X122300000Y-57300000D02*
X131900000Y-57300000D01*
%TO.N,/~{RESET}*%
X133000000Y-57100000D02*
X132792893Y-56892893D01*
X132085786Y-56600000D02*
X119614214Y-56600000D01*
X118907107Y-56307107D02*
X118000000Y-55400000D01*
X118907107Y-56307107D02*
G75*
G03*
X119614214Y-56599990I707093J707107D01*
G01*
X132085786Y-56600000D02*
G75*
G02*
X132792900Y-56892886I14J-1000000D01*
G01*
D17*
%TO.N,unconnected-(U2-RX5-Pad23)*%
X89400000Y-54600000D02*
X89400000Y-90100000D01*
X89400000Y-90100000D02*
X89400000Y-91200000D01*
%TO.N,unconnected-(U2-RX3-Pad21)*%
X76200000Y-54600000D02*
X76200000Y-90200000D01*
X76200000Y-90200000D02*
X76200000Y-91200000D01*
%TO.N,unconnected-(U2-RX8-Pad26)*%
X109200000Y-90100000D02*
X109200000Y-91200000D01*
X109200000Y-54600000D02*
X109200000Y-90100000D01*
%TO.N,unconnected-(U2-RX0-Pad16)*%
X56400000Y-54600000D02*
X56400000Y-90100000D01*
X56400000Y-90100000D02*
X56400000Y-91200000D01*
%TO.N,unconnected-(U2-RX7-Pad25)*%
X102600000Y-54600000D02*
X102600000Y-90100000D01*
X102600000Y-90100000D02*
X102600000Y-91200000D01*
%TO.N,unconnected-(U2-RX2-Pad18)*%
X69600000Y-90100000D02*
X69600000Y-91200000D01*
X69600000Y-54600000D02*
X69600000Y-90100000D01*
%TO.N,unconnected-(U2-RX6-Pad24)*%
X96000000Y-90100000D02*
X96000000Y-91200000D01*
X96000000Y-54600000D02*
X96000000Y-90100000D01*
%TO.N,unconnected-(U2-RX1-Pad17)*%
X63000000Y-90100000D02*
X63000000Y-91200000D01*
X63000000Y-54600000D02*
X63000000Y-90100000D01*
%TO.N,unconnected-(U2-RX4-Pad22)*%
X82800000Y-90100000D02*
X82800000Y-91200000D01*
X82800000Y-54600000D02*
X82800000Y-90100000D01*
%TD*%
%TA.AperFunction,Conductor*%
%TO.N,GND*%
G36*
X117736147Y-50220462D02*
G01*
X117790685Y-50275000D01*
X117810647Y-50349500D01*
X117790685Y-50424000D01*
X117736147Y-50478538D01*
X117700211Y-50493423D01*
X117576512Y-50526568D01*
X117362419Y-50626402D01*
X117168920Y-50761891D01*
X117001888Y-50928923D01*
X116921552Y-51043655D01*
X116862469Y-51093232D01*
X116786512Y-51106625D01*
X116714036Y-51080245D01*
X116664459Y-51021162D01*
X116650499Y-50958192D01*
X116650499Y-50905133D01*
X116647585Y-50880010D01*
X116647584Y-50880008D01*
X116602206Y-50777235D01*
X116522765Y-50697794D01*
X116522764Y-50697793D01*
X116419994Y-50652416D01*
X116419991Y-50652415D01*
X116419982Y-50652414D01*
X116394865Y-50649500D01*
X116394859Y-50649500D01*
X114605133Y-50649500D01*
X114580010Y-50652414D01*
X114580007Y-50652415D01*
X114477235Y-50697793D01*
X114397793Y-50777235D01*
X114352416Y-50880005D01*
X114352415Y-50880008D01*
X114352415Y-50880009D01*
X114349500Y-50905135D01*
X114349500Y-50905136D01*
X114349500Y-50905140D01*
X114349500Y-52694866D01*
X114352414Y-52719989D01*
X114352415Y-52719992D01*
X114397793Y-52822764D01*
X114397794Y-52822765D01*
X114477235Y-52902206D01*
X114580009Y-52947585D01*
X114605135Y-52950500D01*
X116394864Y-52950499D01*
X116394866Y-52950499D01*
X116407427Y-52949042D01*
X116419991Y-52947585D01*
X116522765Y-52902206D01*
X116602206Y-52822765D01*
X116647585Y-52719991D01*
X116650500Y-52694865D01*
X116650499Y-52641808D01*
X116670460Y-52567311D01*
X116724997Y-52512773D01*
X116799496Y-52492809D01*
X116873997Y-52512770D01*
X116921552Y-52556345D01*
X117001890Y-52671078D01*
X117168923Y-52838111D01*
X117362411Y-52973593D01*
X117362420Y-52973599D01*
X117576508Y-53073430D01*
X117576513Y-53073432D01*
X117790000Y-53130634D01*
X117790000Y-52233012D01*
X117847007Y-52265925D01*
X117974174Y-52300000D01*
X118105826Y-52300000D01*
X118232993Y-52265925D01*
X118290000Y-52233012D01*
X118290000Y-53130633D01*
X118503486Y-53073432D01*
X118503491Y-53073430D01*
X118717579Y-52973599D01*
X118717588Y-52973593D01*
X118911076Y-52838111D01*
X119078111Y-52671076D01*
X119213593Y-52477588D01*
X119213599Y-52477579D01*
X119285374Y-52323656D01*
X119334951Y-52264573D01*
X119407427Y-52238193D01*
X119483384Y-52251586D01*
X119542467Y-52301163D01*
X119553793Y-52320211D01*
X119597633Y-52408254D01*
X119597636Y-52408258D01*
X119726127Y-52578406D01*
X119726128Y-52578407D01*
X119881441Y-52719994D01*
X119883697Y-52722051D01*
X119883698Y-52722052D01*
X120064977Y-52834296D01*
X120064983Y-52834299D01*
X120084880Y-52842007D01*
X120263802Y-52911321D01*
X120473390Y-52950500D01*
X120473393Y-52950500D01*
X120686607Y-52950500D01*
X120686610Y-52950500D01*
X120896198Y-52911321D01*
X121095019Y-52834298D01*
X121276302Y-52722052D01*
X121433872Y-52578407D01*
X121562366Y-52408255D01*
X121657405Y-52217389D01*
X121706688Y-52044177D01*
X121746276Y-51977986D01*
X121813657Y-51940455D01*
X121890776Y-51941643D01*
X121956969Y-51981231D01*
X121993312Y-52044179D01*
X122042593Y-52217385D01*
X122042594Y-52217387D01*
X122137636Y-52408259D01*
X122266127Y-52578406D01*
X122266128Y-52578407D01*
X122423698Y-52722052D01*
X122535194Y-52791088D01*
X122604979Y-52834297D01*
X122611147Y-52837368D01*
X122609910Y-52839852D01*
X122661568Y-52877615D01*
X122692733Y-52948167D01*
X122694500Y-52971045D01*
X122694500Y-53738822D01*
X122694500Y-53800000D01*
X122694500Y-53946716D01*
X122713792Y-54105602D01*
X122729870Y-54238013D01*
X122800089Y-54522904D01*
X122800091Y-54522911D01*
X122800092Y-54522912D01*
X122904144Y-54797276D01*
X123040509Y-55057096D01*
X123207197Y-55298586D01*
X123401778Y-55518222D01*
X123621414Y-55712803D01*
X123862904Y-55879491D01*
X123937357Y-55918567D01*
X123994047Y-55970865D01*
X124016992Y-56044501D01*
X124000046Y-56119744D01*
X123947748Y-56176434D01*
X123874112Y-56199379D01*
X123868113Y-56199500D01*
X119621530Y-56199500D01*
X119606927Y-56198783D01*
X119511854Y-56189420D01*
X119483208Y-56183722D01*
X119448192Y-56173101D01*
X119398830Y-56158128D01*
X119371845Y-56146950D01*
X119294083Y-56105387D01*
X119269795Y-56089159D01*
X119204975Y-56035963D01*
X119160049Y-55973270D01*
X119150499Y-55920784D01*
X119150499Y-54505133D01*
X119147585Y-54480010D01*
X119147584Y-54480008D01*
X119102206Y-54377235D01*
X119022765Y-54297794D01*
X119022764Y-54297793D01*
X118919994Y-54252416D01*
X118919991Y-54252415D01*
X118919982Y-54252414D01*
X118894865Y-54249500D01*
X118894859Y-54249500D01*
X117105133Y-54249500D01*
X117080010Y-54252414D01*
X117080007Y-54252415D01*
X116977235Y-54297793D01*
X116897793Y-54377235D01*
X116852416Y-54480005D01*
X116852415Y-54480008D01*
X116852415Y-54480009D01*
X116849500Y-54505135D01*
X116849500Y-54505136D01*
X116849500Y-54505140D01*
X116849500Y-56294866D01*
X116852414Y-56319989D01*
X116852415Y-56319992D01*
X116897793Y-56422764D01*
X116897794Y-56422765D01*
X116977235Y-56502206D01*
X117080009Y-56547585D01*
X117105135Y-56550500D01*
X117604787Y-56550499D01*
X117679285Y-56570461D01*
X117733823Y-56624999D01*
X117753785Y-56699499D01*
X117733823Y-56773999D01*
X117679285Y-56828537D01*
X117658610Y-56838437D01*
X117484983Y-56905700D01*
X117484977Y-56905703D01*
X117303698Y-57017947D01*
X117303697Y-57017948D01*
X117146127Y-57161593D01*
X117017636Y-57331740D01*
X116922594Y-57522612D01*
X116922593Y-57522614D01*
X116864243Y-57727694D01*
X116844571Y-57939995D01*
X116844571Y-57940004D01*
X116864243Y-58152305D01*
X116864243Y-58152307D01*
X116864244Y-58152310D01*
X116880734Y-58210264D01*
X116922593Y-58357385D01*
X116922594Y-58357387D01*
X117017636Y-58548259D01*
X117146127Y-58718406D01*
X117303697Y-58862051D01*
X117303698Y-58862052D01*
X117484977Y-58974296D01*
X117484983Y-58974299D01*
X117485502Y-58974500D01*
X117683802Y-59051321D01*
X117749152Y-59063537D01*
X117818716Y-59096849D01*
X117862303Y-59160480D01*
X117868236Y-59237379D01*
X117834924Y-59306943D01*
X117771293Y-59350530D01*
X117749153Y-59356462D01*
X117683802Y-59368679D01*
X117683795Y-59368681D01*
X117484983Y-59445700D01*
X117484977Y-59445703D01*
X117303698Y-59557947D01*
X117303697Y-59557948D01*
X117146127Y-59701593D01*
X117017636Y-59871740D01*
X116922594Y-60062612D01*
X116922593Y-60062614D01*
X116864243Y-60267694D01*
X116844571Y-60479995D01*
X116844571Y-60480004D01*
X116864243Y-60692305D01*
X116922593Y-60897385D01*
X116922594Y-60897387D01*
X117017636Y-61088259D01*
X117146127Y-61258406D01*
X117303697Y-61402051D01*
X117303698Y-61402052D01*
X117484977Y-61514296D01*
X117484983Y-61514299D01*
X117572189Y-61548082D01*
X117683802Y-61591321D01*
X117749152Y-61603537D01*
X117818716Y-61636849D01*
X117862303Y-61700480D01*
X117868236Y-61777379D01*
X117834924Y-61846943D01*
X117771293Y-61890530D01*
X117749153Y-61896462D01*
X117722046Y-61901530D01*
X117683802Y-61908679D01*
X117683795Y-61908681D01*
X117484983Y-61985700D01*
X117484977Y-61985703D01*
X117303698Y-62097947D01*
X117303697Y-62097948D01*
X117146127Y-62241593D01*
X117017636Y-62411740D01*
X116922594Y-62602612D01*
X116922593Y-62602614D01*
X116864243Y-62807694D01*
X116844571Y-63019995D01*
X116844571Y-63020004D01*
X116864243Y-63232305D01*
X116922593Y-63437385D01*
X116922594Y-63437387D01*
X117017636Y-63628259D01*
X117142099Y-63793072D01*
X117146128Y-63798407D01*
X117232970Y-63877574D01*
X117303697Y-63942051D01*
X117303698Y-63942052D01*
X117484977Y-64054296D01*
X117484983Y-64054299D01*
X117572189Y-64088082D01*
X117683802Y-64131321D01*
X117749152Y-64143537D01*
X117818716Y-64176849D01*
X117862303Y-64240480D01*
X117868236Y-64317379D01*
X117834924Y-64386943D01*
X117771293Y-64430530D01*
X117749153Y-64436462D01*
X117683802Y-64448679D01*
X117683795Y-64448681D01*
X117484983Y-64525700D01*
X117484977Y-64525703D01*
X117303698Y-64637947D01*
X117303697Y-64637948D01*
X117146127Y-64781593D01*
X117017636Y-64951740D01*
X116922594Y-65142612D01*
X116922593Y-65142614D01*
X116864243Y-65347694D01*
X116844571Y-65559995D01*
X116844571Y-65560004D01*
X116864243Y-65772305D01*
X116922593Y-65977385D01*
X116922594Y-65977387D01*
X117017636Y-66168259D01*
X117146127Y-66338406D01*
X117303697Y-66482051D01*
X117303698Y-66482052D01*
X117484977Y-66594296D01*
X117484983Y-66594299D01*
X117572189Y-66628082D01*
X117683802Y-66671321D01*
X117749152Y-66683537D01*
X117818716Y-66716849D01*
X117862303Y-66780480D01*
X117868236Y-66857379D01*
X117834924Y-66926943D01*
X117771293Y-66970530D01*
X117749153Y-66976462D01*
X117683802Y-66988679D01*
X117683795Y-66988681D01*
X117484983Y-67065700D01*
X117484977Y-67065703D01*
X117303698Y-67177947D01*
X117303697Y-67177948D01*
X117146127Y-67321593D01*
X117017636Y-67491740D01*
X116922594Y-67682612D01*
X116922593Y-67682614D01*
X116864243Y-67887694D01*
X116844571Y-68099995D01*
X116844571Y-68100004D01*
X116864243Y-68312305D01*
X116922593Y-68517385D01*
X116922594Y-68517387D01*
X117017636Y-68708259D01*
X117146127Y-68878406D01*
X117303697Y-69022051D01*
X117303698Y-69022052D01*
X117484977Y-69134296D01*
X117484983Y-69134299D01*
X117572189Y-69168082D01*
X117683802Y-69211321D01*
X117749152Y-69223537D01*
X117818716Y-69256849D01*
X117862303Y-69320480D01*
X117868236Y-69397379D01*
X117834924Y-69466943D01*
X117771293Y-69510530D01*
X117749153Y-69516462D01*
X117683802Y-69528679D01*
X117683795Y-69528681D01*
X117484983Y-69605700D01*
X117484977Y-69605703D01*
X117303698Y-69717947D01*
X117303697Y-69717948D01*
X117146127Y-69861593D01*
X117017636Y-70031740D01*
X116922594Y-70222612D01*
X116922593Y-70222614D01*
X116864243Y-70427694D01*
X116844571Y-70639995D01*
X116844571Y-70640004D01*
X116864243Y-70852305D01*
X116922593Y-71057385D01*
X116922594Y-71057387D01*
X117017636Y-71248259D01*
X117146127Y-71418406D01*
X117303697Y-71562051D01*
X117303698Y-71562052D01*
X117484977Y-71674296D01*
X117484983Y-71674299D01*
X117572189Y-71708082D01*
X117683802Y-71751321D01*
X117749152Y-71763537D01*
X117818716Y-71796849D01*
X117862303Y-71860480D01*
X117868236Y-71937379D01*
X117834924Y-72006943D01*
X117771293Y-72050530D01*
X117749153Y-72056462D01*
X117683802Y-72068679D01*
X117683795Y-72068681D01*
X117484983Y-72145700D01*
X117484977Y-72145703D01*
X117303698Y-72257947D01*
X117303697Y-72257948D01*
X117146127Y-72401593D01*
X117017636Y-72571740D01*
X116922594Y-72762612D01*
X116922593Y-72762614D01*
X116864243Y-72967694D01*
X116844571Y-73179995D01*
X116844571Y-73180004D01*
X116864243Y-73392305D01*
X116922593Y-73597385D01*
X116922594Y-73597387D01*
X117017636Y-73788259D01*
X117146127Y-73958406D01*
X117303697Y-74102051D01*
X117303698Y-74102052D01*
X117484977Y-74214296D01*
X117484983Y-74214299D01*
X117572189Y-74248082D01*
X117683802Y-74291321D01*
X117893390Y-74330500D01*
X117893393Y-74330500D01*
X118106607Y-74330500D01*
X118106610Y-74330500D01*
X118316198Y-74291321D01*
X118515019Y-74214298D01*
X118696302Y-74102052D01*
X118853872Y-73958407D01*
X118982366Y-73788255D01*
X119077405Y-73597389D01*
X119135756Y-73392310D01*
X119155429Y-73180000D01*
X119135756Y-72967690D01*
X119077405Y-72762611D01*
X118982366Y-72571745D01*
X118982364Y-72571743D01*
X118982363Y-72571740D01*
X118853872Y-72401593D01*
X118696302Y-72257948D01*
X118696301Y-72257947D01*
X118515022Y-72145703D01*
X118515016Y-72145700D01*
X118316204Y-72068681D01*
X118316200Y-72068680D01*
X118316198Y-72068679D01*
X118250846Y-72056462D01*
X118181284Y-72023151D01*
X118137696Y-71959521D01*
X118131763Y-71882621D01*
X118165075Y-71813058D01*
X118228705Y-71769470D01*
X118250843Y-71763537D01*
X118316198Y-71751321D01*
X118515019Y-71674298D01*
X118696302Y-71562052D01*
X118853872Y-71418407D01*
X118982366Y-71248255D01*
X119077405Y-71057389D01*
X119135756Y-70852310D01*
X119155429Y-70640000D01*
X119135756Y-70427690D01*
X119077405Y-70222611D01*
X118982366Y-70031745D01*
X118982364Y-70031743D01*
X118982363Y-70031740D01*
X118853872Y-69861593D01*
X118696302Y-69717948D01*
X118696301Y-69717947D01*
X118515022Y-69605703D01*
X118515016Y-69605700D01*
X118316204Y-69528681D01*
X118316200Y-69528680D01*
X118316198Y-69528679D01*
X118250846Y-69516462D01*
X118181284Y-69483151D01*
X118137696Y-69419521D01*
X118131763Y-69342621D01*
X118165075Y-69273058D01*
X118228705Y-69229470D01*
X118250843Y-69223537D01*
X118316198Y-69211321D01*
X118515019Y-69134298D01*
X118696302Y-69022052D01*
X118853872Y-68878407D01*
X118982366Y-68708255D01*
X119077405Y-68517389D01*
X119135756Y-68312310D01*
X119155429Y-68100000D01*
X119135756Y-67887690D01*
X119077405Y-67682611D01*
X118982366Y-67491745D01*
X118982364Y-67491743D01*
X118982363Y-67491740D01*
X118853872Y-67321593D01*
X118696302Y-67177948D01*
X118696301Y-67177947D01*
X118515022Y-67065703D01*
X118515016Y-67065700D01*
X118316204Y-66988681D01*
X118316200Y-66988680D01*
X118316198Y-66988679D01*
X118250846Y-66976462D01*
X118181284Y-66943151D01*
X118137696Y-66879521D01*
X118131763Y-66802621D01*
X118165075Y-66733058D01*
X118228705Y-66689470D01*
X118250843Y-66683537D01*
X118316198Y-66671321D01*
X118515019Y-66594298D01*
X118696302Y-66482052D01*
X118853872Y-66338407D01*
X118982366Y-66168255D01*
X119077405Y-65977389D01*
X119135756Y-65772310D01*
X119150595Y-65612171D01*
X119155429Y-65560004D01*
X119155429Y-65559995D01*
X119137805Y-65369807D01*
X119135756Y-65347690D01*
X119077405Y-65142611D01*
X118982366Y-64951745D01*
X118982364Y-64951743D01*
X118982363Y-64951740D01*
X118853872Y-64781593D01*
X118696302Y-64637948D01*
X118696301Y-64637947D01*
X118515022Y-64525703D01*
X118515016Y-64525700D01*
X118316204Y-64448681D01*
X118316200Y-64448680D01*
X118316198Y-64448679D01*
X118250846Y-64436462D01*
X118181284Y-64403151D01*
X118137696Y-64339521D01*
X118131763Y-64262621D01*
X118165075Y-64193058D01*
X118228705Y-64149470D01*
X118250843Y-64143537D01*
X118316198Y-64131321D01*
X118515019Y-64054298D01*
X118696302Y-63942052D01*
X118853872Y-63798407D01*
X118982366Y-63628255D01*
X119077405Y-63437389D01*
X119135756Y-63232310D01*
X119155429Y-63020000D01*
X119135756Y-62807690D01*
X119077405Y-62602611D01*
X118982366Y-62411745D01*
X118982364Y-62411743D01*
X118982363Y-62411740D01*
X118853872Y-62241593D01*
X118696302Y-62097948D01*
X118696301Y-62097947D01*
X118515022Y-61985703D01*
X118515016Y-61985700D01*
X118316204Y-61908681D01*
X118316200Y-61908680D01*
X118316198Y-61908679D01*
X118250846Y-61896462D01*
X118181284Y-61863151D01*
X118137696Y-61799521D01*
X118131763Y-61722621D01*
X118165075Y-61653058D01*
X118228705Y-61609470D01*
X118250843Y-61603537D01*
X118316198Y-61591321D01*
X118515019Y-61514298D01*
X118696302Y-61402052D01*
X118853872Y-61258407D01*
X118982366Y-61088255D01*
X119077405Y-60897389D01*
X119135756Y-60692310D01*
X119155429Y-60480000D01*
X119135756Y-60267690D01*
X119077405Y-60062611D01*
X118982366Y-59871745D01*
X118982364Y-59871743D01*
X118982363Y-59871740D01*
X118853872Y-59701593D01*
X118696302Y-59557948D01*
X118696301Y-59557947D01*
X118515022Y-59445703D01*
X118515016Y-59445700D01*
X118316204Y-59368681D01*
X118316200Y-59368680D01*
X118316198Y-59368679D01*
X118250846Y-59356462D01*
X118181284Y-59323151D01*
X118137696Y-59259521D01*
X118131763Y-59182621D01*
X118165075Y-59113058D01*
X118228705Y-59069470D01*
X118250843Y-59063537D01*
X118316198Y-59051321D01*
X118515019Y-58974298D01*
X118696302Y-58862052D01*
X118853872Y-58718407D01*
X118982366Y-58548255D01*
X119077405Y-58357389D01*
X119135756Y-58152310D01*
X119149823Y-58000499D01*
X119155429Y-57940004D01*
X119155429Y-57939995D01*
X119139520Y-57768312D01*
X119135756Y-57727690D01*
X119077405Y-57522611D01*
X118982366Y-57331745D01*
X118982364Y-57331743D01*
X118982363Y-57331740D01*
X118853872Y-57161593D01*
X118724360Y-57043526D01*
X118682752Y-56978583D01*
X118679191Y-56901537D01*
X118714629Y-56833033D01*
X118779572Y-56791425D01*
X118856618Y-56787864D01*
X118899240Y-56804376D01*
X118993456Y-56858771D01*
X118993457Y-56858771D01*
X118993460Y-56858773D01*
X119163074Y-56929027D01*
X119340408Y-56976541D01*
X119522426Y-57000501D01*
X119614220Y-57000500D01*
X121563846Y-57000500D01*
X121638346Y-57020462D01*
X121692884Y-57075000D01*
X121712846Y-57149500D01*
X121711571Y-57168948D01*
X121694318Y-57299997D01*
X121694318Y-57300002D01*
X121714954Y-57456757D01*
X121775463Y-57602840D01*
X121865718Y-57720462D01*
X121871718Y-57728282D01*
X121997159Y-57824536D01*
X122143238Y-57885044D01*
X122143241Y-57885044D01*
X122143243Y-57885045D01*
X122143240Y-57885045D01*
X122299997Y-57905682D01*
X122300000Y-57905682D01*
X122300003Y-57905682D01*
X122456757Y-57885045D01*
X122456758Y-57885044D01*
X122456762Y-57885044D01*
X122602841Y-57824536D01*
X122724362Y-57731290D01*
X122795619Y-57701775D01*
X122815067Y-57700500D01*
X131384933Y-57700500D01*
X131459433Y-57720462D01*
X131475638Y-57731290D01*
X131597159Y-57824536D01*
X131743238Y-57885044D01*
X131743241Y-57885044D01*
X131743243Y-57885045D01*
X131743240Y-57885045D01*
X131899997Y-57905682D01*
X131900000Y-57905682D01*
X131900003Y-57905682D01*
X131987627Y-57894146D01*
X132064095Y-57904213D01*
X132125285Y-57951166D01*
X132154800Y-58022423D01*
X132147089Y-58092831D01*
X132129900Y-58140056D01*
X132129899Y-58140059D01*
X132119244Y-58200490D01*
X132099500Y-58312468D01*
X132099500Y-58312471D01*
X132099500Y-63778469D01*
X132098783Y-63793072D01*
X132089420Y-63888145D01*
X132083722Y-63916793D01*
X132058128Y-64001169D01*
X132046950Y-64028155D01*
X132005387Y-64105916D01*
X131989159Y-64130203D01*
X131928619Y-64203972D01*
X131918799Y-64214807D01*
X115844579Y-80289027D01*
X115844262Y-80289387D01*
X115752550Y-80381099D01*
X115752547Y-80381103D01*
X115505551Y-80675455D01*
X115505550Y-80675457D01*
X115285140Y-80990229D01*
X115285137Y-80990233D01*
X115093019Y-81322986D01*
X115093010Y-81323003D01*
X114930609Y-81671262D01*
X114799185Y-82032337D01*
X114699729Y-82403497D01*
X114699725Y-82403513D01*
X114632998Y-82781914D01*
X114632997Y-82781924D01*
X114632997Y-82781925D01*
X114605513Y-83096031D01*
X114599502Y-83164722D01*
X114599501Y-83164728D01*
X114599500Y-83304125D01*
X114599500Y-97452729D01*
X114626794Y-97554591D01*
X114679515Y-97645906D01*
X114679518Y-97645910D01*
X114679520Y-97645913D01*
X114990364Y-97956757D01*
X115252596Y-98218989D01*
X115291160Y-98285784D01*
X115294962Y-98304899D01*
X115314954Y-98456758D01*
X115375463Y-98602840D01*
X115375464Y-98602841D01*
X115471718Y-98728282D01*
X115597159Y-98824536D01*
X115743238Y-98885044D01*
X115743241Y-98885044D01*
X115743243Y-98885045D01*
X115743240Y-98885045D01*
X115899997Y-98905682D01*
X115900000Y-98905682D01*
X115900003Y-98905682D01*
X116056757Y-98885045D01*
X116056758Y-98885044D01*
X116056762Y-98885044D01*
X116202841Y-98824536D01*
X116328282Y-98728282D01*
X116424536Y-98602841D01*
X116485044Y-98456762D01*
X116505682Y-98300000D01*
X116505682Y-98299997D01*
X116485045Y-98143242D01*
X116485044Y-98143240D01*
X116485044Y-98143238D01*
X116424536Y-97997159D01*
X116328282Y-97871718D01*
X116202841Y-97775464D01*
X116202840Y-97775463D01*
X116056758Y-97714954D01*
X115904899Y-97694962D01*
X115833642Y-97665447D01*
X115818989Y-97652596D01*
X115444141Y-97277748D01*
X115405577Y-97210953D01*
X115400500Y-97172389D01*
X115400500Y-83360498D01*
X115400680Y-83353185D01*
X115404677Y-83271845D01*
X115417477Y-83011351D01*
X115418907Y-82996823D01*
X115468599Y-82661856D01*
X115471446Y-82647549D01*
X115553727Y-82319078D01*
X115557963Y-82305110D01*
X115672050Y-81986269D01*
X115677631Y-81972796D01*
X115822417Y-81666680D01*
X115829292Y-81653817D01*
X116003391Y-81363356D01*
X116011497Y-81351226D01*
X116213208Y-81079255D01*
X116222482Y-81067956D01*
X116292931Y-80990229D01*
X116452797Y-80813846D01*
X116457797Y-80808594D01*
X132437322Y-64829068D01*
X132437327Y-64829065D01*
X132446659Y-64819734D01*
X132446694Y-64819713D01*
X132490312Y-64776092D01*
X132490313Y-64776093D01*
X132555220Y-64711184D01*
X132666980Y-64565533D01*
X132758773Y-64406540D01*
X132829027Y-64236926D01*
X132876541Y-64059592D01*
X132900501Y-63877574D01*
X132900500Y-63785780D01*
X132900500Y-62132479D01*
X132920462Y-62057979D01*
X132975000Y-62003441D01*
X133049500Y-61983479D01*
X133098713Y-61991841D01*
X133115301Y-61997646D01*
X133145734Y-62000500D01*
X133275500Y-62000500D01*
X133350000Y-62020462D01*
X133404538Y-62075000D01*
X133424500Y-62149500D01*
X133424500Y-64941703D01*
X133424181Y-64951446D01*
X133411457Y-65145611D01*
X133408913Y-65164935D01*
X133371908Y-65350982D01*
X133366864Y-65369807D01*
X133305891Y-65549436D01*
X133298434Y-65567439D01*
X133255600Y-65654301D01*
X133214536Y-65737574D01*
X133204791Y-65754453D01*
X133099400Y-65912185D01*
X133087535Y-65927648D01*
X132959440Y-66073715D01*
X132952778Y-66080828D01*
X132924038Y-66109570D01*
X132924034Y-66109574D01*
X117414932Y-81618673D01*
X117414839Y-81618726D01*
X117252336Y-81781231D01*
X117252333Y-81781235D01*
X117040374Y-82039514D01*
X116854757Y-82317317D01*
X116854755Y-82317320D01*
X116697259Y-82611983D01*
X116569402Y-82920667D01*
X116472417Y-83240401D01*
X116407243Y-83568077D01*
X116407242Y-83568082D01*
X116407242Y-83568085D01*
X116382993Y-83814333D01*
X116374498Y-83900594D01*
X116374500Y-84067636D01*
X116374500Y-88884932D01*
X116354538Y-88959432D01*
X116343710Y-88975637D01*
X116250463Y-89097159D01*
X116189954Y-89243242D01*
X116169318Y-89399997D01*
X116169318Y-89400002D01*
X116189954Y-89556757D01*
X116250463Y-89702840D01*
X116250464Y-89702841D01*
X116346718Y-89828282D01*
X116472159Y-89924536D01*
X116618238Y-89985044D01*
X116618241Y-89985044D01*
X116618243Y-89985045D01*
X116618240Y-89985045D01*
X116774997Y-90005682D01*
X116775000Y-90005682D01*
X116775003Y-90005682D01*
X116931757Y-89985045D01*
X116931758Y-89985044D01*
X116931762Y-89985044D01*
X117077841Y-89924536D01*
X117203282Y-89828282D01*
X117299536Y-89702841D01*
X117299841Y-89702103D01*
X117300328Y-89701468D01*
X117304420Y-89694382D01*
X117305352Y-89694920D01*
X117346793Y-89640913D01*
X117418050Y-89611397D01*
X117494518Y-89621463D01*
X117555709Y-89668415D01*
X117575158Y-89702102D01*
X117575464Y-89702841D01*
X117671718Y-89828282D01*
X117797159Y-89924536D01*
X117943238Y-89985044D01*
X117943241Y-89985044D01*
X117943243Y-89985045D01*
X117943240Y-89985045D01*
X118099997Y-90005682D01*
X118100000Y-90005682D01*
X118100003Y-90005682D01*
X118256757Y-89985045D01*
X118256758Y-89985044D01*
X118256762Y-89985044D01*
X118402841Y-89924536D01*
X118528282Y-89828282D01*
X118624536Y-89702841D01*
X118624536Y-89702840D01*
X118630481Y-89695093D01*
X118632983Y-89697013D01*
X118675482Y-89654503D01*
X118749979Y-89634530D01*
X118824482Y-89654482D01*
X118867021Y-89697009D01*
X118869519Y-89695093D01*
X118875463Y-89702840D01*
X118875464Y-89702841D01*
X118971718Y-89828282D01*
X119097159Y-89924536D01*
X119243238Y-89985044D01*
X119243241Y-89985044D01*
X119243243Y-89985045D01*
X119243240Y-89985045D01*
X119399997Y-90005682D01*
X119400000Y-90005682D01*
X119400003Y-90005682D01*
X119556757Y-89985045D01*
X119556758Y-89985044D01*
X119556762Y-89985044D01*
X119702841Y-89924536D01*
X119828282Y-89828282D01*
X119924536Y-89702841D01*
X119985044Y-89556762D01*
X120005682Y-89400000D01*
X119985044Y-89243238D01*
X119924536Y-89097159D01*
X119831290Y-88975637D01*
X119801775Y-88904379D01*
X119800500Y-88884932D01*
X119800500Y-83521530D01*
X119801217Y-83506928D01*
X119809538Y-83422429D01*
X119810580Y-83411847D01*
X119816274Y-83383217D01*
X119841873Y-83298823D01*
X119853049Y-83271845D01*
X119869852Y-83240408D01*
X119894614Y-83194078D01*
X119910833Y-83169804D01*
X119971384Y-83096020D01*
X119981186Y-83085205D01*
X137620143Y-65446249D01*
X137686936Y-65407687D01*
X137764064Y-65407687D01*
X137830859Y-65446251D01*
X137869423Y-65513046D01*
X137874500Y-65551610D01*
X137874500Y-91387043D01*
X137874499Y-91387061D01*
X137874499Y-91453181D01*
X137874265Y-91461533D01*
X137858784Y-91737266D01*
X137856913Y-91753870D01*
X137811360Y-92021999D01*
X137807642Y-92038290D01*
X137732354Y-92299631D01*
X137726836Y-92315402D01*
X137622758Y-92566676D01*
X137615508Y-92581731D01*
X137483951Y-92819772D01*
X137475062Y-92833920D01*
X137317680Y-93055733D01*
X137307266Y-93068792D01*
X137123589Y-93274329D01*
X137117847Y-93280403D01*
X133240293Y-97157957D01*
X133173498Y-97196521D01*
X133154382Y-97200323D01*
X133043242Y-97214954D01*
X132897159Y-97275463D01*
X132771718Y-97371717D01*
X132771717Y-97371718D01*
X132675463Y-97497159D01*
X132614954Y-97643242D01*
X132594318Y-97799997D01*
X132594318Y-97800002D01*
X132614954Y-97956757D01*
X132675463Y-98102840D01*
X132706465Y-98143242D01*
X132771718Y-98228282D01*
X132897159Y-98324536D01*
X133043238Y-98385044D01*
X133043241Y-98385044D01*
X133043243Y-98385045D01*
X133043240Y-98385045D01*
X133199997Y-98405682D01*
X133200000Y-98405682D01*
X133200003Y-98405682D01*
X133356757Y-98385045D01*
X133356758Y-98385044D01*
X133356762Y-98385044D01*
X133502841Y-98324536D01*
X133628282Y-98228282D01*
X133724536Y-98102841D01*
X133785044Y-97956762D01*
X133799677Y-97845610D01*
X133829190Y-97774359D01*
X133842034Y-97759712D01*
X137666672Y-93935075D01*
X137666677Y-93935071D01*
X137678538Y-93923211D01*
X137678632Y-93923156D01*
X137722217Y-93879569D01*
X137722218Y-93879570D01*
X137841212Y-93760574D01*
X138054727Y-93500400D01*
X138241712Y-93220550D01*
X138400367Y-92923720D01*
X138512842Y-92652170D01*
X138559793Y-92590983D01*
X138631050Y-92561466D01*
X138707518Y-92571532D01*
X138768708Y-92618484D01*
X138798225Y-92689741D01*
X138799500Y-92709191D01*
X138799500Y-98995121D01*
X138799181Y-99004867D01*
X138784743Y-99225138D01*
X138782199Y-99244460D01*
X138740088Y-99456168D01*
X138735043Y-99474995D01*
X138665660Y-99679389D01*
X138658202Y-99697395D01*
X138562732Y-99890990D01*
X138552987Y-99907869D01*
X138433062Y-100087349D01*
X138421200Y-100102807D01*
X138388161Y-100140483D01*
X138278879Y-100265096D01*
X138265099Y-100278875D01*
X138102811Y-100421198D01*
X138087349Y-100433062D01*
X137907869Y-100552987D01*
X137890990Y-100562732D01*
X137697395Y-100658202D01*
X137679389Y-100665660D01*
X137474995Y-100735043D01*
X137456168Y-100740088D01*
X137244460Y-100782199D01*
X137225138Y-100784743D01*
X137024993Y-100797861D01*
X137004865Y-100799181D01*
X136995122Y-100799500D01*
X52004878Y-100799500D01*
X51995134Y-100799181D01*
X51972997Y-100797730D01*
X51774861Y-100784743D01*
X51755539Y-100782199D01*
X51543831Y-100740088D01*
X51525004Y-100735043D01*
X51320610Y-100665660D01*
X51302604Y-100658202D01*
X51109009Y-100562732D01*
X51092130Y-100552987D01*
X50912650Y-100433062D01*
X50897199Y-100421206D01*
X50734892Y-100278868D01*
X50721131Y-100265107D01*
X50578791Y-100102798D01*
X50566937Y-100087349D01*
X50447012Y-99907869D01*
X50437267Y-99890990D01*
X50341797Y-99697395D01*
X50334339Y-99679389D01*
X50264956Y-99474995D01*
X50259911Y-99456168D01*
X50217800Y-99244460D01*
X50215256Y-99225137D01*
X50200819Y-99004866D01*
X50200500Y-98995121D01*
X50200500Y-93600000D01*
X52200000Y-93600000D01*
X113400000Y-93600000D01*
X113400000Y-52200000D01*
X52200000Y-52200000D01*
X52200000Y-93600000D01*
X50200500Y-93600000D01*
X50200500Y-52004878D01*
X50200819Y-51995133D01*
X50209294Y-51865826D01*
X50215256Y-51774856D01*
X50217800Y-51755539D01*
X50229047Y-51699000D01*
X50259911Y-51543827D01*
X50264956Y-51525004D01*
X50271064Y-51507012D01*
X50334340Y-51320605D01*
X50341797Y-51302604D01*
X50437270Y-51109002D01*
X50447007Y-51092137D01*
X50566944Y-50912639D01*
X50578785Y-50897208D01*
X50721138Y-50734884D01*
X50734884Y-50721138D01*
X50897208Y-50578785D01*
X50912639Y-50566944D01*
X51092137Y-50447007D01*
X51109002Y-50437270D01*
X51302609Y-50341794D01*
X51320605Y-50334340D01*
X51525008Y-50264954D01*
X51543827Y-50259911D01*
X51755544Y-50217799D01*
X51774856Y-50215256D01*
X51995133Y-50200818D01*
X52004878Y-50200500D01*
X52039882Y-50200500D01*
X117661647Y-50200500D01*
X117736147Y-50220462D01*
G37*
%TD.AperFunction*%
%TA.AperFunction,Conductor*%
G36*
X135876290Y-57384402D02*
G01*
X135937480Y-57431354D01*
X135964866Y-57490388D01*
X135981209Y-57565513D01*
X135984234Y-57586556D01*
X135999120Y-57794680D01*
X135999500Y-57805310D01*
X135999500Y-58825500D01*
X135979538Y-58900000D01*
X135925000Y-58954538D01*
X135850500Y-58974500D01*
X135201997Y-58974500D01*
X135127497Y-58954538D01*
X135072959Y-58900000D01*
X135052997Y-58825500D01*
X135058913Y-58783930D01*
X135097100Y-58652488D01*
X135097296Y-58650000D01*
X133724000Y-58650000D01*
X133649500Y-58630038D01*
X133594962Y-58575500D01*
X133575000Y-58501000D01*
X133575000Y-58349500D01*
X133594962Y-58275000D01*
X133649500Y-58220462D01*
X133724000Y-58200500D01*
X134248830Y-58200500D01*
X134248965Y-58200490D01*
X134277574Y-58200491D01*
X134459590Y-58176531D01*
X134539661Y-58155077D01*
X134578224Y-58150000D01*
X135097296Y-58150000D01*
X135097296Y-58149999D01*
X135097100Y-58147511D01*
X135077952Y-58081603D01*
X135076337Y-58004492D01*
X135113493Y-57936904D01*
X135179466Y-57896949D01*
X135201589Y-57892308D01*
X135256757Y-57885045D01*
X135256758Y-57885044D01*
X135256762Y-57885044D01*
X135402841Y-57824536D01*
X135528282Y-57728282D01*
X135624536Y-57602841D01*
X135681617Y-57465035D01*
X135728564Y-57403852D01*
X135799821Y-57374336D01*
X135876290Y-57384402D01*
G37*
%TD.AperFunction*%
%TD*%
M02*
